<?xml version="1.0" encoding="UTF-8" standalone="no"?>
<!DOCTYPE svg PUBLIC "-//W3C//DTD SVG 1.1//EN"
 "http://www.w3.org/Graphics/SVG/1.1/DTD/svg11.dtd">
<!-- Generated by graphviz version 2.43.0 (0)
 -->
<!-- Title: %3 Pages: 1 -->
<svg width="3110pt" height="1986pt"
 viewBox="0.00 0.00 3109.82 1985.50" xmlns="http://www.w3.org/2000/svg" xmlns:xlink="http://www.w3.org/1999/xlink">
<g id="graph0" class="graph" transform="scale(1 1) rotate(0) translate(4 1981.5)">
<title>%3</title>
<polygon fill="white" stroke="transparent" points="-4,4 -4,-1981.5 3105.82,-1981.5 3105.82,4 -4,4"/>
<text text-anchor="start" x="1163.41" y="-35.8" font-family="Arial" font-size="34.00">Dynamic View: WORKSTATION1 Workflow Backup</text>
<text text-anchor="start" x="908.41" y="-9.8" font-family="Arial" font-size="24.00">First half of a successful hourly run: service start, local status, pre&#45;write guard, and consistent SQLite snapshot creation.</text>
<g id="clust1" class="cluster">
<title>cluster_2</title>
<polygon fill="none" stroke="#444444" points="8,-759.5 8,-1969.5 3093.82,-1969.5 3093.82,-759.5 8,-759.5"/>
<text text-anchor="start" x="1359.91" y="-788.3" font-family="Arial" font-size="24.00" fill="#444444">WORKSTATION1 Workflow Backup</text>
<text text-anchor="start" x="1473.91" y="-768.3" font-family="Arial" font-size="19.00" fill="#444444">[Software System]</text>
</g>
<!-- 15 -->
<g id="15" class="node">
<title>15</title>
<polygon fill="#ecfeff" stroke="#0891b2" points="2143.04,-1517.5 1982.98,-1725.91 1662.84,-1725.91 1502.78,-1517.5 1662.84,-1309.09 1982.98,-1309.09 2143.04,-1517.5"/>
<text text-anchor="start" x="1674.41" y="-1596.8" font-family="Arial" font-size="34.00" fill="#111827">SQLite Snapshotter</text>
<text text-anchor="start" x="1700.91" y="-1574.8" font-family="Arial" font-size="19.00" fill="#111827">[Container: Python 3, sqlite3]</text>
<text text-anchor="start" x="1660.41" y="-1537.8" font-family="Arial" font-size="24.00" fill="#111827">Creates application&#45;consistent</text>
<text text-anchor="start" x="1686.91" y="-1513.8" font-family="Arial" font-size="24.00" fill="#111827">copies of Hermes, lifelog,</text>
<text text-anchor="start" x="1664.91" y="-1489.8" font-family="Arial" font-size="24.00" fill="#111827">browser&#45;memory, and related</text>
<text text-anchor="start" x="1655.91" y="-1465.8" font-family="Arial" font-size="24.00" fill="#111827">SQLite databases using sqlite3</text>
<text text-anchor="start" x="1665.91" y="-1441.8" font-family="Arial" font-size="24.00" fill="#111827">backup API; can quick_check</text>
<text text-anchor="start" x="1784.41" y="-1417.8" font-family="Arial" font-size="24.00" fill="#111827">copies.</text>
</g>
<!-- 21 -->
<g id="21" class="node">
<title>21</title>
<path fill="#fef3c7" stroke="#d97706" d="M3068.82,-1794.22C3068.82,-1814.17 2952.51,-1830.38 2809.32,-1830.38 2666.13,-1830.38 2549.82,-1814.17 2549.82,-1794.22 2549.82,-1794.22 2549.82,-1468.78 2549.82,-1468.78 2549.82,-1448.83 2666.13,-1432.62 2809.32,-1432.62 2952.51,-1432.62 3068.82,-1448.83 3068.82,-1468.78 3068.82,-1468.78 3068.82,-1794.22 3068.82,-1794.22"/>
<path fill="none" stroke="#d97706" d="M3068.82,-1794.22C3068.82,-1774.26 2952.51,-1758.06 2809.32,-1758.06 2666.13,-1758.06 2549.82,-1774.26 2549.82,-1794.22"/>
<text text-anchor="start" x="2642.32" y="-1727.8" font-family="Arial" font-size="34.00" fill="#111827">Run Ledger and Local</text>
<text text-anchor="start" x="2769.32" y="-1693.8" font-family="Arial" font-size="34.00" fill="#111827">State</text>
<text text-anchor="start" x="2582.32" y="-1671.8" font-family="Arial" font-size="19.00" fill="#111827">[Container: SQLite + JSON + logs on WSL filesystem]</text>
<text text-anchor="start" x="2651.32" y="-1634.8" font-family="Arial" font-size="24.00" fill="#111827">Local status, logs, SQLite run</text>
<text text-anchor="start" x="2661.32" y="-1610.8" font-family="Arial" font-size="24.00" fill="#111827">ledger, exported run&#45;history</text>
<text text-anchor="start" x="2642.32" y="-1586.8" font-family="Arial" font-size="24.00" fill="#111827">JSON, SQLite snapshot cache,</text>
<text text-anchor="start" x="2651.82" y="-1562.8" font-family="Arial" font-size="24.00" fill="#111827">and Windows manifest cache</text>
<text text-anchor="start" x="2777.82" y="-1538.8" font-family="Arial" font-size="24.00" fill="#111827">under</text>
<text text-anchor="start" x="2578.82" y="-1514.8" font-family="Arial" font-size="24.00" fill="#111827">~/.local/state/workstation&#45;workflow&#45;backup.</text>
</g>
<!-- 15&#45;&gt;21 -->
<g id="44" class="edge">
<title>15&#45;&gt;21</title>
<path fill="none" stroke="#475569" stroke-dasharray="5,2" d="M2117.27,-1551.47C2251.19,-1566.98 2408.72,-1585.22 2539.53,-1600.37"/>
<polygon fill="#475569" stroke="#475569" points="2539.37,-1603.88 2549.7,-1601.55 2540.17,-1596.92 2539.37,-1603.88"/>
<polygon fill="white" stroke="transparent" points="2263.82,-1594.5 2263.82,-1669.5 2460.82,-1669.5 2460.82,-1594.5 2263.82,-1594.5"/>
<text text-anchor="start" x="2268.32" y="-1646.8" font-family="Arial" font-size="24.00" fill="#475569">7. Write snapshot</text>
<text text-anchor="start" x="2281.32" y="-1622.8" font-family="Arial" font-size="24.00" fill="#475569">manifest/cache</text>
<text text-anchor="start" x="2314.32" y="-1602.8" font-family="Arial" font-size="19.00" fill="#475569">[filesystem]</text>
</g>
<!-- 22 -->
<g id="22" class="node">
<title>22</title>
<path fill="#fef3c7" stroke="#d97706" d="M3016.82,-705.28C3016.82,-721.2 2923.82,-734.13 2809.32,-734.13 2694.82,-734.13 2601.82,-721.2 2601.82,-705.28 2601.82,-705.28 2601.82,-445.72 2601.82,-445.72 2601.82,-429.8 2694.82,-416.87 2809.32,-416.87 2923.82,-416.87 3016.82,-429.8 3016.82,-445.72 3016.82,-445.72 3016.82,-705.28 3016.82,-705.28"/>
<path fill="none" stroke="#d97706" d="M3016.82,-705.28C3016.82,-689.37 2923.82,-676.44 2809.32,-676.44 2694.82,-676.44 2601.82,-689.37 2601.82,-705.28"/>
<text text-anchor="start" x="2630.82" y="-642.8" font-family="Arial" font-size="34.00" fill="#111827">WSL Workflow Sources</text>
<text text-anchor="start" x="2732.32" y="-620.8" font-family="Arial" font-size="19.00" fill="#111827">[Software System]</text>
<text text-anchor="start" x="2655.82" y="-583.8" font-family="Arial" font-size="24.00" fill="#111827">Workflow&#45;critical WSL paths:</text>
<text text-anchor="start" x="2664.32" y="-559.8" font-family="Arial" font-size="24.00" fill="#111827">~/repos, ~/.hermes, ~/.ssh,</text>
<text text-anchor="start" x="2697.82" y="-535.8" font-family="Arial" font-size="24.00" fill="#111827">systemd user config,</text>
<text text-anchor="start" x="2652.82" y="-511.8" font-family="Arial" font-size="24.00" fill="#111827">lifelog/browser&#45;memory data,</text>
<text text-anchor="start" x="2654.32" y="-487.8" font-family="Arial" font-size="24.00" fill="#111827">and optional brain&#45;code tree.</text>
</g>
<!-- 15&#45;&gt;22 -->
<g id="42" class="edge">
<title>15&#45;&gt;22</title>
<path fill="none" stroke="#475569" stroke-dasharray="5,2" d="M2041.07,-1384.2C2087.64,-1350.9 2134.82,-1313.25 2174.82,-1273.5 2380.03,-1069.6 2340.9,-941.59 2549.82,-741.5 2563.43,-728.46 2578.21,-715.86 2593.58,-703.82"/>
<polygon fill="#475569" stroke="#475569" points="2595.89,-706.46 2601.66,-697.58 2591.61,-700.92 2595.89,-706.46"/>
<polygon fill="white" stroke="transparent" points="2254.32,-1225.5 2254.32,-1300.5 2470.32,-1300.5 2470.32,-1225.5 2254.32,-1225.5"/>
<text text-anchor="start" x="2258.32" y="-1277.8" font-family="Arial" font-size="24.00" fill="#475569">6. Read live SQLite</text>
<text text-anchor="start" x="2306.32" y="-1253.8" font-family="Arial" font-size="24.00" fill="#475569">databases</text>
<text text-anchor="start" x="2277.82" y="-1233.8" font-family="Arial" font-size="19.00" fill="#475569">[sqlite3 backup API]</text>
</g>
<!-- 17 -->
<g id="17" class="node">
<title>17</title>
<polygon fill="#ecfeff" stroke="#0891b2" points="2174.73,-1048.5 1998.82,-1237.22 1647,-1237.22 1471.09,-1048.5 1647,-859.78 1998.82,-859.78 2174.73,-1048.5"/>
<text text-anchor="start" x="1676.41" y="-1115.8" font-family="Arial" font-size="34.00" fill="#111827">NAS Growth Guard</text>
<text text-anchor="start" x="1636.41" y="-1093.8" font-family="Arial" font-size="19.00" fill="#111827">[Container: Bash + remote Python + zfs CLI]</text>
<text text-anchor="start" x="1665.91" y="-1056.8" font-family="Arial" font-size="24.00" fill="#111827">Read&#45;only ZFS budget check</text>
<text text-anchor="start" x="1675.41" y="-1032.8" font-family="Arial" font-size="24.00" fill="#111827">that enforces dataset&#45;used,</text>
<text text-anchor="start" x="1655.41" y="-1008.8" font-family="Arial" font-size="24.00" fill="#111827">snapshot&#45;held, free&#45;space, and</text>
<text text-anchor="start" x="1708.91" y="-984.8" font-family="Arial" font-size="24.00" fill="#111827">snapshot&#45;count limits</text>
<text text-anchor="start" x="1721.91" y="-960.8" font-family="Arial" font-size="24.00" fill="#111827">before/after writes.</text>
</g>
<!-- 25 -->
<g id="25" class="node">
<title>25</title>
<polygon fill="#f3e8ff" stroke="#9333ea" points="3016.82,-345 2601.82,-345 2601.82,-80 3016.82,-80 3016.82,-345"/>
<text text-anchor="start" x="2648.32" y="-296.8" font-family="Arial" font-size="34.00" fill="#111827">TrueNAS Middleware</text>
<text text-anchor="start" x="2636.32" y="-262.8" font-family="Arial" font-size="34.00" fill="#111827">and ZFS Control Plane</text>
<text text-anchor="start" x="2732.32" y="-240.8" font-family="Arial" font-size="19.00" fill="#111827">[Software System]</text>
<text text-anchor="start" x="2630.82" y="-203.8" font-family="Arial" font-size="24.00" fill="#111827">root@10.99.98.221 management</text>
<text text-anchor="start" x="2695.82" y="-179.8" font-family="Arial" font-size="24.00" fill="#111827">surface used for ZFS</text>
<text text-anchor="start" x="2664.32" y="-155.8" font-family="Arial" font-size="24.00" fill="#111827">properties, snapshot tasks,</text>
<text text-anchor="start" x="2649.82" y="-131.8" font-family="Arial" font-size="24.00" fill="#111827">SMB share configuration, and</text>
<text text-anchor="start" x="2747.82" y="-107.8" font-family="Arial" font-size="24.00" fill="#111827">verification.</text>
</g>
<!-- 17&#45;&gt;25 -->
<g id="39" class="edge">
<title>17&#45;&gt;25</title>
<path fill="none" stroke="#475569" stroke-dasharray="5,2" d="M2049.51,-913.3C2098.42,-873.41 2144.52,-825.46 2174.82,-770.5 2247.32,-638.97 2118.63,-553.06 2210.82,-434.5 2301.6,-317.75 2460.43,-262.39 2591.53,-236.15"/>
<polygon fill="#475569" stroke="#475569" points="2592.57,-239.51 2601.72,-234.16 2591.23,-232.64 2592.57,-239.51"/>
<polygon fill="white" stroke="transparent" points="2210.82,-434.5 2210.82,-485.5 2513.82,-485.5 2513.82,-434.5 2210.82,-434.5"/>
<text text-anchor="start" x="2215.32" y="-462.8" font-family="Arial" font-size="24.00" fill="#475569">4. Read ZFS budget values</text>
<text text-anchor="start" x="2314.32" y="-442.8" font-family="Arial" font-size="19.00" fill="#475569">[SSH + zfs]</text>
</g>
<!-- 3 -->
<g id="3" class="node">
<title>3</title>
<polygon fill="#e0e7ff" stroke="#4f46e5" points="398,-1474 33,-1474 33,-1209 398,-1209 398,-1474"/>
<text text-anchor="start" x="63.5" y="-1425.8" font-family="Arial" font-size="34.00" fill="#111827">systemd User Timer</text>
<text text-anchor="start" x="125.5" y="-1391.8" font-family="Arial" font-size="34.00" fill="#111827">and Service</text>
<text text-anchor="start" x="78.5" y="-1369.8" font-family="Arial" font-size="19.00" fill="#111827">[Container: systemd &#45;&#45;user units]</text>
<text text-anchor="start" x="68.5" y="-1332.8" font-family="Arial" font-size="24.00" fill="#111827">Hourly user&#45;level scheduler</text>
<text text-anchor="start" x="62" y="-1308.8" font-family="Arial" font-size="24.00" fill="#111827">and oneshot service that run</text>
<text text-anchor="start" x="62" y="-1284.8" font-family="Arial" font-size="24.00" fill="#111827">the backup at minute 45 and</text>
<text text-anchor="start" x="111.5" y="-1260.8" font-family="Arial" font-size="24.00" fill="#111827">route failures to the</text>
<text text-anchor="start" x="176" y="-1236.8" font-family="Arial" font-size="24.00" fill="#111827">notifier.</text>
</g>
<!-- 4 -->
<g id="4" class="node">
<title>4</title>
<polygon fill="#e0f2fe" stroke="#0284c7" points="1114,-1481 734,-1481 734,-1202 1114,-1202 1114,-1481"/>
<text text-anchor="start" x="767.5" y="-1432.8" font-family="Arial" font-size="34.00" fill="#111827">Backup Orchestrator</text>
<text text-anchor="start" x="850.5" y="-1410.8" font-family="Arial" font-size="19.00" fill="#111827">[Container: Bash]</text>
<text text-anchor="start" x="779.5" y="-1373.8" font-family="Arial" font-size="24.00" fill="#111827">scripts/workflow&#45;backup.sh</text>
<text text-anchor="start" x="770.5" y="-1349.8" font-family="Arial" font-size="24.00" fill="#111827">coordinates one backup run:</text>
<text text-anchor="start" x="790" y="-1325.8" font-family="Arial" font-size="24.00" fill="#111827">locking, logging, pre/post</text>
<text text-anchor="start" x="784" y="-1301.8" font-family="Arial" font-size="24.00" fill="#111827">guard checks, WSL rsync,</text>
<text text-anchor="start" x="773" y="-1277.8" font-family="Arial" font-size="24.00" fill="#111827">SQLite snapshots, Windows</text>
<text text-anchor="start" x="763" y="-1253.8" font-family="Arial" font-size="24.00" fill="#111827">sync, run&#45;ledger updates, and</text>
<text text-anchor="start" x="785.5" y="-1229.8" font-family="Arial" font-size="24.00" fill="#111827">NAS manifest publication.</text>
</g>
<!-- 3&#45;&gt;4 -->
<g id="35" class="edge">
<title>3&#45;&gt;4</title>
<path fill="none" stroke="#475569" stroke-dasharray="5,2" d="M398.44,-1341.5C498.05,-1341.5 621.64,-1341.5 723.83,-1341.5"/>
<polygon fill="#475569" stroke="#475569" points="723.97,-1345 733.97,-1341.5 723.97,-1338 723.97,-1345"/>
<polygon fill="white" stroke="transparent" points="434,-1341.5 434,-1416.5 698,-1416.5 698,-1341.5 434,-1341.5"/>
<text text-anchor="start" x="438" y="-1393.8" font-family="Arial" font-size="24.00" fill="#475569">1. Start oneshot backup</text>
<text text-anchor="start" x="527.5" y="-1369.8" font-family="Arial" font-size="24.00" fill="#475569">service</text>
<text text-anchor="start" x="498" y="-1349.8" font-family="Arial" font-size="19.00" fill="#475569">[systemd &#45;&#45;user]</text>
</g>
<!-- 4&#45;&gt;15 -->
<g id="41" class="edge">
<title>4&#45;&gt;15</title>
<path fill="none" stroke="#475569" stroke-dasharray="5,2" d="M1114.12,-1378.61C1236.08,-1402.54 1397.03,-1434.13 1534.64,-1461.13"/>
<polygon fill="#475569" stroke="#475569" points="1534.01,-1464.57 1544.5,-1463.06 1535.36,-1457.7 1534.01,-1464.57"/>
<polygon fill="white" stroke="transparent" points="1162,-1439.5 1162,-1514.5 1423,-1514.5 1423,-1439.5 1162,-1439.5"/>
<text text-anchor="start" x="1166.5" y="-1491.8" font-family="Arial" font-size="24.00" fill="#475569">5. Snapshot live SQLite</text>
<text text-anchor="start" x="1270" y="-1467.8" font-family="Arial" font-size="24.00" fill="#475569">DBs</text>
<text text-anchor="start" x="1238.5" y="-1447.8" font-family="Arial" font-size="19.00" fill="#475569">[subprocess]</text>
</g>
<!-- 4&#45;&gt;17 -->
<g id="38" class="edge">
<title>4&#45;&gt;17</title>
<path fill="none" stroke="#475569" stroke-dasharray="5,2" d="M1114.12,-1279.72C1238.59,-1239.06 1403.67,-1185.13 1543.1,-1139.58"/>
<polygon fill="#475569" stroke="#475569" points="1544.25,-1142.89 1552.66,-1136.46 1542.07,-1136.23 1544.25,-1142.89"/>
<polygon fill="white" stroke="transparent" points="1167.5,-1262.5 1167.5,-1313.5 1417.5,-1313.5 1417.5,-1262.5 1167.5,-1262.5"/>
<text text-anchor="start" x="1171.5" y="-1290.8" font-family="Arial" font-size="24.00" fill="#475569">3. Run pre&#45;write guard</text>
<text text-anchor="start" x="1238" y="-1270.8" font-family="Arial" font-size="19.00" fill="#475569">[subprocess]</text>
</g>
<!-- 4&#45;&gt;21 -->
<g id="37" class="edge">
<title>4&#45;&gt;21</title>
<path fill="none" stroke="#475569" stroke-dasharray="5,2" d="M1051.84,-1481.13C1153.67,-1581.79 1306.42,-1708.81 1471,-1761.5 1828.47,-1875.94 2264.89,-1795.16 2539.79,-1719.36"/>
<polygon fill="#475569" stroke="#475569" points="2540.8,-1722.71 2549.5,-1716.67 2538.93,-1715.97 2540.8,-1722.71"/>
<polygon fill="white" stroke="transparent" points="1692.41,-1818.5 1692.41,-1893.5 1953.41,-1893.5 1953.41,-1818.5 1692.41,-1818.5"/>
<text text-anchor="start" x="1696.91" y="-1870.8" font-family="Arial" font-size="24.00" fill="#475569">2. Record started event</text>
<text text-anchor="start" x="1752.91" y="-1846.8" font-family="Arial" font-size="24.00" fill="#475569">and open log</text>
<text text-anchor="start" x="1736.41" y="-1826.8" font-family="Arial" font-size="19.00" fill="#475569">[filesystem + sqlite3]</text>
</g>
<!-- 24 -->
<g id="24" class="node">
<title>24</title>
<path fill="#fef3c7" stroke="#d97706" d="M2006.41,-701.72C2006.41,-720.01 1924.16,-734.88 1822.91,-734.88 1721.66,-734.88 1639.41,-720.01 1639.41,-701.72 1639.41,-701.72 1639.41,-403.28 1639.41,-403.28 1639.41,-384.99 1721.66,-370.12 1822.91,-370.12 1924.16,-370.12 2006.41,-384.99 2006.41,-403.28 2006.41,-403.28 2006.41,-701.72 2006.41,-701.72"/>
<path fill="none" stroke="#d97706" d="M2006.41,-701.72C2006.41,-683.42 1924.16,-668.56 1822.91,-668.56 1721.66,-668.56 1639.41,-683.42 1639.41,-701.72"/>
<text text-anchor="start" x="1691.91" y="-636.8" font-family="Arial" font-size="34.00" fill="#111827">TrueNAS Backup</text>
<text text-anchor="start" x="1763.91" y="-602.8" font-family="Arial" font-size="34.00" fill="#111827">Dataset</text>
<text text-anchor="start" x="1745.91" y="-580.8" font-family="Arial" font-size="19.00" fill="#111827">[Software System]</text>
<text text-anchor="start" x="1673.41" y="-543.8" font-family="Arial" font-size="24.00" fill="#111827">Encrypted TrueNAS dataset</text>
<text text-anchor="start" x="1668.41" y="-519.8" font-family="Arial" font-size="24.00" fill="#111827">v1/ws1/wf with current mirror</text>
<text text-anchor="start" x="1676.91" y="-495.8" font-family="Arial" font-size="24.00" fill="#111827">tree, manifests, SMB share</text>
<text text-anchor="start" x="1679.41" y="-471.8" font-family="Arial" font-size="24.00" fill="#111827">ws1&#45;wf, and ZFS snapshot</text>
<text text-anchor="start" x="1784.41" y="-447.8" font-family="Arial" font-size="24.00" fill="#111827">history.</text>
</g>
<!-- 4&#45;&gt;24 -->
<g id="46" class="edge">
<title>4&#45;&gt;24</title>
<path fill="none" stroke="#475569" stroke-dasharray="5,2" d="M1028.41,-1201.87C1130.33,-1071.11 1295.86,-876.19 1471,-741.5 1519.58,-704.14 1576.55,-670.01 1630.29,-641.34"/>
<polygon fill="#475569" stroke="#475569" points="1632.03,-644.38 1639.23,-636.61 1628.76,-638.19 1632.03,-644.38"/>
<polygon fill="white" stroke="transparent" points="1150,-1047.5 1150,-1122.5 1435,-1122.5 1435,-1047.5 1150,-1047.5"/>
<text text-anchor="start" x="1154.5" y="-1099.8" font-family="Arial" font-size="24.00" fill="#475569">8. Mirror SQLite snapshot</text>
<text text-anchor="start" x="1271.5" y="-1075.8" font-family="Arial" font-size="24.00" fill="#475569">tree</text>
<text text-anchor="start" x="1196.5" y="-1055.8" font-family="Arial" font-size="19.00" fill="#475569">[SSH rsync + SSH cat]</text>
</g>
</g>
</svg>
