<?xml version="1.0" encoding="UTF-8" standalone="no"?>
<!DOCTYPE svg PUBLIC "-//W3C//DTD SVG 1.1//EN"
 "http://www.w3.org/Graphics/SVG/1.1/DTD/svg11.dtd">
<!-- Generated by graphviz version 2.43.0 (0)
 -->
<!-- Title: %3 Pages: 1 -->
<svg width="3217pt" height="2293pt"
 viewBox="0.00 0.00 3216.82 2292.50" xmlns="http://www.w3.org/2000/svg" xmlns:xlink="http://www.w3.org/1999/xlink">
<g id="graph0" class="graph" transform="scale(1 1) rotate(0) translate(4 2288.5)">
<title>%3</title>
<polygon fill="white" stroke="transparent" points="-4,4 -4,-2288.5 3212.82,-2288.5 3212.82,4 -4,4"/>
<text text-anchor="start" x="1024.41" y="-35.8" font-family="Arial" font-size="34.00">Component View: WORKSTATION1 Workflow Backup &#45; Backup Orchestrator</text>
<text text-anchor="start" x="912.41" y="-9.8" font-family="Arial" font-size="24.00">C3: workflow&#45;backup.sh control path for argument handling, locking, status, ledger, guard checks, publication, and error handling.</text>
<g id="clust1" class="cluster">
<title>cluster_2</title>
<polygon fill="none" stroke="#444444" points="8,-806.5 8,-2276.5 3200.82,-2276.5 3200.82,-806.5 8,-806.5"/>
<text text-anchor="start" x="1413.41" y="-835.3" font-family="Arial" font-size="24.00" fill="#444444">WORKSTATION1 Workflow Backup</text>
<text text-anchor="start" x="1527.41" y="-815.3" font-family="Arial" font-size="19.00" fill="#444444">[Software System]</text>
</g>
<g id="clust2" class="cluster">
<title>cluster_4</title>
<polygon fill="none" stroke="#444444" points="33,-1309.5 33,-2251.5 2159.91,-2251.5 2159.91,-1309.5 33,-1309.5"/>
<text text-anchor="start" x="984.96" y="-1338.3" font-family="Arial" font-size="24.00" fill="#444444">Backup Orchestrator</text>
<text text-anchor="start" x="1022.96" y="-1318.3" font-family="Arial" font-size="19.00" fill="#444444">[Container: Bash]</text>
</g>
<!-- 24 -->
<g id="24" class="node">
<title>24</title>
<path fill="#fef3c7" stroke="#d97706" d="M3099.82,-748.72C3099.82,-767.01 3017.57,-781.88 2916.32,-781.88 2815.07,-781.88 2732.82,-767.01 2732.82,-748.72 2732.82,-748.72 2732.82,-450.28 2732.82,-450.28 2732.82,-431.99 2815.07,-417.12 2916.32,-417.12 3017.57,-417.12 3099.82,-431.99 3099.82,-450.28 3099.82,-450.28 3099.82,-748.72 3099.82,-748.72"/>
<path fill="none" stroke="#d97706" d="M3099.82,-748.72C3099.82,-730.42 3017.57,-715.56 2916.32,-715.56 2815.07,-715.56 2732.82,-730.42 2732.82,-748.72"/>
<text text-anchor="start" x="2785.32" y="-683.8" font-family="Arial" font-size="34.00" fill="#111827">TrueNAS Backup</text>
<text text-anchor="start" x="2857.32" y="-649.8" font-family="Arial" font-size="34.00" fill="#111827">Dataset</text>
<text text-anchor="start" x="2839.32" y="-627.8" font-family="Arial" font-size="19.00" fill="#111827">[Software System]</text>
<text text-anchor="start" x="2766.82" y="-590.8" font-family="Arial" font-size="24.00" fill="#111827">Encrypted TrueNAS dataset</text>
<text text-anchor="start" x="2761.82" y="-566.8" font-family="Arial" font-size="24.00" fill="#111827">v1/ws1/wf with current mirror</text>
<text text-anchor="start" x="2770.32" y="-542.8" font-family="Arial" font-size="24.00" fill="#111827">tree, manifests, SMB share</text>
<text text-anchor="start" x="2772.82" y="-518.8" font-family="Arial" font-size="24.00" fill="#111827">ws1&#45;wf, and ZFS snapshot</text>
<text text-anchor="start" x="2877.82" y="-494.8" font-family="Arial" font-size="24.00" fill="#111827">history.</text>
</g>
<!-- 25 -->
<g id="25" class="node">
<title>25</title>
<polygon fill="#f3e8ff" stroke="#9333ea" points="3123.82,-345 2708.82,-345 2708.82,-80 3123.82,-80 3123.82,-345"/>
<text text-anchor="start" x="2755.32" y="-296.8" font-family="Arial" font-size="34.00" fill="#111827">TrueNAS Middleware</text>
<text text-anchor="start" x="2743.32" y="-262.8" font-family="Arial" font-size="34.00" fill="#111827">and ZFS Control Plane</text>
<text text-anchor="start" x="2839.32" y="-240.8" font-family="Arial" font-size="19.00" fill="#111827">[Software System]</text>
<text text-anchor="start" x="2737.82" y="-203.8" font-family="Arial" font-size="24.00" fill="#111827">root@10.99.98.221 management</text>
<text text-anchor="start" x="2802.82" y="-179.8" font-family="Arial" font-size="24.00" fill="#111827">surface used for ZFS</text>
<text text-anchor="start" x="2771.32" y="-155.8" font-family="Arial" font-size="24.00" fill="#111827">properties, snapshot tasks,</text>
<text text-anchor="start" x="2756.82" y="-131.8" font-family="Arial" font-size="24.00" fill="#111827">SMB share configuration, and</text>
<text text-anchor="start" x="2854.82" y="-107.8" font-family="Arial" font-size="24.00" fill="#111827">verification.</text>
</g>
<!-- 13 -->
<g id="13" class="node">
<title>13</title>
<polygon fill="#f0fdf4" stroke="#22c55e" points="2119.91,-1617 1733.91,-1617 1733.91,-1410 2119.91,-1410 2119.91,-1617"/>
<text text-anchor="start" x="1762.91" y="-1568.8" font-family="Arial" font-size="34.00" fill="#111827">NAS Status Publisher</text>
<text text-anchor="start" x="1791.91" y="-1546.8" font-family="Arial" font-size="19.00" fill="#111827">[Component: Python + SSH cat]</text>
<text text-anchor="start" x="1793.91" y="-1509.8" font-family="Arial" font-size="24.00" fill="#111827">Exports the run ledger to</text>
<text text-anchor="start" x="1772.41" y="-1485.8" font-family="Arial" font-size="24.00" fill="#111827">JSON/SQLite snapshots and</text>
<text text-anchor="start" x="1790.41" y="-1461.8" font-family="Arial" font-size="24.00" fill="#111827">writes last&#45;run/run&#45;history</text>
<text text-anchor="start" x="1830.41" y="-1437.8" font-family="Arial" font-size="24.00" fill="#111827">manifests to NAS.</text>
</g>
<!-- 13&#45;&gt;24 -->
<g id="81" class="edge">
<title>13&#45;&gt;24</title>
<path fill="none" stroke="#475569" stroke-dasharray="5,2" d="M2120.09,-1497.81C2180.05,-1482.97 2240.47,-1455.74 2278.82,-1406.5 2329.47,-1341.47 2258.34,-725.54 2314.82,-665.5 2416.31,-557.63 2588.56,-548.68 2722.62,-562.35"/>
<polygon fill="#475569" stroke="#475569" points="2722.29,-565.83 2732.61,-563.42 2723.04,-558.87 2722.29,-565.83"/>
<polygon fill="white" stroke="transparent" points="2332.32,-665.5 2332.32,-788.5 2603.32,-788.5 2603.32,-665.5 2332.32,-665.5"/>
<text text-anchor="start" x="2415.82" y="-765.8" font-family="Arial" font-size="24.00" fill="#475569">Publishes</text>
<text text-anchor="start" x="2336.82" y="-741.8" font-family="Arial" font-size="24.00" fill="#475569">_manifests/last&#45;run.json,</text>
<text text-anchor="start" x="2379.32" y="-717.8" font-family="Arial" font-size="24.00" fill="#475569">runs.sqlite3, and</text>
<text text-anchor="start" x="2372.32" y="-693.8" font-family="Arial" font-size="24.00" fill="#475569">run&#45;history.json to</text>
<text text-anchor="start" x="2427.82" y="-673.8" font-family="Arial" font-size="19.00" fill="#475569">[SSH cat]</text>
</g>
<!-- 21 -->
<g id="21" class="node">
<title>21</title>
<path fill="#fef3c7" stroke="#d97706" d="M3175.82,-1972.22C3175.82,-1992.17 3059.51,-2008.38 2916.32,-2008.38 2773.13,-2008.38 2656.82,-1992.17 2656.82,-1972.22 2656.82,-1972.22 2656.82,-1646.78 2656.82,-1646.78 2656.82,-1626.83 2773.13,-1610.62 2916.32,-1610.62 3059.51,-1610.62 3175.82,-1626.83 3175.82,-1646.78 3175.82,-1646.78 3175.82,-1972.22 3175.82,-1972.22"/>
<path fill="none" stroke="#d97706" d="M3175.82,-1972.22C3175.82,-1952.26 3059.51,-1936.06 2916.32,-1936.06 2773.13,-1936.06 2656.82,-1952.26 2656.82,-1972.22"/>
<text text-anchor="start" x="2749.32" y="-1905.8" font-family="Arial" font-size="34.00" fill="#111827">Run Ledger and Local</text>
<text text-anchor="start" x="2876.32" y="-1871.8" font-family="Arial" font-size="34.00" fill="#111827">State</text>
<text text-anchor="start" x="2689.32" y="-1849.8" font-family="Arial" font-size="19.00" fill="#111827">[Container: SQLite + JSON + logs on WSL filesystem]</text>
<text text-anchor="start" x="2758.32" y="-1812.8" font-family="Arial" font-size="24.00" fill="#111827">Local status, logs, SQLite run</text>
<text text-anchor="start" x="2768.32" y="-1788.8" font-family="Arial" font-size="24.00" fill="#111827">ledger, exported run&#45;history</text>
<text text-anchor="start" x="2749.32" y="-1764.8" font-family="Arial" font-size="24.00" fill="#111827">JSON, SQLite snapshot cache,</text>
<text text-anchor="start" x="2758.82" y="-1740.8" font-family="Arial" font-size="24.00" fill="#111827">and Windows manifest cache</text>
<text text-anchor="start" x="2884.82" y="-1716.8" font-family="Arial" font-size="24.00" fill="#111827">under</text>
<text text-anchor="start" x="2685.82" y="-1692.8" font-family="Arial" font-size="24.00" fill="#111827">~/.local/state/workstation&#45;workflow&#45;backup.</text>
</g>
<!-- 13&#45;&gt;21 -->
<g id="80" class="edge">
<title>13&#45;&gt;21</title>
<path fill="none" stroke="#475569" stroke-dasharray="5,2" d="M2120.14,-1568.65C2259.39,-1608.88 2452.03,-1665.13 2620.82,-1716.5 2629.39,-1719.11 2638.1,-1721.77 2646.88,-1724.47"/>
<polygon fill="#475569" stroke="#475569" points="2645.86,-1727.82 2656.45,-1727.42 2647.92,-1721.13 2645.86,-1727.82"/>
<polygon fill="white" stroke="transparent" points="2325.82,-1716.5 2325.82,-1791.5 2609.82,-1791.5 2609.82,-1716.5 2325.82,-1716.5"/>
<text text-anchor="start" x="2329.82" y="-1768.8" font-family="Arial" font-size="24.00" fill="#475569">Snapshots ledger DB and</text>
<text text-anchor="start" x="2339.82" y="-1744.8" font-family="Arial" font-size="24.00" fill="#475569">exports run history from</text>
<text text-anchor="start" x="2434.32" y="-1724.8" font-family="Arial" font-size="19.00" fill="#475569">[sqlite3]</text>
</g>
<!-- 14 -->
<g id="14" class="node">
<title>14</title>
<polygon fill="#f0fdf4" stroke="#22c55e" points="1194,-1920 795,-1920 795,-1713 1194,-1713 1194,-1920"/>
<text text-anchor="start" x="918" y="-1871.8" font-family="Arial" font-size="34.00" fill="#111827">Error Trap</text>
<text text-anchor="start" x="872" y="-1849.8" font-family="Arial" font-size="19.00" fill="#111827">[Component: Bash ERR trap]</text>
<text text-anchor="start" x="824" y="-1812.8" font-family="Arial" font-size="24.00" fill="#111827">Converts command failures into</text>
<text text-anchor="start" x="853" y="-1788.8" font-family="Arial" font-size="24.00" fill="#111827">failed status, ledger event,</text>
<text text-anchor="start" x="845" y="-1764.8" font-family="Arial" font-size="24.00" fill="#111827">best&#45;effort NAS status sync,</text>
<text text-anchor="start" x="859.5" y="-1740.8" font-family="Arial" font-size="24.00" fill="#111827">and nonzero service exit.</text>
</g>
<!-- 14&#45;&gt;13 -->
<g id="84" class="edge">
<title>14&#45;&gt;13</title>
<path fill="none" stroke="#475569" stroke-dasharray="5,2" d="M1165.49,-1712.64C1176.16,-1701.74 1185.86,-1690.02 1194,-1677.5 1239.43,-1607.64 1165.67,-1546.46 1230,-1493.5 1365.48,-1381.96 1571.12,-1403.37 1723.77,-1442.81"/>
<polygon fill="#475569" stroke="#475569" points="1723.18,-1446.27 1733.75,-1445.43 1724.96,-1439.5 1723.18,-1446.27"/>
<polygon fill="white" stroke="transparent" points="1254,-1493.5 1254,-1553.5 1515,-1553.5 1515,-1493.5 1254,-1493.5"/>
<text text-anchor="start" x="1258.5" y="-1530.3" font-family="Arial" font-size="24.00" fill="#475569">Best&#45;effort syncs failure</text>
<text text-anchor="start" x="1308" y="-1504.3" font-family="Arial" font-size="24.00" fill="#475569">status through</text>
</g>
<!-- 7 -->
<g id="7" class="node">
<title>7</title>
<polygon fill="#f0fdf4" stroke="#22c55e" points="2134.91,-1930 1718.91,-1930 1718.91,-1689 2134.91,-1689 2134.91,-1930"/>
<text text-anchor="start" x="1774.41" y="-1881.8" font-family="Arial" font-size="34.00" fill="#111827">Log and Last&#45;Status</text>
<text text-anchor="start" x="1881.41" y="-1847.8" font-family="Arial" font-size="34.00" fill="#111827">Writer</text>
<text text-anchor="start" x="1747.91" y="-1825.8" font-family="Arial" font-size="19.00" fill="#111827">[Component: Bash + Python JSON helper]</text>
<text text-anchor="start" x="1800.41" y="-1788.8" font-family="Arial" font-size="24.00" fill="#111827">Writes per&#45;run logs and</text>
<text text-anchor="start" x="1806.41" y="-1764.8" font-family="Arial" font-size="24.00" fill="#111827">last&#45;run.json with host,</text>
<text text-anchor="start" x="1794.91" y="-1740.8" font-family="Arial" font-size="24.00" fill="#111827">status, duration, dry&#45;run,</text>
<text text-anchor="start" x="1824.41" y="-1716.8" font-family="Arial" font-size="24.00" fill="#111827">error, and log path.</text>
</g>
<!-- 14&#45;&gt;7 -->
<g id="82" class="edge">
<title>14&#45;&gt;7</title>
<path fill="none" stroke="#475569" stroke-dasharray="5,2" d="M1194.08,-1749.29C1206.15,-1746.63 1218.19,-1744.32 1230,-1742.5 1389.46,-1717.94 1570.94,-1736.95 1708.59,-1760.9"/>
<polygon fill="#475569" stroke="#475569" points="1708.39,-1764.42 1718.84,-1762.71 1709.6,-1757.52 1708.39,-1764.42"/>
<polygon fill="white" stroke="transparent" points="1279.5,-1742.5 1279.5,-1802.5 1489.5,-1802.5 1489.5,-1742.5 1279.5,-1742.5"/>
<text text-anchor="start" x="1283.5" y="-1779.3" font-family="Arial" font-size="24.00" fill="#475569">Marks failed status</text>
<text text-anchor="start" x="1343" y="-1753.3" font-family="Arial" font-size="24.00" fill="#475569">through</text>
</g>
<!-- 8 -->
<g id="8" class="node">
<title>8</title>
<polygon fill="#f0fdf4" stroke="#22c55e" points="2132.41,-2209 1721.41,-2209 1721.41,-2002 2132.41,-2002 2132.41,-2209"/>
<text text-anchor="start" x="1774.91" y="-2160.8" font-family="Arial" font-size="34.00" fill="#111827">Run Ledger Adapter</text>
<text text-anchor="start" x="1765.41" y="-2138.8" font-family="Arial" font-size="19.00" fill="#111827">[Component: record&#45;run&#45;ledger.py CLI]</text>
<text text-anchor="start" x="1878.91" y="-2101.8" font-family="Arial" font-size="24.00" fill="#111827">Appends</text>
<text text-anchor="start" x="1752.91" y="-2077.8" font-family="Arial" font-size="24.00" fill="#111827">started/completed/failed/skipped</text>
<text text-anchor="start" x="1750.41" y="-2053.8" font-family="Arial" font-size="24.00" fill="#111827">events with SQLite and Windows</text>
<text text-anchor="start" x="1814.91" y="-2029.8" font-family="Arial" font-size="24.00" fill="#111827">manifest summaries.</text>
</g>
<!-- 14&#45;&gt;8 -->
<g id="83" class="edge">
<title>14&#45;&gt;8</title>
<path fill="none" stroke="#475569" stroke-dasharray="5,2" d="M1158.14,-1920.16C1181.68,-1932.59 1206.06,-1944.16 1230,-1953.5 1274.96,-1971.03 1523.78,-2023.69 1711.17,-2062.12"/>
<polygon fill="#475569" stroke="#475569" points="1710.67,-2065.59 1721.17,-2064.17 1712.08,-2058.74 1710.67,-2065.59"/>
<polygon fill="white" stroke="transparent" points="1270,-2023.5 1270,-2083.5 1499,-2083.5 1499,-2023.5 1270,-2023.5"/>
<text text-anchor="start" x="1274.5" y="-2060.3" font-family="Arial" font-size="24.00" fill="#475569">Records failed event</text>
<text text-anchor="start" x="1343.5" y="-2034.3" font-family="Arial" font-size="24.00" fill="#475569">through</text>
</g>
<!-- 5 -->
<g id="5" class="node">
<title>5</title>
<polygon fill="#f0fdf4" stroke="#22c55e" points="429,-2212 58,-2212 58,-2005 429,-2005 429,-2212"/>
<text text-anchor="start" x="115" y="-2163.8" font-family="Arial" font-size="34.00" fill="#111827">Argument Parser</text>
<text text-anchor="start" x="110" y="-2141.8" font-family="Arial" font-size="19.00" fill="#111827">[Component: Bash case parser]</text>
<text text-anchor="start" x="87" y="-2104.8" font-family="Arial" font-size="24.00" fill="#111827">Handles &#45;&#45;dry&#45;run, &#45;&#45;verbose,</text>
<text text-anchor="start" x="102" y="-2080.8" font-family="Arial" font-size="24.00" fill="#111827">&#45;&#45;skip&#45;windows, &#45;&#45;skip&#45;wsl,</text>
<text text-anchor="start" x="115.5" y="-2056.8" font-family="Arial" font-size="24.00" fill="#111827">and &#45;&#45;quick&#45;check&#45;sqlite</text>
<text text-anchor="start" x="214.5" y="-2032.8" font-family="Arial" font-size="24.00" fill="#111827">flags.</text>
</g>
<!-- 6 -->
<g id="6" class="node">
<title>6</title>
<polygon fill="#f0fdf4" stroke="#22c55e" points="1189,-2224 800,-2224 800,-1993 1189,-1993 1189,-2224"/>
<text text-anchor="start" x="829" y="-2175.8" font-family="Arial" font-size="34.00" fill="#111827">Lock and Run Identity</text>
<text text-anchor="start" x="882.5" y="-2153.8" font-family="Arial" font-size="19.00" fill="#111827">[Component: Bash + flock]</text>
<text text-anchor="start" x="854.5" y="-2116.8" font-family="Arial" font-size="24.00" fill="#111827">Creates the local state/log</text>
<text text-anchor="start" x="847.5" y="-2092.8" font-family="Arial" font-size="24.00" fill="#111827">directories, acquires a flock</text>
<text text-anchor="start" x="848" y="-2068.8" font-family="Arial" font-size="24.00" fill="#111827">lock, generates run_id, and</text>
<text text-anchor="start" x="879" y="-2044.8" font-family="Arial" font-size="24.00" fill="#111827">skips concurrent runs</text>
<text text-anchor="start" x="955" y="-2020.8" font-family="Arial" font-size="24.00" fill="#111827">silently.</text>
</g>
<!-- 5&#45;&gt;6 -->
<g id="67" class="edge">
<title>5&#45;&gt;6</title>
<path fill="none" stroke="#475569" stroke-dasharray="5,2" d="M429.17,-2108.5C538.49,-2108.5 677.16,-2108.5 789.68,-2108.5"/>
<polygon fill="#475569" stroke="#475569" points="789.8,-2112 799.8,-2108.5 789.8,-2105 789.8,-2112"/>
<polygon fill="white" stroke="transparent" points="465,-2108.5 465,-2168.5 759,-2168.5 759,-2108.5 465,-2108.5"/>
<text text-anchor="start" x="469" y="-2145.3" font-family="Arial" font-size="24.00" fill="#475569">Passes selected run mode</text>
<text text-anchor="start" x="601.5" y="-2119.3" font-family="Arial" font-size="24.00" fill="#475569">to</text>
</g>
<!-- 6&#45;&gt;7 -->
<g id="68" class="edge">
<title>6&#45;&gt;7</title>
<path fill="none" stroke="#475569" stroke-dasharray="5,2" d="M1160.93,-1992.79C1172.84,-1981.25 1184.06,-1969.11 1194,-1956.5 1218.39,-1925.57 1198.02,-1898.5 1230,-1875.5 1268.47,-1847.83 1519.09,-1829.35 1708.64,-1819.15"/>
<polygon fill="#475569" stroke="#475569" points="1708.96,-1822.64 1718.76,-1818.61 1708.58,-1815.65 1708.96,-1822.64"/>
<polygon fill="white" stroke="transparent" points="1252,-1875.5 1252,-1935.5 1517,-1935.5 1517,-1875.5 1252,-1875.5"/>
<text text-anchor="start" x="1256.5" y="-1912.3" font-family="Arial" font-size="24.00" fill="#475569">Initializes log and status</text>
<text text-anchor="start" x="1337.5" y="-1886.3" font-family="Arial" font-size="24.00" fill="#475569">paths for</text>
</g>
<!-- 6&#45;&gt;8 -->
<g id="69" class="edge">
<title>6&#45;&gt;8</title>
<path fill="none" stroke="#475569" stroke-dasharray="5,2" d="M1189.13,-2107.88C1341.41,-2107.38 1553.43,-2106.7 1710.95,-2106.19"/>
<polygon fill="#475569" stroke="#475569" points="1711.26,-2109.69 1721.25,-2106.16 1711.23,-2102.69 1711.26,-2109.69"/>
<polygon fill="white" stroke="transparent" points="1230,-2107.5 1230,-2167.5 1539,-2167.5 1539,-2107.5 1230,-2107.5"/>
<text text-anchor="start" x="1234.5" y="-2144.3" font-family="Arial" font-size="24.00" fill="#475569">Records skipped_lock when</text>
<text text-anchor="start" x="1275.5" y="-2118.3" font-family="Arial" font-size="24.00" fill="#475569">another run is active</text>
</g>
<!-- 7&#45;&gt;21 -->
<g id="71" class="edge">
<title>7&#45;&gt;21</title>
<path fill="none" stroke="#475569" stroke-dasharray="5,2" d="M2135.2,-1809.5C2283.81,-1809.5 2485.34,-1809.5 2646.34,-1809.5"/>
<polygon fill="#475569" stroke="#475569" points="2646.4,-1813 2656.4,-1809.5 2646.4,-1806 2646.4,-1813"/>
<polygon fill="white" stroke="transparent" points="2336.32,-1809.5 2336.32,-1884.5 2599.32,-1884.5 2599.32,-1809.5 2336.32,-1809.5"/>
<text text-anchor="start" x="2340.82" y="-1861.8" font-family="Arial" font-size="24.00" fill="#475569">Writes last&#45;run.json and</text>
<text text-anchor="start" x="2432.32" y="-1837.8" font-family="Arial" font-size="24.00" fill="#475569">logs to</text>
<text text-anchor="start" x="2419.82" y="-1817.8" font-family="Arial" font-size="19.00" fill="#475569">[filesystem]</text>
</g>
<!-- 8&#45;&gt;21 -->
<g id="70" class="edge">
<title>8&#45;&gt;21</title>
<path fill="none" stroke="#475569" stroke-dasharray="5,2" d="M2132.52,-2046.77C2270.66,-2006.82 2456.98,-1952.36 2620.82,-1902.5 2629.39,-1899.89 2638.1,-1897.23 2646.88,-1894.53"/>
<polygon fill="#475569" stroke="#475569" points="2647.92,-1897.87 2656.45,-1891.58 2645.86,-1891.18 2647.92,-1897.87"/>
<polygon fill="white" stroke="transparent" points="2355.82,-1992.5 2355.82,-2043.5 2579.82,-2043.5 2579.82,-1992.5 2355.82,-1992.5"/>
<text text-anchor="start" x="2359.82" y="-2020.8" font-family="Arial" font-size="24.00" fill="#475569">Writes run events to</text>
<text text-anchor="start" x="2434.32" y="-2000.8" font-family="Arial" font-size="19.00" fill="#475569">[sqlite3]</text>
</g>
<!-- 9 -->
<g id="9" class="node">
<title>9</title>
<polygon fill="#f0fdf4" stroke="#22c55e" points="1190.5,-1641 798.5,-1641 798.5,-1410 1190.5,-1410 1190.5,-1641"/>
<text text-anchor="start" x="827.5" y="-1592.8" font-family="Arial" font-size="34.00" fill="#111827">Growth Guard Runner</text>
<text text-anchor="start" x="862" y="-1570.8" font-family="Arial" font-size="19.00" fill="#111827">[Component: Bash subprocess]</text>
<text text-anchor="start" x="952.5" y="-1533.8" font-family="Arial" font-size="24.00" fill="#111827">Invokes</text>
<text text-anchor="start" x="847" y="-1509.8" font-family="Arial" font-size="24.00" fill="#111827">check&#45;nas&#45;growth&#45;guard.sh</text>
<text text-anchor="start" x="850" y="-1485.8" font-family="Arial" font-size="24.00" fill="#111827">before and after writes and</text>
<text text-anchor="start" x="877" y="-1461.8" font-family="Arial" font-size="24.00" fill="#111827">fails closed on budget</text>
<text text-anchor="start" x="940.5" y="-1437.8" font-family="Arial" font-size="24.00" fill="#111827">violations.</text>
</g>
<!-- 9&#45;&gt;7 -->
<g id="73" class="edge">
<title>9&#45;&gt;7</title>
<path fill="none" stroke="#475569" stroke-dasharray="5,2" d="M1190.55,-1563.37C1294.97,-1585.57 1425.17,-1616.35 1539,-1652.5 1595.01,-1670.29 1654.34,-1692.55 1709.27,-1714.67"/>
<polygon fill="#475569" stroke="#475569" points="1708.18,-1718.01 1718.76,-1718.51 1710.8,-1711.52 1708.18,-1718.01"/>
<polygon fill="white" stroke="transparent" points="1274.5,-1652.5 1274.5,-1712.5 1494.5,-1712.5 1494.5,-1652.5 1274.5,-1652.5"/>
<text text-anchor="start" x="1278.5" y="-1689.3" font-family="Arial" font-size="24.00" fill="#475569">Stores guard failure</text>
<text text-anchor="start" x="1290.5" y="-1663.3" font-family="Arial" font-size="24.00" fill="#475569">message through</text>
</g>
<!-- 17 -->
<g id="17" class="node">
<title>17</title>
<polygon fill="#ecfeff" stroke="#0891b2" points="2278.73,-1095.5 2102.82,-1284.22 1751,-1284.22 1575.09,-1095.5 1751,-906.78 2102.82,-906.78 2278.73,-1095.5"/>
<text text-anchor="start" x="1780.41" y="-1162.8" font-family="Arial" font-size="34.00" fill="#111827">NAS Growth Guard</text>
<text text-anchor="start" x="1740.41" y="-1140.8" font-family="Arial" font-size="19.00" fill="#111827">[Container: Bash + remote Python + zfs CLI]</text>
<text text-anchor="start" x="1769.91" y="-1103.8" font-family="Arial" font-size="24.00" fill="#111827">Read&#45;only ZFS budget check</text>
<text text-anchor="start" x="1779.41" y="-1079.8" font-family="Arial" font-size="24.00" fill="#111827">that enforces dataset&#45;used,</text>
<text text-anchor="start" x="1759.41" y="-1055.8" font-family="Arial" font-size="24.00" fill="#111827">snapshot&#45;held, free&#45;space, and</text>
<text text-anchor="start" x="1812.91" y="-1031.8" font-family="Arial" font-size="24.00" fill="#111827">snapshot&#45;count limits</text>
<text text-anchor="start" x="1825.91" y="-1007.8" font-family="Arial" font-size="24.00" fill="#111827">before/after writes.</text>
</g>
<!-- 9&#45;&gt;17 -->
<g id="72" class="edge">
<title>9&#45;&gt;17</title>
<path fill="none" stroke="#475569" stroke-dasharray="5,2" d="M1119.05,-1409.9C1153.22,-1381.92 1191.54,-1353.93 1230,-1332.5 1354.82,-1262.94 1503.56,-1208.89 1631.44,-1170.09"/>
<polygon fill="#475569" stroke="#475569" points="1632.82,-1173.33 1641.39,-1167.09 1630.8,-1166.63 1632.82,-1173.33"/>
<polygon fill="white" stroke="transparent" points="1257,-1332.5 1257,-1392.5 1512,-1392.5 1512,-1332.5 1257,-1332.5"/>
<text text-anchor="start" x="1261.5" y="-1369.3" font-family="Arial" font-size="24.00" fill="#475569">Executes guard stages</text>
<text text-anchor="start" x="1343.5" y="-1343.3" font-family="Arial" font-size="24.00" fill="#475569">through</text>
</g>
<!-- 17&#45;&gt;25 -->
<g id="39" class="edge">
<title>17&#45;&gt;25</title>
<path fill="none" stroke="#475569" stroke-dasharray="5,2" d="M1990.85,-906.54C2051.22,-752.64 2156.76,-540.31 2314.82,-410.5 2424.05,-320.79 2575.32,-271.23 2698.71,-244.13"/>
<polygon fill="#475569" stroke="#475569" points="2699.63,-247.51 2708.67,-241.98 2698.15,-240.67 2699.63,-247.51"/>
<polygon fill="white" stroke="transparent" points="2314.82,-410.5 2314.82,-509.5 2620.82,-509.5 2620.82,-410.5 2314.82,-410.5"/>
<text text-anchor="start" x="2318.82" y="-486.8" font-family="Arial" font-size="24.00" fill="#475569">Reads ZFS used, available,</text>
<text text-anchor="start" x="2346.32" y="-462.8" font-family="Arial" font-size="24.00" fill="#475569">usedbysnapshots, and</text>
<text text-anchor="start" x="2357.82" y="-438.8" font-family="Arial" font-size="24.00" fill="#475569">snapshot count from</text>
<text text-anchor="start" x="2419.32" y="-418.8" font-family="Arial" font-size="19.00" fill="#475569">[SSH + zfs]</text>
</g>
</g>
</svg>
