<?xml version="1.0" encoding="UTF-8" standalone="no"?>
<!DOCTYPE svg PUBLIC "-//W3C//DTD SVG 1.1//EN"
 "http://www.w3.org/Graphics/SVG/1.1/DTD/svg11.dtd">
<!-- Generated by graphviz version 2.43.0 (0)
 -->
<!-- Title: %3 Pages: 1 -->
<svg width="2896pt" height="1913pt"
 viewBox="0.00 0.00 2896.00 1912.69" xmlns="http://www.w3.org/2000/svg" xmlns:xlink="http://www.w3.org/1999/xlink">
<g id="graph0" class="graph" transform="scale(1 1) rotate(0) translate(4 1908.69)">
<title>%3</title>
<polygon fill="white" stroke="transparent" points="-4,4 -4,-1908.69 2892,-1908.69 2892,4 -4,4"/>
<text text-anchor="start" x="1002.5" y="-35.8" font-family="Arial" font-size="34.00">System Context View: WORKSTATION1 Workflow Backup</text>
<text text-anchor="start" x="703.5" y="-9.8" font-family="Arial" font-size="24.00">C1: WORKSTATION1 workflow backup system, local source surfaces, TrueNAS target/control plane, and failure&#45;only Telegram notification.</text>
<!-- 1 -->
<g id="1" class="node">
<title>1</title>
<polygon fill="#dbeafe" stroke="#2563eb" points="451,-1364.69 0,-1364.69 0,-1181.69 451,-1181.69 451,-1364.69"/>
<text text-anchor="start" x="166.5" y="-1316.49" font-family="Arial" font-size="34.00" fill="#111827">Michael</text>
<text text-anchor="start" x="190" y="-1294.49" font-family="Arial" font-size="19.00" fill="#111827">[Person]</text>
<text text-anchor="start" x="83.5" y="-1257.49" font-family="Arial" font-size="24.00" fill="#111827">Sole operator who installs,</text>
<text text-anchor="start" x="112.5" y="-1233.49" font-family="Arial" font-size="24.00" fill="#111827">verifies, and restores</text>
<text text-anchor="start" x="29" y="-1209.49" font-family="Arial" font-size="24.00" fill="#111827">WORKSTATION1 workflow backups.</text>
</g>
<!-- 2 -->
<g id="2" class="node">
<title>2</title>
<polygon fill="#dcfce7" stroke="#16a34a" points="2094,-1359.69 1619,-1359.69 1619,-1046.69 2094,-1046.69 2094,-1359.69"/>
<text text-anchor="start" x="1648" y="-1311.49" font-family="Arial" font-size="34.00" fill="#111827">WORKSTATION1 Workflow</text>
<text text-anchor="start" x="1799.5" y="-1277.49" font-family="Arial" font-size="34.00" fill="#111827">Backup</text>
<text text-anchor="start" x="1779.5" y="-1255.49" font-family="Arial" font-size="19.00" fill="#111827">[Software System]</text>
<text text-anchor="start" x="1682" y="-1218.49" font-family="Arial" font-size="24.00" fill="#111827">Repo&#45;owned backup automation</text>
<text text-anchor="start" x="1706" y="-1194.49" font-family="Arial" font-size="24.00" fill="#111827">that mirrors workflow&#45;critical</text>
<text text-anchor="start" x="1695.5" y="-1170.49" font-family="Arial" font-size="24.00" fill="#111827">WSL and Windows artifacts to</text>
<text text-anchor="start" x="1702.5" y="-1146.49" font-family="Arial" font-size="24.00" fill="#111827">TrueNAS, preserves rollback</text>
<text text-anchor="start" x="1711" y="-1122.49" font-family="Arial" font-size="24.00" fill="#111827">points with ZFS snapshots,</text>
<text text-anchor="start" x="1729.5" y="-1098.49" font-family="Arial" font-size="24.00" fill="#111827">records run history, and</text>
<text text-anchor="start" x="1744.5" y="-1074.49" font-family="Arial" font-size="24.00" fill="#111827">alerts only on failure.</text>
</g>
<!-- 1&#45;&gt;2 -->
<g id="29" class="edge">
<title>1&#45;&gt;2</title>
<path fill="none" stroke="#475569" stroke-dasharray="5,2" d="M451.3,-1263.53C754.9,-1250.48 1294.11,-1227.31 1608.66,-1213.79"/>
<polygon fill="#475569" stroke="#475569" points="1608.98,-1217.28 1618.83,-1213.36 1608.68,-1210.29 1608.98,-1217.28"/>
<polygon fill="white" stroke="transparent" points="914,-1247.19 914,-1307.19 1142,-1307.19 1142,-1247.19 914,-1247.19"/>
<text text-anchor="start" x="918" y="-1283.99" font-family="Arial" font-size="24.00" fill="#475569">Installs, verifies, and</text>
<text text-anchor="start" x="939" y="-1257.99" font-family="Arial" font-size="24.00" fill="#475569">restores through</text>
</g>
<!-- 28 -->
<g id="28" class="node">
<title>28</title>
<polygon fill="#f3e8ff" stroke="#9333ea" points="1248,-1639.69 808,-1639.69 808,-1374.69 1248,-1374.69 1248,-1639.69"/>
<text text-anchor="start" x="885.5" y="-1591.49" font-family="Arial" font-size="34.00" fill="#111827">Operator Shell and</text>
<text text-anchor="start" x="924" y="-1557.49" font-family="Arial" font-size="34.00" fill="#111827">Restore Tools</text>
<text text-anchor="start" x="951" y="-1535.49" font-family="Arial" font-size="19.00" fill="#111827">[Software System]</text>
<text text-anchor="start" x="900.5" y="-1498.49" font-family="Arial" font-size="24.00" fill="#111827">Local shell, rsync, SSH,</text>
<text text-anchor="start" x="852" y="-1474.49" font-family="Arial" font-size="24.00" fill="#111827">Windows Previous Versions, and</text>
<text text-anchor="start" x="837" y="-1450.49" font-family="Arial" font-size="24.00" fill="#111827">README/runbook commands used</text>
<text text-anchor="start" x="880.5" y="-1426.49" font-family="Arial" font-size="24.00" fill="#111827">for verification and targeted</text>
<text text-anchor="start" x="980.5" y="-1402.49" font-family="Arial" font-size="24.00" fill="#111827">restores.</text>
</g>
<!-- 1&#45;&gt;28 -->
<g id="30" class="edge">
<title>1&#45;&gt;28</title>
<path fill="none" stroke="#475569" stroke-dasharray="5,2" d="M451.08,-1338.84C559.39,-1370.5 689.1,-1408.41 797.98,-1440.24"/>
<polygon fill="#475569" stroke="#475569" points="797.2,-1443.66 807.78,-1443.11 799.17,-1436.94 797.2,-1443.66"/>
<polygon fill="white" stroke="transparent" points="487,-1431.19 487,-1517.19 772,-1517.19 772,-1431.19 487,-1431.19"/>
<text text-anchor="start" x="491.5" y="-1493.99" font-family="Arial" font-size="24.00" fill="#475569">Runs backup, verification,</text>
<text text-anchor="start" x="497" y="-1467.99" font-family="Arial" font-size="24.00" fill="#475569">provisioning, and restore</text>
<text text-anchor="start" x="542.5" y="-1441.99" font-family="Arial" font-size="24.00" fill="#475569">commands from</text>
</g>
<!-- 22 -->
<g id="22" class="node">
<title>22</title>
<path fill="#fef3c7" stroke="#d97706" d="M2887.5,-870.97C2887.5,-886.89 2794.5,-899.81 2680,-899.81 2565.5,-899.81 2472.5,-886.89 2472.5,-870.97 2472.5,-870.97 2472.5,-611.4 2472.5,-611.4 2472.5,-595.49 2565.5,-582.56 2680,-582.56 2794.5,-582.56 2887.5,-595.49 2887.5,-611.4 2887.5,-611.4 2887.5,-870.97 2887.5,-870.97"/>
<path fill="none" stroke="#d97706" d="M2887.5,-870.97C2887.5,-855.06 2794.5,-842.13 2680,-842.13 2565.5,-842.13 2472.5,-855.06 2472.5,-870.97"/>
<text text-anchor="start" x="2501.5" y="-808.49" font-family="Arial" font-size="34.00" fill="#111827">WSL Workflow Sources</text>
<text text-anchor="start" x="2603" y="-786.49" font-family="Arial" font-size="19.00" fill="#111827">[Software System]</text>
<text text-anchor="start" x="2526.5" y="-749.49" font-family="Arial" font-size="24.00" fill="#111827">Workflow&#45;critical WSL paths:</text>
<text text-anchor="start" x="2535" y="-725.49" font-family="Arial" font-size="24.00" fill="#111827">~/repos, ~/.hermes, ~/.ssh,</text>
<text text-anchor="start" x="2568.5" y="-701.49" font-family="Arial" font-size="24.00" fill="#111827">systemd user config,</text>
<text text-anchor="start" x="2523.5" y="-677.49" font-family="Arial" font-size="24.00" fill="#111827">lifelog/browser&#45;memory data,</text>
<text text-anchor="start" x="2525" y="-653.49" font-family="Arial" font-size="24.00" fill="#111827">and optional brain&#45;code tree.</text>
</g>
<!-- 2&#45;&gt;22 -->
<g id="43" class="edge">
<title>2&#45;&gt;22</title>
<path fill="none" stroke="#475569" stroke-dasharray="5,2" d="M1980.91,-1046.67C2023.98,-1000.12 2075.33,-952.45 2130,-918.19 2231.01,-854.88 2356.78,-812.18 2462.44,-784.61"/>
<polygon fill="#475569" stroke="#475569" points="2463.47,-787.96 2472.28,-782.07 2461.72,-781.18 2463.47,-787.96"/>
<polygon fill="white" stroke="transparent" points="2182.5,-918.19 2182.5,-993.19 2383.5,-993.19 2383.5,-918.19 2182.5,-918.19"/>
<text text-anchor="start" x="2187" y="-970.49" font-family="Arial" font-size="24.00" fill="#475569">Reads live SQLite</text>
<text text-anchor="start" x="2199.5" y="-946.49" font-family="Arial" font-size="24.00" fill="#475569">databases from</text>
<text text-anchor="start" x="2199" y="-926.49" font-family="Arial" font-size="19.00" fill="#475569">[sqlite3 backup API]</text>
</g>
<!-- 23 -->
<g id="23" class="node">
<title>23</title>
<path fill="#fef3c7" stroke="#d97706" d="M2888,-471.4C2888,-493.01 2794.77,-510.56 2680,-510.56 2565.23,-510.56 2472,-493.01 2472,-471.4 2472,-471.4 2472,-118.97 2472,-118.97 2472,-97.36 2565.23,-79.81 2680,-79.81 2794.77,-79.81 2888,-97.36 2888,-118.97 2888,-118.97 2888,-471.4 2888,-471.4"/>
<path fill="none" stroke="#d97706" d="M2888,-471.4C2888,-449.8 2794.77,-432.24 2680,-432.24 2565.23,-432.24 2472,-449.8 2472,-471.4"/>
<text text-anchor="start" x="2536" y="-403.49" font-family="Arial" font-size="34.00" fill="#111827">Windows Workflow</text>
<text text-anchor="start" x="2617.5" y="-369.49" font-family="Arial" font-size="34.00" fill="#111827">Sources</text>
<text text-anchor="start" x="2603" y="-347.49" font-family="Arial" font-size="19.00" fill="#111827">[Software System]</text>
<text text-anchor="start" x="2516.5" y="-310.49" font-family="Arial" font-size="24.00" fill="#111827">Selected Windows user&#45;profile</text>
<text text-anchor="start" x="2515" y="-286.49" font-family="Arial" font-size="24.00" fill="#111827">artifacts: Desktop, Documents,</text>
<text text-anchor="start" x="2564.5" y="-262.49" font-family="Arial" font-size="24.00" fill="#111827">Downloads, Windows</text>
<text text-anchor="start" x="2530" y="-238.49" font-family="Arial" font-size="24.00" fill="#111827">.ssh/.wslconfig, Terminal/VS</text>
<text text-anchor="start" x="2501" y="-214.49" font-family="Arial" font-size="24.00" fill="#111827">Code/PowerShell config, Chrome</text>
<text text-anchor="start" x="2523.5" y="-190.49" font-family="Arial" font-size="24.00" fill="#111827">profile metadata, and Startup</text>
<text text-anchor="start" x="2640" y="-166.49" font-family="Arial" font-size="24.00" fill="#111827">entries.</text>
</g>
<!-- 2&#45;&gt;23 -->
<g id="50" class="edge">
<title>2&#45;&gt;23</title>
<path fill="none" stroke="#475569" stroke-dasharray="5,2" d="M1920.74,-1046.44C1968.16,-941.19 2040.22,-803.42 2130,-700.19 2224.88,-591.1 2354.11,-493.96 2463.35,-422.17"/>
<polygon fill="#475569" stroke="#475569" points="2465.39,-425.02 2471.84,-416.62 2461.56,-419.16 2465.39,-425.02"/>
<polygon fill="white" stroke="transparent" points="2140.5,-700.19 2140.5,-775.19 2425.5,-775.19 2425.5,-700.19 2140.5,-700.19"/>
<text text-anchor="start" x="2145" y="-752.49" font-family="Arial" font-size="24.00" fill="#475569">Mirrors selected Windows</text>
<text text-anchor="start" x="2213" y="-728.49" font-family="Arial" font-size="24.00" fill="#475569">artifacts from</text>
<text text-anchor="start" x="2221.5" y="-708.49" font-family="Arial" font-size="19.00" fill="#475569">[robocopy.exe]</text>
</g>
<!-- 24 -->
<g id="24" class="node">
<title>24</title>
<path fill="#fef3c7" stroke="#d97706" d="M2863.5,-1534.4C2863.5,-1552.7 2781.25,-1567.56 2680,-1567.56 2578.75,-1567.56 2496.5,-1552.7 2496.5,-1534.4 2496.5,-1534.4 2496.5,-1235.97 2496.5,-1235.97 2496.5,-1217.67 2578.75,-1202.81 2680,-1202.81 2781.25,-1202.81 2863.5,-1217.67 2863.5,-1235.97 2863.5,-1235.97 2863.5,-1534.4 2863.5,-1534.4"/>
<path fill="none" stroke="#d97706" d="M2863.5,-1534.4C2863.5,-1516.11 2781.25,-1501.24 2680,-1501.24 2578.75,-1501.24 2496.5,-1516.11 2496.5,-1534.4"/>
<text text-anchor="start" x="2549" y="-1469.49" font-family="Arial" font-size="34.00" fill="#111827">TrueNAS Backup</text>
<text text-anchor="start" x="2621" y="-1435.49" font-family="Arial" font-size="34.00" fill="#111827">Dataset</text>
<text text-anchor="start" x="2603" y="-1413.49" font-family="Arial" font-size="19.00" fill="#111827">[Software System]</text>
<text text-anchor="start" x="2530.5" y="-1376.49" font-family="Arial" font-size="24.00" fill="#111827">Encrypted TrueNAS dataset</text>
<text text-anchor="start" x="2525.5" y="-1352.49" font-family="Arial" font-size="24.00" fill="#111827">v1/ws1/wf with current mirror</text>
<text text-anchor="start" x="2534" y="-1328.49" font-family="Arial" font-size="24.00" fill="#111827">tree, manifests, SMB share</text>
<text text-anchor="start" x="2536.5" y="-1304.49" font-family="Arial" font-size="24.00" fill="#111827">ws1&#45;wf, and ZFS snapshot</text>
<text text-anchor="start" x="2641.5" y="-1280.49" font-family="Arial" font-size="24.00" fill="#111827">history.</text>
</g>
<!-- 2&#45;&gt;24 -->
<g id="47" class="edge">
<title>2&#45;&gt;24</title>
<path fill="none" stroke="#475569" stroke-dasharray="5,2" d="M2094.29,-1160.56C2201.43,-1150.62 2327.96,-1152.2 2436,-1190.19 2453.6,-1196.38 2470.87,-1204.44 2487.57,-1213.75"/>
<polygon fill="#475569" stroke="#475569" points="2485.84,-1216.79 2496.26,-1218.73 2489.32,-1210.72 2485.84,-1216.79"/>
<polygon fill="white" stroke="transparent" points="2143,-1190.19 2143,-1289.19 2423,-1289.19 2423,-1190.19 2143,-1190.19"/>
<text text-anchor="start" x="2183.5" y="-1266.49" font-family="Arial" font-size="24.00" fill="#475569">Writes current/wsl,</text>
<text text-anchor="start" x="2147" y="-1242.49" font-family="Arial" font-size="24.00" fill="#475569">wsl&#45;sqlite&#45;snapshots, and</text>
<text text-anchor="start" x="2210.5" y="-1218.49" font-family="Arial" font-size="24.00" fill="#475569">_manifests to</text>
<text text-anchor="start" x="2186.5" y="-1198.49" font-family="Arial" font-size="19.00" fill="#475569">[SSH rsync + SSH cat]</text>
</g>
<!-- 25 -->
<g id="25" class="node">
<title>25</title>
<polygon fill="#f3e8ff" stroke="#9333ea" points="2887.5,-1904.69 2472.5,-1904.69 2472.5,-1639.69 2887.5,-1639.69 2887.5,-1904.69"/>
<text text-anchor="start" x="2519" y="-1856.49" font-family="Arial" font-size="34.00" fill="#111827">TrueNAS Middleware</text>
<text text-anchor="start" x="2507" y="-1822.49" font-family="Arial" font-size="34.00" fill="#111827">and ZFS Control Plane</text>
<text text-anchor="start" x="2603" y="-1800.49" font-family="Arial" font-size="19.00" fill="#111827">[Software System]</text>
<text text-anchor="start" x="2501.5" y="-1763.49" font-family="Arial" font-size="24.00" fill="#111827">root@10.99.98.221 management</text>
<text text-anchor="start" x="2566.5" y="-1739.49" font-family="Arial" font-size="24.00" fill="#111827">surface used for ZFS</text>
<text text-anchor="start" x="2535" y="-1715.49" font-family="Arial" font-size="24.00" fill="#111827">properties, snapshot tasks,</text>
<text text-anchor="start" x="2520.5" y="-1691.49" font-family="Arial" font-size="24.00" fill="#111827">SMB share configuration, and</text>
<text text-anchor="start" x="2618.5" y="-1667.49" font-family="Arial" font-size="24.00" fill="#111827">verification.</text>
</g>
<!-- 2&#45;&gt;25 -->
<g id="40" class="edge">
<title>2&#45;&gt;25</title>
<path fill="none" stroke="#475569" stroke-dasharray="5,2" d="M2083.61,-1359.8C2207.45,-1445.58 2359.57,-1550.94 2479.05,-1633.69"/>
<polygon fill="#475569" stroke="#475569" points="2477.38,-1636.8 2487.59,-1639.61 2481.36,-1631.04 2477.38,-1636.8"/>
<polygon fill="white" stroke="transparent" points="2130,-1587.19 2130,-1686.19 2436,-1686.19 2436,-1587.19 2130,-1587.19"/>
<text text-anchor="start" x="2134" y="-1663.49" font-family="Arial" font-size="24.00" fill="#475569">Reads ZFS used, available,</text>
<text text-anchor="start" x="2161.5" y="-1639.49" font-family="Arial" font-size="24.00" fill="#475569">usedbysnapshots, and</text>
<text text-anchor="start" x="2173" y="-1615.49" font-family="Arial" font-size="24.00" fill="#475569">snapshot count from</text>
<text text-anchor="start" x="2234.5" y="-1595.49" font-family="Arial" font-size="19.00" fill="#475569">[SSH + zfs]</text>
</g>
<!-- 27 -->
<g id="27" class="node">
<title>27</title>
<polygon fill="#f3e8ff" stroke="#9333ea" points="2855,-1130.69 2505,-1130.69 2505,-971.69 2855,-971.69 2855,-1130.69"/>
<text text-anchor="start" x="2548.5" y="-1082.49" font-family="Arial" font-size="34.00" fill="#111827">Telegram Bot API</text>
<text text-anchor="start" x="2603" y="-1060.49" font-family="Arial" font-size="19.00" fill="#111827">[Software System]</text>
<text text-anchor="start" x="2541" y="-1023.49" font-family="Arial" font-size="24.00" fill="#111827">External API used only for</text>
<text text-anchor="start" x="2534" y="-999.49" font-family="Arial" font-size="24.00" fill="#111827">backup failure notifications.</text>
</g>
<!-- 2&#45;&gt;27 -->
<g id="59" class="edge">
<title>2&#45;&gt;27</title>
<path fill="none" stroke="#475569" stroke-dasharray="5,2" d="M2094.14,-1050.14C2106.03,-1045.57 2118.01,-1041.53 2130,-1038.19 2248.32,-1005.16 2386.62,-1008.67 2494.81,-1020.31"/>
<polygon fill="#475569" stroke="#475569" points="2494.52,-1023.8 2504.85,-1021.42 2495.3,-1016.84 2494.52,-1023.8"/>
<polygon fill="white" stroke="transparent" points="2182,-1038.19 2182,-1113.19 2384,-1113.19 2384,-1038.19 2182,-1038.19"/>
<text text-anchor="start" x="2186" y="-1090.49" font-family="Arial" font-size="24.00" fill="#475569">Sends failure&#45;only</text>
<text text-anchor="start" x="2211.5" y="-1066.49" font-family="Arial" font-size="24.00" fill="#475569">notification to</text>
<text text-anchor="start" x="2246.5" y="-1046.49" font-family="Arial" font-size="19.00" fill="#475569">[HTTPS]</text>
</g>
<!-- 28&#45;&gt;2 -->
<g id="31" class="edge">
<title>28&#45;&gt;2</title>
<path fill="none" stroke="#475569" stroke-dasharray="5,2" d="M1248.09,-1404.74C1260.18,-1399.69 1272.21,-1394.8 1284,-1390.19 1389.12,-1349.03 1507.4,-1309.28 1608.98,-1277.08"/>
<polygon fill="#475569" stroke="#475569" points="1610.27,-1280.34 1618.75,-1273.99 1608.16,-1273.67 1610.27,-1280.34"/>
<polygon fill="white" stroke="transparent" points="1284,-1390.19 1284,-1465.19 1583,-1465.19 1583,-1390.19 1284,-1390.19"/>
<text text-anchor="start" x="1288.5" y="-1442.49" font-family="Arial" font-size="24.00" fill="#475569">Executes scripts and reads</text>
<text text-anchor="start" x="1341.5" y="-1418.49" font-family="Arial" font-size="24.00" fill="#475569">documentation in</text>
<text text-anchor="start" x="1408.5" y="-1398.49" font-family="Arial" font-size="19.00" fill="#475569">[shell]</text>
</g>
<!-- 28&#45;&gt;24 -->
<g id="34" class="edge">
<title>28&#45;&gt;24</title>
<path fill="none" stroke="#475569" stroke-dasharray="5,2" d="M1248.14,-1526.17C1527.05,-1545.03 2022.35,-1560.67 2436,-1479.19 2452.6,-1475.92 2469.54,-1471.6 2486.36,-1466.6"/>
<polygon fill="#475569" stroke="#475569" points="2487.71,-1469.85 2496.25,-1463.58 2485.67,-1463.15 2487.71,-1469.85"/>
<polygon fill="white" stroke="transparent" points="1689,-1541.19 1689,-1640.19 2024,-1640.19 2024,-1541.19 1689,-1541.19"/>
<text text-anchor="start" x="1735" y="-1617.49" font-family="Arial" font-size="24.00" fill="#475569">Restores selected files</text>
<text text-anchor="start" x="1716.5" y="-1593.49" font-family="Arial" font-size="24.00" fill="#475569">from .zfs/snapshot/current</text>
<text text-anchor="start" x="1827" y="-1569.49" font-family="Arial" font-size="24.00" fill="#475569">paths</text>
<text text-anchor="start" x="1693.5" y="-1549.49" font-family="Arial" font-size="19.00" fill="#475569">[SSH rsync or SMB Previous Versions]</text>
</g>
<!-- 28&#45;&gt;25 -->
<g id="33" class="edge">
<title>28&#45;&gt;25</title>
<path fill="none" stroke="#475569" stroke-dasharray="5,2" d="M1248.33,-1579.38C1260.36,-1582.82 1272.31,-1586.11 1284,-1589.19 1692.21,-1696.53 2184.94,-1742.34 2462.1,-1760.78"/>
<polygon fill="#475569" stroke="#475569" points="2462.06,-1764.28 2472.27,-1761.45 2462.52,-1757.3 2462.06,-1764.28"/>
<polygon fill="white" stroke="transparent" points="1706,-1726.19 1706,-1801.19 2007,-1801.19 2007,-1726.19 1706,-1726.19"/>
<text text-anchor="start" x="1750" y="-1778.49" font-family="Arial" font-size="24.00" fill="#475569">Lists snapshots and</text>
<text text-anchor="start" x="1710.5" y="-1754.49" font-family="Arial" font-size="24.00" fill="#475569">inspects NAS state through</text>
<text text-anchor="start" x="1781" y="-1734.49" font-family="Arial" font-size="19.00" fill="#475569">[SSH + zfs/midclt]</text>
</g>
</g>
</svg>
