<?xml version="1.0" encoding="UTF-8" standalone="no"?>
<!DOCTYPE svg PUBLIC "-//W3C//DTD SVG 1.1//EN"
 "http://www.w3.org/Graphics/SVG/1.1/DTD/svg11.dtd">
<!-- Generated by graphviz version 2.43.0 (0)
 -->
<!-- Title: %3 Pages: 1 -->
<svg width="2286pt" height="2369pt"
 viewBox="0.00 0.00 2285.82 2369.46" xmlns="http://www.w3.org/2000/svg" xmlns:xlink="http://www.w3.org/1999/xlink">
<g id="graph0" class="graph" transform="scale(1 1) rotate(0) translate(4 2365.46)">
<title>%3</title>
<polygon fill="white" stroke="transparent" points="-4,4 -4,-2365.46 2281.82,-2365.46 2281.82,4 -4,4"/>
<text text-anchor="start" x="751.41" y="-35.8" font-family="Arial" font-size="34.00">Dynamic View: WORKSTATION1 Workflow Backup</text>
<text text-anchor="start" x="410.41" y="-9.8" font-family="Arial" font-size="24.00">Second half of a successful hourly run: WSL and Windows mirroring, post&#45;write guard, ledger completion, and NAS manifest publication.</text>
<g id="clust1" class="cluster">
<title>cluster_2</title>
<polygon fill="none" stroke="#444444" points="8,-798.46 8,-2353.46 1511.82,-2353.46 1511.82,-798.46 8,-798.46"/>
<text text-anchor="start" x="568.91" y="-827.26" font-family="Arial" font-size="24.00" fill="#444444">WORKSTATION1 Workflow Backup</text>
<text text-anchor="start" x="682.91" y="-807.26" font-family="Arial" font-size="19.00" fill="#444444">[Software System]</text>
</g>
<!-- 16 -->
<g id="16" class="node">
<title>16</title>
<polygon fill="#ecfeff" stroke="#0891b2" points="1458.08,-1154.46 1296.49,-1410.09 973.33,-1410.09 811.74,-1154.46 973.33,-898.84 1296.49,-898.84 1458.08,-1154.46"/>
<text text-anchor="start" x="965.91" y="-1262.76" font-family="Arial" font-size="34.00" fill="#111827">Windows Critical Sync</text>
<text text-anchor="start" x="1084.91" y="-1228.76" font-family="Arial" font-size="34.00" fill="#111827">Helper</text>
<text text-anchor="start" x="967.91" y="-1206.76" font-family="Arial" font-size="19.00" fill="#111827">[Container: PowerShell + robocopy.exe]</text>
<text text-anchor="start" x="988.91" y="-1169.76" font-family="Arial" font-size="24.00" fill="#111827">PowerShell script launched</text>
<text text-anchor="start" x="1028.91" y="-1145.76" font-family="Arial" font-size="24.00" fill="#111827">from WSL that uses</text>
<text text-anchor="start" x="1013.91" y="-1121.76" font-family="Arial" font-size="24.00" fill="#111827">robocopy.exe to mirror</text>
<text text-anchor="start" x="1000.91" y="-1097.76" font-family="Arial" font-size="24.00" fill="#111827">selected Windows profile</text>
<text text-anchor="start" x="990.91" y="-1073.76" font-family="Arial" font-size="24.00" fill="#111827">directories/files to the SMB</text>
<text text-anchor="start" x="983.41" y="-1049.76" font-family="Arial" font-size="24.00" fill="#111827">share and writes a Windows</text>
<text text-anchor="start" x="1057.41" y="-1025.76" font-family="Arial" font-size="24.00" fill="#111827">sync manifest.</text>
</g>
<!-- 23 -->
<g id="23" class="node">
<title>23</title>
<path fill="#fef3c7" stroke="#d97706" d="M2277.82,-1330.68C2277.82,-1352.29 2184.59,-1369.84 2069.82,-1369.84 1955.05,-1369.84 1861.82,-1352.29 1861.82,-1330.68 1861.82,-1330.68 1861.82,-978.25 1861.82,-978.25 1861.82,-956.64 1955.05,-939.09 2069.82,-939.09 2184.59,-939.09 2277.82,-956.64 2277.82,-978.25 2277.82,-978.25 2277.82,-1330.68 2277.82,-1330.68"/>
<path fill="none" stroke="#d97706" d="M2277.82,-1330.68C2277.82,-1309.07 2184.59,-1291.52 2069.82,-1291.52 1955.05,-1291.52 1861.82,-1309.07 1861.82,-1330.68"/>
<text text-anchor="start" x="1925.82" y="-1262.76" font-family="Arial" font-size="34.00" fill="#111827">Windows Workflow</text>
<text text-anchor="start" x="2007.32" y="-1228.76" font-family="Arial" font-size="34.00" fill="#111827">Sources</text>
<text text-anchor="start" x="1992.82" y="-1206.76" font-family="Arial" font-size="19.00" fill="#111827">[Software System]</text>
<text text-anchor="start" x="1906.32" y="-1169.76" font-family="Arial" font-size="24.00" fill="#111827">Selected Windows user&#45;profile</text>
<text text-anchor="start" x="1904.82" y="-1145.76" font-family="Arial" font-size="24.00" fill="#111827">artifacts: Desktop, Documents,</text>
<text text-anchor="start" x="1954.32" y="-1121.76" font-family="Arial" font-size="24.00" fill="#111827">Downloads, Windows</text>
<text text-anchor="start" x="1919.82" y="-1097.76" font-family="Arial" font-size="24.00" fill="#111827">.ssh/.wslconfig, Terminal/VS</text>
<text text-anchor="start" x="1890.82" y="-1073.76" font-family="Arial" font-size="24.00" fill="#111827">Code/PowerShell config, Chrome</text>
<text text-anchor="start" x="1913.32" y="-1049.76" font-family="Arial" font-size="24.00" fill="#111827">profile metadata, and Startup</text>
<text text-anchor="start" x="2029.82" y="-1025.76" font-family="Arial" font-size="24.00" fill="#111827">entries.</text>
</g>
<!-- 16&#45;&gt;23 -->
<g id="49" class="edge">
<title>16&#45;&gt;23</title>
<path fill="none" stroke="#475569" stroke-dasharray="5,2" d="M1458.27,-1154.46C1588.13,-1154.46 1734.51,-1154.46 1851.38,-1154.46"/>
<polygon fill="#475569" stroke="#475569" points="1851.52,-1157.96 1861.52,-1154.46 1851.52,-1150.96 1851.52,-1157.96"/>
<polygon fill="white" stroke="transparent" points="1527.32,-1154.46 1527.32,-1229.46 1821.32,-1229.46 1821.32,-1154.46 1527.32,-1154.46"/>
<text text-anchor="start" x="1531.32" y="-1206.76" font-family="Arial" font-size="24.00" fill="#475569">4. Read selected Windows</text>
<text text-anchor="start" x="1631.82" y="-1182.76" font-family="Arial" font-size="24.00" fill="#475569">artifacts</text>
<text text-anchor="start" x="1612.32" y="-1162.76" font-family="Arial" font-size="19.00" fill="#475569">[robocopy.exe]</text>
</g>
<!-- 24 -->
<g id="24" class="node">
<title>24</title>
<path fill="#fef3c7" stroke="#d97706" d="M2253.32,-481.68C2253.32,-499.98 2171.07,-514.84 2069.82,-514.84 1968.57,-514.84 1886.32,-499.98 1886.32,-481.68 1886.32,-481.68 1886.32,-183.25 1886.32,-183.25 1886.32,-164.95 1968.57,-150.09 2069.82,-150.09 2171.07,-150.09 2253.32,-164.95 2253.32,-183.25 2253.32,-183.25 2253.32,-481.68 2253.32,-481.68"/>
<path fill="none" stroke="#d97706" d="M2253.32,-481.68C2253.32,-463.38 2171.07,-448.52 2069.82,-448.52 1968.57,-448.52 1886.32,-463.38 1886.32,-481.68"/>
<text text-anchor="start" x="1938.82" y="-416.76" font-family="Arial" font-size="34.00" fill="#111827">TrueNAS Backup</text>
<text text-anchor="start" x="2010.82" y="-382.76" font-family="Arial" font-size="34.00" fill="#111827">Dataset</text>
<text text-anchor="start" x="1992.82" y="-360.76" font-family="Arial" font-size="19.00" fill="#111827">[Software System]</text>
<text text-anchor="start" x="1920.32" y="-323.76" font-family="Arial" font-size="24.00" fill="#111827">Encrypted TrueNAS dataset</text>
<text text-anchor="start" x="1915.32" y="-299.76" font-family="Arial" font-size="24.00" fill="#111827">v1/ws1/wf with current mirror</text>
<text text-anchor="start" x="1923.82" y="-275.76" font-family="Arial" font-size="24.00" fill="#111827">tree, manifests, SMB share</text>
<text text-anchor="start" x="1926.32" y="-251.76" font-family="Arial" font-size="24.00" fill="#111827">ws1&#45;wf, and ZFS snapshot</text>
<text text-anchor="start" x="2031.32" y="-227.76" font-family="Arial" font-size="24.00" fill="#111827">history.</text>
</g>
<!-- 16&#45;&gt;24 -->
<g id="51" class="edge">
<title>16&#45;&gt;24</title>
<path fill="none" stroke="#475569" stroke-dasharray="5,2" d="M1342.95,-972.03C1502.9,-831.1 1722.53,-637.59 1878.19,-500.43"/>
<polygon fill="#475569" stroke="#475569" points="1880.83,-502.77 1886.02,-493.53 1876.2,-497.52 1880.83,-502.77"/>
<polygon fill="white" stroke="transparent" points="1531.32,-792.46 1531.32,-867.46 1817.32,-867.46 1817.32,-792.46 1531.32,-792.46"/>
<text text-anchor="start" x="1535.32" y="-844.76" font-family="Arial" font-size="24.00" fill="#475569">5. Mirror Windows current</text>
<text text-anchor="start" x="1580.32" y="-820.76" font-family="Arial" font-size="24.00" fill="#475569">tree and manifest</text>
<text text-anchor="start" x="1555.82" y="-800.76" font-family="Arial" font-size="19.00" fill="#475569">[SMB \10.99.98.221\ws1&#45;wf]</text>
</g>
<!-- 17 -->
<g id="17" class="node">
<title>17</title>
<polygon fill="#ecfeff" stroke="#0891b2" points="1486.73,-1670.46 1310.82,-1859.18 959,-1859.18 783.09,-1670.46 959,-1481.74 1310.82,-1481.74 1486.73,-1670.46"/>
<text text-anchor="start" x="988.41" y="-1737.76" font-family="Arial" font-size="34.00" fill="#111827">NAS Growth Guard</text>
<text text-anchor="start" x="948.41" y="-1715.76" font-family="Arial" font-size="19.00" fill="#111827">[Container: Bash + remote Python + zfs CLI]</text>
<text text-anchor="start" x="977.91" y="-1678.76" font-family="Arial" font-size="24.00" fill="#111827">Read&#45;only ZFS budget check</text>
<text text-anchor="start" x="987.41" y="-1654.76" font-family="Arial" font-size="24.00" fill="#111827">that enforces dataset&#45;used,</text>
<text text-anchor="start" x="967.41" y="-1630.76" font-family="Arial" font-size="24.00" fill="#111827">snapshot&#45;held, free&#45;space, and</text>
<text text-anchor="start" x="1020.91" y="-1606.76" font-family="Arial" font-size="24.00" fill="#111827">snapshot&#45;count limits</text>
<text text-anchor="start" x="1033.91" y="-1582.76" font-family="Arial" font-size="24.00" fill="#111827">before/after writes.</text>
</g>
<!-- 25 -->
<g id="25" class="node">
<title>25</title>
<polygon fill="#f3e8ff" stroke="#9333ea" points="2277.32,-1802.96 1862.32,-1802.96 1862.32,-1537.96 2277.32,-1537.96 2277.32,-1802.96"/>
<text text-anchor="start" x="1908.82" y="-1754.76" font-family="Arial" font-size="34.00" fill="#111827">TrueNAS Middleware</text>
<text text-anchor="start" x="1896.82" y="-1720.76" font-family="Arial" font-size="34.00" fill="#111827">and ZFS Control Plane</text>
<text text-anchor="start" x="1992.82" y="-1698.76" font-family="Arial" font-size="19.00" fill="#111827">[Software System]</text>
<text text-anchor="start" x="1891.32" y="-1661.76" font-family="Arial" font-size="24.00" fill="#111827">root@10.99.98.221 management</text>
<text text-anchor="start" x="1956.32" y="-1637.76" font-family="Arial" font-size="24.00" fill="#111827">surface used for ZFS</text>
<text text-anchor="start" x="1924.82" y="-1613.76" font-family="Arial" font-size="24.00" fill="#111827">properties, snapshot tasks,</text>
<text text-anchor="start" x="1910.32" y="-1589.76" font-family="Arial" font-size="24.00" fill="#111827">SMB share configuration, and</text>
<text text-anchor="start" x="2008.32" y="-1565.76" font-family="Arial" font-size="24.00" fill="#111827">verification.</text>
</g>
<!-- 17&#45;&gt;25 -->
<g id="39" class="edge">
<title>17&#45;&gt;25</title>
<path fill="none" stroke="#475569" stroke-dasharray="5,2" d="M1486.94,-1670.46C1609.56,-1670.46 1743.53,-1670.46 1851.99,-1670.46"/>
<polygon fill="#475569" stroke="#475569" points="1852.07,-1673.96 1862.07,-1670.46 1852.07,-1666.96 1852.07,-1673.96"/>
<polygon fill="white" stroke="transparent" points="1522.82,-1670.46 1522.82,-1721.46 1825.82,-1721.46 1825.82,-1670.46 1522.82,-1670.46"/>
<text text-anchor="start" x="1527.32" y="-1698.76" font-family="Arial" font-size="24.00" fill="#475569">7. Read ZFS budget values</text>
<text text-anchor="start" x="1626.32" y="-1678.76" font-family="Arial" font-size="19.00" fill="#475569">[SSH + zfs]</text>
</g>
<!-- 21 -->
<g id="21" class="node">
<title>21</title>
<path fill="#fef3c7" stroke="#d97706" d="M1394.41,-2292.18C1394.41,-2312.13 1278.1,-2328.34 1134.91,-2328.34 991.72,-2328.34 875.41,-2312.13 875.41,-2292.18 875.41,-2292.18 875.41,-1966.75 875.41,-1966.75 875.41,-1946.79 991.72,-1930.59 1134.91,-1930.59 1278.1,-1930.59 1394.41,-1946.79 1394.41,-1966.75 1394.41,-1966.75 1394.41,-2292.18 1394.41,-2292.18"/>
<path fill="none" stroke="#d97706" d="M1394.41,-2292.18C1394.41,-2272.23 1278.1,-2256.02 1134.91,-2256.02 991.72,-2256.02 875.41,-2272.23 875.41,-2292.18"/>
<text text-anchor="start" x="967.91" y="-2225.76" font-family="Arial" font-size="34.00" fill="#111827">Run Ledger and Local</text>
<text text-anchor="start" x="1094.91" y="-2191.76" font-family="Arial" font-size="34.00" fill="#111827">State</text>
<text text-anchor="start" x="907.91" y="-2169.76" font-family="Arial" font-size="19.00" fill="#111827">[Container: SQLite + JSON + logs on WSL filesystem]</text>
<text text-anchor="start" x="976.91" y="-2132.76" font-family="Arial" font-size="24.00" fill="#111827">Local status, logs, SQLite run</text>
<text text-anchor="start" x="986.91" y="-2108.76" font-family="Arial" font-size="24.00" fill="#111827">ledger, exported run&#45;history</text>
<text text-anchor="start" x="967.91" y="-2084.76" font-family="Arial" font-size="24.00" fill="#111827">JSON, SQLite snapshot cache,</text>
<text text-anchor="start" x="977.41" y="-2060.76" font-family="Arial" font-size="24.00" fill="#111827">and Windows manifest cache</text>
<text text-anchor="start" x="1103.41" y="-2036.76" font-family="Arial" font-size="24.00" fill="#111827">under</text>
<text text-anchor="start" x="904.41" y="-2012.76" font-family="Arial" font-size="24.00" fill="#111827">~/.local/state/workstation&#45;workflow&#45;backup.</text>
</g>
<!-- 4 -->
<g id="4" class="node">
<title>4</title>
<polygon fill="#e0f2fe" stroke="#0284c7" points="413,-1235.96 33,-1235.96 33,-956.96 413,-956.96 413,-1235.96"/>
<text text-anchor="start" x="66.5" y="-1187.76" font-family="Arial" font-size="34.00" fill="#111827">Backup Orchestrator</text>
<text text-anchor="start" x="149.5" y="-1165.76" font-family="Arial" font-size="19.00" fill="#111827">[Container: Bash]</text>
<text text-anchor="start" x="78.5" y="-1128.76" font-family="Arial" font-size="24.00" fill="#111827">scripts/workflow&#45;backup.sh</text>
<text text-anchor="start" x="69.5" y="-1104.76" font-family="Arial" font-size="24.00" fill="#111827">coordinates one backup run:</text>
<text text-anchor="start" x="89" y="-1080.76" font-family="Arial" font-size="24.00" fill="#111827">locking, logging, pre/post</text>
<text text-anchor="start" x="83" y="-1056.76" font-family="Arial" font-size="24.00" fill="#111827">guard checks, WSL rsync,</text>
<text text-anchor="start" x="72" y="-1032.76" font-family="Arial" font-size="24.00" fill="#111827">SQLite snapshots, Windows</text>
<text text-anchor="start" x="62" y="-1008.76" font-family="Arial" font-size="24.00" fill="#111827">sync, run&#45;ledger updates, and</text>
<text text-anchor="start" x="84.5" y="-984.76" font-family="Arial" font-size="24.00" fill="#111827">NAS manifest publication.</text>
</g>
<!-- 4&#45;&gt;16 -->
<g id="48" class="edge">
<title>4&#45;&gt;16</title>
<path fill="none" stroke="#475569" stroke-dasharray="5,2" d="M413.09,-1108.52C528.91,-1115.9 680.14,-1125.54 814.16,-1134.08"/>
<polygon fill="#475569" stroke="#475569" points="813.98,-1137.58 824.18,-1134.72 814.43,-1130.59 813.98,-1137.58"/>
<polygon fill="white" stroke="transparent" points="471,-1128.46 471,-1203.46 725,-1203.46 725,-1128.46 471,-1128.46"/>
<text text-anchor="start" x="480.5" y="-1180.76" font-family="Arial" font-size="24.00" fill="#475569">3. Launch PowerShell</text>
<text text-anchor="start" x="510.5" y="-1156.76" font-family="Arial" font-size="24.00" fill="#475569">robocopy helper</text>
<text text-anchor="start" x="475" y="-1136.76" font-family="Arial" font-size="19.00" fill="#475569">[PowerShell via WSL interop]</text>
</g>
<!-- 4&#45;&gt;17 -->
<g id="38" class="edge">
<title>4&#45;&gt;17</title>
<path fill="none" stroke="#475569" stroke-dasharray="5,2" d="M413.09,-1215.74C555.79,-1305.77 752.26,-1429.71 904.05,-1525.46"/>
<polygon fill="#475569" stroke="#475569" points="902.28,-1528.48 912.61,-1530.86 906.02,-1522.56 902.28,-1528.48"/>
<polygon fill="white" stroke="transparent" points="467.5,-1417.46 467.5,-1468.46 728.5,-1468.46 728.5,-1417.46 467.5,-1417.46"/>
<text text-anchor="start" x="472" y="-1445.76" font-family="Arial" font-size="24.00" fill="#475569">6. Run post&#45;write guard</text>
<text text-anchor="start" x="544" y="-1425.76" font-family="Arial" font-size="19.00" fill="#475569">[subprocess]</text>
</g>
<!-- 4&#45;&gt;21 -->
<g id="37" class="edge">
<title>4&#45;&gt;21</title>
<path fill="none" stroke="#475569" stroke-dasharray="5,2" d="M296.03,-1235.99C389.94,-1407.63 567.86,-1700.18 783,-1895.46 809.02,-1919.08 837.61,-1942.07 866.9,-1963.83"/>
<polygon fill="#475569" stroke="#475569" points="865.06,-1966.81 875.18,-1969.93 869.21,-1961.18 865.06,-1966.81"/>
<polygon fill="white" stroke="transparent" points="449,-1859.46 449,-1934.46 747,-1934.46 747,-1859.46 449,-1859.46"/>
<text text-anchor="start" x="453" y="-1911.76" font-family="Arial" font-size="24.00" fill="#475569">8. Record completed event</text>
<text text-anchor="start" x="501.5" y="-1887.76" font-family="Arial" font-size="24.00" fill="#475569">and export history</text>
<text text-anchor="start" x="511" y="-1867.76" font-family="Arial" font-size="19.00" fill="#475569">[filesystem + sqlite3]</text>
</g>
<!-- 22 -->
<g id="22" class="node">
<title>22</title>
<path fill="#fef3c7" stroke="#d97706" d="M1342.41,-744.25C1342.41,-760.16 1249.41,-773.09 1134.91,-773.09 1020.41,-773.09 927.41,-760.16 927.41,-744.25 927.41,-744.25 927.41,-484.68 927.41,-484.68 927.41,-468.76 1020.41,-455.84 1134.91,-455.84 1249.41,-455.84 1342.41,-468.76 1342.41,-484.68 1342.41,-484.68 1342.41,-744.25 1342.41,-744.25"/>
<path fill="none" stroke="#d97706" d="M1342.41,-744.25C1342.41,-728.33 1249.41,-715.41 1134.91,-715.41 1020.41,-715.41 927.41,-728.33 927.41,-744.25"/>
<text text-anchor="start" x="956.41" y="-681.76" font-family="Arial" font-size="34.00" fill="#111827">WSL Workflow Sources</text>
<text text-anchor="start" x="1057.91" y="-659.76" font-family="Arial" font-size="19.00" fill="#111827">[Software System]</text>
<text text-anchor="start" x="981.41" y="-622.76" font-family="Arial" font-size="24.00" fill="#111827">Workflow&#45;critical WSL paths:</text>
<text text-anchor="start" x="989.91" y="-598.76" font-family="Arial" font-size="24.00" fill="#111827">~/repos, ~/.hermes, ~/.ssh,</text>
<text text-anchor="start" x="1023.41" y="-574.76" font-family="Arial" font-size="24.00" fill="#111827">systemd user config,</text>
<text text-anchor="start" x="978.41" y="-550.76" font-family="Arial" font-size="24.00" fill="#111827">lifelog/browser&#45;memory data,</text>
<text text-anchor="start" x="979.91" y="-526.76" font-family="Arial" font-size="24.00" fill="#111827">and optional brain&#45;code tree.</text>
</g>
<!-- 4&#45;&gt;22 -->
<g id="45" class="edge">
<title>4&#45;&gt;22</title>
<path fill="none" stroke="#475569" stroke-dasharray="5,2" d="M413.25,-984.95C520.65,-922.82 658.17,-845.17 783,-780.46 826.24,-758.05 873.04,-735.06 917.93,-713.61"/>
<polygon fill="#475569" stroke="#475569" points="919.66,-716.66 927.18,-709.2 916.65,-710.34 919.66,-716.66"/>
<polygon fill="white" stroke="transparent" points="452.5,-956.46 452.5,-1007.46 743.5,-1007.46 743.5,-956.46 452.5,-956.46"/>
<text text-anchor="start" x="457" y="-984.76" font-family="Arial" font-size="24.00" fill="#475569">1. Read WSL source trees</text>
<text text-anchor="start" x="547" y="-964.76" font-family="Arial" font-size="19.00" fill="#475569">[sudo rsync]</text>
</g>
<!-- 4&#45;&gt;24 -->
<g id="46" class="edge">
<title>4&#45;&gt;24</title>
<path fill="none" stroke="#475569" stroke-dasharray="5,2" d="M283.65,-956.79C366.75,-782.33 535.55,-491.78 783,-368.46 1135.87,-192.62 1613.55,-242.18 1876.08,-289.89"/>
<polygon fill="#475569" stroke="#475569" points="1875.63,-293.37 1886.1,-291.73 1876.9,-286.48 1875.63,-293.37"/>
<polygon fill="white" stroke="transparent" points="990.91,-368.46 990.91,-419.46 1278.91,-419.46 1278.91,-368.46 990.91,-368.46"/>
<text text-anchor="start" x="994.91" y="-396.76" font-family="Arial" font-size="24.00" fill="#475569">2. Mirror WSL current tree</text>
<text text-anchor="start" x="1038.41" y="-376.76" font-family="Arial" font-size="19.00" fill="#475569">[SSH rsync + SSH cat]</text>
</g>
<!-- 4&#45;&gt;24 -->
<g id="46" class="edge">
<title>4&#45;&gt;24</title>
<path fill="none" stroke="#475569" stroke-dasharray="5,2" d="M239.19,-956.63C262.11,-800.93 317.79,-548.24 449,-373.46 555.87,-231.12 612.55,-203.75 783,-152.46 1228.09,-18.54 1384.64,-85.17 1825.82,-231.46 1842.47,-236.98 1859.59,-243.12 1876.66,-249.56"/>
<polygon fill="#475569" stroke="#475569" points="1875.55,-252.88 1886.14,-253.17 1878.04,-246.34 1875.55,-252.88"/>
<polygon fill="white" stroke="transparent" points="1015.91,-152.46 1015.91,-227.46 1253.91,-227.46 1253.91,-152.46 1015.91,-152.46"/>
<text text-anchor="start" x="1019.91" y="-204.76" font-family="Arial" font-size="24.00" fill="#475569">9. Publish _manifests</text>
<text text-anchor="start" x="1077.41" y="-180.76" font-family="Arial" font-size="24.00" fill="#475569">status files</text>
<text text-anchor="start" x="1038.41" y="-160.76" font-family="Arial" font-size="19.00" fill="#475569">[SSH rsync + SSH cat]</text>
</g>
</g>
</svg>
