<?xml version="1.0" encoding="UTF-8" standalone="no"?>
<!DOCTYPE svg PUBLIC "-//W3C//DTD SVG 1.1//EN"
 "http://www.w3.org/Graphics/SVG/1.1/DTD/svg11.dtd">
<!-- Generated by graphviz version 2.43.0 (0)
 -->
<!-- Title: %3 Pages: 1 -->
<svg width="2397pt" height="2447pt"
 viewBox="0.00 0.00 2396.67 2447.00" xmlns="http://www.w3.org/2000/svg" xmlns:xlink="http://www.w3.org/1999/xlink">
<g id="graph0" class="graph" transform="scale(1 1) rotate(0) translate(4 2443)">
<title>%3</title>
<polygon fill="white" stroke="transparent" points="-4,4 -4,-2443 2392.67,-2443 2392.67,4 -4,4"/>
<text text-anchor="start" x="614.33" y="-35.8" font-family="Arial" font-size="34.00">Component View: WORKSTATION1 Workflow Backup &#45; Backup Orchestrator</text>
<text text-anchor="start" x="558.33" y="-9.8" font-family="Arial" font-size="24.00">C3: workflow&#45;backup.sh data&#45;movement path for SQLite snapshots, WSL rsync, and Windows robocopy helper launch.</text>
<g id="clust1" class="cluster">
<title>cluster_2</title>
<polygon fill="none" stroke="#444444" points="8,-971.19 8,-2096.19 2380.67,-2096.19 2380.67,-971.19 8,-971.19"/>
<text text-anchor="start" x="1003.33" y="-999.99" font-family="Arial" font-size="24.00" fill="#444444">WORKSTATION1 Workflow Backup</text>
<text text-anchor="start" x="1117.33" y="-979.99" font-family="Arial" font-size="19.00" fill="#444444">[Software System]</text>
</g>
<g id="clust2" class="cluster">
<title>cluster_4</title>
<polygon fill="none" stroke="#444444" points="33,-1080.19 33,-2005.19 504,-2005.19 504,-1080.19 33,-1080.19"/>
<text text-anchor="start" x="157" y="-1108.99" font-family="Arial" font-size="24.00" fill="#444444">Backup Orchestrator</text>
<text text-anchor="start" x="195" y="-1088.99" font-family="Arial" font-size="19.00" fill="#444444">[Container: Bash]</text>
</g>
<!-- 22 -->
<g id="22" class="node">
<title>22</title>
<path fill="#fef3c7" stroke="#d97706" d="M2303.67,-2409.97C2303.67,-2425.89 2210.66,-2438.81 2096.17,-2438.81 1981.67,-2438.81 1888.67,-2425.89 1888.67,-2409.97 1888.67,-2409.97 1888.67,-2150.4 1888.67,-2150.4 1888.67,-2134.49 1981.67,-2121.56 2096.17,-2121.56 2210.66,-2121.56 2303.67,-2134.49 2303.67,-2150.4 2303.67,-2150.4 2303.67,-2409.97 2303.67,-2409.97"/>
<path fill="none" stroke="#d97706" d="M2303.67,-2409.97C2303.67,-2394.06 2210.66,-2381.13 2096.17,-2381.13 1981.67,-2381.13 1888.67,-2394.06 1888.67,-2409.97"/>
<text text-anchor="start" x="1917.67" y="-2347.49" font-family="Arial" font-size="34.00" fill="#111827">WSL Workflow Sources</text>
<text text-anchor="start" x="2019.17" y="-2325.49" font-family="Arial" font-size="19.00" fill="#111827">[Software System]</text>
<text text-anchor="start" x="1942.67" y="-2288.49" font-family="Arial" font-size="24.00" fill="#111827">Workflow&#45;critical WSL paths:</text>
<text text-anchor="start" x="1951.17" y="-2264.49" font-family="Arial" font-size="24.00" fill="#111827">~/repos, ~/.hermes, ~/.ssh,</text>
<text text-anchor="start" x="1984.67" y="-2240.49" font-family="Arial" font-size="24.00" fill="#111827">systemd user config,</text>
<text text-anchor="start" x="1939.67" y="-2216.49" font-family="Arial" font-size="24.00" fill="#111827">lifelog/browser&#45;memory data,</text>
<text text-anchor="start" x="1941.17" y="-2192.49" font-family="Arial" font-size="24.00" fill="#111827">and optional brain&#45;code tree.</text>
</g>
<!-- 23 -->
<g id="23" class="node">
<title>23</title>
<path fill="#fef3c7" stroke="#d97706" d="M2304.17,-907.4C2304.17,-929.01 2210.94,-946.56 2096.17,-946.56 1981.39,-946.56 1888.17,-929.01 1888.17,-907.4 1888.17,-907.4 1888.17,-554.97 1888.17,-554.97 1888.17,-533.36 1981.39,-515.81 2096.17,-515.81 2210.94,-515.81 2304.17,-533.36 2304.17,-554.97 2304.17,-554.97 2304.17,-907.4 2304.17,-907.4"/>
<path fill="none" stroke="#d97706" d="M2304.17,-907.4C2304.17,-885.8 2210.94,-868.24 2096.17,-868.24 1981.39,-868.24 1888.17,-885.8 1888.17,-907.4"/>
<text text-anchor="start" x="1952.17" y="-839.49" font-family="Arial" font-size="34.00" fill="#111827">Windows Workflow</text>
<text text-anchor="start" x="2033.67" y="-805.49" font-family="Arial" font-size="34.00" fill="#111827">Sources</text>
<text text-anchor="start" x="2019.17" y="-783.49" font-family="Arial" font-size="19.00" fill="#111827">[Software System]</text>
<text text-anchor="start" x="1932.67" y="-746.49" font-family="Arial" font-size="24.00" fill="#111827">Selected Windows user&#45;profile</text>
<text text-anchor="start" x="1931.17" y="-722.49" font-family="Arial" font-size="24.00" fill="#111827">artifacts: Desktop, Documents,</text>
<text text-anchor="start" x="1980.67" y="-698.49" font-family="Arial" font-size="24.00" fill="#111827">Downloads, Windows</text>
<text text-anchor="start" x="1946.17" y="-674.49" font-family="Arial" font-size="24.00" fill="#111827">.ssh/.wslconfig, Terminal/VS</text>
<text text-anchor="start" x="1917.17" y="-650.49" font-family="Arial" font-size="24.00" fill="#111827">Code/PowerShell config, Chrome</text>
<text text-anchor="start" x="1939.67" y="-626.49" font-family="Arial" font-size="24.00" fill="#111827">profile metadata, and Startup</text>
<text text-anchor="start" x="2056.17" y="-602.49" font-family="Arial" font-size="24.00" fill="#111827">entries.</text>
</g>
<!-- 24 -->
<g id="24" class="node">
<title>24</title>
<path fill="#fef3c7" stroke="#d97706" d="M2279.67,-411.4C2279.67,-429.7 2197.42,-444.56 2096.17,-444.56 1994.91,-444.56 1912.67,-429.7 1912.67,-411.4 1912.67,-411.4 1912.67,-112.97 1912.67,-112.97 1912.67,-94.67 1994.91,-79.81 2096.17,-79.81 2197.42,-79.81 2279.67,-94.67 2279.67,-112.97 2279.67,-112.97 2279.67,-411.4 2279.67,-411.4"/>
<path fill="none" stroke="#d97706" d="M2279.67,-411.4C2279.67,-393.11 2197.42,-378.24 2096.17,-378.24 1994.91,-378.24 1912.67,-393.11 1912.67,-411.4"/>
<text text-anchor="start" x="1965.17" y="-346.49" font-family="Arial" font-size="34.00" fill="#111827">TrueNAS Backup</text>
<text text-anchor="start" x="2037.17" y="-312.49" font-family="Arial" font-size="34.00" fill="#111827">Dataset</text>
<text text-anchor="start" x="2019.17" y="-290.49" font-family="Arial" font-size="19.00" fill="#111827">[Software System]</text>
<text text-anchor="start" x="1946.67" y="-253.49" font-family="Arial" font-size="24.00" fill="#111827">Encrypted TrueNAS dataset</text>
<text text-anchor="start" x="1941.67" y="-229.49" font-family="Arial" font-size="24.00" fill="#111827">v1/ws1/wf with current mirror</text>
<text text-anchor="start" x="1950.17" y="-205.49" font-family="Arial" font-size="24.00" fill="#111827">tree, manifests, SMB share</text>
<text text-anchor="start" x="1952.67" y="-181.49" font-family="Arial" font-size="24.00" fill="#111827">ws1&#45;wf, and ZFS snapshot</text>
<text text-anchor="start" x="2057.67" y="-157.49" font-family="Arial" font-size="24.00" fill="#111827">history.</text>
</g>
<!-- 10 -->
<g id="10" class="node">
<title>10</title>
<polygon fill="#f0fdf4" stroke="#22c55e" points="479,-1700.69 58,-1700.69 58,-1493.69 479,-1493.69 479,-1700.69"/>
<text text-anchor="start" x="87" y="-1652.49" font-family="Arial" font-size="34.00" fill="#111827">SQLite Snapshot Phase</text>
<text text-anchor="start" x="94" y="-1630.49" font-family="Arial" font-size="19.00" fill="#111827">[Component: Python subprocess + rsync]</text>
<text text-anchor="start" x="115.5" y="-1593.49" font-family="Arial" font-size="24.00" fill="#111827">Runs the SQLite backup API</text>
<text text-anchor="start" x="119.5" y="-1569.49" font-family="Arial" font-size="24.00" fill="#111827">snapshotter and mirrors the</text>
<text text-anchor="start" x="103.5" y="-1545.49" font-family="Arial" font-size="24.00" fill="#111827">consistent DB snapshot tree to</text>
<text text-anchor="start" x="240.5" y="-1521.49" font-family="Arial" font-size="24.00" fill="#111827">NAS.</text>
</g>
<!-- 10&#45;&gt;24 -->
<g id="75" class="edge">
<title>10&#45;&gt;24</title>
<path fill="none" stroke="#475569" stroke-dasharray="5,2" d="M477.24,-1493.5C487.5,-1482.74 496.59,-1470.99 504,-1458.19 527.04,-1418.37 488.47,-667.77 515,-630.19 674.3,-404.52 1517.05,-308.63 1902.49,-276.13"/>
<polygon fill="#475569" stroke="#475569" points="1902.96,-279.6 1912.63,-275.28 1902.37,-272.62 1902.96,-279.6"/>
<polygon fill="white" stroke="transparent" points="996.33,-459.19 996.33,-534.19 1274.33,-534.19 1274.33,-459.19 996.33,-459.19"/>
<text text-anchor="start" x="1000.33" y="-511.49" font-family="Arial" font-size="24.00" fill="#475569">Mirrors DB snapshot tree</text>
<text text-anchor="start" x="1124.83" y="-487.49" font-family="Arial" font-size="24.00" fill="#475569">to</text>
<text text-anchor="start" x="1106.83" y="-467.49" font-family="Arial" font-size="19.00" fill="#475569">[rsync]</text>
</g>
<!-- 15 -->
<g id="15" class="node">
<title>15</title>
<polygon fill="#ecfeff" stroke="#0891b2" points="1455.47,-1863.19 1295.4,-2071.6 975.27,-2071.6 815.2,-1863.19 975.27,-1654.77 1295.4,-1654.77 1455.47,-1863.19"/>
<text text-anchor="start" x="986.83" y="-1942.49" font-family="Arial" font-size="34.00" fill="#111827">SQLite Snapshotter</text>
<text text-anchor="start" x="1013.33" y="-1920.49" font-family="Arial" font-size="19.00" fill="#111827">[Container: Python 3, sqlite3]</text>
<text text-anchor="start" x="972.83" y="-1883.49" font-family="Arial" font-size="24.00" fill="#111827">Creates application&#45;consistent</text>
<text text-anchor="start" x="999.33" y="-1859.49" font-family="Arial" font-size="24.00" fill="#111827">copies of Hermes, lifelog,</text>
<text text-anchor="start" x="977.33" y="-1835.49" font-family="Arial" font-size="24.00" fill="#111827">browser&#45;memory, and related</text>
<text text-anchor="start" x="968.33" y="-1811.49" font-family="Arial" font-size="24.00" fill="#111827">SQLite databases using sqlite3</text>
<text text-anchor="start" x="978.33" y="-1787.49" font-family="Arial" font-size="24.00" fill="#111827">backup API; can quick_check</text>
<text text-anchor="start" x="1096.83" y="-1763.49" font-family="Arial" font-size="24.00" fill="#111827">copies.</text>
</g>
<!-- 10&#45;&gt;15 -->
<g id="74" class="edge">
<title>10&#45;&gt;15</title>
<path fill="none" stroke="#475569" stroke-dasharray="5,2" d="M479.13,-1661.66C595.58,-1697.48 741.68,-1742.42 866.35,-1780.76"/>
<polygon fill="#475569" stroke="#475569" points="865.47,-1784.15 876.05,-1783.75 867.52,-1777.46 865.47,-1784.15"/>
<polygon fill="white" stroke="transparent" points="521,-1749.19 521,-1809.19 770,-1809.19 770,-1749.19 521,-1749.19"/>
<text text-anchor="start" x="525.5" y="-1785.99" font-family="Arial" font-size="24.00" fill="#475569">Creates consistent DB</text>
<text text-anchor="start" x="527.5" y="-1759.99" font-family="Arial" font-size="24.00" fill="#475569">snapshot tree through</text>
</g>
<!-- 11 -->
<g id="11" class="node">
<title>11</title>
<polygon fill="#f0fdf4" stroke="#22c55e" points="468,-1979.69 69,-1979.69 69,-1772.69 468,-1772.69 468,-1979.69"/>
<text text-anchor="start" x="126.5" y="-1931.49" font-family="Arial" font-size="34.00" fill="#111827">WSL Rsync Phase</text>
<text text-anchor="start" x="143" y="-1909.49" font-family="Arial" font-size="19.00" fill="#111827">[Component: rsync over SSH]</text>
<text text-anchor="start" x="141" y="-1872.49" font-family="Arial" font-size="24.00" fill="#111827">Mirrors configured WSL</text>
<text text-anchor="start" x="137" y="-1848.49" font-family="Arial" font-size="24.00" fill="#111827">directories to current/wsl</text>
<text text-anchor="start" x="98" y="-1824.49" font-family="Arial" font-size="24.00" fill="#111827">using sudo rsync over SSH with</text>
<text text-anchor="start" x="163" y="-1800.49" font-family="Arial" font-size="24.00" fill="#111827">payload exclusions.</text>
</g>
<!-- 11&#45;&gt;22 -->
<g id="76" class="edge">
<title>11&#45;&gt;22</title>
<path fill="none" stroke="#475569" stroke-dasharray="5,2" d="M348.29,-1979.87C391.77,-2029.16 450.06,-2083.83 515,-2114.19 964.45,-2324.29 1562.34,-2321.1 1878.24,-2300.63"/>
<polygon fill="#475569" stroke="#475569" points="1878.68,-2304.1 1888.43,-2299.95 1878.22,-2297.12 1878.68,-2304.1"/>
<polygon fill="white" stroke="transparent" points="974.33,-2306.19 974.33,-2381.19 1296.33,-2381.19 1296.33,-2306.19 974.33,-2306.19"/>
<text text-anchor="start" x="978.33" y="-2358.49" font-family="Arial" font-size="24.00" fill="#475569">Reads configured WSL paths</text>
<text text-anchor="start" x="1110.83" y="-2334.49" font-family="Arial" font-size="24.00" fill="#475569">from</text>
<text text-anchor="start" x="1086.83" y="-2314.49" font-family="Arial" font-size="19.00" fill="#475569">[filesystem]</text>
</g>
<!-- 11&#45;&gt;24 -->
<g id="77" class="edge">
<title>11&#45;&gt;24</title>
<path fill="none" stroke="#475569" stroke-dasharray="5,2" d="M468.09,-1781.54C482.11,-1768.41 494.45,-1753.67 504,-1737.19 525.83,-1699.49 490.71,-989.35 515,-953.19 769.1,-574.91 1041.58,-735.78 1458.67,-552.19 1608.57,-486.2 1777.19,-409.25 1903.2,-351.2"/>
<polygon fill="#475569" stroke="#475569" points="1904.97,-354.24 1912.58,-346.88 1902.04,-347.89 1904.97,-354.24"/>
<polygon fill="white" stroke="transparent" points="1020.33,-708.19 1020.33,-759.19 1250.33,-759.19 1250.33,-708.19 1020.33,-708.19"/>
<text text-anchor="start" x="1024.33" y="-736.49" font-family="Arial" font-size="24.00" fill="#475569">Mirrors WSL trees to</text>
<text text-anchor="start" x="1063.83" y="-716.49" font-family="Arial" font-size="19.00" fill="#475569">[rsync over SSH]</text>
</g>
<!-- 12 -->
<g id="12" class="node">
<title>12</title>
<polygon fill="#f0fdf4" stroke="#22c55e" points="466,-1421.69 71,-1421.69 71,-1180.69 466,-1180.69 466,-1421.69"/>
<text text-anchor="start" x="146.5" y="-1373.49" font-family="Arial" font-size="34.00" fill="#111827">Windows Phase</text>
<text text-anchor="start" x="197.5" y="-1339.49" font-family="Arial" font-size="34.00" fill="#111827">Launcher</text>
<text text-anchor="start" x="124.5" y="-1317.49" font-family="Arial" font-size="19.00" fill="#111827">[Component: Bash + WSL interop]</text>
<text text-anchor="start" x="109" y="-1280.49" font-family="Arial" font-size="24.00" fill="#111827">Copies the PowerShell helper</text>
<text text-anchor="start" x="100" y="-1256.49" font-family="Arial" font-size="24.00" fill="#111827">to Windows temp and launches</text>
<text text-anchor="start" x="115" y="-1232.49" font-family="Arial" font-size="24.00" fill="#111827">it through direct WSL interop</text>
<text text-anchor="start" x="187.5" y="-1208.49" font-family="Arial" font-size="24.00" fill="#111827">or /init fallback.</text>
</g>
<!-- 12&#45;&gt;24 -->
<g id="79" class="edge">
<title>12&#45;&gt;24</title>
<path fill="none" stroke="#475569" stroke-dasharray="5,2" d="M288.3,-1180.4C324.28,-963.83 408.83,-521.74 515,-411.19 876.23,-35.05 1566.99,-133.63 1902.62,-210.59"/>
<polygon fill="#475569" stroke="#475569" points="1901.91,-214.02 1912.44,-212.86 1903.49,-207.2 1901.91,-214.02"/>
<polygon fill="white" stroke="transparent" points="980.33,-216.19 980.33,-276.19 1290.33,-276.19 1290.33,-216.19 980.33,-216.19"/>
<text text-anchor="start" x="984.33" y="-252.99" font-family="Arial" font-size="24.00" fill="#475569">Uses SMB root for Windows</text>
<text text-anchor="start" x="1039.33" y="-226.99" font-family="Arial" font-size="24.00" fill="#475569">helper destination</text>
</g>
<!-- 16 -->
<g id="16" class="node">
<title>16</title>
<polygon fill="#ecfeff" stroke="#0891b2" points="1458.5,-1327.19 1296.92,-1582.81 973.75,-1582.81 812.17,-1327.19 973.75,-1071.56 1296.92,-1071.56 1458.5,-1327.19"/>
<text text-anchor="start" x="966.33" y="-1435.49" font-family="Arial" font-size="34.00" fill="#111827">Windows Critical Sync</text>
<text text-anchor="start" x="1085.33" y="-1401.49" font-family="Arial" font-size="34.00" fill="#111827">Helper</text>
<text text-anchor="start" x="968.33" y="-1379.49" font-family="Arial" font-size="19.00" fill="#111827">[Container: PowerShell + robocopy.exe]</text>
<text text-anchor="start" x="989.33" y="-1342.49" font-family="Arial" font-size="24.00" fill="#111827">PowerShell script launched</text>
<text text-anchor="start" x="1029.33" y="-1318.49" font-family="Arial" font-size="24.00" fill="#111827">from WSL that uses</text>
<text text-anchor="start" x="1014.33" y="-1294.49" font-family="Arial" font-size="24.00" fill="#111827">robocopy.exe to mirror</text>
<text text-anchor="start" x="1001.33" y="-1270.49" font-family="Arial" font-size="24.00" fill="#111827">selected Windows profile</text>
<text text-anchor="start" x="991.33" y="-1246.49" font-family="Arial" font-size="24.00" fill="#111827">directories/files to the SMB</text>
<text text-anchor="start" x="983.83" y="-1222.49" font-family="Arial" font-size="24.00" fill="#111827">share and writes a Windows</text>
<text text-anchor="start" x="1057.83" y="-1198.49" font-family="Arial" font-size="24.00" fill="#111827">sync manifest.</text>
</g>
<!-- 12&#45;&gt;16 -->
<g id="78" class="edge">
<title>12&#45;&gt;16</title>
<path fill="none" stroke="#475569" stroke-dasharray="5,2" d="M466.01,-1307.1C566.99,-1310.13 692.69,-1313.91 807.75,-1317.37"/>
<polygon fill="#475569" stroke="#475569" points="807.68,-1320.87 817.78,-1317.67 807.89,-1313.87 807.68,-1320.87"/>
<polygon fill="white" stroke="transparent" points="515,-1315.19 515,-1366.19 776,-1366.19 776,-1315.19 515,-1315.19"/>
<text text-anchor="start" x="519.5" y="-1343.49" font-family="Arial" font-size="24.00" fill="#475569">Launches and monitors</text>
<text text-anchor="start" x="592.5" y="-1323.49" font-family="Arial" font-size="19.00" fill="#475569">[PowerShell]</text>
</g>
<!-- 15&#45;&gt;22 -->
<g id="42" class="edge">
<title>15&#45;&gt;22</title>
<path fill="none" stroke="#475569" stroke-dasharray="5,2" d="M1389,-1950.32C1514.52,-1995.98 1667.43,-2055.22 1800.67,-2117.19 1826.49,-2129.2 1853.16,-2142.55 1879.41,-2156.28"/>
<polygon fill="#475569" stroke="#475569" points="1877.82,-2159.4 1888.3,-2160.96 1881.07,-2153.2 1877.82,-2159.4"/>
<polygon fill="white" stroke="transparent" points="1547.17,-2117.19 1547.17,-2192.19 1748.17,-2192.19 1748.17,-2117.19 1547.17,-2117.19"/>
<text text-anchor="start" x="1551.67" y="-2169.49" font-family="Arial" font-size="24.00" fill="#475569">Reads live SQLite</text>
<text text-anchor="start" x="1564.17" y="-2145.49" font-family="Arial" font-size="24.00" fill="#475569">databases from</text>
<text text-anchor="start" x="1563.67" y="-2125.49" font-family="Arial" font-size="19.00" fill="#475569">[sqlite3 backup API]</text>
</g>
<!-- 21 -->
<g id="21" class="node">
<title>21</title>
<path fill="#fef3c7" stroke="#d97706" d="M2355.67,-1714.9C2355.67,-1734.86 2239.35,-1751.06 2096.17,-1751.06 1952.98,-1751.06 1836.67,-1734.86 1836.67,-1714.9 1836.67,-1714.9 1836.67,-1389.47 1836.67,-1389.47 1836.67,-1369.52 1952.98,-1353.31 2096.17,-1353.31 2239.35,-1353.31 2355.67,-1369.52 2355.67,-1389.47 2355.67,-1389.47 2355.67,-1714.9 2355.67,-1714.9"/>
<path fill="none" stroke="#d97706" d="M2355.67,-1714.9C2355.67,-1694.95 2239.35,-1678.74 2096.17,-1678.74 1952.98,-1678.74 1836.67,-1694.95 1836.67,-1714.9"/>
<text text-anchor="start" x="1929.17" y="-1648.49" font-family="Arial" font-size="34.00" fill="#111827">Run Ledger and Local</text>
<text text-anchor="start" x="2056.17" y="-1614.49" font-family="Arial" font-size="34.00" fill="#111827">State</text>
<text text-anchor="start" x="1869.17" y="-1592.49" font-family="Arial" font-size="19.00" fill="#111827">[Container: SQLite + JSON + logs on WSL filesystem]</text>
<text text-anchor="start" x="1938.17" y="-1555.49" font-family="Arial" font-size="24.00" fill="#111827">Local status, logs, SQLite run</text>
<text text-anchor="start" x="1948.17" y="-1531.49" font-family="Arial" font-size="24.00" fill="#111827">ledger, exported run&#45;history</text>
<text text-anchor="start" x="1929.17" y="-1507.49" font-family="Arial" font-size="24.00" fill="#111827">JSON, SQLite snapshot cache,</text>
<text text-anchor="start" x="1938.67" y="-1483.49" font-family="Arial" font-size="24.00" fill="#111827">and Windows manifest cache</text>
<text text-anchor="start" x="2064.67" y="-1459.49" font-family="Arial" font-size="24.00" fill="#111827">under</text>
<text text-anchor="start" x="1865.67" y="-1435.49" font-family="Arial" font-size="24.00" fill="#111827">~/.local/state/workstation&#45;workflow&#45;backup.</text>
</g>
<!-- 15&#45;&gt;21 -->
<g id="44" class="edge">
<title>15&#45;&gt;21</title>
<path fill="none" stroke="#475569" stroke-dasharray="5,2" d="M1392.02,-1780.25C1526.24,-1736.72 1690.63,-1683.4 1826.69,-1639.27"/>
<polygon fill="#475569" stroke="#475569" points="1828.01,-1642.52 1836.44,-1636.11 1825.85,-1635.86 1828.01,-1642.52"/>
<polygon fill="white" stroke="transparent" points="1535.17,-1744.19 1535.17,-1843.19 1760.17,-1843.19 1760.17,-1744.19 1535.17,-1744.19"/>
<text text-anchor="start" x="1545.67" y="-1820.49" font-family="Arial" font-size="24.00" fill="#475569">Writes local SQLite</text>
<text text-anchor="start" x="1539.67" y="-1796.49" font-family="Arial" font-size="24.00" fill="#475569">snapshot cache and</text>
<text text-anchor="start" x="1567.67" y="-1772.49" font-family="Arial" font-size="24.00" fill="#475569">manifest under</text>
<text text-anchor="start" x="1599.67" y="-1752.49" font-family="Arial" font-size="19.00" fill="#475569">[filesystem]</text>
</g>
<!-- 16&#45;&gt;23 -->
<g id="49" class="edge">
<title>16&#45;&gt;23</title>
<path fill="none" stroke="#475569" stroke-dasharray="5,2" d="M1367.83,-1183.29C1523.38,-1086.6 1726.98,-960.04 1879.2,-865.43"/>
<polygon fill="#475569" stroke="#475569" points="1881.13,-868.35 1887.77,-860.1 1877.43,-862.41 1881.13,-868.35"/>
<polygon fill="white" stroke="transparent" points="1505.17,-1099.19 1505.17,-1174.19 1790.17,-1174.19 1790.17,-1099.19 1505.17,-1099.19"/>
<text text-anchor="start" x="1509.67" y="-1151.49" font-family="Arial" font-size="24.00" fill="#475569">Mirrors selected Windows</text>
<text text-anchor="start" x="1577.67" y="-1127.49" font-family="Arial" font-size="24.00" fill="#475569">artifacts from</text>
<text text-anchor="start" x="1586.17" y="-1107.49" font-family="Arial" font-size="19.00" fill="#475569">[robocopy.exe]</text>
</g>
<!-- 16&#45;&gt;24 -->
<g id="51" class="edge">
<title>16&#45;&gt;24</title>
<path fill="none" stroke="#475569" stroke-dasharray="5,2" d="M1277.5,-1071.6C1335.4,-985.54 1409.07,-895.22 1494.67,-831.19 1610.15,-744.8 1708.94,-834.48 1800.67,-723.19 1870.1,-638.93 1783.5,-575.55 1836.67,-480.19 1854.3,-448.55 1878.46,-419.5 1904.96,-393.63"/>
<polygon fill="#475569" stroke="#475569" points="1907.69,-395.86 1912.49,-386.42 1902.85,-390.8 1907.69,-395.86"/>
<polygon fill="white" stroke="transparent" points="1494.67,-831.19 1494.67,-906.19 1800.67,-906.19 1800.67,-831.19 1494.67,-831.19"/>
<text text-anchor="start" x="1498.67" y="-883.49" font-family="Arial" font-size="24.00" fill="#475569">Writes current/windows and</text>
<text text-anchor="start" x="1530.17" y="-859.49" font-family="Arial" font-size="24.00" fill="#475569">Windows manifests to</text>
<text text-anchor="start" x="1529.17" y="-839.49" font-family="Arial" font-size="19.00" fill="#475569">[SMB \10.99.98.221\ws1&#45;wf]</text>
</g>
<!-- 16&#45;&gt;21 -->
<g id="52" class="edge">
<title>16&#45;&gt;21</title>
<path fill="none" stroke="#475569" stroke-dasharray="5,2" d="M1416.89,-1393.02C1546.16,-1423.36 1698.88,-1459.2 1826.65,-1489.18"/>
<polygon fill="#475569" stroke="#475569" points="1826.04,-1492.63 1836.58,-1491.51 1827.64,-1485.82 1826.04,-1492.63"/>
<polygon fill="white" stroke="transparent" points="1502.17,-1479.19 1502.17,-1539.19 1793.17,-1539.19 1793.17,-1479.19 1502.17,-1479.19"/>
<text text-anchor="start" x="1506.67" y="-1515.99" font-family="Arial" font-size="24.00" fill="#475569">Leaves manifest cache for</text>
<text text-anchor="start" x="1551.67" y="-1489.99" font-family="Arial" font-size="24.00" fill="#475569">ledger summaries</text>
</g>
</g>
</svg>
