<?xml version="1.0" encoding="UTF-8" standalone="no"?>
<!DOCTYPE svg PUBLIC "-//W3C//DTD SVG 1.1//EN"
 "http://www.w3.org/Graphics/SVG/1.1/DTD/svg11.dtd">
<!-- Generated by graphviz version 2.43.0 (0)
 -->
<!-- Title: %3 Pages: 1 -->
<svg width="4335pt" height="4511pt"
 viewBox="0.00 0.00 4335.14 4510.79" xmlns="http://www.w3.org/2000/svg" xmlns:xlink="http://www.w3.org/1999/xlink">
<g id="graph0" class="graph" transform="scale(1 1) rotate(0) translate(4 4506.79)">
<title>%3</title>
<polygon fill="white" stroke="transparent" points="-4,4 -4,-4506.79 4331.14,-4506.79 4331.14,4 -4,4"/>
<text text-anchor="start" x="1769.07" y="-35.8" font-family="Arial" font-size="34.00">Container View: WORKSTATION1 Workflow Backup</text>
<text text-anchor="start" x="1512.07" y="-9.8" font-family="Arial" font-size="24.00">C2: hourly runtime path for guarded WSL/Windows sync, consistent SQLite snapshots, run history, and failure notification.</text>
<g id="clust1" class="cluster">
<title>cluster_2</title>
<polygon fill="none" stroke="#444444" points="8,-1058.61 8,-3882.61 3597.14,-3882.61 3597.14,-1058.61 8,-1058.61"/>
<text text-anchor="start" x="1611.57" y="-1087.41" font-family="Arial" font-size="24.00" fill="#444444">WORKSTATION1 Workflow Backup</text>
<text text-anchor="start" x="1725.57" y="-1067.41" font-family="Arial" font-size="19.00" fill="#444444">[Software System]</text>
</g>
<!-- 26 -->
<g id="26" class="node">
<title>26</title>
<path fill="#fef3c7" stroke="#d97706" d="M3411.4,-502.39C3411.4,-518.31 3318.39,-531.23 3203.9,-531.23 3089.4,-531.23 2996.4,-518.31 2996.4,-502.39 2996.4,-502.39 2996.4,-242.82 2996.4,-242.82 2996.4,-226.91 3089.4,-213.98 3203.9,-213.98 3318.39,-213.98 3411.4,-226.91 3411.4,-242.82 3411.4,-242.82 3411.4,-502.39 3411.4,-502.39"/>
<path fill="none" stroke="#d97706" d="M3411.4,-502.39C3411.4,-486.48 3318.39,-473.55 3203.9,-473.55 3089.4,-473.55 2996.4,-486.48 2996.4,-502.39"/>
<text text-anchor="start" x="3025.4" y="-439.91" font-family="Arial" font-size="34.00" fill="#111827">WSL Workflow Sources</text>
<text text-anchor="start" x="3126.9" y="-417.91" font-family="Arial" font-size="19.00" fill="#111827">[Software System]</text>
<text text-anchor="start" x="3050.4" y="-380.91" font-family="Arial" font-size="24.00" fill="#111827">Workflow&#45;critical WSL paths:</text>
<text text-anchor="start" x="3058.9" y="-356.91" font-family="Arial" font-size="24.00" fill="#111827">~/repos, ~/.hermes, ~/.ssh,</text>
<text text-anchor="start" x="3092.4" y="-332.91" font-family="Arial" font-size="24.00" fill="#111827">systemd user config,</text>
<text text-anchor="start" x="3047.4" y="-308.91" font-family="Arial" font-size="24.00" fill="#111827">lifelog/browser&#45;memory data,</text>
<text text-anchor="start" x="3048.9" y="-284.91" font-family="Arial" font-size="24.00" fill="#111827">and optional brain&#45;code tree.</text>
</g>
<!-- 27 -->
<g id="27" class="node">
<title>27</title>
<path fill="#fef3c7" stroke="#d97706" d="M3411.9,-994.82C3411.9,-1016.43 3318.67,-1033.98 3203.9,-1033.98 3089.13,-1033.98 2995.9,-1016.43 2995.9,-994.82 2995.9,-994.82 2995.9,-642.39 2995.9,-642.39 2995.9,-620.78 3089.13,-603.23 3203.9,-603.23 3318.67,-603.23 3411.9,-620.78 3411.9,-642.39 3411.9,-642.39 3411.9,-994.82 3411.9,-994.82"/>
<path fill="none" stroke="#d97706" d="M3411.9,-994.82C3411.9,-973.22 3318.67,-955.66 3203.9,-955.66 3089.13,-955.66 2995.9,-973.22 2995.9,-994.82"/>
<text text-anchor="start" x="3059.9" y="-926.91" font-family="Arial" font-size="34.00" fill="#111827">Windows Workflow</text>
<text text-anchor="start" x="3141.4" y="-892.91" font-family="Arial" font-size="34.00" fill="#111827">Sources</text>
<text text-anchor="start" x="3126.9" y="-870.91" font-family="Arial" font-size="19.00" fill="#111827">[Software System]</text>
<text text-anchor="start" x="3040.4" y="-833.91" font-family="Arial" font-size="24.00" fill="#111827">Selected Windows user&#45;profile</text>
<text text-anchor="start" x="3038.9" y="-809.91" font-family="Arial" font-size="24.00" fill="#111827">artifacts: Desktop, Documents,</text>
<text text-anchor="start" x="3088.4" y="-785.91" font-family="Arial" font-size="24.00" fill="#111827">Downloads, Windows</text>
<text text-anchor="start" x="3053.9" y="-761.91" font-family="Arial" font-size="24.00" fill="#111827">.ssh/.wslconfig, Terminal/VS</text>
<text text-anchor="start" x="3024.9" y="-737.91" font-family="Arial" font-size="24.00" fill="#111827">Code/PowerShell config, Chrome</text>
<text text-anchor="start" x="3047.4" y="-713.91" font-family="Arial" font-size="24.00" fill="#111827">profile metadata, and Startup</text>
<text text-anchor="start" x="3163.9" y="-689.91" font-family="Arial" font-size="24.00" fill="#111827">entries.</text>
</g>
<!-- 28 -->
<g id="28" class="node">
<title>28</title>
<path fill="#fef3c7" stroke="#d97706" d="M4322.14,-1993.32C4322.14,-2013.28 4233.84,-2029.48 4125.14,-2029.48 4016.44,-2029.48 3928.14,-2013.28 3928.14,-1993.32 3928.14,-1993.32 3928.14,-1667.89 3928.14,-1667.89 3928.14,-1647.94 4016.44,-1631.73 4125.14,-1631.73 4233.84,-1631.73 4322.14,-1647.94 4322.14,-1667.89 4322.14,-1667.89 4322.14,-1993.32 4322.14,-1993.32"/>
<path fill="none" stroke="#d97706" d="M4322.14,-1993.32C4322.14,-1973.37 4233.84,-1957.16 4125.14,-1957.16 4016.44,-1957.16 3928.14,-1973.37 3928.14,-1993.32"/>
<text text-anchor="start" x="3994.14" y="-1926.91" font-family="Arial" font-size="34.00" fill="#111827">TrueNAS Backup</text>
<text text-anchor="start" x="4066.14" y="-1892.91" font-family="Arial" font-size="34.00" fill="#111827">Dataset</text>
<text text-anchor="start" x="4048.14" y="-1870.91" font-family="Arial" font-size="19.00" fill="#111827">[Software System]</text>
<text text-anchor="start" x="3957.14" y="-1833.91" font-family="Arial" font-size="24.00" fill="#111827">Configured encrypted TrueNAS</text>
<text text-anchor="start" x="3983.64" y="-1809.91" font-family="Arial" font-size="24.00" fill="#111827">dataset with current mirror</text>
<text text-anchor="start" x="3975.64" y="-1785.91" font-family="Arial" font-size="24.00" fill="#111827">tree, manifests, SMB share,</text>
<text text-anchor="start" x="3976.64" y="-1761.91" font-family="Arial" font-size="24.00" fill="#111827">restore checksum manifest,</text>
<text text-anchor="start" x="3974.64" y="-1737.91" font-family="Arial" font-size="24.00" fill="#111827">refquota, and ZFS snapshot</text>
<text text-anchor="start" x="4086.64" y="-1713.91" font-family="Arial" font-size="24.00" fill="#111827">history.</text>
</g>
<!-- 29 -->
<g id="29" class="node">
<title>29</title>
<polygon fill="#f3e8ff" stroke="#9333ea" points="4327.14,-3477.11 3923.14,-3477.11 3923.14,-3188.11 4327.14,-3188.11 4327.14,-3477.11"/>
<text text-anchor="start" x="3964.14" y="-3428.91" font-family="Arial" font-size="34.00" fill="#111827">TrueNAS Middleware</text>
<text text-anchor="start" x="3952.14" y="-3394.91" font-family="Arial" font-size="34.00" fill="#111827">and ZFS Control Plane</text>
<text text-anchor="start" x="4048.14" y="-3372.91" font-family="Arial" font-size="19.00" fill="#111827">[Software System]</text>
<text text-anchor="start" x="3977.64" y="-3335.91" font-family="Arial" font-size="24.00" fill="#111827">Configured admin SSH and</text>
<text text-anchor="start" x="3972.64" y="-3311.91" font-family="Arial" font-size="24.00" fill="#111827">middleware surface used for</text>
<text text-anchor="start" x="3969.64" y="-3287.91" font-family="Arial" font-size="24.00" fill="#111827">ZFS properties, runtime&#45;user</text>
<text text-anchor="start" x="3975.14" y="-3263.91" font-family="Arial" font-size="24.00" fill="#111827">setup, snapshot tasks, SMB</text>
<text text-anchor="start" x="3994.64" y="-3239.91" font-family="Arial" font-size="24.00" fill="#111827">share configuration, and</text>
<text text-anchor="start" x="4063.64" y="-3215.91" font-family="Arial" font-size="24.00" fill="#111827">verification.</text>
</g>
<!-- 30 -->
<g id="30" class="node">
<title>30</title>
<path fill="#fef3c7" stroke="#d97706" d="M3384.4,-4469.82C3384.4,-4488.12 3303.49,-4502.98 3203.9,-4502.98 3104.3,-4502.98 3023.4,-4488.12 3023.4,-4469.82 3023.4,-4469.82 3023.4,-4171.39 3023.4,-4171.39 3023.4,-4153.09 3104.3,-4138.23 3203.9,-4138.23 3303.49,-4138.23 3384.4,-4153.09 3384.4,-4171.39 3384.4,-4171.39 3384.4,-4469.82 3384.4,-4469.82"/>
<path fill="none" stroke="#d97706" d="M3384.4,-4469.82C3384.4,-4451.53 3303.49,-4436.66 3203.9,-4436.66 3104.3,-4436.66 3023.4,-4451.53 3023.4,-4469.82"/>
<text text-anchor="start" x="3113.4" y="-4404.91" font-family="Arial" font-size="34.00" fill="#111827">Hermes Bot</text>
<text text-anchor="start" x="3075.9" y="-4370.91" font-family="Arial" font-size="34.00" fill="#111827">Environment File</text>
<text text-anchor="start" x="3126.9" y="-4348.91" font-family="Arial" font-size="19.00" fill="#111827">[Software System]</text>
<text text-anchor="start" x="3052.4" y="-4311.91" font-family="Arial" font-size="24.00" fill="#111827">Local ~/.hermes/.env values</text>
<text text-anchor="start" x="3071.9" y="-4287.91" font-family="Arial" font-size="24.00" fill="#111827">that supply Telegram bot</text>
<text text-anchor="start" x="3068.9" y="-4263.91" font-family="Arial" font-size="24.00" fill="#111827">token/chat settings to the</text>
<text text-anchor="start" x="3057.4" y="-4239.91" font-family="Arial" font-size="24.00" fill="#111827">failure notifier; contents are</text>
<text text-anchor="start" x="3083.4" y="-4215.91" font-family="Arial" font-size="24.00" fill="#111827">not stored in this repo.</text>
</g>
<!-- 31 -->
<g id="31" class="node">
<title>31</title>
<polygon fill="#f3e8ff" stroke="#9333ea" points="3378.9,-4066.11 3028.9,-4066.11 3028.9,-3907.11 3378.9,-3907.11 3378.9,-4066.11"/>
<text text-anchor="start" x="3072.4" y="-4017.91" font-family="Arial" font-size="34.00" fill="#111827">Telegram Bot API</text>
<text text-anchor="start" x="3126.9" y="-3995.91" font-family="Arial" font-size="19.00" fill="#111827">[Software System]</text>
<text text-anchor="start" x="3064.9" y="-3958.91" font-family="Arial" font-size="24.00" fill="#111827">External API used only for</text>
<text text-anchor="start" x="3057.9" y="-3934.91" font-family="Arial" font-size="24.00" fill="#111827">backup failure notifications.</text>
</g>
<!-- 16 -->
<g id="16" class="node">
<title>16</title>
<polygon fill="#ecfeff" stroke="#0891b2" points="2291.46,-1366.61 2131.4,-1575.02 1811.26,-1575.02 1651.2,-1366.61 1811.26,-1158.19 2131.4,-1158.19 2291.46,-1366.61"/>
<text text-anchor="start" x="1822.83" y="-1445.91" font-family="Arial" font-size="34.00" fill="#111827">SQLite Snapshotter</text>
<text text-anchor="start" x="1849.33" y="-1423.91" font-family="Arial" font-size="19.00" fill="#111827">[Container: Python 3, sqlite3]</text>
<text text-anchor="start" x="1808.83" y="-1386.91" font-family="Arial" font-size="24.00" fill="#111827">Creates application&#45;consistent</text>
<text text-anchor="start" x="1835.33" y="-1362.91" font-family="Arial" font-size="24.00" fill="#111827">copies of Hermes, lifelog,</text>
<text text-anchor="start" x="1813.33" y="-1338.91" font-family="Arial" font-size="24.00" fill="#111827">browser&#45;memory, and related</text>
<text text-anchor="start" x="1804.33" y="-1314.91" font-family="Arial" font-size="24.00" fill="#111827">SQLite databases using sqlite3</text>
<text text-anchor="start" x="1814.33" y="-1290.91" font-family="Arial" font-size="24.00" fill="#111827">backup API; can quick_check</text>
<text text-anchor="start" x="1932.83" y="-1266.91" font-family="Arial" font-size="24.00" fill="#111827">copies.</text>
</g>
<!-- 16&#45;&gt;26 -->
<g id="46" class="edge">
<title>16&#45;&gt;26</title>
<path fill="none" stroke="#475569" stroke-dasharray="5,2" d="M2086.7,-1158.31C2181.91,-1001.39 2330.42,-790.58 2508.66,-653.61 2650.64,-544.5 2840.76,-471.46 2986.14,-427.26"/>
<polygon fill="#475569" stroke="#475569" points="2987.53,-430.5 2996.09,-424.26 2985.51,-423.8 2987.53,-430.5"/>
<polygon fill="white" stroke="transparent" points="2553.66,-653.61 2553.66,-728.61 2754.66,-728.61 2754.66,-653.61 2553.66,-653.61"/>
<text text-anchor="start" x="2558.16" y="-705.91" font-family="Arial" font-size="24.00" fill="#475569">Reads live SQLite</text>
<text text-anchor="start" x="2570.66" y="-681.91" font-family="Arial" font-size="24.00" fill="#475569">databases from</text>
<text text-anchor="start" x="2570.16" y="-661.91" font-family="Arial" font-size="19.00" fill="#475569">[sqlite3 backup API]</text>
</g>
<!-- 25 -->
<g id="25" class="node">
<title>25</title>
<path fill="#fef3c7" stroke="#d97706" d="M3463.4,-3016.32C3463.4,-3036.28 3347.09,-3052.48 3203.9,-3052.48 3060.71,-3052.48 2944.4,-3036.28 2944.4,-3016.32 2944.4,-3016.32 2944.4,-2690.89 2944.4,-2690.89 2944.4,-2670.94 3060.71,-2654.73 3203.9,-2654.73 3347.09,-2654.73 3463.4,-2670.94 3463.4,-2690.89 3463.4,-2690.89 3463.4,-3016.32 3463.4,-3016.32"/>
<path fill="none" stroke="#d97706" d="M3463.4,-3016.32C3463.4,-2996.37 3347.09,-2980.16 3203.9,-2980.16 3060.71,-2980.16 2944.4,-2996.37 2944.4,-3016.32"/>
<text text-anchor="start" x="3036.9" y="-2949.91" font-family="Arial" font-size="34.00" fill="#111827">Run Ledger and Local</text>
<text text-anchor="start" x="3163.9" y="-2915.91" font-family="Arial" font-size="34.00" fill="#111827">State</text>
<text text-anchor="start" x="2976.9" y="-2893.91" font-family="Arial" font-size="19.00" fill="#111827">[Container: SQLite + JSON + logs on WSL filesystem]</text>
<text text-anchor="start" x="3065.4" y="-2856.91" font-family="Arial" font-size="24.00" fill="#111827">Local status, pruned logs,</text>
<text text-anchor="start" x="3055.4" y="-2832.91" font-family="Arial" font-size="24.00" fill="#111827">SQLite run ledger, exported</text>
<text text-anchor="start" x="3067.4" y="-2808.91" font-family="Arial" font-size="24.00" fill="#111827">run&#45;history JSON, SQLite</text>
<text text-anchor="start" x="3039.9" y="-2784.91" font-family="Arial" font-size="24.00" fill="#111827">snapshot cache, and Windows</text>
<text text-anchor="start" x="3087.9" y="-2760.91" font-family="Arial" font-size="24.00" fill="#111827">manifest cache under</text>
<text text-anchor="start" x="2973.4" y="-2736.91" font-family="Arial" font-size="24.00" fill="#111827">~/.local/state/workstation&#45;workflow&#45;backup.</text>
</g>
<!-- 16&#45;&gt;25 -->
<g id="48" class="edge">
<title>16&#45;&gt;25</title>
<path fill="none" stroke="#475569" stroke-dasharray="5,2" d="M2222.8,-1456.48C2308.28,-1495.13 2400.42,-1546.41 2472.66,-1610.61 2494.77,-1630.26 2491.96,-1642.18 2508.66,-1666.61 2632.91,-1848.41 2724.87,-1860.49 2799.66,-2067.61 2841.33,-2183.02 2773.27,-2512.95 2835.66,-2618.61 2860.54,-2660.75 2896.28,-2696.59 2935.8,-2726.63"/>
<polygon fill="#475569" stroke="#475569" points="2934.18,-2729.78 2944.29,-2732.95 2938.36,-2724.17 2934.18,-2729.78"/>
<polygon fill="white" stroke="transparent" points="2541.66,-2067.61 2541.66,-2166.61 2766.66,-2166.61 2766.66,-2067.61 2541.66,-2067.61"/>
<text text-anchor="start" x="2552.16" y="-2143.91" font-family="Arial" font-size="24.00" fill="#475569">Writes local SQLite</text>
<text text-anchor="start" x="2546.16" y="-2119.91" font-family="Arial" font-size="24.00" fill="#475569">snapshot cache and</text>
<text text-anchor="start" x="2574.16" y="-2095.91" font-family="Arial" font-size="24.00" fill="#475569">manifest under</text>
<text text-anchor="start" x="2606.16" y="-2075.91" font-family="Arial" font-size="19.00" fill="#475569">[filesystem]</text>
</g>
<!-- 17 -->
<g id="17" class="node">
<title>17</title>
<polygon fill="#ecfeff" stroke="#0891b2" points="2294.49,-1902.61 2132.91,-2158.23 1809.75,-2158.23 1648.16,-1902.61 1809.75,-1646.98 2132.91,-1646.98 2294.49,-1902.61"/>
<text text-anchor="start" x="1802.33" y="-2010.91" font-family="Arial" font-size="34.00" fill="#111827">Windows Critical Sync</text>
<text text-anchor="start" x="1921.33" y="-1976.91" font-family="Arial" font-size="34.00" fill="#111827">Helper</text>
<text text-anchor="start" x="1804.33" y="-1954.91" font-family="Arial" font-size="19.00" fill="#111827">[Container: PowerShell + robocopy.exe]</text>
<text text-anchor="start" x="1825.33" y="-1917.91" font-family="Arial" font-size="24.00" fill="#111827">PowerShell script launched</text>
<text text-anchor="start" x="1865.33" y="-1893.91" font-family="Arial" font-size="24.00" fill="#111827">from WSL that uses</text>
<text text-anchor="start" x="1850.33" y="-1869.91" font-family="Arial" font-size="24.00" fill="#111827">robocopy.exe to mirror</text>
<text text-anchor="start" x="1837.33" y="-1845.91" font-family="Arial" font-size="24.00" fill="#111827">selected Windows profile</text>
<text text-anchor="start" x="1827.33" y="-1821.91" font-family="Arial" font-size="24.00" fill="#111827">directories/files to the SMB</text>
<text text-anchor="start" x="1819.83" y="-1797.91" font-family="Arial" font-size="24.00" fill="#111827">share and writes a Windows</text>
<text text-anchor="start" x="1893.83" y="-1773.91" font-family="Arial" font-size="24.00" fill="#111827">sync manifest.</text>
</g>
<!-- 17&#45;&gt;27 -->
<g id="57" class="edge">
<title>17&#45;&gt;27</title>
<path fill="none" stroke="#475569" stroke-dasharray="5,2" d="M2221.88,-1787.49C2307.52,-1740.44 2399.99,-1680.51 2472.66,-1610.61 2689.11,-1402.39 2620.82,-1250.49 2835.66,-1040.61 2879.83,-997.46 2933.89,-958.97 2986.82,-926.66"/>
<polygon fill="#475569" stroke="#475569" points="2988.9,-929.49 2995.64,-921.32 2985.27,-923.51 2988.9,-929.49"/>
<polygon fill="white" stroke="transparent" points="2511.66,-1573.61 2511.66,-1648.61 2796.66,-1648.61 2796.66,-1573.61 2511.66,-1573.61"/>
<text text-anchor="start" x="2516.16" y="-1625.91" font-family="Arial" font-size="24.00" fill="#475569">Mirrors selected Windows</text>
<text text-anchor="start" x="2584.16" y="-1601.91" font-family="Arial" font-size="24.00" fill="#475569">artifacts from</text>
<text text-anchor="start" x="2592.66" y="-1581.91" font-family="Arial" font-size="19.00" fill="#475569">[robocopy.exe]</text>
</g>
<!-- 17&#45;&gt;28 -->
<g id="59" class="edge">
<title>17&#45;&gt;28</title>
<path fill="none" stroke="#475569" stroke-dasharray="5,2" d="M2260.89,-1848.97C2428.09,-1820.62 2642.99,-1788.81 2835.66,-1774.61 3173.18,-1749.72 3259.18,-1756.7 3597.14,-1774.61 3703.29,-1780.23 3820.96,-1792.18 3918.14,-1803.61"/>
<polygon fill="#475569" stroke="#475569" points="3917.73,-1807.09 3928.08,-1804.78 3918.56,-1800.13 3917.73,-1807.09"/>
<polygon fill="white" stroke="transparent" points="3050.9,-1774.61 3050.9,-1849.61 3356.9,-1849.61 3356.9,-1774.61 3050.9,-1774.61"/>
<text text-anchor="start" x="3054.9" y="-1826.91" font-family="Arial" font-size="24.00" fill="#475569">Writes current/windows and</text>
<text text-anchor="start" x="3086.4" y="-1802.91" font-family="Arial" font-size="24.00" fill="#475569">Windows manifests to</text>
<text text-anchor="start" x="3151.4" y="-1782.91" font-family="Arial" font-size="19.00" fill="#475569">[SMB share]</text>
</g>
<!-- 17&#45;&gt;25 -->
<g id="60" class="edge">
<title>17&#45;&gt;25</title>
<path fill="none" stroke="#475569" stroke-dasharray="5,2" d="M2219.92,-2020.65C2436.12,-2128.77 2726.49,-2287.9 2799.66,-2395.61 2856.07,-2478.65 2780.57,-2534.68 2835.66,-2618.61 2861.83,-2658.49 2897.37,-2692.97 2936.08,-2722.3"/>
<polygon fill="#475569" stroke="#475569" points="2934.28,-2725.32 2944.39,-2728.48 2938.45,-2719.7 2934.28,-2725.32"/>
<polygon fill="white" stroke="transparent" points="2508.66,-2395.61 2508.66,-2455.61 2799.66,-2455.61 2799.66,-2395.61 2508.66,-2395.61"/>
<text text-anchor="start" x="2513.16" y="-2432.41" font-family="Arial" font-size="24.00" fill="#475569">Leaves manifest cache for</text>
<text text-anchor="start" x="2558.16" y="-2406.41" font-family="Arial" font-size="24.00" fill="#475569">ledger summaries</text>
</g>
<!-- 18 -->
<g id="18" class="node">
<title>18</title>
<polygon fill="#ecfeff" stroke="#0891b2" points="3572.38,-3332.61 3388.14,-3541.02 3019.66,-3541.02 2835.42,-3332.61 3019.66,-3124.19 3388.14,-3124.19 3572.38,-3332.61"/>
<text text-anchor="start" x="3057.4" y="-3411.91" font-family="Arial" font-size="34.00" fill="#111827">NAS Growth Guard</text>
<text text-anchor="start" x="3007.4" y="-3389.91" font-family="Arial" font-size="19.00" fill="#111827">[Container: Bash + NAS sudo helper + zfs CLI]</text>
<text text-anchor="start" x="3027.9" y="-3352.91" font-family="Arial" font-size="24.00" fill="#111827">Read&#45;only NAS&#45;side ZFS budget</text>
<text text-anchor="start" x="3098.4" y="-3328.91" font-family="Arial" font-size="24.00" fill="#111827">check that enforces</text>
<text text-anchor="start" x="3047.4" y="-3304.91" font-family="Arial" font-size="24.00" fill="#111827">dataset&#45;used, snapshot&#45;held,</text>
<text text-anchor="start" x="3104.4" y="-3280.91" font-family="Arial" font-size="24.00" fill="#111827">availability&#45;dataset</text>
<text text-anchor="start" x="3032.9" y="-3256.91" font-family="Arial" font-size="24.00" fill="#111827">free&#45;space, and snapshot&#45;count</text>
<text text-anchor="start" x="3072.4" y="-3232.91" font-family="Arial" font-size="24.00" fill="#111827">limits before/after writes.</text>
</g>
<!-- 18&#45;&gt;29 -->
<g id="43" class="edge">
<title>18&#45;&gt;29</title>
<path fill="none" stroke="#475569" stroke-dasharray="5,2" d="M3572.17,-3332.61C3687.96,-3332.61 3811.9,-3332.61 3912.95,-3332.61"/>
<polygon fill="#475569" stroke="#475569" points="3912.97,-3336.11 3922.97,-3332.61 3912.97,-3329.11 3912.97,-3336.11"/>
<polygon fill="white" stroke="transparent" points="3622.14,-3332.61 3622.14,-3455.61 3873.14,-3455.61 3873.14,-3332.61 3622.14,-3332.61"/>
<text text-anchor="start" x="3653.64" y="-3432.91" font-family="Arial" font-size="24.00" fill="#475569">Reads ZFS used,</text>
<text text-anchor="start" x="3689.64" y="-3408.91" font-family="Arial" font-size="24.00" fill="#475569">availability,</text>
<text text-anchor="start" x="3626.64" y="-3384.91" font-family="Arial" font-size="24.00" fill="#475569">usedbysnapshots, and</text>
<text text-anchor="start" x="3638.14" y="-3360.91" font-family="Arial" font-size="24.00" fill="#475569">snapshot count from</text>
<text text-anchor="start" x="3650.14" y="-3340.91" font-family="Arial" font-size="19.00" fill="#475569">[NAS&#45;side helper + zfs]</text>
</g>
<!-- 19 -->
<g id="19" class="node">
<title>19</title>
<polygon fill="#ecfeff" stroke="#0891b2" points="3544.99,-2346.61 3374.44,-2582.54 3033.35,-2582.54 2862.81,-2346.61 3033.35,-2110.67 3374.44,-2110.67 3544.99,-2346.61"/>
<text text-anchor="start" x="3102.9" y="-2442.91" font-family="Arial" font-size="34.00" fill="#111827">NAS Integrity</text>
<text text-anchor="start" x="3081.9" y="-2408.91" font-family="Arial" font-size="34.00" fill="#111827">Manifest Builder</text>
<text text-anchor="start" x="3073.4" y="-2386.91" font-family="Arial" font-size="19.00" fill="#111827">[Container: Python + SHA&#45;256]</text>
<text text-anchor="start" x="3049.9" y="-2349.91" font-family="Arial" font-size="24.00" fill="#111827">NAS&#45;side helper that hashes</text>
<text text-anchor="start" x="3060.9" y="-2325.91" font-family="Arial" font-size="24.00" fill="#111827">restore&#45;critical current&#45;tree</text>
<text text-anchor="start" x="3102.9" y="-2301.91" font-family="Arial" font-size="24.00" fill="#111827">artifacts and writes</text>
<text text-anchor="start" x="3023.9" y="-2277.91" font-family="Arial" font-size="24.00" fill="#111827">_manifests/integrity&#45;manifest.json</text>
<text text-anchor="start" x="3037.4" y="-2253.91" font-family="Arial" font-size="24.00" fill="#111827">for snapshot&#45;preserved restore</text>
<text text-anchor="start" x="3142.4" y="-2229.91" font-family="Arial" font-size="24.00" fill="#111827">verification.</text>
</g>
<!-- 19&#45;&gt;28 -->
<g id="62" class="edge">
<title>19&#45;&gt;28</title>
<path fill="none" stroke="#475569" stroke-dasharray="5,2" d="M3457.82,-2225.85C3588.25,-2161.16 3748.6,-2077.81 3887.14,-1994.61 3897.71,-1988.26 3908.45,-1981.61 3919.22,-1974.77"/>
<polygon fill="#475569" stroke="#475569" points="3921.32,-1977.59 3927.87,-1969.26 3917.55,-1971.69 3921.32,-1977.59"/>
<polygon fill="white" stroke="transparent" points="3608.14,-2147.61 3608.14,-2270.61 3887.14,-2270.61 3887.14,-2147.61 3608.14,-2147.61"/>
<text text-anchor="start" x="3612.64" y="-2247.91" font-family="Arial" font-size="24.00" fill="#475569">Hashes NAS current&#45;tree</text>
<text text-anchor="start" x="3644.14" y="-2223.91" font-family="Arial" font-size="24.00" fill="#475569">critical artifacts and</text>
<text text-anchor="start" x="3716.14" y="-2199.91" font-family="Arial" font-size="24.00" fill="#475569">writes</text>
<text text-anchor="start" x="3616.64" y="-2175.91" font-family="Arial" font-size="24.00" fill="#475569">integrity&#45;manifest.json to</text>
<text text-anchor="start" x="3650.64" y="-2155.91" font-family="Arial" font-size="19.00" fill="#475569">[SHA&#45;256 + filesystem]</text>
</g>
<!-- 20 -->
<g id="20" class="node">
<title>20</title>
<polygon fill="#ecfeff" stroke="#0891b2" points="2472.49,-2709.61 2221.91,-2945.54 1720.75,-2945.54 1470.17,-2709.61 1720.75,-2473.67 2221.91,-2473.67 2472.49,-2709.61"/>
<text text-anchor="start" x="1854.33" y="-2805.91" font-family="Arial" font-size="34.00" fill="#111827">Restricted NAS</text>
<text text-anchor="start" x="1790.83" y="-2771.91" font-family="Arial" font-size="34.00" fill="#111827">Runtime SSH Boundary</text>
<text text-anchor="start" x="1693.33" y="-2749.91" font-family="Arial" font-size="19.00" fill="#111827">[Container: OpenSSH forced command + sudoers + ZFS refquota]</text>
<text text-anchor="start" x="1844.83" y="-2712.91" font-family="Arial" font-size="24.00" fill="#111827">Dedicated runtime NAS</text>
<text text-anchor="start" x="1833.83" y="-2688.91" font-family="Arial" font-size="24.00" fill="#111827">user/key, pinned host&#45;key</text>
<text text-anchor="start" x="1815.33" y="-2664.91" font-family="Arial" font-size="24.00" fill="#111827">verification, forced&#45;command</text>
<text text-anchor="start" x="1834.33" y="-2640.91" font-family="Arial" font-size="24.00" fill="#111827">dispatcher, sudo allowlist,</text>
<text text-anchor="start" x="1859.83" y="-2616.91" font-family="Arial" font-size="24.00" fill="#111827">and refquota&#45;backed</text>
<text text-anchor="start" x="1822.33" y="-2592.91" font-family="Arial" font-size="24.00" fill="#111827">current&#45;tree write boundary.</text>
</g>
<!-- 20&#45;&gt;28 -->
<g id="51" class="edge">
<title>20&#45;&gt;28</title>
<path fill="none" stroke="#475569" stroke-dasharray="5,2" d="M2337.34,-2582.03C2390.24,-2548.62 2438.33,-2507.07 2472.66,-2455.61 2531.41,-2367.55 2434.44,-2056.09 2508.66,-1980.61 2533.12,-1955.73 3487.94,-1879.47 3917.94,-1846.29"/>
<polygon fill="#475569" stroke="#475569" points="3918.3,-1849.78 3928,-1845.52 3917.76,-1842.8 3918.3,-1849.78"/>
<polygon fill="white" stroke="transparent" points="3051.9,-1936.61 3051.9,-2035.61 3355.9,-2035.61 3355.9,-1936.61 3051.9,-1936.61"/>
<text text-anchor="start" x="3055.9" y="-2012.91" font-family="Arial" font-size="24.00" fill="#475569">Allows receiver&#45;mode rsync</text>
<text text-anchor="start" x="3090.4" y="-1988.91" font-family="Arial" font-size="24.00" fill="#475569">and mkdir only under</text>
<text text-anchor="start" x="3141.4" y="-1964.91" font-family="Arial" font-size="24.00" fill="#475569">current tree</text>
<text text-anchor="start" x="3093.9" y="-1944.91" font-family="Arial" font-size="19.00" fill="#475569">[forced command + rsync]</text>
</g>
<!-- 20&#45;&gt;18 -->
<g id="53" class="edge">
<title>20&#45;&gt;18</title>
<path fill="none" stroke="#475569" stroke-dasharray="5,2" d="M2316.53,-2856.49C2376.01,-2895.36 2431.76,-2942.76 2472.66,-2999.61 2519.28,-3064.42 2452.53,-3118.83 2508.66,-3175.61 2601.69,-3269.71 2670.55,-3209.59 2799.66,-3238.61 2828.53,-3245.1 2858.55,-3251.93 2888.59,-3258.83"/>
<polygon fill="#475569" stroke="#475569" points="2887.81,-3262.24 2898.34,-3261.07 2889.38,-3255.42 2887.81,-3262.24"/>
<polygon fill="white" stroke="transparent" points="2517.16,-3238.61 2517.16,-3313.61 2791.16,-3313.61 2791.16,-3238.61 2517.16,-3238.61"/>
<text text-anchor="start" x="2521.16" y="-3290.91" font-family="Arial" font-size="24.00" fill="#475569">Allows sudo execution of</text>
<text text-anchor="start" x="2560.16" y="-3266.91" font-family="Arial" font-size="24.00" fill="#475569">guard helper only</text>
<text text-anchor="start" x="2546.66" y="-3246.91" font-family="Arial" font-size="19.00" fill="#475569">[forced command + sudo]</text>
</g>
<!-- 20&#45;&gt;19 -->
<g id="54" class="edge">
<title>20&#45;&gt;19</title>
<path fill="none" stroke="#475569" stroke-dasharray="5,2" d="M2353.26,-2597.24C2533.55,-2544.06 2745.4,-2481.56 2912.45,-2432.28"/>
<polygon fill="#475569" stroke="#475569" points="2913.78,-2435.54 2922.38,-2429.35 2911.8,-2428.83 2913.78,-2435.54"/>
<polygon fill="white" stroke="transparent" points="2517.16,-2549.61 2517.16,-2624.61 2791.16,-2624.61 2791.16,-2549.61 2517.16,-2549.61"/>
<text text-anchor="start" x="2521.16" y="-2601.91" font-family="Arial" font-size="24.00" fill="#475569">Allows sudo execution of</text>
<text text-anchor="start" x="2548.66" y="-2577.91" font-family="Arial" font-size="24.00" fill="#475569">integrity helper only</text>
<text text-anchor="start" x="2546.66" y="-2557.91" font-family="Arial" font-size="19.00" fill="#475569">[forced command + sudo]</text>
</g>
<!-- 24 -->
<g id="24" class="node">
<title>24</title>
<polygon fill="#ecfeff" stroke="#0891b2" points="2294.49,-3668.61 2132.91,-3857.33 1809.75,-3857.33 1648.16,-3668.61 1809.75,-3479.89 2132.91,-3479.89 2294.49,-3668.61"/>
<text text-anchor="start" x="1860.33" y="-3735.91" font-family="Arial" font-size="34.00" fill="#111827">Failure Notifier</text>
<text text-anchor="start" x="1834.33" y="-3713.91" font-family="Arial" font-size="19.00" fill="#111827">[Container: Bash + Python urllib]</text>
<text text-anchor="start" x="1826.33" y="-3676.91" font-family="Arial" font-size="24.00" fill="#111827">Best&#45;effort Telegram failure</text>
<text text-anchor="start" x="1844.83" y="-3652.91" font-family="Arial" font-size="24.00" fill="#111827">alert unit that reads last</text>
<text text-anchor="start" x="1810.83" y="-3628.91" font-family="Arial" font-size="24.00" fill="#111827">status/log tail and Hermes bot</text>
<text text-anchor="start" x="1802.33" y="-3604.91" font-family="Arial" font-size="24.00" fill="#111827">environment variables; success</text>
<text text-anchor="start" x="1886.83" y="-3580.91" font-family="Arial" font-size="24.00" fill="#111827">runs stay silent.</text>
</g>
<!-- 24&#45;&gt;30 -->
<g id="65" class="edge">
<title>24&#45;&gt;30</title>
<path fill="none" stroke="#475569" stroke-dasharray="5,2" d="M2184.61,-3797.36C2282.34,-3855.37 2400.41,-3923.69 2508.66,-3981.61 2677.18,-4071.77 2873.2,-4166.59 3013.88,-4232.95"/>
<polygon fill="#475569" stroke="#475569" points="3012.53,-4236.18 3023.07,-4237.28 3015.51,-4229.85 3012.53,-4236.18"/>
<polygon fill="white" stroke="transparent" points="2528.16,-4125.61 2528.16,-4200.61 2780.16,-4200.61 2780.16,-4125.61 2528.16,-4125.61"/>
<text text-anchor="start" x="2545.66" y="-4177.91" font-family="Arial" font-size="24.00" fill="#475569">Reads Telegram bot</text>
<text text-anchor="start" x="2532.16" y="-4153.91" font-family="Arial" font-size="24.00" fill="#475569">token/chat values from</text>
<text text-anchor="start" x="2605.66" y="-4133.91" font-family="Arial" font-size="19.00" fill="#475569">[filesystem]</text>
</g>
<!-- 24&#45;&gt;31 -->
<g id="67" class="edge">
<title>24&#45;&gt;31</title>
<path fill="none" stroke="#475569" stroke-dasharray="5,2" d="M2232.91,-3741C2403.91,-3787.92 2632.65,-3849.57 2835.66,-3900.61 2895.21,-3915.58 2960.42,-3931.12 3019.14,-3944.81"/>
<polygon fill="#475569" stroke="#475569" points="3018.35,-3948.22 3028.88,-3947.08 3019.94,-3941.4 3018.35,-3948.22"/>
<polygon fill="white" stroke="transparent" points="2553.16,-3888.61 2553.16,-3963.61 2755.16,-3963.61 2755.16,-3888.61 2553.16,-3888.61"/>
<text text-anchor="start" x="2557.16" y="-3940.91" font-family="Arial" font-size="24.00" fill="#475569">Sends failure&#45;only</text>
<text text-anchor="start" x="2582.66" y="-3916.91" font-family="Arial" font-size="24.00" fill="#475569">notification to</text>
<text text-anchor="start" x="2617.66" y="-3896.91" font-family="Arial" font-size="19.00" fill="#475569">[HTTPS]</text>
</g>
<!-- 24&#45;&gt;25 -->
<g id="64" class="edge">
<title>24&#45;&gt;25</title>
<path fill="none" stroke="#475569" stroke-dasharray="5,2" d="M2234.96,-3598.69C2324.29,-3561.74 2415.82,-3506.64 2472.66,-3425.61 2516.66,-3362.86 2457.11,-3139.32 2508.66,-3082.61 2597.41,-2984.95 2673.57,-3062.54 2799.66,-3023.61 2844.05,-3009.9 2890.24,-2993.04 2934.84,-2975.32"/>
<polygon fill="#475569" stroke="#475569" points="2936.34,-2978.49 2944.33,-2971.52 2933.75,-2971.99 2936.34,-2978.49"/>
<polygon fill="white" stroke="transparent" points="2514.16,-3082.61 2514.16,-3157.61 2794.16,-3157.61 2794.16,-3082.61 2514.16,-3082.61"/>
<text text-anchor="start" x="2518.16" y="-3134.91" font-family="Arial" font-size="24.00" fill="#475569">Reads last status and log</text>
<text text-anchor="start" x="2610.66" y="-3110.91" font-family="Arial" font-size="24.00" fill="#475569">tail from</text>
<text text-anchor="start" x="2605.66" y="-3090.91" font-family="Arial" font-size="19.00" fill="#475569">[filesystem]</text>
</g>
<!-- 3 -->
<g id="3" class="node">
<title>3</title>
<polygon fill="#e0e7ff" stroke="#4f46e5" points="398,-3448.11 33,-3448.11 33,-3183.11 398,-3183.11 398,-3448.11"/>
<text text-anchor="start" x="63.5" y="-3399.91" font-family="Arial" font-size="34.00" fill="#111827">systemd User Timer</text>
<text text-anchor="start" x="125.5" y="-3365.91" font-family="Arial" font-size="34.00" fill="#111827">and Service</text>
<text text-anchor="start" x="78.5" y="-3343.91" font-family="Arial" font-size="19.00" fill="#111827">[Container: systemd &#45;&#45;user units]</text>
<text text-anchor="start" x="68.5" y="-3306.91" font-family="Arial" font-size="24.00" fill="#111827">Hourly user&#45;level scheduler</text>
<text text-anchor="start" x="62" y="-3282.91" font-family="Arial" font-size="24.00" fill="#111827">and oneshot service that run</text>
<text text-anchor="start" x="62" y="-3258.91" font-family="Arial" font-size="24.00" fill="#111827">the backup at minute 45 and</text>
<text text-anchor="start" x="111.5" y="-3234.91" font-family="Arial" font-size="24.00" fill="#111827">route failures to the</text>
<text text-anchor="start" x="176" y="-3210.91" font-family="Arial" font-size="24.00" fill="#111827">notifier.</text>
</g>
<!-- 3&#45;&gt;24 -->
<g id="40" class="edge">
<title>3&#45;&gt;24</title>
<path fill="none" stroke="#475569" stroke-dasharray="5,2" d="M398.38,-3377.24C583.98,-3437.78 881.39,-3528.3 1145,-3579.61 1311.97,-3612.1 1500.43,-3633.55 1655.06,-3647.24"/>
<polygon fill="#475569" stroke="#475569" points="1654.92,-3650.74 1665.19,-3648.13 1655.54,-3643.76 1654.92,-3650.74"/>
<polygon fill="white" stroke="transparent" points="806.5,-3570.61 806.5,-3645.61 1031.5,-3645.61 1031.5,-3570.61 806.5,-3570.61"/>
<text text-anchor="start" x="811" y="-3622.91" font-family="Arial" font-size="24.00" fill="#475569">Triggers on nonzero</text>
<text text-anchor="start" x="848" y="-3598.91" font-family="Arial" font-size="24.00" fill="#475569">service result</text>
<text text-anchor="start" x="872.5" y="-3578.91" font-family="Arial" font-size="19.00" fill="#475569">[OnFailure]</text>
</g>
<!-- 4 -->
<g id="4" class="node">
<title>4</title>
<polygon fill="#e0f2fe" stroke="#0284c7" points="1109,-2587.11 729,-2587.11 729,-2260.11 1109,-2260.11 1109,-2587.11"/>
<text text-anchor="start" x="762.5" y="-2538.91" font-family="Arial" font-size="34.00" fill="#111827">Backup Orchestrator</text>
<text text-anchor="start" x="845.5" y="-2516.91" font-family="Arial" font-size="19.00" fill="#111827">[Container: Bash]</text>
<text text-anchor="start" x="774.5" y="-2479.91" font-family="Arial" font-size="24.00" fill="#111827">scripts/workflow&#45;backup.sh</text>
<text text-anchor="start" x="765.5" y="-2455.91" font-family="Arial" font-size="24.00" fill="#111827">coordinates one backup run:</text>
<text text-anchor="start" x="764" y="-2431.91" font-family="Arial" font-size="24.00" fill="#111827">locking, log pruning, pre/post</text>
<text text-anchor="start" x="779" y="-2407.91" font-family="Arial" font-size="24.00" fill="#111827">guard checks, WSL rsync,</text>
<text text-anchor="start" x="768" y="-2383.91" font-family="Arial" font-size="24.00" fill="#111827">SQLite snapshots, Windows</text>
<text text-anchor="start" x="799" y="-2359.91" font-family="Arial" font-size="24.00" fill="#111827">sync, strict final ledger</text>
<text text-anchor="start" x="795.5" y="-2335.91" font-family="Arial" font-size="24.00" fill="#111827">updates, NAS manifest</text>
<text text-anchor="start" x="834" y="-2311.91" font-family="Arial" font-size="24.00" fill="#111827">publication, and</text>
<text text-anchor="start" x="758" y="-2287.91" font-family="Arial" font-size="24.00" fill="#111827">restore&#45;checksum generation.</text>
</g>
<!-- 3&#45;&gt;4 -->
<g id="39" class="edge">
<title>3&#45;&gt;4</title>
<path fill="none" stroke="#475569" stroke-dasharray="5,2" d="M320.76,-3183.03C443.62,-3026.81 648.06,-2766.85 782.94,-2595.34"/>
<polygon fill="#475569" stroke="#475569" points="785.88,-2597.27 789.31,-2587.24 780.38,-2592.94 785.88,-2597.27"/>
<polygon fill="white" stroke="transparent" points="434,-3026.61 434,-3101.61 693,-3101.61 693,-3026.61 434,-3026.61"/>
<text text-anchor="start" x="438.5" y="-3078.91" font-family="Arial" font-size="24.00" fill="#475569">Starts hourly at :45 and</text>
<text text-anchor="start" x="467.5" y="-3054.91" font-family="Arial" font-size="24.00" fill="#475569">tracks service exit</text>
<text text-anchor="start" x="496" y="-3034.91" font-family="Arial" font-size="19.00" fill="#475569">[systemd &#45;&#45;user]</text>
</g>
<!-- 4&#45;&gt;26 -->
<g id="49" class="edge">
<title>4&#45;&gt;26</title>
<path fill="none" stroke="#475569" stroke-dasharray="5,2" d="M942.23,-2260.09C989.15,-1975.99 1124.02,-1389.02 1470,-1047.61 1844.65,-677.9 2010.08,-647.35 2508.66,-478.61 2663.44,-426.22 2846.43,-399.64 2985.67,-386.19"/>
<polygon fill="#475569" stroke="#475569" points="2986.42,-389.64 2996.04,-385.21 2985.76,-382.67 2986.42,-389.64"/>
<polygon fill="white" stroke="transparent" points="1839.83,-1047.61 1839.83,-1122.61 2102.83,-1122.61 2102.83,-1047.61 1839.83,-1047.61"/>
<text text-anchor="start" x="1844.33" y="-1099.91" font-family="Arial" font-size="24.00" fill="#475569">Mirrors configured WSL</text>
<text text-anchor="start" x="1876.83" y="-1075.91" font-family="Arial" font-size="24.00" fill="#475569">source trees from</text>
<text text-anchor="start" x="1920.33" y="-1055.91" font-family="Arial" font-size="19.00" fill="#475569">[sudo rsync]</text>
</g>
<!-- 4&#45;&gt;28 -->
<g id="55" class="edge">
<title>4&#45;&gt;28</title>
<path fill="none" stroke="#475569" stroke-dasharray="5,2" d="M929.84,-2259.95C949.2,-2002.07 1003.43,-1488.15 1145,-1076.61 1243.52,-790.2 1227.96,-659.69 1470,-477.61 1966.6,-104.02 2217.86,-244.67 2835.66,-177.61 3172.12,-141.09 3323.89,22.08 3597.14,-177.61 3833.94,-350.66 4015.44,-1217.01 4088.73,-1621.7"/>
<polygon fill="#475569" stroke="#475569" points="4085.33,-1622.55 4090.55,-1631.76 4092.22,-1621.3 4085.33,-1622.55"/>
<polygon fill="white" stroke="transparent" points="2514.16,-198.61 2514.16,-297.61 2794.16,-297.61 2794.16,-198.61 2514.16,-198.61"/>
<text text-anchor="start" x="2554.66" y="-274.91" font-family="Arial" font-size="24.00" fill="#475569">Writes current/wsl,</text>
<text text-anchor="start" x="2518.16" y="-250.91" font-family="Arial" font-size="24.00" fill="#475569">wsl&#45;sqlite&#45;snapshots, and</text>
<text text-anchor="start" x="2581.66" y="-226.91" font-family="Arial" font-size="24.00" fill="#475569">_manifests to</text>
<text text-anchor="start" x="2562.16" y="-206.91" font-family="Arial" font-size="19.00" fill="#475569">[restricted SSH rsync]</text>
</g>
<!-- 4&#45;&gt;16 -->
<g id="45" class="edge">
<title>4&#45;&gt;16</title>
<path fill="none" stroke="#475569" stroke-dasharray="5,2" d="M989.54,-2260.06C1029.8,-2172.58 1084.44,-2064.81 1145,-1975.61 1267.01,-1795.9 1296.89,-1741.8 1470,-1610.61 1544.24,-1554.34 1633.5,-1505.86 1715.95,-1467.27"/>
<polygon fill="#475569" stroke="#475569" points="1717.6,-1470.36 1725.19,-1462.97 1714.65,-1464.02 1717.6,-1470.36"/>
<polygon fill="white" stroke="transparent" points="1145,-1975.61 1145,-2050.61 1434,-2050.61 1434,-1975.61 1145,-1975.61"/>
<text text-anchor="start" x="1149.5" y="-2027.91" font-family="Arial" font-size="24.00" fill="#475569">Creates consistent SQLite</text>
<text text-anchor="start" x="1187.5" y="-2003.91" font-family="Arial" font-size="24.00" fill="#475569">backup copies with</text>
<text text-anchor="start" x="1235.5" y="-1983.91" font-family="Arial" font-size="19.00" fill="#475569">[subprocess]</text>
</g>
<!-- 4&#45;&gt;17 -->
<g id="56" class="edge">
<title>4&#45;&gt;17</title>
<path fill="none" stroke="#475569" stroke-dasharray="5,2" d="M1075.54,-2259.99C1097.75,-2241.22 1121.18,-2223.5 1145,-2208.61 1311.26,-2104.63 1518.21,-2028.01 1683.28,-1977.44"/>
<polygon fill="#475569" stroke="#475569" points="1684.55,-1980.72 1693.1,-1974.45 1682.51,-1974.02 1684.55,-1980.72"/>
<polygon fill="white" stroke="transparent" points="1152.5,-2208.61 1152.5,-2283.61 1426.5,-2283.61 1426.5,-2208.61 1152.5,-2208.61"/>
<text text-anchor="start" x="1156.5" y="-2260.91" font-family="Arial" font-size="24.00" fill="#475569">Launches Windows sync</text>
<text text-anchor="start" x="1248" y="-2236.91" font-family="Arial" font-size="24.00" fill="#475569">through</text>
<text text-anchor="start" x="1166.5" y="-2216.91" font-family="Arial" font-size="19.00" fill="#475569">[PowerShell via WSL interop]</text>
</g>
<!-- 4&#45;&gt;18 -->
<g id="42" class="edge">
<title>4&#45;&gt;18</title>
<path fill="none" stroke="#475569" stroke-dasharray="5,2" d="M983.15,-2587.32C1064.25,-2771.14 1224.51,-3059.07 1470,-3176.61 1890.74,-3378.06 2043.52,-3292.29 2508.66,-3327.61 2613.15,-3335.54 2726.75,-3338.66 2831.21,-3339.33"/>
<polygon fill="#475569" stroke="#475569" points="2831.27,-3342.83 2841.29,-3339.38 2831.31,-3335.83 2831.27,-3342.83"/>
<polygon fill="white" stroke="transparent" points="1851.33,-3323.61 1851.33,-3398.61 2091.33,-3398.61 2091.33,-3323.61 1851.33,-3323.61"/>
<text text-anchor="start" x="1855.33" y="-3375.91" font-family="Arial" font-size="24.00" fill="#475569">Runs pre/post budget</text>
<text text-anchor="start" x="1888.83" y="-3351.91" font-family="Arial" font-size="24.00" fill="#475569">checks through</text>
<text text-anchor="start" x="1916.83" y="-3331.91" font-family="Arial" font-size="19.00" fill="#475569">[subprocess]</text>
</g>
<!-- 4&#45;&gt;19 -->
<g id="61" class="edge">
<title>4&#45;&gt;19</title>
<path fill="none" stroke="#475569" stroke-dasharray="5,2" d="M1109.12,-2387.05C1214.82,-2368.46 1349.22,-2347.89 1470,-2338.61 1953.55,-2301.46 2515.24,-2314.27 2864.92,-2328.85"/>
<polygon fill="#475569" stroke="#475569" points="2864.81,-2332.35 2874.95,-2329.27 2865.11,-2325.35 2864.81,-2332.35"/>
<polygon fill="white" stroke="transparent" points="1859.33,-2338.61 1859.33,-2437.61 2083.33,-2437.61 2083.33,-2338.61 1859.33,-2338.61"/>
<text text-anchor="start" x="1863.33" y="-2414.91" font-family="Arial" font-size="24.00" fill="#475569">Runs restore&#45;critical</text>
<text text-anchor="start" x="1867.33" y="-2390.91" font-family="Arial" font-size="24.00" fill="#475569">checksum manifest</text>
<text text-anchor="start" x="1868.83" y="-2366.91" font-family="Arial" font-size="24.00" fill="#475569">generation through</text>
<text text-anchor="start" x="1904.83" y="-2346.91" font-family="Arial" font-size="19.00" fill="#475569">[restricted SSH]</text>
</g>
<!-- 4&#45;&gt;20 -->
<g id="50" class="edge">
<title>4&#45;&gt;20</title>
<path fill="none" stroke="#475569" stroke-dasharray="5,2" d="M1109.29,-2475.15C1238.11,-2510.23 1413.39,-2557.95 1572.18,-2601.19"/>
<polygon fill="#475569" stroke="#475569" points="1571.56,-2604.65 1582.13,-2603.9 1573.4,-2597.9 1571.56,-2604.65"/>
<polygon fill="white" stroke="transparent" points="1153.5,-2557.61 1153.5,-2680.61 1425.5,-2680.61 1425.5,-2557.61 1153.5,-2557.61"/>
<text text-anchor="start" x="1157.5" y="-2657.91" font-family="Arial" font-size="24.00" fill="#475569">Connects with dedicated</text>
<text text-anchor="start" x="1163" y="-2633.91" font-family="Arial" font-size="24.00" fill="#475569">runtime key and pinned</text>
<text text-anchor="start" x="1182.5" y="-2609.91" font-family="Arial" font-size="24.00" fill="#475569">host&#45;key verification</text>
<text text-anchor="start" x="1248" y="-2585.91" font-family="Arial" font-size="24.00" fill="#475569">through</text>
<text text-anchor="start" x="1264.5" y="-2565.91" font-family="Arial" font-size="19.00" fill="#475569">[SSH]</text>
</g>
<!-- 4&#45;&gt;24 -->
<g id="63" class="edge">
<title>4&#45;&gt;24</title>
<path fill="none" stroke="#475569" stroke-dasharray="5,2" d="M941.19,-2587.36C974.59,-2822.25 1046.03,-3238.99 1145,-3351.61 1220.68,-3437.73 1489.1,-3531.29 1699.52,-3594.28"/>
<polygon fill="#475569" stroke="#475569" points="1698.6,-3597.65 1709.18,-3597.16 1700.6,-3590.95 1698.6,-3597.65"/>
<polygon fill="white" stroke="transparent" points="1147.5,-3501.61 1147.5,-3561.61 1431.5,-3561.61 1431.5,-3501.61 1147.5,-3501.61"/>
<text text-anchor="start" x="1151.5" y="-3538.41" font-family="Arial" font-size="24.00" fill="#475569">Exits nonzero so systemd</text>
<text text-anchor="start" x="1198" y="-3512.41" font-family="Arial" font-size="24.00" fill="#475569">can alert through</text>
</g>
<!-- 4&#45;&gt;25 -->
<g id="41" class="edge">
<title>4&#45;&gt;25</title>
<path fill="none" stroke="#475569" stroke-dasharray="5,2" d="M1021.27,-2587.15C1117.22,-2724.18 1275.41,-2908.76 1470,-2981.61 1887.34,-3137.84 2028.71,-3020.22 2472.66,-2981.61 2626.68,-2968.21 2796.93,-2939.21 2934.27,-2912.19"/>
<polygon fill="#475569" stroke="#475569" points="2934.97,-2915.62 2944.11,-2910.25 2933.62,-2908.75 2934.97,-2915.62"/>
<polygon fill="white" stroke="transparent" points="1834.33,-3059.61 1834.33,-3158.61 2108.33,-3158.61 2108.33,-3059.61 1834.33,-3059.61"/>
<text text-anchor="start" x="1907.83" y="-3135.91" font-family="Arial" font-size="24.00" fill="#475569">Writes logs,</text>
<text text-anchor="start" x="1838.33" y="-3111.91" font-family="Arial" font-size="24.00" fill="#475569">last&#45;run.json, run events,</text>
<text text-anchor="start" x="1848.33" y="-3087.91" font-family="Arial" font-size="24.00" fill="#475569">and exported history in</text>
<text text-anchor="start" x="1884.33" y="-3067.91" font-family="Arial" font-size="19.00" fill="#475569">[filesystem + sqlite3]</text>
</g>
</g>
</svg>
