<?xml version="1.0" encoding="UTF-8" standalone="no"?>
<!DOCTYPE svg PUBLIC "-//W3C//DTD SVG 1.1//EN"
 "http://www.w3.org/Graphics/SVG/1.1/DTD/svg11.dtd">
<!-- Generated by graphviz version 2.43.0 (0)
 -->
<!-- Title: %3 Pages: 1 -->
<svg width="4533pt" height="3626pt"
 viewBox="0.00 0.00 4533.14 3625.84" xmlns="http://www.w3.org/2000/svg" xmlns:xlink="http://www.w3.org/1999/xlink">
<g id="graph0" class="graph" transform="scale(1 1) rotate(0) translate(4 3621.84)">
<title>%3</title>
<polygon fill="white" stroke="transparent" points="-4,4 -4,-3621.84 4529.14,-3621.84 4529.14,4 -4,4"/>
<text text-anchor="start" x="1868.07" y="-35.8" font-family="Arial" font-size="34.00">Container View: WORKSTATION1 Workflow Backup</text>
<text text-anchor="start" x="1833.57" y="-9.8" font-family="Arial" font-size="24.00">C2: operator&#45;facing provisioning, verification, restore, and NAS&#45;control surfaces.</text>
<g id="clust1" class="cluster">
<title>cluster_2</title>
<polygon fill="none" stroke="#444444" points="1599,-1079.84 1599,-3275.84 3795.14,-3275.84 3795.14,-1079.84 1599,-1079.84"/>
<text text-anchor="start" x="2506.07" y="-1108.64" font-family="Arial" font-size="24.00" fill="#444444">WORKSTATION1 Workflow Backup</text>
<text text-anchor="start" x="2620.07" y="-1088.64" font-family="Arial" font-size="19.00" fill="#444444">[Software System]</text>
</g>
<!-- 1 -->
<g id="1" class="node">
<title>1</title>
<polygon fill="#dbeafe" stroke="#2563eb" points="451,-2492.34 0,-2492.34 0,-2309.34 451,-2309.34 451,-2492.34"/>
<text text-anchor="start" x="166.5" y="-2444.14" font-family="Arial" font-size="34.00" fill="#111827">Michael</text>
<text text-anchor="start" x="190" y="-2422.14" font-family="Arial" font-size="19.00" fill="#111827">[Person]</text>
<text text-anchor="start" x="83.5" y="-2385.14" font-family="Arial" font-size="24.00" fill="#111827">Sole operator who installs,</text>
<text text-anchor="start" x="112.5" y="-2361.14" font-family="Arial" font-size="24.00" fill="#111827">verifies, and restores</text>
<text text-anchor="start" x="29" y="-2337.14" font-family="Arial" font-size="24.00" fill="#111827">WORKSTATION1 workflow backups.</text>
</g>
<!-- 32 -->
<g id="32" class="node">
<title>32</title>
<polygon fill="#f3e8ff" stroke="#9333ea" points="1248,-2533.34 808,-2533.34 808,-2268.34 1248,-2268.34 1248,-2533.34"/>
<text text-anchor="start" x="885.5" y="-2485.14" font-family="Arial" font-size="34.00" fill="#111827">Operator Shell and</text>
<text text-anchor="start" x="924" y="-2451.14" font-family="Arial" font-size="34.00" fill="#111827">Restore Tools</text>
<text text-anchor="start" x="951" y="-2429.14" font-family="Arial" font-size="19.00" fill="#111827">[Software System]</text>
<text text-anchor="start" x="900.5" y="-2392.14" font-family="Arial" font-size="24.00" fill="#111827">Local shell, rsync, SSH,</text>
<text text-anchor="start" x="852" y="-2368.14" font-family="Arial" font-size="24.00" fill="#111827">Windows Previous Versions, and</text>
<text text-anchor="start" x="837" y="-2344.14" font-family="Arial" font-size="24.00" fill="#111827">README/runbook commands used</text>
<text text-anchor="start" x="880.5" y="-2320.14" font-family="Arial" font-size="24.00" fill="#111827">for verification and targeted</text>
<text text-anchor="start" x="980.5" y="-2296.14" font-family="Arial" font-size="24.00" fill="#111827">restores.</text>
</g>
<!-- 1&#45;&gt;32 -->
<g id="34" class="edge">
<title>1&#45;&gt;32</title>
<path fill="none" stroke="#475569" stroke-dasharray="5,2" d="M451.08,-2400.84C559.28,-2400.84 688.84,-2400.84 797.65,-2400.84"/>
<polygon fill="#475569" stroke="#475569" points="797.78,-2404.34 807.78,-2400.84 797.78,-2397.34 797.78,-2404.34"/>
<polygon fill="white" stroke="transparent" points="487,-2400.84 487,-2486.84 772,-2486.84 772,-2400.84 487,-2400.84"/>
<text text-anchor="start" x="491.5" y="-2463.64" font-family="Arial" font-size="24.00" fill="#475569">Runs backup, verification,</text>
<text text-anchor="start" x="497" y="-2437.64" font-family="Arial" font-size="24.00" fill="#475569">provisioning, and restore</text>
<text text-anchor="start" x="542.5" y="-2411.64" font-family="Arial" font-size="24.00" fill="#475569">commands from</text>
</g>
<!-- 28 -->
<g id="28" class="node">
<title>28</title>
<path fill="#fef3c7" stroke="#d97706" d="M4520.14,-826.55C4520.14,-846.5 4431.84,-862.71 4323.14,-862.71 4214.44,-862.71 4126.14,-846.5 4126.14,-826.55 4126.14,-826.55 4126.14,-501.12 4126.14,-501.12 4126.14,-481.17 4214.44,-464.96 4323.14,-464.96 4431.84,-464.96 4520.14,-481.17 4520.14,-501.12 4520.14,-501.12 4520.14,-826.55 4520.14,-826.55"/>
<path fill="none" stroke="#d97706" d="M4520.14,-826.55C4520.14,-806.6 4431.84,-790.39 4323.14,-790.39 4214.44,-790.39 4126.14,-806.6 4126.14,-826.55"/>
<text text-anchor="start" x="4192.14" y="-760.14" font-family="Arial" font-size="34.00" fill="#111827">TrueNAS Backup</text>
<text text-anchor="start" x="4264.14" y="-726.14" font-family="Arial" font-size="34.00" fill="#111827">Dataset</text>
<text text-anchor="start" x="4246.14" y="-704.14" font-family="Arial" font-size="19.00" fill="#111827">[Software System]</text>
<text text-anchor="start" x="4155.14" y="-667.14" font-family="Arial" font-size="24.00" fill="#111827">Configured encrypted TrueNAS</text>
<text text-anchor="start" x="4181.64" y="-643.14" font-family="Arial" font-size="24.00" fill="#111827">dataset with current mirror</text>
<text text-anchor="start" x="4173.64" y="-619.14" font-family="Arial" font-size="24.00" fill="#111827">tree, manifests, SMB share,</text>
<text text-anchor="start" x="4174.64" y="-595.14" font-family="Arial" font-size="24.00" fill="#111827">restore checksum manifest,</text>
<text text-anchor="start" x="4172.64" y="-571.14" font-family="Arial" font-size="24.00" fill="#111827">refquota, and ZFS snapshot</text>
<text text-anchor="start" x="4284.64" y="-547.14" font-family="Arial" font-size="24.00" fill="#111827">history.</text>
</g>
<!-- 29 -->
<g id="29" class="node">
<title>29</title>
<polygon fill="#f3e8ff" stroke="#9333ea" points="4525.14,-3165.34 4121.14,-3165.34 4121.14,-2876.34 4525.14,-2876.34 4525.14,-3165.34"/>
<text text-anchor="start" x="4162.14" y="-3117.14" font-family="Arial" font-size="34.00" fill="#111827">TrueNAS Middleware</text>
<text text-anchor="start" x="4150.14" y="-3083.14" font-family="Arial" font-size="34.00" fill="#111827">and ZFS Control Plane</text>
<text text-anchor="start" x="4246.14" y="-3061.14" font-family="Arial" font-size="19.00" fill="#111827">[Software System]</text>
<text text-anchor="start" x="4175.64" y="-3024.14" font-family="Arial" font-size="24.00" fill="#111827">Configured admin SSH and</text>
<text text-anchor="start" x="4170.64" y="-3000.14" font-family="Arial" font-size="24.00" fill="#111827">middleware surface used for</text>
<text text-anchor="start" x="4167.64" y="-2976.14" font-family="Arial" font-size="24.00" fill="#111827">ZFS properties, runtime&#45;user</text>
<text text-anchor="start" x="4173.14" y="-2952.14" font-family="Arial" font-size="24.00" fill="#111827">setup, snapshot tasks, SMB</text>
<text text-anchor="start" x="4192.64" y="-2928.14" font-family="Arial" font-size="24.00" fill="#111827">share configuration, and</text>
<text text-anchor="start" x="4261.64" y="-2904.14" font-family="Arial" font-size="24.00" fill="#111827">verification.</text>
</g>
<!-- 32&#45;&gt;28 -->
<g id="38" class="edge">
<title>32&#45;&gt;28</title>
<path fill="none" stroke="#475569" stroke-dasharray="5,2" d="M1061.35,-2268.13C1128.27,-2013.69 1301.08,-1448.26 1599,-1061.84 1964.28,-588.03 2096.64,-430.62 2662.66,-236.84 3262.18,-31.59 3550.29,6 4085.14,-333.84 4133.96,-364.86 4175.82,-409.87 4210.17,-456.72"/>
<polygon fill="#475569" stroke="#475569" points="4207.37,-458.81 4216.06,-464.87 4213.04,-454.71 4207.37,-458.81"/>
<polygon fill="white" stroke="transparent" points="2662.66,-236.84 2662.66,-335.84 2997.66,-335.84 2997.66,-236.84 2662.66,-236.84"/>
<text text-anchor="start" x="2708.66" y="-313.14" font-family="Arial" font-size="24.00" fill="#475569">Restores selected files</text>
<text text-anchor="start" x="2690.16" y="-289.14" font-family="Arial" font-size="24.00" fill="#475569">from .zfs/snapshot/current</text>
<text text-anchor="start" x="2800.66" y="-265.14" font-family="Arial" font-size="24.00" fill="#475569">paths</text>
<text text-anchor="start" x="2667.16" y="-245.14" font-family="Arial" font-size="19.00" fill="#475569">[SSH rsync or SMB Previous Versions]</text>
</g>
<!-- 32&#45;&gt;29 -->
<g id="37" class="edge">
<title>32&#45;&gt;29</title>
<path fill="none" stroke="#475569" stroke-dasharray="5,2" d="M1068.19,-2533.58C1137.15,-2739.96 1301.82,-3130.97 1599,-3293.84 2454.94,-3762.94 2840.08,-3495.23 3795.14,-3293.84 3906.24,-3270.41 4019.34,-3216.56 4112.13,-3162.83"/>
<polygon fill="#475569" stroke="#475569" points="4114.17,-3165.7 4121.05,-3157.63 4110.65,-3159.65 4114.17,-3165.7"/>
<polygon fill="white" stroke="transparent" points="2679.66,-3542.84 2679.66,-3617.84 2980.66,-3617.84 2980.66,-3542.84 2679.66,-3542.84"/>
<text text-anchor="start" x="2723.66" y="-3595.14" font-family="Arial" font-size="24.00" fill="#475569">Lists snapshots and</text>
<text text-anchor="start" x="2684.16" y="-3571.14" font-family="Arial" font-size="24.00" fill="#475569">inspects NAS state through</text>
<text text-anchor="start" x="2726.16" y="-3551.14" font-family="Arial" font-size="19.00" fill="#475569">[admin SSH + zfs/midclt]</text>
</g>
<!-- 23 -->
<g id="23" class="node">
<title>23</title>
<polygon fill="#ecfeff" stroke="#0891b2" points="2440.66,-2400.84 2283,-2628.44 1967.66,-2628.44 1809.99,-2400.84 1967.66,-2173.23 2283,-2173.23 2440.66,-2400.84"/>
<text text-anchor="start" x="2010.83" y="-2492.14" font-family="Arial" font-size="34.00" fill="#111827">Backup Verifier</text>
<text text-anchor="start" x="1970.33" y="-2470.14" font-family="Arial" font-size="19.00" fill="#111827">[Container: Bash + systemctl + SSH]</text>
<text text-anchor="start" x="2001.33" y="-2433.14" font-family="Arial" font-size="24.00" fill="#111827">Operational verification</text>
<text text-anchor="start" x="1983.33" y="-2409.14" font-family="Arial" font-size="24.00" fill="#111827">script that checks the local</text>
<text text-anchor="start" x="2013.33" y="-2385.14" font-family="Arial" font-size="24.00" fill="#111827">timer, last status, run</text>
<text text-anchor="start" x="1983.33" y="-2361.14" font-family="Arial" font-size="24.00" fill="#111827">ledger, growth guard, NAS</text>
<text text-anchor="start" x="1961.33" y="-2337.14" font-family="Arial" font-size="24.00" fill="#111827">dataset, snapshots, manifests,</text>
<text text-anchor="start" x="1974.33" y="-2313.14" font-family="Arial" font-size="24.00" fill="#111827">integrity summary, snapshot</text>
<text text-anchor="start" x="1976.33" y="-2289.14" font-family="Arial" font-size="24.00" fill="#111827">tasks, and retired cron jobs.</text>
</g>
<!-- 32&#45;&gt;23 -->
<g id="36" class="edge">
<title>32&#45;&gt;23</title>
<path fill="none" stroke="#475569" stroke-dasharray="5,2" d="M1248.02,-2400.84C1406.03,-2400.84 1621.95,-2400.84 1799.92,-2400.84"/>
<polygon fill="#475569" stroke="#475569" points="1799.97,-2404.34 1809.97,-2400.84 1799.97,-2397.34 1799.97,-2404.34"/>
<polygon fill="white" stroke="transparent" points="1284,-2400.84 1284,-2475.84 1588,-2475.84 1588,-2400.84 1284,-2400.84"/>
<text text-anchor="start" x="1288" y="-2453.14" font-family="Arial" font-size="24.00" fill="#475569">Runs backup health checks</text>
<text text-anchor="start" x="1394.5" y="-2429.14" font-family="Arial" font-size="24.00" fill="#475569">through</text>
<text text-anchor="start" x="1410.5" y="-2409.14" font-family="Arial" font-size="19.00" fill="#475569">[shell]</text>
</g>
<!-- 18 -->
<g id="18" class="node">
<title>18</title>
<polygon fill="#ecfeff" stroke="#0891b2" points="3770.38,-1931.84 3586.14,-2140.25 3217.66,-2140.25 3033.42,-1931.84 3217.66,-1723.42 3586.14,-1723.42 3770.38,-1931.84"/>
<text text-anchor="start" x="3255.4" y="-2011.14" font-family="Arial" font-size="34.00" fill="#111827">NAS Growth Guard</text>
<text text-anchor="start" x="3205.4" y="-1989.14" font-family="Arial" font-size="19.00" fill="#111827">[Container: Bash + NAS sudo helper + zfs CLI]</text>
<text text-anchor="start" x="3225.9" y="-1952.14" font-family="Arial" font-size="24.00" fill="#111827">Read&#45;only NAS&#45;side ZFS budget</text>
<text text-anchor="start" x="3296.4" y="-1928.14" font-family="Arial" font-size="24.00" fill="#111827">check that enforces</text>
<text text-anchor="start" x="3245.4" y="-1904.14" font-family="Arial" font-size="24.00" fill="#111827">dataset&#45;used, snapshot&#45;held,</text>
<text text-anchor="start" x="3302.4" y="-1880.14" font-family="Arial" font-size="24.00" fill="#111827">availability&#45;dataset</text>
<text text-anchor="start" x="3230.9" y="-1856.14" font-family="Arial" font-size="24.00" fill="#111827">free&#45;space, and snapshot&#45;count</text>
<text text-anchor="start" x="3270.4" y="-1832.14" font-family="Arial" font-size="24.00" fill="#111827">limits before/after writes.</text>
</g>
<!-- 18&#45;&gt;29 -->
<g id="43" class="edge">
<title>18&#45;&gt;29</title>
<path fill="none" stroke="#475569" stroke-dasharray="5,2" d="M3651.72,-2066.29C3701.83,-2098.82 3752.23,-2135.86 3795.14,-2175.84 4010.36,-2376.33 4172.27,-2683.53 4256.68,-2867.07"/>
<polygon fill="#475569" stroke="#475569" points="4253.54,-2868.62 4260.88,-2876.25 4259.9,-2865.7 4253.54,-2868.62"/>
<polygon fill="white" stroke="transparent" points="3820.14,-2535.84 3820.14,-2658.84 4071.14,-2658.84 4071.14,-2535.84 3820.14,-2535.84"/>
<text text-anchor="start" x="3851.64" y="-2636.14" font-family="Arial" font-size="24.00" fill="#475569">Reads ZFS used,</text>
<text text-anchor="start" x="3887.64" y="-2612.14" font-family="Arial" font-size="24.00" fill="#475569">availability,</text>
<text text-anchor="start" x="3824.64" y="-2588.14" font-family="Arial" font-size="24.00" fill="#475569">usedbysnapshots, and</text>
<text text-anchor="start" x="3836.14" y="-2564.14" font-family="Arial" font-size="24.00" fill="#475569">snapshot count from</text>
<text text-anchor="start" x="3848.14" y="-2544.14" font-family="Arial" font-size="19.00" fill="#475569">[NAS&#45;side helper + zfs]</text>
</g>
<!-- 19 -->
<g id="19" class="node">
<title>19</title>
<polygon fill="#ecfeff" stroke="#0891b2" points="3742.99,-1415.84 3572.44,-1651.77 3231.35,-1651.77 3060.81,-1415.84 3231.35,-1179.9 3572.44,-1179.9 3742.99,-1415.84"/>
<text text-anchor="start" x="3300.9" y="-1512.14" font-family="Arial" font-size="34.00" fill="#111827">NAS Integrity</text>
<text text-anchor="start" x="3279.9" y="-1478.14" font-family="Arial" font-size="34.00" fill="#111827">Manifest Builder</text>
<text text-anchor="start" x="3271.4" y="-1456.14" font-family="Arial" font-size="19.00" fill="#111827">[Container: Python + SHA&#45;256]</text>
<text text-anchor="start" x="3247.9" y="-1419.14" font-family="Arial" font-size="24.00" fill="#111827">NAS&#45;side helper that hashes</text>
<text text-anchor="start" x="3258.9" y="-1395.14" font-family="Arial" font-size="24.00" fill="#111827">restore&#45;critical current&#45;tree</text>
<text text-anchor="start" x="3300.9" y="-1371.14" font-family="Arial" font-size="24.00" fill="#111827">artifacts and writes</text>
<text text-anchor="start" x="3221.9" y="-1347.14" font-family="Arial" font-size="24.00" fill="#111827">_manifests/integrity&#45;manifest.json</text>
<text text-anchor="start" x="3235.4" y="-1323.14" font-family="Arial" font-size="24.00" fill="#111827">for snapshot&#45;preserved restore</text>
<text text-anchor="start" x="3340.4" y="-1299.14" font-family="Arial" font-size="24.00" fill="#111827">verification.</text>
</g>
<!-- 19&#45;&gt;28 -->
<g id="62" class="edge">
<title>19&#45;&gt;28</title>
<path fill="none" stroke="#475569" stroke-dasharray="5,2" d="M3676.46,-1323.3C3811.17,-1267.62 3969.12,-1186.11 4085.14,-1076.84 4145.88,-1019.63 4195.56,-943.33 4233.47,-871.89"/>
<polygon fill="#475569" stroke="#475569" points="4236.72,-873.23 4238.27,-862.75 4230.52,-869.97 4236.72,-873.23"/>
<polygon fill="white" stroke="transparent" points="3806.14,-1260.84 3806.14,-1383.84 4085.14,-1383.84 4085.14,-1260.84 3806.14,-1260.84"/>
<text text-anchor="start" x="3810.64" y="-1361.14" font-family="Arial" font-size="24.00" fill="#475569">Hashes NAS current&#45;tree</text>
<text text-anchor="start" x="3842.14" y="-1337.14" font-family="Arial" font-size="24.00" fill="#475569">critical artifacts and</text>
<text text-anchor="start" x="3914.14" y="-1313.14" font-family="Arial" font-size="24.00" fill="#475569">writes</text>
<text text-anchor="start" x="3814.64" y="-1289.14" font-family="Arial" font-size="24.00" fill="#475569">integrity&#45;manifest.json to</text>
<text text-anchor="start" x="3848.64" y="-1269.14" font-family="Arial" font-size="19.00" fill="#475569">[SHA&#45;256 + filesystem]</text>
</g>
<!-- 20 -->
<g id="20" class="node">
<title>20</title>
<polygon fill="#ecfeff" stroke="#0891b2" points="2626.49,-1415.84 2375.91,-1651.77 1874.75,-1651.77 1624.17,-1415.84 1874.75,-1179.9 2375.91,-1179.9 2626.49,-1415.84"/>
<text text-anchor="start" x="2008.33" y="-1512.14" font-family="Arial" font-size="34.00" fill="#111827">Restricted NAS</text>
<text text-anchor="start" x="1944.83" y="-1478.14" font-family="Arial" font-size="34.00" fill="#111827">Runtime SSH Boundary</text>
<text text-anchor="start" x="1847.33" y="-1456.14" font-family="Arial" font-size="19.00" fill="#111827">[Container: OpenSSH forced command + sudoers + ZFS refquota]</text>
<text text-anchor="start" x="1998.83" y="-1419.14" font-family="Arial" font-size="24.00" fill="#111827">Dedicated runtime NAS</text>
<text text-anchor="start" x="1987.83" y="-1395.14" font-family="Arial" font-size="24.00" fill="#111827">user/key, pinned host&#45;key</text>
<text text-anchor="start" x="1969.33" y="-1371.14" font-family="Arial" font-size="24.00" fill="#111827">verification, forced&#45;command</text>
<text text-anchor="start" x="1988.33" y="-1347.14" font-family="Arial" font-size="24.00" fill="#111827">dispatcher, sudo allowlist,</text>
<text text-anchor="start" x="2013.83" y="-1323.14" font-family="Arial" font-size="24.00" fill="#111827">and refquota&#45;backed</text>
<text text-anchor="start" x="1976.33" y="-1299.14" font-family="Arial" font-size="24.00" fill="#111827">current&#45;tree write boundary.</text>
</g>
<!-- 20&#45;&gt;28 -->
<g id="51" class="edge">
<title>20&#45;&gt;28</title>
<path fill="none" stroke="#475569" stroke-dasharray="5,2" d="M2207.67,-1179.87C2291.34,-969.53 2440.94,-666.95 2662.66,-480.84 2796.94,-368.12 2860.97,-377.07 3033.66,-346.84 3367.02,-288.48 3464.6,-274.16 3795.14,-346.84 3910.79,-372.26 4025.14,-435.15 4117.61,-498.27"/>
<polygon fill="#475569" stroke="#475569" points="4115.7,-501.21 4125.92,-503.99 4119.67,-495.44 4115.7,-501.21"/>
<polygon fill="white" stroke="transparent" points="3249.9,-346.84 3249.9,-445.84 3553.9,-445.84 3553.9,-346.84 3249.9,-346.84"/>
<text text-anchor="start" x="3253.9" y="-423.14" font-family="Arial" font-size="24.00" fill="#475569">Allows receiver&#45;mode rsync</text>
<text text-anchor="start" x="3288.4" y="-399.14" font-family="Arial" font-size="24.00" fill="#475569">and mkdir only under</text>
<text text-anchor="start" x="3339.4" y="-375.14" font-family="Arial" font-size="24.00" fill="#475569">current tree</text>
<text text-anchor="start" x="3291.9" y="-355.14" font-family="Arial" font-size="19.00" fill="#475569">[forced command + rsync]</text>
</g>
<!-- 20&#45;&gt;18 -->
<g id="53" class="edge">
<title>20&#45;&gt;18</title>
<path fill="none" stroke="#475569" stroke-dasharray="5,2" d="M2476.3,-1557.52C2679.13,-1639.63 2931.07,-1741.63 3120.72,-1818.41"/>
<polygon fill="#475569" stroke="#475569" points="3119.68,-1821.76 3130.27,-1822.27 3122.31,-1815.28 3119.68,-1821.76"/>
<polygon fill="white" stroke="transparent" points="2693.16,-1764.84 2693.16,-1839.84 2967.16,-1839.84 2967.16,-1764.84 2693.16,-1764.84"/>
<text text-anchor="start" x="2697.16" y="-1817.14" font-family="Arial" font-size="24.00" fill="#475569">Allows sudo execution of</text>
<text text-anchor="start" x="2736.16" y="-1793.14" font-family="Arial" font-size="24.00" fill="#475569">guard helper only</text>
<text text-anchor="start" x="2722.66" y="-1773.14" font-family="Arial" font-size="19.00" fill="#475569">[forced command + sudo]</text>
</g>
<!-- 20&#45;&gt;19 -->
<g id="54" class="edge">
<title>20&#45;&gt;19</title>
<path fill="none" stroke="#475569" stroke-dasharray="5,2" d="M2626.87,-1415.84C2768.55,-1415.84 2919.69,-1415.84 3050.47,-1415.84"/>
<polygon fill="#475569" stroke="#475569" points="3050.65,-1419.34 3060.65,-1415.84 3050.65,-1412.34 3050.65,-1419.34"/>
<polygon fill="white" stroke="transparent" points="2693.16,-1415.84 2693.16,-1490.84 2967.16,-1490.84 2967.16,-1415.84 2693.16,-1415.84"/>
<text text-anchor="start" x="2697.16" y="-1468.14" font-family="Arial" font-size="24.00" fill="#475569">Allows sudo execution of</text>
<text text-anchor="start" x="2724.66" y="-1444.14" font-family="Arial" font-size="24.00" fill="#475569">integrity helper only</text>
<text text-anchor="start" x="2722.66" y="-1424.14" font-family="Arial" font-size="19.00" fill="#475569">[forced command + sudo]</text>
</g>
<!-- 21 -->
<g id="21" class="node">
<title>21</title>
<polygon fill="#ecfeff" stroke="#0891b2" points="2590,-1912.84 2357.67,-2101.56 1892.99,-2101.56 1660.66,-1912.84 1892.99,-1724.11 2357.67,-1724.11 2590,-1912.84"/>
<text text-anchor="start" x="2000.33" y="-1980.14" font-family="Arial" font-size="34.00" fill="#111827">NAS Provisioner</text>
<text text-anchor="start" x="1869.83" y="-1958.14" font-family="Arial" font-size="19.00" fill="#111827">[Container: Bash + admin SSH + remote Python + midclt/zfs]</text>
<text text-anchor="start" x="1964.33" y="-1921.14" font-family="Arial" font-size="24.00" fill="#111827">Idempotent provisioning script</text>
<text text-anchor="start" x="1962.83" y="-1897.14" font-family="Arial" font-size="24.00" fill="#111827">for the TrueNAS dataset, SMB</text>
<text text-anchor="start" x="1992.83" y="-1873.14" font-family="Arial" font-size="24.00" fill="#111827">share, periodic snapshot</text>
<text text-anchor="start" x="1980.83" y="-1849.14" font-family="Arial" font-size="24.00" fill="#111827">tasks, refquota, and retired</text>
<text text-anchor="start" x="1981.83" y="-1825.14" font-family="Arial" font-size="24.00" fill="#111827">legacy snapshot cron jobs.</text>
</g>
<!-- 21&#45;&gt;28 -->
<g id="70" class="edge">
<title>21&#45;&gt;28</title>
<path fill="none" stroke="#475569" stroke-dasharray="5,2" d="M2473.34,-1818.01C2533.55,-1786.19 2588.87,-1743.91 2626.66,-1687.84 2685.75,-1600.15 2601.59,-823.16 2662.66,-736.84 2955.78,-322.49 3288.82,-554.46 3795.14,-589.84 3901.51,-597.27 4019.08,-613.04 4116.13,-628.12"/>
<polygon fill="#475569" stroke="#475569" points="4115.64,-631.58 4126.06,-629.67 4116.72,-624.67 4115.64,-631.58"/>
<polygon fill="white" stroke="transparent" points="3242.9,-589.84 3242.9,-701.84 3560.9,-701.84 3560.9,-589.84 3242.9,-589.84"/>
<text text-anchor="start" x="3246.9" y="-678.64" font-family="Arial" font-size="24.00" fill="#475569">Configures mountpoint, SMB</text>
<text text-anchor="start" x="3292.9" y="-652.64" font-family="Arial" font-size="24.00" fill="#475569">share, refquota, and</text>
<text text-anchor="start" x="3258.9" y="-626.64" font-family="Arial" font-size="24.00" fill="#475569">snapshot naming/retention</text>
<text text-anchor="start" x="3387.4" y="-600.64" font-family="Arial" font-size="24.00" fill="#475569">for</text>
</g>
<!-- 21&#45;&gt;29 -->
<g id="69" class="edge">
<title>21&#45;&gt;29</title>
<path fill="none" stroke="#475569" stroke-dasharray="5,2" d="M2471.62,-2009.31C2531.67,-2040.81 2587.37,-2082.3 2626.66,-2136.84 2721.43,-2268.37 2564.88,-2370.51 2662.66,-2499.84 2786.48,-2663.61 3629.16,-2760.17 3795.14,-2810.84 3901.34,-2843.26 4016.22,-2887.85 4111.53,-2927.61"/>
<polygon fill="#475569" stroke="#475569" points="4110.41,-2930.94 4120.98,-2931.57 4113.11,-2924.48 4110.41,-2930.94"/>
<polygon fill="white" stroke="transparent" points="3247.4,-2810.84 3247.4,-2933.84 3556.4,-2933.84 3556.4,-2810.84 3247.4,-2810.84"/>
<text text-anchor="start" x="3266.9" y="-2911.14" font-family="Arial" font-size="24.00" fill="#475569">Creates/updates dataset,</text>
<text text-anchor="start" x="3251.9" y="-2887.14" font-family="Arial" font-size="24.00" fill="#475569">SMB share, snapshot tasks,</text>
<text text-anchor="start" x="3281.9" y="-2863.14" font-family="Arial" font-size="24.00" fill="#475569">refquota, and disabled</text>
<text text-anchor="start" x="3270.4" y="-2839.14" font-family="Arial" font-size="24.00" fill="#475569">retired cron jobs through</text>
<text text-anchor="start" x="3289.4" y="-2819.14" font-family="Arial" font-size="19.00" fill="#475569">[admin SSH + zfs + midclt]</text>
</g>
<!-- 22 -->
<g id="22" class="node">
<title>22</title>
<polygon fill="#ecfeff" stroke="#0891b2" points="2553.02,-2975.84 2339.17,-3251.15 1911.48,-3251.15 1697.64,-2975.84 1911.48,-2700.52 2339.17,-2700.52 2553.02,-2975.84"/>
<text text-anchor="start" x="1938.83" y="-3096.14" font-family="Arial" font-size="34.00" fill="#111827">NAS Runtime Hardening</text>
<text text-anchor="start" x="2065.33" y="-3062.14" font-family="Arial" font-size="34.00" fill="#111827">Installer</text>
<text text-anchor="start" x="1892.33" y="-3040.14" font-family="Arial" font-size="19.00" fill="#111827">[Container: Bash + admin SSH + TrueNAS middleware]</text>
<text text-anchor="start" x="2006.33" y="-3003.14" font-family="Arial" font-size="24.00" fill="#111827">Installs or updates the</text>
<text text-anchor="start" x="1976.83" y="-2979.14" font-family="Arial" font-size="24.00" fill="#111827">dedicated runtime user/key,</text>
<text text-anchor="start" x="1971.83" y="-2955.14" font-family="Arial" font-size="24.00" fill="#111827">forced&#45;command dispatcher,</text>
<text text-anchor="start" x="1994.33" y="-2931.14" font-family="Arial" font-size="24.00" fill="#111827">NAS&#45;side guard/integrity</text>
<text text-anchor="start" x="2003.33" y="-2907.14" font-family="Arial" font-size="24.00" fill="#111827">helpers, sudo allowlist,</text>
<text text-anchor="start" x="1985.33" y="-2883.14" font-family="Arial" font-size="24.00" fill="#111827">runtime&#45;writable subtrees,</text>
<text text-anchor="start" x="1974.33" y="-2859.14" font-family="Arial" font-size="24.00" fill="#111827">host&#45;key pinning config, and</text>
<text text-anchor="start" x="2033.83" y="-2835.14" font-family="Arial" font-size="24.00" fill="#111827">dataset refquota.</text>
</g>
<!-- 22&#45;&gt;28 -->
<g id="72" class="edge">
<title>22&#45;&gt;28</title>
<path fill="none" stroke="#475569" stroke-dasharray="5,2" d="M2448.28,-2840.49C2518.93,-2795.24 2585,-2737.33 2626.66,-2664.84 2696.82,-2542.72 2604.12,-1525.93 2662.66,-1397.84 2755.63,-1194.42 2831.74,-1154.03 3033.66,-1057.84 3342.54,-910.69 3470.21,-1052 3795.14,-944.84 3906.62,-908.07 4022.57,-848.86 4117.23,-794.25"/>
<polygon fill="#475569" stroke="#475569" points="4119.13,-797.2 4126.03,-789.15 4115.63,-791.14 4119.13,-797.2"/>
<polygon fill="white" stroke="transparent" points="3277.4,-1057.84 3277.4,-1143.84 3526.4,-1143.84 3526.4,-1057.84 3277.4,-1057.84"/>
<text text-anchor="start" x="3281.9" y="-1120.64" font-family="Arial" font-size="24.00" fill="#475569">Owns runtime&#45;writable</text>
<text text-anchor="start" x="3290.9" y="-1094.64" font-family="Arial" font-size="24.00" fill="#475569">current subtrees and</text>
<text text-anchor="start" x="3298.4" y="-1068.64" font-family="Arial" font-size="24.00" fill="#475569">applies refquota for</text>
</g>
<!-- 22&#45;&gt;29 -->
<g id="71" class="edge">
<title>22&#45;&gt;29</title>
<path fill="none" stroke="#475569" stroke-dasharray="5,2" d="M2498.72,-3046.2C2553.66,-3056.31 2609.61,-3066.46 2662.66,-3075.84 3159.04,-3163.58 3293.85,-3190.82 3795.14,-3137.84 3900.45,-3126.7 4015.47,-3102.61 4111.1,-3079.15"/>
<polygon fill="#475569" stroke="#475569" points="4112.02,-3082.53 4120.89,-3076.74 4110.34,-3075.74 4112.02,-3082.53"/>
<polygon fill="white" stroke="transparent" points="3259.4,-3164.84 3259.4,-3311.84 3544.4,-3311.84 3544.4,-3164.84 3259.4,-3164.84"/>
<text text-anchor="start" x="3263.9" y="-3289.14" font-family="Arial" font-size="24.00" fill="#475569">Creates runtime user/key,</text>
<text text-anchor="start" x="3278.9" y="-3265.14" font-family="Arial" font-size="24.00" fill="#475569">forced command, sudo</text>
<text text-anchor="start" x="3277.9" y="-3241.14" font-family="Arial" font-size="24.00" fill="#475569">allowlist, helper scripts,</text>
<text text-anchor="start" x="3292.9" y="-3217.14" font-family="Arial" font-size="24.00" fill="#475569">and pinned host&#45;key</text>
<text text-anchor="start" x="3306.9" y="-3193.14" font-family="Arial" font-size="24.00" fill="#475569">boundary through</text>
<text text-anchor="start" x="3289.4" y="-3173.14" font-family="Arial" font-size="19.00" fill="#475569">[admin SSH + middleware]</text>
</g>
<!-- 23&#45;&gt;28 -->
<g id="77" class="edge">
<title>23&#45;&gt;28</title>
<path fill="none" stroke="#475569" stroke-dasharray="5,2" d="M2388.15,-2324.6C2479.39,-2284.29 2572.42,-2224.58 2626.66,-2137.84 2695.67,-2027.46 2584.59,-1071 2662.66,-966.84 2749.41,-851.08 3690.65,-733.53 4115.8,-685.89"/>
<polygon fill="#475569" stroke="#475569" points="4116.2,-689.37 4125.75,-684.78 4115.42,-682.42 4116.2,-689.37"/>
<polygon fill="white" stroke="transparent" points="3266.9,-840.84 3266.9,-926.84 3536.9,-926.84 3536.9,-840.84 3266.9,-840.84"/>
<text text-anchor="start" x="3270.9" y="-903.64" font-family="Arial" font-size="24.00" fill="#475569">Checks required backup</text>
<text text-anchor="start" x="3274.4" y="-877.64" font-family="Arial" font-size="24.00" fill="#475569">paths, status manifests,</text>
<text text-anchor="start" x="3273.9" y="-851.64" font-family="Arial" font-size="24.00" fill="#475569">and integrity manifest in</text>
</g>
<!-- 23&#45;&gt;29 -->
<g id="76" class="edge">
<title>23&#45;&gt;29</title>
<path fill="none" stroke="#475569" stroke-dasharray="5,2" d="M2381.95,-2485.72C2471.04,-2526.96 2564.23,-2585.24 2626.66,-2664.84 2667.37,-2716.74 2615.61,-2762.59 2662.66,-2808.84 2863.27,-3006.03 3710.41,-3026.18 4110.81,-3024.32"/>
<polygon fill="#475569" stroke="#475569" points="4111.08,-3027.81 4121.06,-3024.26 4111.04,-3020.81 4111.08,-3027.81"/>
<polygon fill="white" stroke="transparent" points="3263.9,-3019.84 3263.9,-3118.84 3539.9,-3118.84 3539.9,-3019.84 3263.9,-3019.84"/>
<text text-anchor="start" x="3267.9" y="-3096.14" font-family="Arial" font-size="24.00" fill="#475569">Reads dataset, snapshot</text>
<text text-anchor="start" x="3281.4" y="-3072.14" font-family="Arial" font-size="24.00" fill="#475569">tasks, and retired cron</text>
<text text-anchor="start" x="3327.9" y="-3048.14" font-family="Arial" font-size="24.00" fill="#475569">job state from</text>
<text text-anchor="start" x="3317.4" y="-3028.14" font-family="Arial" font-size="19.00" fill="#475569">[SSH + midclt + zfs]</text>
</g>
<!-- 23&#45;&gt;18 -->
<g id="75" class="edge">
<title>23&#45;&gt;18</title>
<path fill="none" stroke="#475569" stroke-dasharray="5,2" d="M2377,-2308.6C2588.86,-2230.64 2892.36,-2118.96 3113.91,-2037.44"/>
<polygon fill="#475569" stroke="#475569" points="3115.23,-2040.68 3123.4,-2033.94 3112.81,-2034.11 3115.23,-2040.68"/>
<polygon fill="white" stroke="transparent" points="2709.16,-2193.84 2709.16,-2268.84 2951.16,-2268.84 2951.16,-2193.84 2709.16,-2193.84"/>
<text text-anchor="start" x="2713.16" y="-2246.14" font-family="Arial" font-size="24.00" fill="#475569">Runs read&#45;only guard</text>
<text text-anchor="start" x="2727.66" y="-2222.14" font-family="Arial" font-size="24.00" fill="#475569">verification through</text>
<text text-anchor="start" x="2775.66" y="-2202.14" font-family="Arial" font-size="19.00" fill="#475569">[subprocess]</text>
</g>
<!-- 25 -->
<g id="25" class="node">
<title>25</title>
<path fill="#fef3c7" stroke="#d97706" d="M3661.4,-2573.55C3661.4,-2593.5 3545.09,-2609.71 3401.9,-2609.71 3258.71,-2609.71 3142.4,-2593.5 3142.4,-2573.55 3142.4,-2573.55 3142.4,-2248.12 3142.4,-2248.12 3142.4,-2228.17 3258.71,-2211.96 3401.9,-2211.96 3545.09,-2211.96 3661.4,-2228.17 3661.4,-2248.12 3661.4,-2248.12 3661.4,-2573.55 3661.4,-2573.55"/>
<path fill="none" stroke="#d97706" d="M3661.4,-2573.55C3661.4,-2553.6 3545.09,-2537.39 3401.9,-2537.39 3258.71,-2537.39 3142.4,-2553.6 3142.4,-2573.55"/>
<text text-anchor="start" x="3234.9" y="-2507.14" font-family="Arial" font-size="34.00" fill="#111827">Run Ledger and Local</text>
<text text-anchor="start" x="3361.9" y="-2473.14" font-family="Arial" font-size="34.00" fill="#111827">State</text>
<text text-anchor="start" x="3174.9" y="-2451.14" font-family="Arial" font-size="19.00" fill="#111827">[Container: SQLite + JSON + logs on WSL filesystem]</text>
<text text-anchor="start" x="3263.4" y="-2414.14" font-family="Arial" font-size="24.00" fill="#111827">Local status, pruned logs,</text>
<text text-anchor="start" x="3253.4" y="-2390.14" font-family="Arial" font-size="24.00" fill="#111827">SQLite run ledger, exported</text>
<text text-anchor="start" x="3265.4" y="-2366.14" font-family="Arial" font-size="24.00" fill="#111827">run&#45;history JSON, SQLite</text>
<text text-anchor="start" x="3237.9" y="-2342.14" font-family="Arial" font-size="24.00" fill="#111827">snapshot cache, and Windows</text>
<text text-anchor="start" x="3285.9" y="-2318.14" font-family="Arial" font-size="24.00" fill="#111827">manifest cache under</text>
<text text-anchor="start" x="3171.4" y="-2294.14" font-family="Arial" font-size="24.00" fill="#111827">~/.local/state/workstation&#45;workflow&#45;backup.</text>
</g>
<!-- 23&#45;&gt;25 -->
<g id="74" class="edge">
<title>23&#45;&gt;25</title>
<path fill="none" stroke="#475569" stroke-dasharray="5,2" d="M2439.35,-2403.29C2651.72,-2404.96 2929.59,-2407.14 3131.98,-2408.73"/>
<polygon fill="#475569" stroke="#475569" points="3132.13,-2412.23 3142.16,-2408.81 3132.19,-2405.23 3132.13,-2412.23"/>
<polygon fill="white" stroke="transparent" points="2682.66,-2406.84 2682.66,-2481.84 2977.66,-2481.84 2977.66,-2406.84 2682.66,-2406.84"/>
<text text-anchor="start" x="2709.66" y="-2459.14" font-family="Arial" font-size="24.00" fill="#475569">Reads local last status</text>
<text text-anchor="start" x="2687.16" y="-2435.14" font-family="Arial" font-size="24.00" fill="#475569">and recent run ledger from</text>
<text text-anchor="start" x="2743.66" y="-2415.14" font-family="Arial" font-size="19.00" fill="#475569">[filesystem + sqlite3]</text>
</g>
</g>
</svg>
