<?xml version="1.0" encoding="UTF-8" standalone="no"?>
<!DOCTYPE svg PUBLIC "-//W3C//DTD SVG 1.1//EN"
 "http://www.w3.org/Graphics/SVG/1.1/DTD/svg11.dtd">
<!-- Generated by graphviz version 2.43.0 (0)
 -->
<!-- Title: %3 Pages: 1 -->
<svg width="3008pt" height="1302pt"
 viewBox="0.00 0.00 3007.67 1301.50" xmlns="http://www.w3.org/2000/svg" xmlns:xlink="http://www.w3.org/1999/xlink">
<g id="graph0" class="graph" transform="scale(1 1) rotate(0) translate(4 1297.5)">
<title>%3</title>
<polygon fill="white" stroke="transparent" points="-4,4 -4,-1297.5 3003.67,-1297.5 3003.67,4 -4,4"/>
<text text-anchor="start" x="1112.33" y="-35.8" font-family="Arial" font-size="34.00">Dynamic View: WORKSTATION1 Workflow Backup</text>
<text text-anchor="start" x="1088.83" y="-9.8" font-family="Arial" font-size="24.00">Failure&#45;only alert path; successful timer runs produce no Telegram message.</text>
<g id="clust1" class="cluster">
<title>cluster_2</title>
<polygon fill="none" stroke="#444444" points="8,-700.5 8,-1277.5 2991.67,-1277.5 2991.67,-700.5 8,-700.5"/>
<text text-anchor="start" x="1308.83" y="-729.3" font-family="Arial" font-size="24.00" fill="#444444">WORKSTATION1 Workflow Backup</text>
<text text-anchor="start" x="1422.83" y="-709.3" font-family="Arial" font-size="19.00" fill="#444444">[Software System]</text>
</g>
<!-- 24 -->
<g id="24" class="node">
<title>24</title>
<polygon fill="#ecfeff" stroke="#0891b2" points="2096.5,-989.5 1934.92,-1178.22 1611.75,-1178.22 1450.17,-989.5 1611.75,-800.78 1934.92,-800.78 2096.5,-989.5"/>
<text text-anchor="start" x="1662.33" y="-1056.8" font-family="Arial" font-size="34.00" fill="#111827">Failure Notifier</text>
<text text-anchor="start" x="1636.33" y="-1034.8" font-family="Arial" font-size="19.00" fill="#111827">[Container: Bash + Python urllib]</text>
<text text-anchor="start" x="1628.33" y="-997.8" font-family="Arial" font-size="24.00" fill="#111827">Best&#45;effort Telegram failure</text>
<text text-anchor="start" x="1646.83" y="-973.8" font-family="Arial" font-size="24.00" fill="#111827">alert unit that reads last</text>
<text text-anchor="start" x="1612.83" y="-949.8" font-family="Arial" font-size="24.00" fill="#111827">status/log tail and Hermes bot</text>
<text text-anchor="start" x="1604.33" y="-925.8" font-family="Arial" font-size="24.00" fill="#111827">environment variables; success</text>
<text text-anchor="start" x="1688.83" y="-901.8" font-family="Arial" font-size="24.00" fill="#111827">runs stay silent.</text>
</g>
<!-- 25 -->
<g id="25" class="node">
<title>25</title>
<path fill="#fef3c7" stroke="#d97706" d="M2966.67,-1189.22C2966.67,-1209.17 2850.35,-1225.38 2707.17,-1225.38 2563.98,-1225.38 2447.67,-1209.17 2447.67,-1189.22 2447.67,-1189.22 2447.67,-863.78 2447.67,-863.78 2447.67,-843.83 2563.98,-827.62 2707.17,-827.62 2850.35,-827.62 2966.67,-843.83 2966.67,-863.78 2966.67,-863.78 2966.67,-1189.22 2966.67,-1189.22"/>
<path fill="none" stroke="#d97706" d="M2966.67,-1189.22C2966.67,-1169.26 2850.35,-1153.06 2707.17,-1153.06 2563.98,-1153.06 2447.67,-1169.26 2447.67,-1189.22"/>
<text text-anchor="start" x="2540.17" y="-1122.8" font-family="Arial" font-size="34.00" fill="#111827">Run Ledger and Local</text>
<text text-anchor="start" x="2667.17" y="-1088.8" font-family="Arial" font-size="34.00" fill="#111827">State</text>
<text text-anchor="start" x="2480.17" y="-1066.8" font-family="Arial" font-size="19.00" fill="#111827">[Container: SQLite + JSON + logs on WSL filesystem]</text>
<text text-anchor="start" x="2568.67" y="-1029.8" font-family="Arial" font-size="24.00" fill="#111827">Local status, pruned logs,</text>
<text text-anchor="start" x="2558.67" y="-1005.8" font-family="Arial" font-size="24.00" fill="#111827">SQLite run ledger, exported</text>
<text text-anchor="start" x="2570.67" y="-981.8" font-family="Arial" font-size="24.00" fill="#111827">run&#45;history JSON, SQLite</text>
<text text-anchor="start" x="2543.17" y="-957.8" font-family="Arial" font-size="24.00" fill="#111827">snapshot cache, and Windows</text>
<text text-anchor="start" x="2591.17" y="-933.8" font-family="Arial" font-size="24.00" fill="#111827">manifest cache under</text>
<text text-anchor="start" x="2476.67" y="-909.8" font-family="Arial" font-size="24.00" fill="#111827">~/.local/state/workstation&#45;workflow&#45;backup.</text>
</g>
<!-- 24&#45;&gt;25 -->
<g id="64" class="edge">
<title>24&#45;&gt;25</title>
<path fill="none" stroke="#475569" stroke-dasharray="5,2" d="M2085.91,-1001.87C2199.69,-1006.39 2327.3,-1011.46 2437.06,-1015.81"/>
<polygon fill="#475569" stroke="#475569" points="2437.16,-1019.32 2447.29,-1016.22 2437.43,-1012.33 2437.16,-1019.32"/>
<polygon fill="white" stroke="transparent" points="2132.67,-1014.5 2132.67,-1089.5 2411.67,-1089.5 2411.67,-1014.5 2132.67,-1014.5"/>
<text text-anchor="start" x="2137.17" y="-1066.8" font-family="Arial" font-size="24.00" fill="#475569">5. Read last&#45;run.json and</text>
<text text-anchor="start" x="2237.67" y="-1042.8" font-family="Arial" font-size="24.00" fill="#475569">log tail</text>
<text text-anchor="start" x="2224.17" y="-1022.8" font-family="Arial" font-size="19.00" fill="#475569">[filesystem]</text>
</g>
<!-- 30 -->
<g id="30" class="node">
<title>30</title>
<path fill="#fef3c7" stroke="#d97706" d="M2887.67,-642.72C2887.67,-661.01 2806.76,-675.88 2707.17,-675.88 2607.57,-675.88 2526.67,-661.01 2526.67,-642.72 2526.67,-642.72 2526.67,-344.28 2526.67,-344.28 2526.67,-325.99 2607.57,-311.12 2707.17,-311.12 2806.76,-311.12 2887.67,-325.99 2887.67,-344.28 2887.67,-344.28 2887.67,-642.72 2887.67,-642.72"/>
<path fill="none" stroke="#d97706" d="M2887.67,-642.72C2887.67,-624.42 2806.76,-609.56 2707.17,-609.56 2607.57,-609.56 2526.67,-624.42 2526.67,-642.72"/>
<text text-anchor="start" x="2616.67" y="-577.8" font-family="Arial" font-size="34.00" fill="#111827">Hermes Bot</text>
<text text-anchor="start" x="2579.17" y="-543.8" font-family="Arial" font-size="34.00" fill="#111827">Environment File</text>
<text text-anchor="start" x="2630.17" y="-521.8" font-family="Arial" font-size="19.00" fill="#111827">[Software System]</text>
<text text-anchor="start" x="2555.67" y="-484.8" font-family="Arial" font-size="24.00" fill="#111827">Local ~/.hermes/.env values</text>
<text text-anchor="start" x="2575.17" y="-460.8" font-family="Arial" font-size="24.00" fill="#111827">that supply Telegram bot</text>
<text text-anchor="start" x="2572.17" y="-436.8" font-family="Arial" font-size="24.00" fill="#111827">token/chat settings to the</text>
<text text-anchor="start" x="2560.67" y="-412.8" font-family="Arial" font-size="24.00" fill="#111827">failure notifier; contents are</text>
<text text-anchor="start" x="2586.67" y="-388.8" font-family="Arial" font-size="24.00" fill="#111827">not stored in this repo.</text>
</g>
<!-- 24&#45;&gt;30 -->
<g id="65" class="edge">
<title>24&#45;&gt;30</title>
<path fill="none" stroke="#475569" stroke-dasharray="5,2" d="M1995.75,-871.64C2154.74,-787.02 2366.71,-674.18 2517.63,-593.85"/>
<polygon fill="#475569" stroke="#475569" points="2519.39,-596.88 2526.58,-589.09 2516.11,-590.7 2519.39,-596.88"/>
<polygon fill="white" stroke="transparent" points="2147.67,-785.5 2147.67,-860.5 2396.67,-860.5 2396.67,-785.5 2147.67,-785.5"/>
<text text-anchor="start" x="2152.17" y="-837.8" font-family="Arial" font-size="24.00" fill="#475569">6. Load bot token/chat</text>
<text text-anchor="start" x="2230.67" y="-813.8" font-family="Arial" font-size="24.00" fill="#475569">settings</text>
<text text-anchor="start" x="2224.17" y="-793.8" font-family="Arial" font-size="19.00" fill="#475569">[filesystem]</text>
</g>
<!-- 31 -->
<g id="31" class="node">
<title>31</title>
<polygon fill="#f3e8ff" stroke="#9333ea" points="2882.17,-239 2532.17,-239 2532.17,-80 2882.17,-80 2882.17,-239"/>
<text text-anchor="start" x="2575.67" y="-190.8" font-family="Arial" font-size="34.00" fill="#111827">Telegram Bot API</text>
<text text-anchor="start" x="2630.17" y="-168.8" font-family="Arial" font-size="19.00" fill="#111827">[Software System]</text>
<text text-anchor="start" x="2568.17" y="-131.8" font-family="Arial" font-size="24.00" fill="#111827">External API used only for</text>
<text text-anchor="start" x="2561.17" y="-107.8" font-family="Arial" font-size="24.00" fill="#111827">backup failure notifications.</text>
</g>
<!-- 24&#45;&gt;31 -->
<g id="67" class="edge">
<title>24&#45;&gt;31</title>
<path fill="none" stroke="#475569" stroke-dasharray="5,2" d="M1911.05,-800.77C2035.19,-641.33 2231.5,-416.97 2447.67,-275.5 2471.04,-260.2 2496.78,-245.98 2522.66,-233.11"/>
<polygon fill="#475569" stroke="#475569" points="2524.39,-236.16 2531.82,-228.61 2521.3,-229.88 2524.39,-236.16"/>
<polygon fill="white" stroke="transparent" points="2136.67,-535.5 2136.67,-610.5 2407.67,-610.5 2407.67,-535.5 2136.67,-535.5"/>
<text text-anchor="start" x="2141.17" y="-587.8" font-family="Arial" font-size="24.00" fill="#475569">7. sendMessage backup</text>
<text text-anchor="start" x="2212.17" y="-563.8" font-family="Arial" font-size="24.00" fill="#475569">failure alert</text>
<text text-anchor="start" x="2236.17" y="-543.8" font-family="Arial" font-size="19.00" fill="#475569">[HTTPS]</text>
</g>
<!-- 3 -->
<g id="3" class="node">
<title>3</title>
<polygon fill="#e0e7ff" stroke="#4f46e5" points="1094.5,-1104 729.5,-1104 729.5,-839 1094.5,-839 1094.5,-1104"/>
<text text-anchor="start" x="760" y="-1055.8" font-family="Arial" font-size="34.00" fill="#111827">systemd User Timer</text>
<text text-anchor="start" x="822" y="-1021.8" font-family="Arial" font-size="34.00" fill="#111827">and Service</text>
<text text-anchor="start" x="775" y="-999.8" font-family="Arial" font-size="19.00" fill="#111827">[Container: systemd &#45;&#45;user units]</text>
<text text-anchor="start" x="765" y="-962.8" font-family="Arial" font-size="24.00" fill="#111827">Hourly user&#45;level scheduler</text>
<text text-anchor="start" x="758.5" y="-938.8" font-family="Arial" font-size="24.00" fill="#111827">and oneshot service that run</text>
<text text-anchor="start" x="758.5" y="-914.8" font-family="Arial" font-size="24.00" fill="#111827">the backup at minute 45 and</text>
<text text-anchor="start" x="808" y="-890.8" font-family="Arial" font-size="24.00" fill="#111827">route failures to the</text>
<text text-anchor="start" x="872.5" y="-866.8" font-family="Arial" font-size="24.00" fill="#111827">notifier.</text>
</g>
<!-- 3&#45;&gt;24 -->
<g id="40" class="edge">
<title>3&#45;&gt;24</title>
<path fill="none" stroke="#475569" stroke-dasharray="5,2" d="M1094.72,-975.31C1196.52,-977.44 1326.56,-980.16 1445.44,-982.65"/>
<polygon fill="#475569" stroke="#475569" points="1445.37,-986.15 1455.44,-982.86 1445.52,-979.15 1445.37,-986.15"/>
<polygon fill="white" stroke="transparent" points="1169.5,-981.5 1169.5,-1056.5 1389.5,-1056.5 1389.5,-981.5 1169.5,-981.5"/>
<text text-anchor="start" x="1173.5" y="-1033.8" font-family="Arial" font-size="24.00" fill="#475569">4. Invoke OnFailure</text>
<text text-anchor="start" x="1243" y="-1009.8" font-family="Arial" font-size="24.00" fill="#475569">notifier</text>
<text text-anchor="start" x="1232.5" y="-989.8" font-family="Arial" font-size="19.00" fill="#475569">[OnFailure]</text>
</g>
<!-- 4 -->
<g id="4" class="node">
<title>4</title>
<polygon fill="#e0f2fe" stroke="#0284c7" points="413,-1135 33,-1135 33,-808 413,-808 413,-1135"/>
<text text-anchor="start" x="66.5" y="-1086.8" font-family="Arial" font-size="34.00" fill="#111827">Backup Orchestrator</text>
<text text-anchor="start" x="149.5" y="-1064.8" font-family="Arial" font-size="19.00" fill="#111827">[Container: Bash]</text>
<text text-anchor="start" x="78.5" y="-1027.8" font-family="Arial" font-size="24.00" fill="#111827">scripts/workflow&#45;backup.sh</text>
<text text-anchor="start" x="69.5" y="-1003.8" font-family="Arial" font-size="24.00" fill="#111827">coordinates one backup run:</text>
<text text-anchor="start" x="68" y="-979.8" font-family="Arial" font-size="24.00" fill="#111827">locking, log pruning, pre/post</text>
<text text-anchor="start" x="83" y="-955.8" font-family="Arial" font-size="24.00" fill="#111827">guard checks, WSL rsync,</text>
<text text-anchor="start" x="72" y="-931.8" font-family="Arial" font-size="24.00" fill="#111827">SQLite snapshots, Windows</text>
<text text-anchor="start" x="103" y="-907.8" font-family="Arial" font-size="24.00" fill="#111827">sync, strict final ledger</text>
<text text-anchor="start" x="99.5" y="-883.8" font-family="Arial" font-size="24.00" fill="#111827">updates, NAS manifest</text>
<text text-anchor="start" x="138" y="-859.8" font-family="Arial" font-size="24.00" fill="#111827">publication, and</text>
<text text-anchor="start" x="62" y="-835.8" font-family="Arial" font-size="24.00" fill="#111827">restore&#45;checksum generation.</text>
</g>
<!-- 4&#45;&gt;25 -->
<g id="41" class="edge">
<title>4&#45;&gt;25</title>
<path fill="none" stroke="#475569" stroke-dasharray="5,2" d="M413.15,-1048.07C503.18,-1081.53 613.18,-1118.17 715,-1140.5 1015.34,-1206.38 1792.62,-1260.33 2096.67,-1214.5 2210.81,-1197.3 2333.06,-1162.93 2437.89,-1128.23"/>
<polygon fill="#475569" stroke="#475569" points="2439.27,-1131.46 2447.66,-1124.98 2437.06,-1124.82 2439.27,-1131.46"/>
<polygon fill="white" stroke="transparent" points="1145,-1218.5 1145,-1293.5 1414,-1293.5 1414,-1218.5 1145,-1218.5"/>
<text text-anchor="start" x="1206" y="-1270.8" font-family="Arial" font-size="24.00" fill="#475569">1. Write failed</text>
<text text-anchor="start" x="1149.5" y="-1246.8" font-family="Arial" font-size="24.00" fill="#475569">last&#45;run/log/ledger event</text>
<text text-anchor="start" x="1193" y="-1226.8" font-family="Arial" font-size="19.00" fill="#475569">[filesystem + sqlite3]</text>
</g>
<!-- 4&#45;&gt;3 -->
<g id="39" class="edge">
<title>4&#45;&gt;3</title>
<path fill="none" stroke="#475569" stroke-dasharray="5,2" d="M413.09,-971.5C508.32,-971.5 623.55,-971.5 719.17,-971.5"/>
<polygon fill="#475569" stroke="#475569" points="719.24,-975 729.24,-971.5 719.24,-968 719.24,-975"/>
<polygon fill="white" stroke="transparent" points="479,-971.5 479,-1022.5 649,-1022.5 649,-971.5 479,-971.5"/>
<text text-anchor="start" x="483" y="-999.8" font-family="Arial" font-size="24.00" fill="#475569">3. Exit nonzero</text>
<text text-anchor="start" x="496" y="-979.8" font-family="Arial" font-size="19.00" fill="#475569">[systemd &#45;&#45;user]</text>
</g>
<!-- 28 -->
<g id="28" class="node">
<title>28</title>
<path fill="#fef3c7" stroke="#d97706" d="M1109,-639.22C1109,-659.17 1020.7,-675.38 912,-675.38 803.3,-675.38 715,-659.17 715,-639.22 715,-639.22 715,-313.78 715,-313.78 715,-293.83 803.3,-277.62 912,-277.62 1020.7,-277.62 1109,-293.83 1109,-313.78 1109,-313.78 1109,-639.22 1109,-639.22"/>
<path fill="none" stroke="#d97706" d="M1109,-639.22C1109,-619.26 1020.7,-603.06 912,-603.06 803.3,-603.06 715,-619.26 715,-639.22"/>
<text text-anchor="start" x="781" y="-572.8" font-family="Arial" font-size="34.00" fill="#111827">TrueNAS Backup</text>
<text text-anchor="start" x="853" y="-538.8" font-family="Arial" font-size="34.00" fill="#111827">Dataset</text>
<text text-anchor="start" x="835" y="-516.8" font-family="Arial" font-size="19.00" fill="#111827">[Software System]</text>
<text text-anchor="start" x="744" y="-479.8" font-family="Arial" font-size="24.00" fill="#111827">Configured encrypted TrueNAS</text>
<text text-anchor="start" x="770.5" y="-455.8" font-family="Arial" font-size="24.00" fill="#111827">dataset with current mirror</text>
<text text-anchor="start" x="762.5" y="-431.8" font-family="Arial" font-size="24.00" fill="#111827">tree, manifests, SMB share,</text>
<text text-anchor="start" x="763.5" y="-407.8" font-family="Arial" font-size="24.00" fill="#111827">restore checksum manifest,</text>
<text text-anchor="start" x="761.5" y="-383.8" font-family="Arial" font-size="24.00" fill="#111827">refquota, and ZFS snapshot</text>
<text text-anchor="start" x="873.5" y="-359.8" font-family="Arial" font-size="24.00" fill="#111827">history.</text>
</g>
<!-- 4&#45;&gt;28 -->
<g id="55" class="edge">
<title>4&#45;&gt;28</title>
<path fill="none" stroke="#475569" stroke-dasharray="5,2" d="M413.09,-835.26C504.18,-769.63 613.56,-690.81 706.57,-623.8"/>
<polygon fill="#475569" stroke="#475569" points="708.88,-626.45 714.95,-617.76 704.79,-620.77 708.88,-626.45"/>
<polygon fill="white" stroke="transparent" points="449,-796.5 449,-871.5 679,-871.5 679,-796.5 449,-796.5"/>
<text text-anchor="start" x="453" y="-848.8" font-family="Arial" font-size="24.00" fill="#475569">2. Best&#45;effort publish</text>
<text text-anchor="start" x="475.5" y="-824.8" font-family="Arial" font-size="24.00" fill="#475569">failure manifests</text>
<text text-anchor="start" x="472" y="-804.8" font-family="Arial" font-size="19.00" fill="#475569">[restricted SSH rsync]</text>
</g>
</g>
</svg>
