<?xml version="1.0" encoding="UTF-8" standalone="no"?>
<!DOCTYPE svg PUBLIC "-//W3C//DTD SVG 1.1//EN"
 "http://www.w3.org/Graphics/SVG/1.1/DTD/svg11.dtd">
<!-- Generated by graphviz version 2.43.0 (0)
 -->
<!-- Title: %3 Pages: 1 -->
<svg width="2894pt" height="1969pt"
 viewBox="0.00 0.00 2894.00 1968.69" xmlns="http://www.w3.org/2000/svg" xmlns:xlink="http://www.w3.org/1999/xlink">
<g id="graph0" class="graph" transform="scale(1 1) rotate(0) translate(4 1964.69)">
<title>%3</title>
<polygon fill="white" stroke="transparent" points="-4,4 -4,-1964.69 2890,-1964.69 2890,4 -4,4"/>
<text text-anchor="start" x="1001.5" y="-35.8" font-family="Arial" font-size="34.00">System Context View: WORKSTATION1 Workflow Backup</text>
<text text-anchor="start" x="702.5" y="-9.8" font-family="Arial" font-size="24.00">C1: WORKSTATION1 workflow backup system, local source surfaces, TrueNAS target/control plane, and failure&#45;only Telegram notification.</text>
<!-- 1 -->
<g id="1" class="node">
<title>1</title>
<polygon fill="#dbeafe" stroke="#2563eb" points="451,-1370.69 0,-1370.69 0,-1187.69 451,-1187.69 451,-1370.69"/>
<text text-anchor="start" x="166.5" y="-1322.49" font-family="Arial" font-size="34.00" fill="#111827">Michael</text>
<text text-anchor="start" x="190" y="-1300.49" font-family="Arial" font-size="19.00" fill="#111827">[Person]</text>
<text text-anchor="start" x="83.5" y="-1263.49" font-family="Arial" font-size="24.00" fill="#111827">Sole operator who installs,</text>
<text text-anchor="start" x="112.5" y="-1239.49" font-family="Arial" font-size="24.00" fill="#111827">verifies, and restores</text>
<text text-anchor="start" x="29" y="-1215.49" font-family="Arial" font-size="24.00" fill="#111827">WORKSTATION1 workflow backups.</text>
</g>
<!-- 2 -->
<g id="2" class="node">
<title>2</title>
<polygon fill="#dcfce7" stroke="#16a34a" points="2094,-1395.69 1619,-1395.69 1619,-1010.69 2094,-1010.69 2094,-1395.69"/>
<text text-anchor="start" x="1648" y="-1347.49" font-family="Arial" font-size="34.00" fill="#111827">WORKSTATION1 Workflow</text>
<text text-anchor="start" x="1799.5" y="-1313.49" font-family="Arial" font-size="34.00" fill="#111827">Backup</text>
<text text-anchor="start" x="1779.5" y="-1291.49" font-family="Arial" font-size="19.00" fill="#111827">[Software System]</text>
<text text-anchor="start" x="1682" y="-1254.49" font-family="Arial" font-size="24.00" fill="#111827">Repo&#45;owned backup automation</text>
<text text-anchor="start" x="1706" y="-1230.49" font-family="Arial" font-size="24.00" fill="#111827">that mirrors workflow&#45;critical</text>
<text text-anchor="start" x="1695.5" y="-1206.49" font-family="Arial" font-size="24.00" fill="#111827">WSL and Windows artifacts to</text>
<text text-anchor="start" x="1699.5" y="-1182.49" font-family="Arial" font-size="24.00" fill="#111827">TrueNAS through a restricted</text>
<text text-anchor="start" x="1715" y="-1158.49" font-family="Arial" font-size="24.00" fill="#111827">runtime identity, preserves</text>
<text text-anchor="start" x="1728" y="-1134.49" font-family="Arial" font-size="24.00" fill="#111827">rollback points with ZFS</text>
<text text-anchor="start" x="1733" y="-1110.49" font-family="Arial" font-size="24.00" fill="#111827">snapshots, records run</text>
<text text-anchor="start" x="1742" y="-1086.49" font-family="Arial" font-size="24.00" fill="#111827">history, writes restore</text>
<text text-anchor="start" x="1693.5" y="-1062.49" font-family="Arial" font-size="24.00" fill="#111827">checksums, and alerts only on</text>
<text text-anchor="start" x="1820" y="-1038.49" font-family="Arial" font-size="24.00" fill="#111827">failure.</text>
</g>
<!-- 1&#45;&gt;2 -->
<g id="33" class="edge">
<title>1&#45;&gt;2</title>
<path fill="none" stroke="#475569" stroke-dasharray="5,2" d="M451.3,-1268.7C754.9,-1254.54 1294.11,-1229.38 1608.66,-1214.7"/>
<polygon fill="#475569" stroke="#475569" points="1609,-1218.19 1618.83,-1214.23 1608.67,-1211.2 1609,-1218.19"/>
<polygon fill="white" stroke="transparent" points="914,-1251.19 914,-1311.19 1142,-1311.19 1142,-1251.19 914,-1251.19"/>
<text text-anchor="start" x="918" y="-1287.99" font-family="Arial" font-size="24.00" fill="#475569">Installs, verifies, and</text>
<text text-anchor="start" x="939" y="-1261.99" font-family="Arial" font-size="24.00" fill="#475569">restores through</text>
</g>
<!-- 32 -->
<g id="32" class="node">
<title>32</title>
<polygon fill="#f3e8ff" stroke="#9333ea" points="1248,-1657.69 808,-1657.69 808,-1392.69 1248,-1392.69 1248,-1657.69"/>
<text text-anchor="start" x="885.5" y="-1609.49" font-family="Arial" font-size="34.00" fill="#111827">Operator Shell and</text>
<text text-anchor="start" x="924" y="-1575.49" font-family="Arial" font-size="34.00" fill="#111827">Restore Tools</text>
<text text-anchor="start" x="951" y="-1553.49" font-family="Arial" font-size="19.00" fill="#111827">[Software System]</text>
<text text-anchor="start" x="900.5" y="-1516.49" font-family="Arial" font-size="24.00" fill="#111827">Local shell, rsync, SSH,</text>
<text text-anchor="start" x="852" y="-1492.49" font-family="Arial" font-size="24.00" fill="#111827">Windows Previous Versions, and</text>
<text text-anchor="start" x="837" y="-1468.49" font-family="Arial" font-size="24.00" fill="#111827">README/runbook commands used</text>
<text text-anchor="start" x="880.5" y="-1444.49" font-family="Arial" font-size="24.00" fill="#111827">for verification and targeted</text>
<text text-anchor="start" x="980.5" y="-1420.49" font-family="Arial" font-size="24.00" fill="#111827">restores.</text>
</g>
<!-- 1&#45;&gt;32 -->
<g id="34" class="edge">
<title>1&#45;&gt;32</title>
<path fill="none" stroke="#475569" stroke-dasharray="5,2" d="M451.08,-1348.2C559.39,-1381.49 689.1,-1421.35 797.98,-1454.81"/>
<polygon fill="#475569" stroke="#475569" points="797.2,-1458.23 807.78,-1457.82 799.25,-1451.54 797.2,-1458.23"/>
<polygon fill="white" stroke="transparent" points="487,-1445.19 487,-1531.19 772,-1531.19 772,-1445.19 487,-1445.19"/>
<text text-anchor="start" x="491.5" y="-1507.99" font-family="Arial" font-size="24.00" fill="#475569">Runs backup, verification,</text>
<text text-anchor="start" x="497" y="-1481.99" font-family="Arial" font-size="24.00" fill="#475569">provisioning, and restore</text>
<text text-anchor="start" x="542.5" y="-1455.99" font-family="Arial" font-size="24.00" fill="#475569">commands from</text>
</g>
<!-- 26 -->
<g id="26" class="node">
<title>26</title>
<path fill="#fef3c7" stroke="#d97706" d="M2885.5,-870.97C2885.5,-886.89 2792.5,-899.81 2678,-899.81 2563.5,-899.81 2470.5,-886.89 2470.5,-870.97 2470.5,-870.97 2470.5,-611.4 2470.5,-611.4 2470.5,-595.49 2563.5,-582.56 2678,-582.56 2792.5,-582.56 2885.5,-595.49 2885.5,-611.4 2885.5,-611.4 2885.5,-870.97 2885.5,-870.97"/>
<path fill="none" stroke="#d97706" d="M2885.5,-870.97C2885.5,-855.06 2792.5,-842.13 2678,-842.13 2563.5,-842.13 2470.5,-855.06 2470.5,-870.97"/>
<text text-anchor="start" x="2499.5" y="-808.49" font-family="Arial" font-size="34.00" fill="#111827">WSL Workflow Sources</text>
<text text-anchor="start" x="2601" y="-786.49" font-family="Arial" font-size="19.00" fill="#111827">[Software System]</text>
<text text-anchor="start" x="2524.5" y="-749.49" font-family="Arial" font-size="24.00" fill="#111827">Workflow&#45;critical WSL paths:</text>
<text text-anchor="start" x="2533" y="-725.49" font-family="Arial" font-size="24.00" fill="#111827">~/repos, ~/.hermes, ~/.ssh,</text>
<text text-anchor="start" x="2566.5" y="-701.49" font-family="Arial" font-size="24.00" fill="#111827">systemd user config,</text>
<text text-anchor="start" x="2521.5" y="-677.49" font-family="Arial" font-size="24.00" fill="#111827">lifelog/browser&#45;memory data,</text>
<text text-anchor="start" x="2523" y="-653.49" font-family="Arial" font-size="24.00" fill="#111827">and optional brain&#45;code tree.</text>
</g>
<!-- 2&#45;&gt;26 -->
<g id="47" class="edge">
<title>2&#45;&gt;26</title>
<path fill="none" stroke="#475569" stroke-dasharray="5,2" d="M2016.11,-1010.43C2050.92,-976.27 2089.55,-943.57 2130,-918.19 2230.43,-855.17 2355.44,-812.52 2460.59,-784.91"/>
<polygon fill="#475569" stroke="#475569" points="2461.58,-788.27 2470.38,-782.37 2459.82,-781.49 2461.58,-788.27"/>
<polygon fill="white" stroke="transparent" points="2181.5,-918.19 2181.5,-993.19 2382.5,-993.19 2382.5,-918.19 2181.5,-918.19"/>
<text text-anchor="start" x="2186" y="-970.49" font-family="Arial" font-size="24.00" fill="#475569">Reads live SQLite</text>
<text text-anchor="start" x="2198.5" y="-946.49" font-family="Arial" font-size="24.00" fill="#475569">databases from</text>
<text text-anchor="start" x="2198" y="-926.49" font-family="Arial" font-size="19.00" fill="#475569">[sqlite3 backup API]</text>
</g>
<!-- 27 -->
<g id="27" class="node">
<title>27</title>
<path fill="#fef3c7" stroke="#d97706" d="M2886,-471.4C2886,-493.01 2792.77,-510.56 2678,-510.56 2563.23,-510.56 2470,-493.01 2470,-471.4 2470,-471.4 2470,-118.97 2470,-118.97 2470,-97.36 2563.23,-79.81 2678,-79.81 2792.77,-79.81 2886,-97.36 2886,-118.97 2886,-118.97 2886,-471.4 2886,-471.4"/>
<path fill="none" stroke="#d97706" d="M2886,-471.4C2886,-449.8 2792.77,-432.24 2678,-432.24 2563.23,-432.24 2470,-449.8 2470,-471.4"/>
<text text-anchor="start" x="2534" y="-403.49" font-family="Arial" font-size="34.00" fill="#111827">Windows Workflow</text>
<text text-anchor="start" x="2615.5" y="-369.49" font-family="Arial" font-size="34.00" fill="#111827">Sources</text>
<text text-anchor="start" x="2601" y="-347.49" font-family="Arial" font-size="19.00" fill="#111827">[Software System]</text>
<text text-anchor="start" x="2514.5" y="-310.49" font-family="Arial" font-size="24.00" fill="#111827">Selected Windows user&#45;profile</text>
<text text-anchor="start" x="2513" y="-286.49" font-family="Arial" font-size="24.00" fill="#111827">artifacts: Desktop, Documents,</text>
<text text-anchor="start" x="2562.5" y="-262.49" font-family="Arial" font-size="24.00" fill="#111827">Downloads, Windows</text>
<text text-anchor="start" x="2528" y="-238.49" font-family="Arial" font-size="24.00" fill="#111827">.ssh/.wslconfig, Terminal/VS</text>
<text text-anchor="start" x="2499" y="-214.49" font-family="Arial" font-size="24.00" fill="#111827">Code/PowerShell config, Chrome</text>
<text text-anchor="start" x="2521.5" y="-190.49" font-family="Arial" font-size="24.00" fill="#111827">profile metadata, and Startup</text>
<text text-anchor="start" x="2638" y="-166.49" font-family="Arial" font-size="24.00" fill="#111827">entries.</text>
</g>
<!-- 2&#45;&gt;27 -->
<g id="58" class="edge">
<title>2&#45;&gt;27</title>
<path fill="none" stroke="#475569" stroke-dasharray="5,2" d="M1937.45,-1010.44C1984.41,-911.18 2050.24,-792.06 2130,-700.19 2224.38,-591.49 2352.8,-494.53 2461.5,-422.75"/>
<polygon fill="#475569" stroke="#475569" points="2463.52,-425.61 2469.96,-417.19 2459.68,-419.76 2463.52,-425.61"/>
<polygon fill="white" stroke="transparent" points="2139.5,-700.19 2139.5,-775.19 2424.5,-775.19 2424.5,-700.19 2139.5,-700.19"/>
<text text-anchor="start" x="2144" y="-752.49" font-family="Arial" font-size="24.00" fill="#475569">Mirrors selected Windows</text>
<text text-anchor="start" x="2212" y="-728.49" font-family="Arial" font-size="24.00" fill="#475569">artifacts from</text>
<text text-anchor="start" x="2220.5" y="-708.49" font-family="Arial" font-size="19.00" fill="#475569">[robocopy.exe]</text>
</g>
<!-- 28 -->
<g id="28" class="node">
<title>28</title>
<path fill="#fef3c7" stroke="#d97706" d="M2875,-1563.9C2875,-1583.86 2786.7,-1600.06 2678,-1600.06 2569.3,-1600.06 2481,-1583.86 2481,-1563.9 2481,-1563.9 2481,-1238.47 2481,-1238.47 2481,-1218.52 2569.3,-1202.31 2678,-1202.31 2786.7,-1202.31 2875,-1218.52 2875,-1238.47 2875,-1238.47 2875,-1563.9 2875,-1563.9"/>
<path fill="none" stroke="#d97706" d="M2875,-1563.9C2875,-1543.95 2786.7,-1527.74 2678,-1527.74 2569.3,-1527.74 2481,-1543.95 2481,-1563.9"/>
<text text-anchor="start" x="2547" y="-1497.49" font-family="Arial" font-size="34.00" fill="#111827">TrueNAS Backup</text>
<text text-anchor="start" x="2619" y="-1463.49" font-family="Arial" font-size="34.00" fill="#111827">Dataset</text>
<text text-anchor="start" x="2601" y="-1441.49" font-family="Arial" font-size="19.00" fill="#111827">[Software System]</text>
<text text-anchor="start" x="2510" y="-1404.49" font-family="Arial" font-size="24.00" fill="#111827">Configured encrypted TrueNAS</text>
<text text-anchor="start" x="2536.5" y="-1380.49" font-family="Arial" font-size="24.00" fill="#111827">dataset with current mirror</text>
<text text-anchor="start" x="2528.5" y="-1356.49" font-family="Arial" font-size="24.00" fill="#111827">tree, manifests, SMB share,</text>
<text text-anchor="start" x="2529.5" y="-1332.49" font-family="Arial" font-size="24.00" fill="#111827">restore checksum manifest,</text>
<text text-anchor="start" x="2527.5" y="-1308.49" font-family="Arial" font-size="24.00" fill="#111827">refquota, and ZFS snapshot</text>
<text text-anchor="start" x="2639.5" y="-1284.49" font-family="Arial" font-size="24.00" fill="#111827">history.</text>
</g>
<!-- 2&#45;&gt;28 -->
<g id="52" class="edge">
<title>2&#45;&gt;28</title>
<path fill="none" stroke="#475569" stroke-dasharray="5,2" d="M2094.17,-1158.76C2201.07,-1148.46 2327.09,-1150.25 2434,-1190.19 2449.64,-1196.03 2464.94,-1203.39 2479.77,-1211.82"/>
<polygon fill="#475569" stroke="#475569" points="2478.05,-1214.87 2488.44,-1216.9 2481.59,-1208.83 2478.05,-1214.87"/>
<polygon fill="white" stroke="transparent" points="2130,-1190.19 2130,-1289.19 2434,-1289.19 2434,-1190.19 2130,-1190.19"/>
<text text-anchor="start" x="2134" y="-1266.49" font-family="Arial" font-size="24.00" fill="#475569">Allows receiver&#45;mode rsync</text>
<text text-anchor="start" x="2168.5" y="-1242.49" font-family="Arial" font-size="24.00" fill="#475569">and mkdir only under</text>
<text text-anchor="start" x="2219.5" y="-1218.49" font-family="Arial" font-size="24.00" fill="#475569">current tree</text>
<text text-anchor="start" x="2172" y="-1198.49" font-family="Arial" font-size="19.00" fill="#475569">[forced command + rsync]</text>
</g>
<!-- 29 -->
<g id="29" class="node">
<title>29</title>
<polygon fill="#f3e8ff" stroke="#9333ea" points="2880,-1960.69 2476,-1960.69 2476,-1671.69 2880,-1671.69 2880,-1960.69"/>
<text text-anchor="start" x="2517" y="-1912.49" font-family="Arial" font-size="34.00" fill="#111827">TrueNAS Middleware</text>
<text text-anchor="start" x="2505" y="-1878.49" font-family="Arial" font-size="34.00" fill="#111827">and ZFS Control Plane</text>
<text text-anchor="start" x="2601" y="-1856.49" font-family="Arial" font-size="19.00" fill="#111827">[Software System]</text>
<text text-anchor="start" x="2530.5" y="-1819.49" font-family="Arial" font-size="24.00" fill="#111827">Configured admin SSH and</text>
<text text-anchor="start" x="2525.5" y="-1795.49" font-family="Arial" font-size="24.00" fill="#111827">middleware surface used for</text>
<text text-anchor="start" x="2522.5" y="-1771.49" font-family="Arial" font-size="24.00" fill="#111827">ZFS properties, runtime&#45;user</text>
<text text-anchor="start" x="2528" y="-1747.49" font-family="Arial" font-size="24.00" fill="#111827">setup, snapshot tasks, SMB</text>
<text text-anchor="start" x="2547.5" y="-1723.49" font-family="Arial" font-size="24.00" fill="#111827">share configuration, and</text>
<text text-anchor="start" x="2616.5" y="-1699.49" font-family="Arial" font-size="24.00" fill="#111827">verification.</text>
</g>
<!-- 2&#45;&gt;29 -->
<g id="44" class="edge">
<title>2&#45;&gt;29</title>
<path fill="none" stroke="#475569" stroke-dasharray="5,2" d="M2094.04,-1372.14C2198.93,-1447.91 2323.38,-1539.02 2434,-1623.19 2451.66,-1636.63 2469.93,-1650.74 2488.15,-1664.95"/>
<polygon fill="#475569" stroke="#475569" points="2486.49,-1668.09 2496.52,-1671.49 2490.8,-1662.58 2486.49,-1668.09"/>
<polygon fill="white" stroke="transparent" points="2156.5,-1623.19 2156.5,-1746.19 2407.5,-1746.19 2407.5,-1623.19 2156.5,-1623.19"/>
<text text-anchor="start" x="2188" y="-1723.49" font-family="Arial" font-size="24.00" fill="#475569">Reads ZFS used,</text>
<text text-anchor="start" x="2224" y="-1699.49" font-family="Arial" font-size="24.00" fill="#475569">availability,</text>
<text text-anchor="start" x="2161" y="-1675.49" font-family="Arial" font-size="24.00" fill="#475569">usedbysnapshots, and</text>
<text text-anchor="start" x="2172.5" y="-1651.49" font-family="Arial" font-size="24.00" fill="#475569">snapshot count from</text>
<text text-anchor="start" x="2184.5" y="-1631.49" font-family="Arial" font-size="19.00" fill="#475569">[NAS&#45;side helper + zfs]</text>
</g>
<!-- 31 -->
<g id="31" class="node">
<title>31</title>
<polygon fill="#f3e8ff" stroke="#9333ea" points="2853,-1130.69 2503,-1130.69 2503,-971.69 2853,-971.69 2853,-1130.69"/>
<text text-anchor="start" x="2546.5" y="-1082.49" font-family="Arial" font-size="34.00" fill="#111827">Telegram Bot API</text>
<text text-anchor="start" x="2601" y="-1060.49" font-family="Arial" font-size="19.00" fill="#111827">[Software System]</text>
<text text-anchor="start" x="2539" y="-1023.49" font-family="Arial" font-size="24.00" fill="#111827">External API used only for</text>
<text text-anchor="start" x="2532" y="-999.49" font-family="Arial" font-size="24.00" fill="#111827">backup failure notifications.</text>
</g>
<!-- 2&#45;&gt;31 -->
<g id="68" class="edge">
<title>2&#45;&gt;31</title>
<path fill="none" stroke="#475569" stroke-dasharray="5,2" d="M2094.14,-1050.14C2106.03,-1045.57 2118.01,-1041.53 2130,-1038.19 2247.67,-1005.34 2385.17,-1008.78 2492.87,-1020.33"/>
<polygon fill="#475569" stroke="#475569" points="2492.54,-1023.82 2502.87,-1021.44 2493.31,-1016.86 2492.54,-1023.82"/>
<polygon fill="white" stroke="transparent" points="2181,-1038.19 2181,-1113.19 2383,-1113.19 2383,-1038.19 2181,-1038.19"/>
<text text-anchor="start" x="2185" y="-1090.49" font-family="Arial" font-size="24.00" fill="#475569">Sends failure&#45;only</text>
<text text-anchor="start" x="2210.5" y="-1066.49" font-family="Arial" font-size="24.00" fill="#475569">notification to</text>
<text text-anchor="start" x="2245.5" y="-1046.49" font-family="Arial" font-size="19.00" fill="#475569">[HTTPS]</text>
</g>
<!-- 32&#45;&gt;2 -->
<g id="35" class="edge">
<title>32&#45;&gt;2</title>
<path fill="none" stroke="#475569" stroke-dasharray="5,2" d="M1248.09,-1428.87C1260.21,-1423.84 1272.24,-1418.91 1284,-1414.19 1389.87,-1371.64 1508.01,-1327.48 1609.26,-1290.63"/>
<polygon fill="#475569" stroke="#475569" points="1610.49,-1293.9 1618.7,-1287.2 1608.1,-1287.32 1610.49,-1293.9"/>
<polygon fill="white" stroke="transparent" points="1284,-1414.19 1284,-1489.19 1583,-1489.19 1583,-1414.19 1284,-1414.19"/>
<text text-anchor="start" x="1288.5" y="-1466.49" font-family="Arial" font-size="24.00" fill="#475569">Executes scripts and reads</text>
<text text-anchor="start" x="1341.5" y="-1442.49" font-family="Arial" font-size="24.00" fill="#475569">documentation in</text>
<text text-anchor="start" x="1408.5" y="-1422.49" font-family="Arial" font-size="19.00" fill="#475569">[shell]</text>
</g>
<!-- 32&#45;&gt;28 -->
<g id="38" class="edge">
<title>32&#45;&gt;28</title>
<path fill="none" stroke="#475569" stroke-dasharray="5,2" d="M1248.16,-1547.21C1527.02,-1569.46 2021.97,-1589.52 2434,-1503.19 2446.19,-1500.63 2458.54,-1497.47 2470.87,-1493.85"/>
<polygon fill="#475569" stroke="#475569" points="2472.19,-1497.11 2480.75,-1490.86 2470.16,-1490.41 2472.19,-1497.11"/>
<polygon fill="white" stroke="transparent" points="1689,-1566.19 1689,-1665.19 2024,-1665.19 2024,-1566.19 1689,-1566.19"/>
<text text-anchor="start" x="1735" y="-1642.49" font-family="Arial" font-size="24.00" fill="#475569">Restores selected files</text>
<text text-anchor="start" x="1716.5" y="-1618.49" font-family="Arial" font-size="24.00" fill="#475569">from .zfs/snapshot/current</text>
<text text-anchor="start" x="1827" y="-1594.49" font-family="Arial" font-size="24.00" fill="#475569">paths</text>
<text text-anchor="start" x="1693.5" y="-1574.49" font-family="Arial" font-size="19.00" fill="#475569">[SSH rsync or SMB Previous Versions]</text>
</g>
<!-- 32&#45;&gt;29 -->
<g id="37" class="edge">
<title>32&#45;&gt;29</title>
<path fill="none" stroke="#475569" stroke-dasharray="5,2" d="M1248.25,-1601.86C1260.3,-1605.49 1272.27,-1608.96 1284,-1612.19 1693.81,-1725.09 2189.7,-1778.74 2465.58,-1801.54"/>
<polygon fill="#475569" stroke="#475569" points="2465.46,-1805.04 2475.71,-1802.37 2466.03,-1798.06 2465.46,-1805.04"/>
<polygon fill="white" stroke="transparent" points="1706,-1763.19 1706,-1838.19 2007,-1838.19 2007,-1763.19 1706,-1763.19"/>
<text text-anchor="start" x="1750" y="-1815.49" font-family="Arial" font-size="24.00" fill="#475569">Lists snapshots and</text>
<text text-anchor="start" x="1710.5" y="-1791.49" font-family="Arial" font-size="24.00" fill="#475569">inspects NAS state through</text>
<text text-anchor="start" x="1752.5" y="-1771.49" font-family="Arial" font-size="19.00" fill="#475569">[admin SSH + zfs/midclt]</text>
</g>
</g>
</svg>
