<?xml version="1.0" encoding="UTF-8" standalone="no"?>
<!DOCTYPE svg PUBLIC "-//W3C//DTD SVG 1.1//EN"
 "http://www.w3.org/Graphics/SVG/1.1/DTD/svg11.dtd">
<!-- Generated by graphviz version 2.43.0 (0)
 -->
<!-- Title: %3 Pages: 1 -->
<svg width="10200pt" height="2599pt"
 viewBox="0.00 0.00 10200.00 2598.66" xmlns="http://www.w3.org/2000/svg" xmlns:xlink="http://www.w3.org/1999/xlink">
<g id="graph0" class="graph" transform="scale(1 1) rotate(0) translate(4 2594.66)">
<title>%3</title>
<polygon fill="white" stroke="transparent" points="-4,4 -4,-2594.66 10196,-2594.66 10196,4 -4,4"/>
<text text-anchor="start" x="4386" y="-35.8" font-family="Arial" font-size="34.00">Deployment View: WORKSTATION1 Workflow Backup &#45; WORKSTATION1 local plus TrueNAS</text>
<text text-anchor="start" x="4518" y="-9.8" font-family="Arial" font-size="24.00">Deployment topology for the local WORKSTATION1 WSL/Windows backup automation and TrueNAS target.</text>
<g id="clust1" class="cluster">
<title>cluster_134</title>
<polygon fill="none" stroke="#444444" points="8,-2178.66 8,-2520.66 1956,-2520.66 1956,-2178.66 8,-2178.66"/>
<text text-anchor="start" x="844.5" y="-2207.46" font-family="Arial" font-size="24.00" fill="#444444">Configured TrueNAS host</text>
<text text-anchor="start" x="743" y="-2187.46" font-family="Arial" font-size="19.00" fill="#444444">[Deployment Node: TrueNAS + ZFS + SMB + OpenSSH]</text>
</g>
<g id="clust2" class="cluster">
<title>cluster_139</title>
<polygon fill="none" stroke="#444444" points="1977,-2207.66 1977,-2491.66 2423,-2491.66 2423,-2207.66 1977,-2207.66"/>
<text text-anchor="start" x="2150" y="-2236.46" font-family="Arial" font-size="24.00" fill="#444444">Telegram</text>
<text text-anchor="start" x="2072.5" y="-2216.46" font-family="Arial" font-size="19.00" fill="#444444">[Deployment Node: SaaS API]</text>
</g>
<g id="clust3" class="cluster">
<title>cluster_98</title>
<polygon fill="none" stroke="#444444" points="2431,-88 2431,-2582.66 10184,-2582.66 10184,-88 2431,-88"/>
<text text-anchor="start" x="6213" y="-116.8" font-family="Arial" font-size="24.00" fill="#444444">WORKSTATION1</text>
<text text-anchor="start" x="6145.5" y="-96.8" font-family="Arial" font-size="19.00" fill="#444444">[Deployment Node: Windows + WSL2]</text>
</g>
<g id="clust4" class="cluster">
<title>cluster_129</title>
<polygon fill="none" stroke="#444444" points="8969,-930.94 8969,-1543.06 10159,-1543.06 10159,-930.94 8969,-930.94"/>
<text text-anchor="start" x="9451.5" y="-959.74" font-family="Arial" font-size="24.00" fill="#444444">Windows user profile</text>
<text text-anchor="start" x="9351.5" y="-939.74" font-family="Arial" font-size="19.00" fill="#444444">[Deployment Node: Windows profile + PowerShell]</text>
</g>
<g id="clust5" class="cluster">
<title>cluster_99</title>
<polygon fill="none" stroke="#444444" points="2456,-164 2456,-2557.66 8944,-2557.66 8944,-164 2456,-164"/>
<text text-anchor="start" x="5590" y="-192.8" font-family="Arial" font-size="24.00" fill="#444444">WSL2 Ubuntu&#45;22.04</text>
<text text-anchor="start" x="5509.5" y="-172.8" font-family="Arial" font-size="19.00" fill="#444444">[Deployment Node: Ubuntu + systemd &#45;&#45;user]</text>
</g>
<g id="clust6" class="cluster">
<title>cluster_100</title>
<polygon fill="none" stroke="#444444" points="3105,-997.89 3105,-2532.66 3904,-2532.66 3904,-997.89 3105,-997.89"/>
<text text-anchor="start" x="3424" y="-1026.69" font-family="Arial" font-size="24.00" fill="#444444">systemd &#45;&#45;user</text>
<text text-anchor="start" x="3382.5" y="-1006.69" font-family="Arial" font-size="19.00" fill="#444444">[Deployment Node: systemd]</text>
</g>
<g id="clust7" class="cluster">
<title>cluster_107</title>
<polygon fill="none" stroke="#444444" points="3929,-240 3929,-1562.66 8324,-1562.66 8324,-240 3929,-240"/>
<text text-anchor="start" x="6059" y="-268.8" font-family="Arial" font-size="24.00" fill="#444444">Repo scripts</text>
<text text-anchor="start" x="5904" y="-248.8" font-family="Arial" font-size="19.00" fill="#444444">[Deployment Node: Bash/Python/PowerShell source]</text>
</g>
<g id="clust8" class="cluster">
<title>cluster_123</title>
<polygon fill="none" stroke="#444444" points="8349,-277.28 8349,-775.66 8919,-775.66 8919,-277.28 8349,-277.28"/>
<text text-anchor="start" x="8533" y="-306.08" font-family="Arial" font-size="24.00" fill="#444444">Local backup state</text>
<text text-anchor="start" x="8482" y="-286.08" font-family="Arial" font-size="19.00" fill="#444444">[Deployment Node: WSL filesystem]</text>
</g>
<!-- 135 -->
<g id="135" class="node">
<title>135</title>
<polygon fill="#f8fafc" stroke="#64748b" points="1930.5,-2495.66 1525.5,-2495.66 1525.5,-2254.66 1930.5,-2254.66 1930.5,-2495.66"/>
<text text-anchor="start" x="1554.5" y="-2447.46" font-family="Arial" font-size="34.00" fill="#111827">Encrypted ZFS backup</text>
<text text-anchor="start" x="1672" y="-2413.46" font-family="Arial" font-size="34.00" fill="#111827">dataset</text>
<text text-anchor="start" x="1585" y="-2391.46" font-family="Arial" font-size="19.00" fill="#111827">[Infrastructure Node: ZFS dataset]</text>
<text text-anchor="start" x="1618.5" y="-2354.46" font-family="Arial" font-size="24.00" fill="#111827">Backup current tree,</text>
<text text-anchor="start" x="1574.5" y="-2330.46" font-family="Arial" font-size="24.00" fill="#111827">manifests, integrity manifest,</text>
<text text-anchor="start" x="1564.5" y="-2306.46" font-family="Arial" font-size="24.00" fill="#111827">refquota, and snapshot history</text>
<text text-anchor="start" x="1558" y="-2282.46" font-family="Arial" font-size="24.00" fill="#111827">under the configured NAS path.</text>
</g>
<!-- 136 -->
<g id="136" class="node">
<title>136</title>
<polygon fill="#f8fafc" stroke="#64748b" points="1453,-2495.66 983,-2495.66 983,-2254.66 1453,-2254.66 1453,-2495.66"/>
<text text-anchor="start" x="1079.5" y="-2447.46" font-family="Arial" font-size="34.00" fill="#111827">Restricted runtime</text>
<text text-anchor="start" x="1113.5" y="-2413.46" font-family="Arial" font-size="34.00" fill="#111827">SSH user/key</text>
<text text-anchor="start" x="1012" y="-2391.46" font-family="Arial" font-size="19.00" fill="#111827">[Infrastructure Node: OpenSSH authorized_keys]</text>
<text text-anchor="start" x="1058.5" y="-2354.46" font-family="Arial" font-size="24.00" fill="#111827">Forced&#45;command receiver for</text>
<text text-anchor="start" x="1076.5" y="-2330.46" font-family="Arial" font-size="24.00" fill="#111827">rsync writes, guard helper,</text>
<text text-anchor="start" x="1094.5" y="-2306.46" font-family="Arial" font-size="24.00" fill="#111827">and integrity helper; no</text>
<text text-anchor="start" x="1104" y="-2282.46" font-family="Arial" font-size="24.00" fill="#111827">interactive shell path.</text>
</g>
<!-- 137 -->
<g id="137" class="node">
<title>137</title>
<polygon fill="#f8fafc" stroke="#64748b" points="911,-2466.66 525,-2466.66 525,-2283.66 911,-2283.66 911,-2466.66"/>
<text text-anchor="start" x="574" y="-2418.46" font-family="Arial" font-size="34.00" fill="#111827">SMB backup share</text>
<text text-anchor="start" x="573.5" y="-2396.46" font-family="Arial" font-size="19.00" fill="#111827">[Infrastructure Node: Samba SMB]</text>
<text text-anchor="start" x="570" y="-2359.46" font-family="Arial" font-size="24.00" fill="#111827">Windows helper destination</text>
<text text-anchor="start" x="554" y="-2335.46" font-family="Arial" font-size="24.00" fill="#111827">with shadow&#45;copy support and</text>
<text text-anchor="start" x="579.5" y="-2311.46" font-family="Arial" font-size="24.00" fill="#111827">mangled names disabled.</text>
</g>
<!-- 138 -->
<g id="138" class="node">
<title>138</title>
<polygon fill="#f8fafc" stroke="#64748b" points="453,-2483.66 33,-2483.66 33,-2266.66 453,-2266.66 453,-2483.66"/>
<text text-anchor="start" x="109.5" y="-2435.46" font-family="Arial" font-size="34.00" fill="#111827">TrueNAS periodic</text>
<text text-anchor="start" x="128.5" y="-2401.46" font-family="Arial" font-size="34.00" fill="#111827">snapshot tasks</text>
<text text-anchor="start" x="62" y="-2379.46" font-family="Arial" font-size="19.00" fill="#111827">[Infrastructure Node: TrueNAS middleware]</text>
<text text-anchor="start" x="83.5" y="-2342.46" font-family="Arial" font-size="24.00" fill="#111827">wf&#45;h/wf&#45;d/wf&#45;w/wf&#45;m snapshot</text>
<text text-anchor="start" x="119.5" y="-2318.46" font-family="Arial" font-size="24.00" fill="#111827">tasks with 2d/2w/8w/1y</text>
<text text-anchor="start" x="195" y="-2294.46" font-family="Arial" font-size="24.00" fill="#111827">lifetimes.</text>
</g>
<!-- 140 -->
<g id="140" class="node">
<title>140</title>
<polygon fill="#f8fafc" stroke="#64748b" points="2397.5,-2466.66 2002.5,-2466.66 2002.5,-2283.66 2397.5,-2283.66 2397.5,-2466.66"/>
<text text-anchor="start" x="2068.5" y="-2418.46" font-family="Arial" font-size="34.00" fill="#111827">Telegram Bot API</text>
<text text-anchor="start" x="2078" y="-2396.46" font-family="Arial" font-size="19.00" fill="#111827">[Infrastructure Node: HTTPS]</text>
<text text-anchor="start" x="2031.5" y="-2359.46" font-family="Arial" font-size="24.00" fill="#111827">HTTPS sendMessage endpoint</text>
<text text-anchor="start" x="2083" y="-2335.46" font-family="Arial" font-size="24.00" fill="#111827">reached by the failure</text>
<text text-anchor="start" x="2160.5" y="-2311.46" font-family="Arial" font-size="24.00" fill="#111827">notifier.</text>
</g>
<!-- 130 -->
<g id="130" class="node">
<title>130</title>
<polygon fill="#ecfeff" stroke="#0891b2" points="10134.17,-1262.5 9972.58,-1518.13 9649.42,-1518.13 9487.83,-1262.5 9649.42,-1006.87 9972.58,-1006.87 10134.17,-1262.5"/>
<text text-anchor="start" x="9642" y="-1370.8" font-family="Arial" font-size="34.00" fill="#111827">Windows Critical Sync</text>
<text text-anchor="start" x="9761" y="-1336.8" font-family="Arial" font-size="34.00" fill="#111827">Helper</text>
<text text-anchor="start" x="9644" y="-1314.8" font-family="Arial" font-size="19.00" fill="#111827">[Container: PowerShell + robocopy.exe]</text>
<text text-anchor="start" x="9665" y="-1277.8" font-family="Arial" font-size="24.00" fill="#111827">PowerShell script launched</text>
<text text-anchor="start" x="9705" y="-1253.8" font-family="Arial" font-size="24.00" fill="#111827">from WSL that uses</text>
<text text-anchor="start" x="9690" y="-1229.8" font-family="Arial" font-size="24.00" fill="#111827">robocopy.exe to mirror</text>
<text text-anchor="start" x="9677" y="-1205.8" font-family="Arial" font-size="24.00" fill="#111827">selected Windows profile</text>
<text text-anchor="start" x="9667" y="-1181.8" font-family="Arial" font-size="24.00" fill="#111827">directories/files to the SMB</text>
<text text-anchor="start" x="9659.5" y="-1157.8" font-family="Arial" font-size="24.00" fill="#111827">share and writes a Windows</text>
<text text-anchor="start" x="9733.5" y="-1133.8" font-family="Arial" font-size="24.00" fill="#111827">sync manifest.</text>
</g>
<!-- 124 -->
<g id="124" class="node">
<title>124</title>
<path fill="#fef3c7" stroke="#d97706" d="M8893.5,-714.68C8893.5,-734.64 8777.19,-750.84 8634,-750.84 8490.81,-750.84 8374.5,-734.64 8374.5,-714.68 8374.5,-714.68 8374.5,-389.25 8374.5,-389.25 8374.5,-369.3 8490.81,-353.09 8634,-353.09 8777.19,-353.09 8893.5,-369.3 8893.5,-389.25 8893.5,-389.25 8893.5,-714.68 8893.5,-714.68"/>
<path fill="none" stroke="#d97706" d="M8893.5,-714.68C8893.5,-694.73 8777.19,-678.52 8634,-678.52 8490.81,-678.52 8374.5,-694.73 8374.5,-714.68"/>
<text text-anchor="start" x="8467" y="-648.27" font-family="Arial" font-size="34.00" fill="#111827">Run Ledger and Local</text>
<text text-anchor="start" x="8594" y="-614.27" font-family="Arial" font-size="34.00" fill="#111827">State</text>
<text text-anchor="start" x="8407" y="-592.27" font-family="Arial" font-size="19.00" fill="#111827">[Container: SQLite + JSON + logs on WSL filesystem]</text>
<text text-anchor="start" x="8495.5" y="-555.27" font-family="Arial" font-size="24.00" fill="#111827">Local status, pruned logs,</text>
<text text-anchor="start" x="8485.5" y="-531.27" font-family="Arial" font-size="24.00" fill="#111827">SQLite run ledger, exported</text>
<text text-anchor="start" x="8497.5" y="-507.27" font-family="Arial" font-size="24.00" fill="#111827">run&#45;history JSON, SQLite</text>
<text text-anchor="start" x="8470" y="-483.27" font-family="Arial" font-size="24.00" fill="#111827">snapshot cache, and Windows</text>
<text text-anchor="start" x="8518" y="-459.27" font-family="Arial" font-size="24.00" fill="#111827">manifest cache under</text>
<text text-anchor="start" x="8403.5" y="-435.27" font-family="Arial" font-size="24.00" fill="#111827">~/.local/state/workstation&#45;workflow&#45;backup.</text>
</g>
<!-- 130&#45;&gt;124 -->
<g id="132" class="edge">
<title>130&#45;&gt;124</title>
<path fill="none" stroke="#475569" stroke-dasharray="5,2" d="M9615.2,-1060.96C9564.58,-1014.95 9508.38,-968.56 9452,-930.94 9280.23,-816.3 9068.11,-719.39 8902.92,-652.4"/>
<polygon fill="#475569" stroke="#475569" points="8904.19,-649.14 8893.6,-648.64 8901.56,-655.63 8904.19,-649.14"/>
<polygon fill="white" stroke="transparent" points="9431,-843.44 9431,-903.44 9722,-903.44 9722,-843.44 9431,-843.44"/>
<text text-anchor="start" x="9435.5" y="-880.24" font-family="Arial" font-size="24.00" fill="#475569">Leaves manifest cache for</text>
<text text-anchor="start" x="9480.5" y="-854.24" font-family="Arial" font-size="24.00" fill="#475569">ledger summaries</text>
</g>
<!-- 133 -->
<g id="133" class="node">
<title>133</title>
<polygon fill="#f8fafc" stroke="#64748b" points="9416,-1395 8994,-1395 8994,-1130 9416,-1130 9416,-1395"/>
<text text-anchor="start" x="9065" y="-1346.8" font-family="Arial" font-size="34.00" fill="#111827">Selected Windows</text>
<text text-anchor="start" x="9089" y="-1312.8" font-family="Arial" font-size="34.00" fill="#111827">source artifacts</text>
<text text-anchor="start" x="9089" y="-1290.8" font-family="Arial" font-size="19.00" fill="#111827">[Infrastructure Node: NTFS]</text>
<text text-anchor="start" x="9023" y="-1253.8" font-family="Arial" font-size="24.00" fill="#111827">Desktop, Documents, Downloads,</text>
<text text-anchor="start" x="9067.5" y="-1229.8" font-family="Arial" font-size="24.00" fill="#111827">.ssh, .wslconfig, Windows</text>
<text text-anchor="start" x="9033.5" y="-1205.8" font-family="Arial" font-size="24.00" fill="#111827">Terminal, VS Code, PowerShell,</text>
<text text-anchor="start" x="9044" y="-1181.8" font-family="Arial" font-size="24.00" fill="#111827">Chrome profile metadata, and</text>
<text text-anchor="start" x="9122.5" y="-1157.8" font-family="Arial" font-size="24.00" fill="#111827">Startup entries.</text>
</g>
<!-- 101 -->
<g id="101" class="node">
<title>101</title>
<polygon fill="#e0e7ff" stroke="#4f46e5" points="3802.5,-2507.66 3437.5,-2507.66 3437.5,-2242.66 3802.5,-2242.66 3802.5,-2507.66"/>
<text text-anchor="start" x="3468" y="-2459.46" font-family="Arial" font-size="34.00" fill="#111827">systemd User Timer</text>
<text text-anchor="start" x="3530" y="-2425.46" font-family="Arial" font-size="34.00" fill="#111827">and Service</text>
<text text-anchor="start" x="3483" y="-2403.46" font-family="Arial" font-size="19.00" fill="#111827">[Container: systemd &#45;&#45;user units]</text>
<text text-anchor="start" x="3473" y="-2366.46" font-family="Arial" font-size="24.00" fill="#111827">Hourly user&#45;level scheduler</text>
<text text-anchor="start" x="3466.5" y="-2342.46" font-family="Arial" font-size="24.00" fill="#111827">and oneshot service that run</text>
<text text-anchor="start" x="3466.5" y="-2318.46" font-family="Arial" font-size="24.00" fill="#111827">the backup at minute 45 and</text>
<text text-anchor="start" x="3516" y="-2294.46" font-family="Arial" font-size="24.00" fill="#111827">route failures to the</text>
<text text-anchor="start" x="3580.5" y="-2270.46" font-family="Arial" font-size="24.00" fill="#111827">notifier.</text>
</g>
<!-- 102 -->
<g id="102" class="node">
<title>102</title>
<polygon fill="#e0f2fe" stroke="#0284c7" points="3879,-2059.66 3499,-2059.66 3499,-1732.66 3879,-1732.66 3879,-2059.66"/>
<text text-anchor="start" x="3532.5" y="-2011.46" font-family="Arial" font-size="34.00" fill="#111827">Backup Orchestrator</text>
<text text-anchor="start" x="3615.5" y="-1989.46" font-family="Arial" font-size="19.00" fill="#111827">[Container: Bash]</text>
<text text-anchor="start" x="3544.5" y="-1952.46" font-family="Arial" font-size="24.00" fill="#111827">scripts/workflow&#45;backup.sh</text>
<text text-anchor="start" x="3535.5" y="-1928.46" font-family="Arial" font-size="24.00" fill="#111827">coordinates one backup run:</text>
<text text-anchor="start" x="3534" y="-1904.46" font-family="Arial" font-size="24.00" fill="#111827">locking, log pruning, pre/post</text>
<text text-anchor="start" x="3549" y="-1880.46" font-family="Arial" font-size="24.00" fill="#111827">guard checks, WSL rsync,</text>
<text text-anchor="start" x="3538" y="-1856.46" font-family="Arial" font-size="24.00" fill="#111827">SQLite snapshots, Windows</text>
<text text-anchor="start" x="3569" y="-1832.46" font-family="Arial" font-size="24.00" fill="#111827">sync, strict final ledger</text>
<text text-anchor="start" x="3565.5" y="-1808.46" font-family="Arial" font-size="24.00" fill="#111827">updates, NAS manifest</text>
<text text-anchor="start" x="3604" y="-1784.46" font-family="Arial" font-size="24.00" fill="#111827">publication, and</text>
<text text-anchor="start" x="3528" y="-1760.46" font-family="Arial" font-size="24.00" fill="#111827">restore&#45;checksum generation.</text>
</g>
<!-- 101&#45;&gt;102 -->
<g id="103" class="edge">
<title>101&#45;&gt;102</title>
<path fill="none" stroke="#475569" stroke-dasharray="5,2" d="M3639.04,-2242.55C3646.75,-2189.22 3655.77,-2126.9 3664,-2069.99"/>
<polygon fill="#475569" stroke="#475569" points="3667.5,-2070.2 3665.47,-2059.81 3660.58,-2069.2 3667.5,-2070.2"/>
<polygon fill="white" stroke="transparent" points="3659,-2095.66 3659,-2170.66 3918,-2170.66 3918,-2095.66 3659,-2095.66"/>
<text text-anchor="start" x="3663.5" y="-2147.96" font-family="Arial" font-size="24.00" fill="#475569">Starts hourly at :45 and</text>
<text text-anchor="start" x="3692.5" y="-2123.96" font-family="Arial" font-size="24.00" fill="#475569">tracks service exit</text>
<text text-anchor="start" x="3721" y="-2103.96" font-family="Arial" font-size="19.00" fill="#475569">[systemd &#45;&#45;user]</text>
</g>
<!-- 104 -->
<g id="104" class="node">
<title>104</title>
<polygon fill="#ecfeff" stroke="#0891b2" points="3879.17,-1262.5 3717.58,-1451.22 3394.42,-1451.22 3232.83,-1262.5 3394.42,-1073.78 3717.58,-1073.78 3879.17,-1262.5"/>
<text text-anchor="start" x="3445" y="-1329.8" font-family="Arial" font-size="34.00" fill="#111827">Failure Notifier</text>
<text text-anchor="start" x="3419" y="-1307.8" font-family="Arial" font-size="19.00" fill="#111827">[Container: Bash + Python urllib]</text>
<text text-anchor="start" x="3411" y="-1270.8" font-family="Arial" font-size="24.00" fill="#111827">Best&#45;effort Telegram failure</text>
<text text-anchor="start" x="3429.5" y="-1246.8" font-family="Arial" font-size="24.00" fill="#111827">alert unit that reads last</text>
<text text-anchor="start" x="3395.5" y="-1222.8" font-family="Arial" font-size="24.00" fill="#111827">status/log tail and Hermes bot</text>
<text text-anchor="start" x="3387" y="-1198.8" font-family="Arial" font-size="24.00" fill="#111827">environment variables; success</text>
<text text-anchor="start" x="3471.5" y="-1174.8" font-family="Arial" font-size="24.00" fill="#111827">runs stay silent.</text>
</g>
<!-- 101&#45;&gt;104 -->
<g id="105" class="edge">
<title>101&#45;&gt;104</title>
<path fill="none" stroke="#475569" stroke-dasharray="5,2" d="M3437.38,-2273.65C3360.83,-2220.9 3279.98,-2148.61 3238,-2059.66 3143.11,-1858.63 3267.18,-1621.18 3387.02,-1458.22"/>
<polygon fill="#475569" stroke="#475569" points="3389.94,-1460.16 3393.08,-1450.04 3384.32,-1455.99 3389.94,-1460.16"/>
<polygon fill="white" stroke="transparent" points="3238,-1858.66 3238,-1933.66 3463,-1933.66 3463,-1858.66 3238,-1858.66"/>
<text text-anchor="start" x="3242.5" y="-1910.96" font-family="Arial" font-size="24.00" fill="#475569">Triggers on nonzero</text>
<text text-anchor="start" x="3279.5" y="-1886.96" font-family="Arial" font-size="24.00" fill="#475569">service result</text>
<text text-anchor="start" x="3304" y="-1866.96" font-family="Arial" font-size="19.00" fill="#475569">[OnFailure]</text>
</g>
<!-- 102&#45;&gt;130 -->
<g id="131" class="edge">
<title>102&#45;&gt;130</title>
<path fill="none" stroke="#475569" stroke-dasharray="5,2" d="M3879.26,-1893.59C4523.97,-1886.93 6684.75,-1853.55 8462,-1696.66 8904.29,-1657.61 9045.61,-1741.53 9452,-1562.66 9505.87,-1538.95 9558.05,-1504.64 9605.15,-1467.66"/>
<polygon fill="#475569" stroke="#475569" points="9607.62,-1470.17 9613.28,-1461.22 9603.27,-1464.69 9607.62,-1470.17"/>
<polygon fill="white" stroke="transparent" points="9404,-1597.66 9404,-1672.66 9678,-1672.66 9678,-1597.66 9404,-1597.66"/>
<text text-anchor="start" x="9408" y="-1649.96" font-family="Arial" font-size="24.00" fill="#475569">Launches Windows sync</text>
<text text-anchor="start" x="9499.5" y="-1625.96" font-family="Arial" font-size="24.00" fill="#475569">through</text>
<text text-anchor="start" x="9418" y="-1605.96" font-family="Arial" font-size="19.00" fill="#475569">[PowerShell via WSL interop]</text>
</g>
<!-- 102&#45;&gt;104 -->
<g id="106" class="edge">
<title>102&#45;&gt;104</title>
<path fill="none" stroke="#475569" stroke-dasharray="5,2" d="M3654.75,-1732.49C3637.33,-1649.78 3616.02,-1548.57 3597.66,-1461.37"/>
<polygon fill="#475569" stroke="#475569" points="3601.04,-1460.42 3595.55,-1451.35 3594.19,-1461.86 3601.04,-1460.42"/>
<polygon fill="white" stroke="transparent" points="3646,-1605.16 3646,-1665.16 3930,-1665.16 3930,-1605.16 3646,-1605.16"/>
<text text-anchor="start" x="3650" y="-1641.96" font-family="Arial" font-size="24.00" fill="#475569">Exits nonzero so systemd</text>
<text text-anchor="start" x="3696.5" y="-1615.96" font-family="Arial" font-size="24.00" fill="#475569">can alert through</text>
</g>
<!-- 108 -->
<g id="108" class="node">
<title>108</title>
<polygon fill="#ecfeff" stroke="#0891b2" points="8299.13,-1262.5 8139.07,-1470.91 7818.93,-1470.91 7658.87,-1262.5 7818.93,-1054.08 8139.07,-1054.08 8299.13,-1262.5"/>
<text text-anchor="start" x="7830.5" y="-1341.8" font-family="Arial" font-size="34.00" fill="#111827">SQLite Snapshotter</text>
<text text-anchor="start" x="7857" y="-1319.8" font-family="Arial" font-size="19.00" fill="#111827">[Container: Python 3, sqlite3]</text>
<text text-anchor="start" x="7816.5" y="-1282.8" font-family="Arial" font-size="24.00" fill="#111827">Creates application&#45;consistent</text>
<text text-anchor="start" x="7843" y="-1258.8" font-family="Arial" font-size="24.00" fill="#111827">copies of Hermes, lifelog,</text>
<text text-anchor="start" x="7821" y="-1234.8" font-family="Arial" font-size="24.00" fill="#111827">browser&#45;memory, and related</text>
<text text-anchor="start" x="7812" y="-1210.8" font-family="Arial" font-size="24.00" fill="#111827">SQLite databases using sqlite3</text>
<text text-anchor="start" x="7822" y="-1186.8" font-family="Arial" font-size="24.00" fill="#111827">backup API; can quick_check</text>
<text text-anchor="start" x="7940.5" y="-1162.8" font-family="Arial" font-size="24.00" fill="#111827">copies.</text>
</g>
<!-- 102&#45;&gt;108 -->
<g id="109" class="edge">
<title>102&#45;&gt;108</title>
<path fill="none" stroke="#475569" stroke-dasharray="5,2" d="M3879.14,-1894.19C4568.61,-1888.37 6932.94,-1847.59 7623,-1562.66 7684.04,-1537.45 7742.42,-1497.81 7793.61,-1455.53"/>
<polygon fill="#475569" stroke="#475569" points="7796,-1458.1 7801.43,-1449 7791.51,-1452.72 7796,-1458.1"/>
<polygon fill="white" stroke="transparent" points="7571,-1597.66 7571,-1672.66 7860,-1672.66 7860,-1597.66 7571,-1597.66"/>
<text text-anchor="start" x="7575.5" y="-1649.96" font-family="Arial" font-size="24.00" fill="#475569">Creates consistent SQLite</text>
<text text-anchor="start" x="7613.5" y="-1625.96" font-family="Arial" font-size="24.00" fill="#475569">backup copies with</text>
<text text-anchor="start" x="7661.5" y="-1605.96" font-family="Arial" font-size="19.00" fill="#475569">[subprocess]</text>
</g>
<!-- 110 -->
<g id="110" class="node">
<title>110</title>
<polygon fill="#ecfeff" stroke="#0891b2" points="5445.48,-551.97 5261.24,-760.38 4892.76,-760.38 4708.52,-551.97 4892.76,-343.55 5261.24,-343.55 5445.48,-551.97"/>
<text text-anchor="start" x="4930.5" y="-631.27" font-family="Arial" font-size="34.00" fill="#111827">NAS Growth Guard</text>
<text text-anchor="start" x="4880.5" y="-609.27" font-family="Arial" font-size="19.00" fill="#111827">[Container: Bash + NAS sudo helper + zfs CLI]</text>
<text text-anchor="start" x="4901" y="-572.27" font-family="Arial" font-size="24.00" fill="#111827">Read&#45;only NAS&#45;side ZFS budget</text>
<text text-anchor="start" x="4971.5" y="-548.27" font-family="Arial" font-size="24.00" fill="#111827">check that enforces</text>
<text text-anchor="start" x="4920.5" y="-524.27" font-family="Arial" font-size="24.00" fill="#111827">dataset&#45;used, snapshot&#45;held,</text>
<text text-anchor="start" x="4977.5" y="-500.27" font-family="Arial" font-size="24.00" fill="#111827">availability&#45;dataset</text>
<text text-anchor="start" x="4906" y="-476.27" font-family="Arial" font-size="24.00" fill="#111827">free&#45;space, and snapshot&#45;count</text>
<text text-anchor="start" x="4945.5" y="-452.27" font-family="Arial" font-size="24.00" fill="#111827">limits before/after writes.</text>
</g>
<!-- 102&#45;&gt;110 -->
<g id="111" class="edge">
<title>102&#45;&gt;110</title>
<path fill="none" stroke="#475569" stroke-dasharray="5,2" d="M3498.89,-1742.66C3492.94,-1739.18 3486.97,-1735.83 3481,-1732.66 3264.79,-1617.76 3100.96,-1760.7 2957,-1562.66 2874.46,-1449.1 2867.01,-1038.68 2957,-930.94 3128.12,-726.06 3282.55,-852.06 3548,-823.94 3796.51,-797.6 4431.75,-856.72 4672,-787.94 4729.28,-771.53 4786.96,-745.26 4840.11,-716.12"/>
<polygon fill="#475569" stroke="#475569" points="4841.89,-719.13 4848.95,-711.23 4838.5,-713.01 4841.89,-719.13"/>
<polygon fill="white" stroke="transparent" points="2957,-1225 2957,-1300 3197,-1300 3197,-1225 2957,-1225"/>
<text text-anchor="start" x="2961" y="-1277.3" font-family="Arial" font-size="24.00" fill="#475569">Runs pre/post budget</text>
<text text-anchor="start" x="2994.5" y="-1253.3" font-family="Arial" font-size="24.00" fill="#475569">checks through</text>
<text text-anchor="start" x="3022.5" y="-1233.3" font-family="Arial" font-size="19.00" fill="#475569">[subprocess]</text>
</g>
<!-- 112 -->
<g id="112" class="node">
<title>112</title>
<polygon fill="#ecfeff" stroke="#0891b2" points="4636.09,-551.97 4465.55,-787.9 4124.45,-787.9 3953.91,-551.97 4124.45,-316.03 4465.55,-316.03 4636.09,-551.97"/>
<text text-anchor="start" x="4194" y="-648.27" font-family="Arial" font-size="34.00" fill="#111827">NAS Integrity</text>
<text text-anchor="start" x="4173" y="-614.27" font-family="Arial" font-size="34.00" fill="#111827">Manifest Builder</text>
<text text-anchor="start" x="4164.5" y="-592.27" font-family="Arial" font-size="19.00" fill="#111827">[Container: Python + SHA&#45;256]</text>
<text text-anchor="start" x="4141" y="-555.27" font-family="Arial" font-size="24.00" fill="#111827">NAS&#45;side helper that hashes</text>
<text text-anchor="start" x="4152" y="-531.27" font-family="Arial" font-size="24.00" fill="#111827">restore&#45;critical current&#45;tree</text>
<text text-anchor="start" x="4194" y="-507.27" font-family="Arial" font-size="24.00" fill="#111827">artifacts and writes</text>
<text text-anchor="start" x="4115" y="-483.27" font-family="Arial" font-size="24.00" fill="#111827">_manifests/integrity&#45;manifest.json</text>
<text text-anchor="start" x="4128.5" y="-459.27" font-family="Arial" font-size="24.00" fill="#111827">for snapshot&#45;preserved restore</text>
<text text-anchor="start" x="4233.5" y="-435.27" font-family="Arial" font-size="24.00" fill="#111827">verification.</text>
</g>
<!-- 102&#45;&gt;112 -->
<g id="113" class="edge">
<title>102&#45;&gt;112</title>
<path fill="none" stroke="#475569" stroke-dasharray="5,2" d="M3498.88,-1740.16C3492.96,-1737.45 3487,-1734.93 3481,-1732.66 3360.47,-1686.92 3027.09,-1727.83 2902,-1696.66 2762.27,-1661.84 2684.98,-1683.72 2607,-1562.66 2454.97,-1326.62 2445.83,-1160.84 2607,-930.94 2760.12,-712.52 3513.56,-615.23 3960.43,-576.13"/>
<polygon fill="#475569" stroke="#475569" points="3960.94,-579.6 3970.6,-575.25 3960.34,-572.63 3960.94,-579.6"/>
<polygon fill="white" stroke="transparent" points="2607,-1213 2607,-1312 2831,-1312 2831,-1213 2607,-1213"/>
<text text-anchor="start" x="2611" y="-1289.3" font-family="Arial" font-size="24.00" fill="#475569">Runs restore&#45;critical</text>
<text text-anchor="start" x="2615" y="-1265.3" font-family="Arial" font-size="24.00" fill="#475569">checksum manifest</text>
<text text-anchor="start" x="2616.5" y="-1241.3" font-family="Arial" font-size="24.00" fill="#475569">generation through</text>
<text text-anchor="start" x="2652.5" y="-1221.3" font-family="Arial" font-size="19.00" fill="#475569">[restricted SSH]</text>
</g>
<!-- 114 -->
<g id="114" class="node">
<title>114</title>
<polygon fill="#ecfeff" stroke="#0891b2" points="4956.16,-1262.5 4705.58,-1498.43 4204.42,-1498.43 3953.84,-1262.5 4204.42,-1026.56 4705.58,-1026.56 4956.16,-1262.5"/>
<text text-anchor="start" x="4338" y="-1358.8" font-family="Arial" font-size="34.00" fill="#111827">Restricted NAS</text>
<text text-anchor="start" x="4274.5" y="-1324.8" font-family="Arial" font-size="34.00" fill="#111827">Runtime SSH Boundary</text>
<text text-anchor="start" x="4177" y="-1302.8" font-family="Arial" font-size="19.00" fill="#111827">[Container: OpenSSH forced command + sudoers + ZFS refquota]</text>
<text text-anchor="start" x="4328.5" y="-1265.8" font-family="Arial" font-size="24.00" fill="#111827">Dedicated runtime NAS</text>
<text text-anchor="start" x="4317.5" y="-1241.8" font-family="Arial" font-size="24.00" fill="#111827">user/key, pinned host&#45;key</text>
<text text-anchor="start" x="4299" y="-1217.8" font-family="Arial" font-size="24.00" fill="#111827">verification, forced&#45;command</text>
<text text-anchor="start" x="4318" y="-1193.8" font-family="Arial" font-size="24.00" fill="#111827">dispatcher, sudo allowlist,</text>
<text text-anchor="start" x="4343.5" y="-1169.8" font-family="Arial" font-size="24.00" fill="#111827">and refquota&#45;backed</text>
<text text-anchor="start" x="4306" y="-1145.8" font-family="Arial" font-size="24.00" fill="#111827">current&#45;tree write boundary.</text>
</g>
<!-- 102&#45;&gt;114 -->
<g id="115" class="edge">
<title>102&#45;&gt;114</title>
<path fill="none" stroke="#475569" stroke-dasharray="5,2" d="M3879.1,-1751.31C3902.45,-1733.1 3925.87,-1714.57 3948,-1696.66 4026.62,-1633.02 4110.64,-1562.36 4187.21,-1496.89"/>
<polygon fill="#475569" stroke="#475569" points="4189.74,-1499.32 4195.07,-1490.16 4185.19,-1494 4189.74,-1499.32"/>
<polygon fill="white" stroke="transparent" points="4089,-1573.66 4089,-1696.66 4361,-1696.66 4361,-1573.66 4089,-1573.66"/>
<text text-anchor="start" x="4093" y="-1673.96" font-family="Arial" font-size="24.00" fill="#475569">Connects with dedicated</text>
<text text-anchor="start" x="4098.5" y="-1649.96" font-family="Arial" font-size="24.00" fill="#475569">runtime key and pinned</text>
<text text-anchor="start" x="4118" y="-1625.96" font-family="Arial" font-size="24.00" fill="#475569">host&#45;key verification</text>
<text text-anchor="start" x="4183.5" y="-1601.96" font-family="Arial" font-size="24.00" fill="#475569">through</text>
<text text-anchor="start" x="4200" y="-1581.96" font-family="Arial" font-size="19.00" fill="#475569">[SSH]</text>
</g>
<!-- 102&#45;&gt;124 -->
<g id="125" class="edge">
<title>102&#45;&gt;124</title>
<path fill="none" stroke="#475569" stroke-dasharray="5,2" d="M3879.32,-1886.29C4694.69,-1848.27 7852.98,-1700.8 7878,-1696.66 8089.76,-1661.56 8190.19,-1714.41 8342,-1562.66 8556.03,-1348.7 8615.3,-988.2 8630.5,-760.83"/>
<polygon fill="#475569" stroke="#475569" points="8634,-760.98 8631.15,-750.78 8627.01,-760.53 8634,-760.98"/>
<polygon fill="white" stroke="transparent" points="8611,-1213 8611,-1312 8885,-1312 8885,-1213 8611,-1213"/>
<text text-anchor="start" x="8684.5" y="-1289.3" font-family="Arial" font-size="24.00" fill="#475569">Writes logs,</text>
<text text-anchor="start" x="8615" y="-1265.3" font-family="Arial" font-size="24.00" fill="#475569">last&#45;run.json, run events,</text>
<text text-anchor="start" x="8625" y="-1241.3" font-family="Arial" font-size="24.00" fill="#475569">and exported history in</text>
<text text-anchor="start" x="8661" y="-1221.3" font-family="Arial" font-size="19.00" fill="#475569">[filesystem + sqlite3]</text>
</g>
<!-- 104&#45;&gt;124 -->
<g id="126" class="edge">
<title>104&#45;&gt;124</title>
<path fill="none" stroke="#475569" stroke-dasharray="5,2" d="M3537.32,-1073.78C3539.51,-984.34 3560.3,-884.01 3631,-823.94 3680.86,-781.57 8280.37,-809.92 8342,-787.94 8369.81,-778.02 8396.93,-764.23 8422.74,-748.27"/>
<polygon fill="#475569" stroke="#475569" points="8424.85,-751.07 8431.44,-742.77 8421.11,-745.15 8424.85,-751.07"/>
<polygon fill="white" stroke="transparent" points="3631,-835.94 3631,-910.94 3911,-910.94 3911,-835.94 3631,-835.94"/>
<text text-anchor="start" x="3635" y="-888.24" font-family="Arial" font-size="24.00" fill="#475569">Reads last status and log</text>
<text text-anchor="start" x="3727.5" y="-864.24" font-family="Arial" font-size="24.00" fill="#475569">tail from</text>
<text text-anchor="start" x="3722.5" y="-844.24" font-family="Arial" font-size="19.00" fill="#475569">[filesystem]</text>
</g>
<!-- 108&#45;&gt;124 -->
<g id="127" class="edge">
<title>108&#45;&gt;124</title>
<path fill="none" stroke="#475569" stroke-dasharray="5,2" d="M8040.73,-1054.24C8075.03,-971.66 8125.94,-882.5 8199,-823.94 8250.13,-782.94 8283.34,-817.15 8342,-787.94 8365.73,-776.11 8389.31,-762.1 8412.17,-746.9"/>
<polygon fill="#475569" stroke="#475569" points="8414.23,-749.74 8420.57,-741.25 8410.32,-743.93 8414.23,-749.74"/>
<polygon fill="white" stroke="transparent" points="8199,-823.94 8199,-922.94 8424,-922.94 8424,-823.94 8199,-823.94"/>
<text text-anchor="start" x="8209.5" y="-900.24" font-family="Arial" font-size="24.00" fill="#475569">Writes local SQLite</text>
<text text-anchor="start" x="8203.5" y="-876.24" font-family="Arial" font-size="24.00" fill="#475569">snapshot cache and</text>
<text text-anchor="start" x="8231.5" y="-852.24" font-family="Arial" font-size="24.00" fill="#475569">manifest under</text>
<text text-anchor="start" x="8263.5" y="-832.24" font-family="Arial" font-size="19.00" fill="#475569">[filesystem]</text>
</g>
<!-- 114&#45;&gt;110 -->
<g id="116" class="edge">
<title>114&#45;&gt;110</title>
<path fill="none" stroke="#475569" stroke-dasharray="5,2" d="M4661.25,-1026.55C4734.48,-943.14 4816.48,-849.73 4888.18,-768.06"/>
<polygon fill="#475569" stroke="#475569" points="4891.11,-770.02 4895.08,-760.19 4885.85,-765.4 4891.11,-770.02"/>
<polygon fill="white" stroke="transparent" points="4821,-835.94 4821,-910.94 5095,-910.94 5095,-835.94 4821,-835.94"/>
<text text-anchor="start" x="4825" y="-888.24" font-family="Arial" font-size="24.00" fill="#475569">Allows sudo execution of</text>
<text text-anchor="start" x="4864" y="-864.24" font-family="Arial" font-size="24.00" fill="#475569">guard helper only</text>
<text text-anchor="start" x="4850.5" y="-844.24" font-family="Arial" font-size="19.00" fill="#475569">[forced command + sudo]</text>
</g>
<!-- 114&#45;&gt;112 -->
<g id="117" class="edge">
<title>114&#45;&gt;112</title>
<path fill="none" stroke="#475569" stroke-dasharray="5,2" d="M4401.94,-1026.55C4385.38,-953.21 4367.07,-872.14 4350.36,-798.11"/>
<polygon fill="#475569" stroke="#475569" points="4353.73,-797.17 4348.12,-788.18 4346.91,-798.71 4353.73,-797.17"/>
<polygon fill="white" stroke="transparent" points="4375,-835.94 4375,-910.94 4649,-910.94 4649,-835.94 4375,-835.94"/>
<text text-anchor="start" x="4379" y="-888.24" font-family="Arial" font-size="24.00" fill="#475569">Allows sudo execution of</text>
<text text-anchor="start" x="4406.5" y="-864.24" font-family="Arial" font-size="24.00" fill="#475569">integrity helper only</text>
<text text-anchor="start" x="4404.5" y="-844.24" font-family="Arial" font-size="19.00" fill="#475569">[forced command + sudo]</text>
</g>
<!-- 118 -->
<g id="118" class="node">
<title>118</title>
<polygon fill="#ecfeff" stroke="#0891b2" points="6884.67,-1262.5 6652.34,-1451.22 6187.66,-1451.22 5955.33,-1262.5 6187.66,-1073.78 6652.34,-1073.78 6884.67,-1262.5"/>
<text text-anchor="start" x="6295" y="-1329.8" font-family="Arial" font-size="34.00" fill="#111827">NAS Provisioner</text>
<text text-anchor="start" x="6164.5" y="-1307.8" font-family="Arial" font-size="19.00" fill="#111827">[Container: Bash + admin SSH + remote Python + midclt/zfs]</text>
<text text-anchor="start" x="6259" y="-1270.8" font-family="Arial" font-size="24.00" fill="#111827">Idempotent provisioning script</text>
<text text-anchor="start" x="6257.5" y="-1246.8" font-family="Arial" font-size="24.00" fill="#111827">for the TrueNAS dataset, SMB</text>
<text text-anchor="start" x="6287.5" y="-1222.8" font-family="Arial" font-size="24.00" fill="#111827">share, periodic snapshot</text>
<text text-anchor="start" x="6275.5" y="-1198.8" font-family="Arial" font-size="24.00" fill="#111827">tasks, refquota, and retired</text>
<text text-anchor="start" x="6276.5" y="-1174.8" font-family="Arial" font-size="24.00" fill="#111827">legacy snapshot cron jobs.</text>
</g>
<!-- 119 -->
<g id="119" class="node">
<title>119</title>
<polygon fill="#ecfeff" stroke="#0891b2" points="5883.69,-1262.5 5669.84,-1537.82 5242.16,-1537.82 5028.31,-1262.5 5242.16,-987.18 5669.84,-987.18 5883.69,-1262.5"/>
<text text-anchor="start" x="5269.5" y="-1382.8" font-family="Arial" font-size="34.00" fill="#111827">NAS Runtime Hardening</text>
<text text-anchor="start" x="5396" y="-1348.8" font-family="Arial" font-size="34.00" fill="#111827">Installer</text>
<text text-anchor="start" x="5223" y="-1326.8" font-family="Arial" font-size="19.00" fill="#111827">[Container: Bash + admin SSH + TrueNAS middleware]</text>
<text text-anchor="start" x="5337" y="-1289.8" font-family="Arial" font-size="24.00" fill="#111827">Installs or updates the</text>
<text text-anchor="start" x="5307.5" y="-1265.8" font-family="Arial" font-size="24.00" fill="#111827">dedicated runtime user/key,</text>
<text text-anchor="start" x="5302.5" y="-1241.8" font-family="Arial" font-size="24.00" fill="#111827">forced&#45;command dispatcher,</text>
<text text-anchor="start" x="5325" y="-1217.8" font-family="Arial" font-size="24.00" fill="#111827">NAS&#45;side guard/integrity</text>
<text text-anchor="start" x="5334" y="-1193.8" font-family="Arial" font-size="24.00" fill="#111827">helpers, sudo allowlist,</text>
<text text-anchor="start" x="5316" y="-1169.8" font-family="Arial" font-size="24.00" fill="#111827">runtime&#45;writable subtrees,</text>
<text text-anchor="start" x="5305" y="-1145.8" font-family="Arial" font-size="24.00" fill="#111827">host&#45;key pinning config, and</text>
<text text-anchor="start" x="5364.5" y="-1121.8" font-family="Arial" font-size="24.00" fill="#111827">dataset refquota.</text>
</g>
<!-- 120 -->
<g id="120" class="node">
<title>120</title>
<polygon fill="#ecfeff" stroke="#0891b2" points="7587.34,-1262.5 7429.67,-1490.1 7114.33,-1490.1 6956.66,-1262.5 7114.33,-1034.89 7429.67,-1034.89 7587.34,-1262.5"/>
<text text-anchor="start" x="7157.5" y="-1353.8" font-family="Arial" font-size="34.00" fill="#111827">Backup Verifier</text>
<text text-anchor="start" x="7117" y="-1331.8" font-family="Arial" font-size="19.00" fill="#111827">[Container: Bash + systemctl + SSH]</text>
<text text-anchor="start" x="7148" y="-1294.8" font-family="Arial" font-size="24.00" fill="#111827">Operational verification</text>
<text text-anchor="start" x="7130" y="-1270.8" font-family="Arial" font-size="24.00" fill="#111827">script that checks the local</text>
<text text-anchor="start" x="7160" y="-1246.8" font-family="Arial" font-size="24.00" fill="#111827">timer, last status, run</text>
<text text-anchor="start" x="7130" y="-1222.8" font-family="Arial" font-size="24.00" fill="#111827">ledger, growth guard, NAS</text>
<text text-anchor="start" x="7108" y="-1198.8" font-family="Arial" font-size="24.00" fill="#111827">dataset, snapshots, manifests,</text>
<text text-anchor="start" x="7121" y="-1174.8" font-family="Arial" font-size="24.00" fill="#111827">integrity summary, snapshot</text>
<text text-anchor="start" x="7123" y="-1150.8" font-family="Arial" font-size="24.00" fill="#111827">tasks, and retired cron jobs.</text>
</g>
<!-- 120&#45;&gt;101 -->
<g id="121" class="edge">
<title>120&#45;&gt;101</title>
<path fill="none" stroke="#475569" stroke-dasharray="5,2" d="M7453.34,-1456.96C7503.92,-1499.32 7561.89,-1538.64 7623,-1562.66 7649.39,-1573.03 7858.38,-1553.18 7878,-1573.66 7915.81,-1613.14 7913.49,-1655.08 7878,-1696.66 7342.49,-2324.11 4572.82,-2373.34 3813,-2374.9"/>
<polygon fill="#475569" stroke="#475569" points="3812.77,-2371.4 3802.78,-2374.92 3812.78,-2378.4 3812.77,-2371.4"/>
<polygon fill="white" stroke="transparent" points="7832,-1858.66 7832,-1933.66 8084,-1933.66 8084,-1858.66 7832,-1858.66"/>
<text text-anchor="start" x="7836" y="-1910.96" font-family="Arial" font-size="24.00" fill="#475569">Checks enabled/active</text>
<text text-anchor="start" x="7856.5" y="-1886.96" font-family="Arial" font-size="24.00" fill="#475569">timer state through</text>
<text text-anchor="start" x="7885.5" y="-1866.96" font-family="Arial" font-size="19.00" fill="#475569">[systemctl &#45;&#45;user]</text>
</g>
<!-- 120&#45;&gt;110 -->
<g id="122" class="edge">
<title>120&#45;&gt;110</title>
<path fill="none" stroke="#475569" stroke-dasharray="5,2" d="M7096.38,-1060.37C7044.41,-1011.45 6984.34,-963.81 6921,-930.94 6447.53,-685.16 5828.1,-599.14 5441.37,-569.07"/>
<polygon fill="#475569" stroke="#475569" points="5441.38,-565.56 5431.14,-568.29 5440.84,-572.54 5441.38,-565.56"/>
<polygon fill="white" stroke="transparent" points="6876,-835.94 6876,-910.94 7118,-910.94 7118,-835.94 6876,-835.94"/>
<text text-anchor="start" x="6880" y="-888.24" font-family="Arial" font-size="24.00" fill="#475569">Runs read&#45;only guard</text>
<text text-anchor="start" x="6894.5" y="-864.24" font-family="Arial" font-size="24.00" fill="#475569">verification through</text>
<text text-anchor="start" x="6942.5" y="-844.24" font-family="Arial" font-size="19.00" fill="#475569">[subprocess]</text>
</g>
<!-- 120&#45;&gt;124 -->
<g id="128" class="edge">
<title>120&#45;&gt;124</title>
<path fill="none" stroke="#475569" stroke-dasharray="5,2" d="M7456.99,-1073.96C7508.83,-1025.16 7566.5,-974.19 7623,-930.94 7695.09,-875.75 7710.5,-851.51 7797,-823.94 8028.28,-750.19 8115.83,-876.12 8342,-787.94 8368.82,-777.48 8395.1,-763.61 8420.21,-747.83"/>
<polygon fill="#475569" stroke="#475569" points="8422.15,-750.75 8428.69,-742.41 8418.38,-744.86 8422.15,-750.75"/>
<polygon fill="white" stroke="transparent" points="7797,-835.94 7797,-910.94 8092,-910.94 8092,-835.94 7797,-835.94"/>
<text text-anchor="start" x="7824" y="-888.24" font-family="Arial" font-size="24.00" fill="#475569">Reads local last status</text>
<text text-anchor="start" x="7801.5" y="-864.24" font-family="Arial" font-size="24.00" fill="#475569">and recent run ledger from</text>
<text text-anchor="start" x="7858" y="-844.24" font-family="Arial" font-size="19.00" fill="#475569">[filesystem + sqlite3]</text>
</g>
</g>
</svg>
