<?xml version="1.0" encoding="UTF-8" standalone="no"?>
<!DOCTYPE svg PUBLIC "-//W3C//DTD SVG 1.1//EN"
 "http://www.w3.org/Graphics/SVG/1.1/DTD/svg11.dtd">
<!-- Generated by graphviz version 2.43.0 (0)
 -->
<!-- Title: %3 Pages: 1 -->
<svg width="4257pt" height="2006pt"
 viewBox="0.00 0.00 4256.93 2005.51" xmlns="http://www.w3.org/2000/svg" xmlns:xlink="http://www.w3.org/1999/xlink">
<g id="graph0" class="graph" transform="scale(1 1) rotate(0) translate(4 2001.51)">
<title>%3</title>
<polygon fill="white" stroke="transparent" points="-4,4 -4,-2001.51 4252.93,-2001.51 4252.93,4 -4,4"/>
<text text-anchor="start" x="1729.97" y="-35.8" font-family="Arial" font-size="34.00">Container View: WORKSTATION1 Workflow Backup</text>
<text text-anchor="start" x="1695.47" y="-9.8" font-family="Arial" font-size="24.00">C2: operator&#45;facing provisioning, verification, restore, and NAS&#45;control surfaces.</text>
<g id="clust1" class="cluster">
<title>cluster_2</title>
<polygon fill="none" stroke="#444444" points="1599,-599.51 1599,-1629.51 3480.93,-1629.51 3480.93,-599.51 1599,-599.51"/>
<text text-anchor="start" x="2348.97" y="-628.31" font-family="Arial" font-size="24.00" fill="#444444">WORKSTATION1 Workflow Backup</text>
<text text-anchor="start" x="2462.97" y="-608.31" font-family="Arial" font-size="19.00" fill="#444444">[Software System]</text>
</g>
<!-- 1 -->
<g id="1" class="node">
<title>1</title>
<polygon fill="#dbeafe" stroke="#2563eb" points="451,-484.01 0,-484.01 0,-301.01 451,-301.01 451,-484.01"/>
<text text-anchor="start" x="166.5" y="-435.81" font-family="Arial" font-size="34.00" fill="#111827">Michael</text>
<text text-anchor="start" x="190" y="-413.81" font-family="Arial" font-size="19.00" fill="#111827">[Person]</text>
<text text-anchor="start" x="83.5" y="-376.81" font-family="Arial" font-size="24.00" fill="#111827">Sole operator who installs,</text>
<text text-anchor="start" x="112.5" y="-352.81" font-family="Arial" font-size="24.00" fill="#111827">verifies, and restores</text>
<text text-anchor="start" x="29" y="-328.81" font-family="Arial" font-size="24.00" fill="#111827">WORKSTATION1 workflow backups.</text>
</g>
<!-- 28 -->
<g id="28" class="node">
<title>28</title>
<polygon fill="#f3e8ff" stroke="#9333ea" points="1248,-525.01 808,-525.01 808,-260.01 1248,-260.01 1248,-525.01"/>
<text text-anchor="start" x="885.5" y="-476.81" font-family="Arial" font-size="34.00" fill="#111827">Operator Shell and</text>
<text text-anchor="start" x="924" y="-442.81" font-family="Arial" font-size="34.00" fill="#111827">Restore Tools</text>
<text text-anchor="start" x="951" y="-420.81" font-family="Arial" font-size="19.00" fill="#111827">[Software System]</text>
<text text-anchor="start" x="900.5" y="-383.81" font-family="Arial" font-size="24.00" fill="#111827">Local shell, rsync, SSH,</text>
<text text-anchor="start" x="852" y="-359.81" font-family="Arial" font-size="24.00" fill="#111827">Windows Previous Versions, and</text>
<text text-anchor="start" x="837" y="-335.81" font-family="Arial" font-size="24.00" fill="#111827">README/runbook commands used</text>
<text text-anchor="start" x="880.5" y="-311.81" font-family="Arial" font-size="24.00" fill="#111827">for verification and targeted</text>
<text text-anchor="start" x="980.5" y="-287.81" font-family="Arial" font-size="24.00" fill="#111827">restores.</text>
</g>
<!-- 1&#45;&gt;28 -->
<g id="30" class="edge">
<title>1&#45;&gt;28</title>
<path fill="none" stroke="#475569" stroke-dasharray="5,2" d="M451.08,-392.51C559.28,-392.51 688.84,-392.51 797.65,-392.51"/>
<polygon fill="#475569" stroke="#475569" points="797.78,-396.01 807.78,-392.51 797.78,-389.01 797.78,-396.01"/>
<polygon fill="white" stroke="transparent" points="487,-392.51 487,-478.51 772,-478.51 772,-392.51 487,-392.51"/>
<text text-anchor="start" x="491.5" y="-455.31" font-family="Arial" font-size="24.00" fill="#475569">Runs backup, verification,</text>
<text text-anchor="start" x="497" y="-429.31" font-family="Arial" font-size="24.00" fill="#475569">provisioning, and restore</text>
<text text-anchor="start" x="542.5" y="-403.31" font-family="Arial" font-size="24.00" fill="#475569">commands from</text>
</g>
<!-- 24 -->
<g id="24" class="node">
<title>24</title>
<path fill="#fef3c7" stroke="#d97706" d="M3287.52,-541.73C3287.52,-560.03 3205.28,-574.89 3104.02,-574.89 3002.77,-574.89 2920.52,-560.03 2920.52,-541.73 2920.52,-541.73 2920.52,-243.3 2920.52,-243.3 2920.52,-225 3002.77,-210.14 3104.02,-210.14 3205.28,-210.14 3287.52,-225 3287.52,-243.3 3287.52,-243.3 3287.52,-541.73 3287.52,-541.73"/>
<path fill="none" stroke="#d97706" d="M3287.52,-541.73C3287.52,-523.43 3205.28,-508.57 3104.02,-508.57 3002.77,-508.57 2920.52,-523.43 2920.52,-541.73"/>
<text text-anchor="start" x="2973.02" y="-476.81" font-family="Arial" font-size="34.00" fill="#111827">TrueNAS Backup</text>
<text text-anchor="start" x="3045.02" y="-442.81" font-family="Arial" font-size="34.00" fill="#111827">Dataset</text>
<text text-anchor="start" x="3027.02" y="-420.81" font-family="Arial" font-size="19.00" fill="#111827">[Software System]</text>
<text text-anchor="start" x="2954.52" y="-383.81" font-family="Arial" font-size="24.00" fill="#111827">Encrypted TrueNAS dataset</text>
<text text-anchor="start" x="2949.52" y="-359.81" font-family="Arial" font-size="24.00" fill="#111827">v1/ws1/wf with current mirror</text>
<text text-anchor="start" x="2958.02" y="-335.81" font-family="Arial" font-size="24.00" fill="#111827">tree, manifests, SMB share</text>
<text text-anchor="start" x="2960.52" y="-311.81" font-family="Arial" font-size="24.00" fill="#111827">ws1&#45;wf, and ZFS snapshot</text>
<text text-anchor="start" x="3065.52" y="-287.81" font-family="Arial" font-size="24.00" fill="#111827">history.</text>
</g>
<!-- 25 -->
<g id="25" class="node">
<title>25</title>
<polygon fill="#f3e8ff" stroke="#9333ea" points="4248.93,-1622.01 3833.93,-1622.01 3833.93,-1357.01 4248.93,-1357.01 4248.93,-1622.01"/>
<text text-anchor="start" x="3880.43" y="-1573.81" font-family="Arial" font-size="34.00" fill="#111827">TrueNAS Middleware</text>
<text text-anchor="start" x="3868.43" y="-1539.81" font-family="Arial" font-size="34.00" fill="#111827">and ZFS Control Plane</text>
<text text-anchor="start" x="3964.43" y="-1517.81" font-family="Arial" font-size="19.00" fill="#111827">[Software System]</text>
<text text-anchor="start" x="3862.93" y="-1480.81" font-family="Arial" font-size="24.00" fill="#111827">root@10.99.98.221 management</text>
<text text-anchor="start" x="3927.93" y="-1456.81" font-family="Arial" font-size="24.00" fill="#111827">surface used for ZFS</text>
<text text-anchor="start" x="3896.43" y="-1432.81" font-family="Arial" font-size="24.00" fill="#111827">properties, snapshot tasks,</text>
<text text-anchor="start" x="3881.93" y="-1408.81" font-family="Arial" font-size="24.00" fill="#111827">SMB share configuration, and</text>
<text text-anchor="start" x="3979.93" y="-1384.81" font-family="Arial" font-size="24.00" fill="#111827">verification.</text>
</g>
<!-- 28&#45;&gt;24 -->
<g id="34" class="edge">
<title>28&#45;&gt;24</title>
<path fill="none" stroke="#475569" stroke-dasharray="5,2" d="M1248.01,-392.51C1655.45,-392.51 2523.53,-392.51 2910.23,-392.51"/>
<polygon fill="#475569" stroke="#475569" points="2910.4,-396.01 2920.4,-392.51 2910.4,-389.01 2910.4,-396.01"/>
<polygon fill="white" stroke="transparent" points="1825.56,-392.51 1825.56,-491.51 2160.56,-491.51 2160.56,-392.51 1825.56,-392.51"/>
<text text-anchor="start" x="1871.56" y="-468.81" font-family="Arial" font-size="24.00" fill="#475569">Restores selected files</text>
<text text-anchor="start" x="1853.06" y="-444.81" font-family="Arial" font-size="24.00" fill="#475569">from .zfs/snapshot/current</text>
<text text-anchor="start" x="1963.56" y="-420.81" font-family="Arial" font-size="24.00" fill="#475569">paths</text>
<text text-anchor="start" x="1830.06" y="-400.81" font-family="Arial" font-size="19.00" fill="#475569">[SSH rsync or SMB Previous Versions]</text>
</g>
<!-- 28&#45;&gt;25 -->
<g id="33" class="edge">
<title>28&#45;&gt;25</title>
<path fill="none" stroke="#475569" stroke-dasharray="5,2" d="M1248.35,-338.97C1779.5,-214.58 3117.78,65.63 3480.93,-174.51 3884.54,-441.41 3997.91,-1064.85 4029.02,-1346.68"/>
<polygon fill="#475569" stroke="#475569" points="4025.58,-1347.41 4030.14,-1356.97 4032.54,-1346.65 4025.58,-1347.41"/>
<polygon fill="white" stroke="transparent" points="2406.61,-123.51 2406.61,-198.51 2707.61,-198.51 2707.61,-123.51 2406.61,-123.51"/>
<text text-anchor="start" x="2450.61" y="-175.81" font-family="Arial" font-size="24.00" fill="#475569">Lists snapshots and</text>
<text text-anchor="start" x="2411.11" y="-151.81" font-family="Arial" font-size="24.00" fill="#475569">inspects NAS state through</text>
<text text-anchor="start" x="2481.61" y="-131.81" font-family="Arial" font-size="19.00" fill="#475569">[SSH + zfs/midclt]</text>
</g>
<!-- 19 -->
<g id="19" class="node">
<title>19</title>
<polygon fill="#ecfeff" stroke="#0891b2" points="2308.39,-1376.51 2150.72,-1604.12 1835.39,-1604.12 1677.72,-1376.51 1835.39,-1148.91 2150.72,-1148.91 2308.39,-1376.51"/>
<text text-anchor="start" x="1878.56" y="-1467.81" font-family="Arial" font-size="34.00" fill="#111827">Backup Verifier</text>
<text text-anchor="start" x="1838.06" y="-1445.81" font-family="Arial" font-size="19.00" fill="#111827">[Container: Bash + systemctl + SSH]</text>
<text text-anchor="start" x="1869.06" y="-1408.81" font-family="Arial" font-size="24.00" fill="#111827">Operational verification</text>
<text text-anchor="start" x="1851.06" y="-1384.81" font-family="Arial" font-size="24.00" fill="#111827">script that checks the local</text>
<text text-anchor="start" x="1881.06" y="-1360.81" font-family="Arial" font-size="24.00" fill="#111827">timer, last status, run</text>
<text text-anchor="start" x="1851.06" y="-1336.81" font-family="Arial" font-size="24.00" fill="#111827">ledger, growth guard, NAS</text>
<text text-anchor="start" x="1829.06" y="-1312.81" font-family="Arial" font-size="24.00" fill="#111827">dataset, snapshots, manifests,</text>
<text text-anchor="start" x="1847.06" y="-1288.81" font-family="Arial" font-size="24.00" fill="#111827">snapshot tasks, and retired</text>
<text text-anchor="start" x="1940.06" y="-1264.81" font-family="Arial" font-size="24.00" fill="#111827">cron jobs.</text>
</g>
<!-- 28&#45;&gt;19 -->
<g id="32" class="edge">
<title>28&#45;&gt;19</title>
<path fill="none" stroke="#475569" stroke-dasharray="5,2" d="M1114.95,-525.05C1218.14,-677.95 1402.08,-931.62 1599,-1113.51 1647.76,-1158.56 1704.93,-1201.38 1760.33,-1238.89"/>
<polygon fill="#475569" stroke="#475569" points="1758.59,-1241.95 1768.84,-1244.63 1762.5,-1236.14 1758.59,-1241.95"/>
<polygon fill="white" stroke="transparent" points="1284,-1096.51 1284,-1171.51 1588,-1171.51 1588,-1096.51 1284,-1096.51"/>
<text text-anchor="start" x="1288" y="-1148.81" font-family="Arial" font-size="24.00" fill="#475569">Runs backup health checks</text>
<text text-anchor="start" x="1394.5" y="-1124.81" font-family="Arial" font-size="24.00" fill="#475569">through</text>
<text text-anchor="start" x="1410.5" y="-1104.81" font-family="Arial" font-size="19.00" fill="#475569">[shell]</text>
</g>
<!-- 17 -->
<g id="17" class="node">
<title>17</title>
<polygon fill="#ecfeff" stroke="#0891b2" points="3455.84,-888.51 3279.93,-1077.24 2928.11,-1077.24 2752.2,-888.51 2928.11,-699.79 3279.93,-699.79 3455.84,-888.51"/>
<text text-anchor="start" x="2957.52" y="-955.81" font-family="Arial" font-size="34.00" fill="#111827">NAS Growth Guard</text>
<text text-anchor="start" x="2917.52" y="-933.81" font-family="Arial" font-size="19.00" fill="#111827">[Container: Bash + remote Python + zfs CLI]</text>
<text text-anchor="start" x="2947.02" y="-896.81" font-family="Arial" font-size="24.00" fill="#111827">Read&#45;only ZFS budget check</text>
<text text-anchor="start" x="2956.52" y="-872.81" font-family="Arial" font-size="24.00" fill="#111827">that enforces dataset&#45;used,</text>
<text text-anchor="start" x="2936.52" y="-848.81" font-family="Arial" font-size="24.00" fill="#111827">snapshot&#45;held, free&#45;space, and</text>
<text text-anchor="start" x="2990.02" y="-824.81" font-family="Arial" font-size="24.00" fill="#111827">snapshot&#45;count limits</text>
<text text-anchor="start" x="3003.02" y="-800.81" font-family="Arial" font-size="24.00" fill="#111827">before/after writes.</text>
</g>
<!-- 17&#45;&gt;25 -->
<g id="39" class="edge">
<title>17&#45;&gt;25</title>
<path fill="none" stroke="#475569" stroke-dasharray="5,2" d="M3332.38,-1021.23C3381.67,-1050.78 3433.3,-1082.3 3480.93,-1112.51 3601.8,-1189.16 3734.75,-1278.53 3840.72,-1351.01"/>
<polygon fill="#475569" stroke="#475569" points="3839.04,-1354.1 3849.26,-1356.86 3842.99,-1348.33 3839.04,-1354.1"/>
<polygon fill="white" stroke="transparent" points="3491.93,-1314.51 3491.93,-1413.51 3797.93,-1413.51 3797.93,-1314.51 3491.93,-1314.51"/>
<text text-anchor="start" x="3495.93" y="-1390.81" font-family="Arial" font-size="24.00" fill="#475569">Reads ZFS used, available,</text>
<text text-anchor="start" x="3523.43" y="-1366.81" font-family="Arial" font-size="24.00" fill="#475569">usedbysnapshots, and</text>
<text text-anchor="start" x="3534.93" y="-1342.81" font-family="Arial" font-size="24.00" fill="#475569">snapshot count from</text>
<text text-anchor="start" x="3596.43" y="-1322.81" font-family="Arial" font-size="19.00" fill="#475569">[SSH + zfs]</text>
</g>
<!-- 18 -->
<g id="18" class="node">
<title>18</title>
<polygon fill="#ecfeff" stroke="#0891b2" points="2362.17,-888.51 2177.61,-1077.24 1808.5,-1077.24 1623.94,-888.51 1808.5,-699.79 2177.61,-699.79 2362.17,-888.51"/>
<text text-anchor="start" x="1868.06" y="-955.81" font-family="Arial" font-size="34.00" fill="#111827">NAS Provisioner</text>
<text text-anchor="start" x="1796.06" y="-933.81" font-family="Arial" font-size="19.00" fill="#111827">[Container: Bash + remote Python + midclt/zfs]</text>
<text text-anchor="start" x="1832.06" y="-896.81" font-family="Arial" font-size="24.00" fill="#111827">Idempotent provisioning script</text>
<text text-anchor="start" x="1830.56" y="-872.81" font-family="Arial" font-size="24.00" fill="#111827">for the TrueNAS dataset, SMB</text>
<text text-anchor="start" x="1860.56" y="-848.81" font-family="Arial" font-size="24.00" fill="#111827">share, periodic snapshot</text>
<text text-anchor="start" x="1861.56" y="-824.81" font-family="Arial" font-size="24.00" fill="#111827">tasks, and retired legacy</text>
<text text-anchor="start" x="1887.56" y="-800.81" font-family="Arial" font-size="24.00" fill="#111827">snapshot cron jobs.</text>
</g>
<!-- 18&#45;&gt;24 -->
<g id="61" class="edge">
<title>18&#45;&gt;24</title>
<path fill="none" stroke="#475569" stroke-dasharray="5,2" d="M2181.24,-703.1C2245.54,-648.19 2320.88,-592.62 2398.11,-554.51 2560.62,-474.34 2763.91,-433.08 2910.37,-412.33"/>
<polygon fill="#475569" stroke="#475569" points="2910.95,-415.78 2920.37,-410.93 2909.98,-408.85 2910.95,-415.78"/>
<polygon fill="white" stroke="transparent" points="2398.11,-554.51 2398.11,-640.51 2716.11,-640.51 2716.11,-554.51 2398.11,-554.51"/>
<text text-anchor="start" x="2402.11" y="-617.31" font-family="Arial" font-size="24.00" fill="#475569">Configures mountpoint, SMB</text>
<text text-anchor="start" x="2447.11" y="-591.31" font-family="Arial" font-size="24.00" fill="#475569">share, and snapshot</text>
<text text-anchor="start" x="2448.61" y="-565.31" font-family="Arial" font-size="24.00" fill="#475569">naming/retention for</text>
</g>
<!-- 18&#45;&gt;25 -->
<g id="60" class="edge">
<title>18&#45;&gt;25</title>
<path fill="none" stroke="#475569" stroke-dasharray="5,2" d="M2251.21,-1002C2294.49,-1031.99 2334.32,-1068.58 2362.11,-1112.51 2444.53,-1242.8 2302.66,-1336.45 2398.11,-1457.51 2501.42,-1588.54 2587.66,-1554.33 2752.11,-1582.51 3125.27,-1646.46 3566.56,-1585.62 3823.83,-1536.76"/>
<polygon fill="#475569" stroke="#475569" points="3824.5,-1540.2 3833.66,-1534.89 3823.18,-1533.32 3824.5,-1540.2"/>
<polygon fill="white" stroke="transparent" points="2949.52,-1609.51 2949.52,-1732.51 3258.52,-1732.51 3258.52,-1609.51 2949.52,-1609.51"/>
<text text-anchor="start" x="2969.02" y="-1709.81" font-family="Arial" font-size="24.00" fill="#475569">Creates/updates dataset,</text>
<text text-anchor="start" x="2954.02" y="-1685.81" font-family="Arial" font-size="24.00" fill="#475569">SMB share, snapshot tasks,</text>
<text text-anchor="start" x="2970.52" y="-1661.81" font-family="Arial" font-size="24.00" fill="#475569">and disabled retired cron</text>
<text text-anchor="start" x="3037.52" y="-1637.81" font-family="Arial" font-size="24.00" fill="#475569">jobs through</text>
<text text-anchor="start" x="3020.02" y="-1617.81" font-family="Arial" font-size="19.00" fill="#475569">[SSH + zfs + midclt]</text>
</g>
<!-- 19&#45;&gt;24 -->
<g id="66" class="edge">
<title>19&#45;&gt;24</title>
<path fill="none" stroke="#475569" stroke-dasharray="5,2" d="M2221.53,-1250.77C2274.01,-1212.62 2325.2,-1166.52 2362.11,-1113.51 2396.86,-1063.61 2367.96,-1034.32 2398.11,-981.51 2498.64,-805.47 2599.18,-820.12 2716.11,-654.51 2736.98,-624.96 2727,-607.55 2752.11,-581.51 2796.69,-535.31 2855.05,-497.77 2911.35,-468.68"/>
<polygon fill="#475569" stroke="#475569" points="2913.05,-471.75 2920.37,-464.09 2909.87,-465.51 2913.05,-471.75"/>
<polygon fill="white" stroke="transparent" points="2422.11,-981.51 2422.11,-1041.51 2692.11,-1041.51 2692.11,-981.51 2422.11,-981.51"/>
<text text-anchor="start" x="2426.11" y="-1018.31" font-family="Arial" font-size="24.00" fill="#475569">Checks required backup</text>
<text text-anchor="start" x="2435.61" y="-992.31" font-family="Arial" font-size="24.00" fill="#475569">paths and manifests in</text>
</g>
<!-- 19&#45;&gt;25 -->
<g id="65" class="edge">
<title>19&#45;&gt;25</title>
<path fill="none" stroke="#475569" stroke-dasharray="5,2" d="M2171.65,-1574.45C2237.26,-1637.27 2315.83,-1701.71 2398.11,-1745.51 2541.03,-1821.6 2591.35,-1812.27 2752.11,-1831.51 3215.18,-1886.96 3397.6,-1984.77 3797.93,-1745.51 3848.13,-1715.52 3894.62,-1672.27 3933.19,-1629.83"/>
<polygon fill="#475569" stroke="#475569" points="3935.97,-1631.97 3940.05,-1622.2 3930.77,-1627.29 3935.97,-1631.97"/>
<polygon fill="white" stroke="transparent" points="2966.02,-1898.51 2966.02,-1997.51 3242.02,-1997.51 3242.02,-1898.51 2966.02,-1898.51"/>
<text text-anchor="start" x="2970.02" y="-1974.81" font-family="Arial" font-size="24.00" fill="#475569">Reads dataset, snapshot</text>
<text text-anchor="start" x="2983.52" y="-1950.81" font-family="Arial" font-size="24.00" fill="#475569">tasks, and retired cron</text>
<text text-anchor="start" x="3030.02" y="-1926.81" font-family="Arial" font-size="24.00" fill="#475569">job state from</text>
<text text-anchor="start" x="3019.52" y="-1906.81" font-family="Arial" font-size="19.00" fill="#475569">[SSH + midclt + zfs]</text>
</g>
<!-- 19&#45;&gt;17 -->
<g id="64" class="edge">
<title>19&#45;&gt;17</title>
<path fill="none" stroke="#475569" stroke-dasharray="5,2" d="M2235.03,-1270.47C2414.99,-1191.28 2660.59,-1083.21 2844.62,-1002.22"/>
<polygon fill="#475569" stroke="#475569" points="2846.14,-1005.38 2853.89,-998.15 2843.33,-998.97 2846.14,-1005.38"/>
<polygon fill="white" stroke="transparent" points="2436.11,-1190.51 2436.11,-1265.51 2678.11,-1265.51 2678.11,-1190.51 2436.11,-1190.51"/>
<text text-anchor="start" x="2440.11" y="-1242.81" font-family="Arial" font-size="24.00" fill="#475569">Runs read&#45;only guard</text>
<text text-anchor="start" x="2454.61" y="-1218.81" font-family="Arial" font-size="24.00" fill="#475569">verification through</text>
<text text-anchor="start" x="2502.61" y="-1198.81" font-family="Arial" font-size="19.00" fill="#475569">[subprocess]</text>
</g>
<!-- 21 -->
<g id="21" class="node">
<title>21</title>
<path fill="#fef3c7" stroke="#d97706" d="M3363.52,-1510.23C3363.52,-1530.18 3247.21,-1546.39 3104.02,-1546.39 2960.83,-1546.39 2844.52,-1530.18 2844.52,-1510.23 2844.52,-1510.23 2844.52,-1184.8 2844.52,-1184.8 2844.52,-1164.85 2960.83,-1148.64 3104.02,-1148.64 3247.21,-1148.64 3363.52,-1164.85 3363.52,-1184.8 3363.52,-1184.8 3363.52,-1510.23 3363.52,-1510.23"/>
<path fill="none" stroke="#d97706" d="M3363.52,-1510.23C3363.52,-1490.28 3247.21,-1474.07 3104.02,-1474.07 2960.83,-1474.07 2844.52,-1490.28 2844.52,-1510.23"/>
<text text-anchor="start" x="2937.02" y="-1443.81" font-family="Arial" font-size="34.00" fill="#111827">Run Ledger and Local</text>
<text text-anchor="start" x="3064.02" y="-1409.81" font-family="Arial" font-size="34.00" fill="#111827">State</text>
<text text-anchor="start" x="2877.02" y="-1387.81" font-family="Arial" font-size="19.00" fill="#111827">[Container: SQLite + JSON + logs on WSL filesystem]</text>
<text text-anchor="start" x="2946.02" y="-1350.81" font-family="Arial" font-size="24.00" fill="#111827">Local status, logs, SQLite run</text>
<text text-anchor="start" x="2956.02" y="-1326.81" font-family="Arial" font-size="24.00" fill="#111827">ledger, exported run&#45;history</text>
<text text-anchor="start" x="2937.02" y="-1302.81" font-family="Arial" font-size="24.00" fill="#111827">JSON, SQLite snapshot cache,</text>
<text text-anchor="start" x="2946.52" y="-1278.81" font-family="Arial" font-size="24.00" fill="#111827">and Windows manifest cache</text>
<text text-anchor="start" x="3072.52" y="-1254.81" font-family="Arial" font-size="24.00" fill="#111827">under</text>
<text text-anchor="start" x="2873.52" y="-1230.81" font-family="Arial" font-size="24.00" fill="#111827">~/.local/state/workstation&#45;workflow&#45;backup.</text>
</g>
<!-- 19&#45;&gt;21 -->
<g id="63" class="edge">
<title>19&#45;&gt;21</title>
<path fill="none" stroke="#475569" stroke-dasharray="5,2" d="M2302.97,-1368.44C2469.95,-1364.07 2674.16,-1358.73 2834.47,-1354.54"/>
<polygon fill="#475569" stroke="#475569" points="2834.58,-1358.04 2844.48,-1354.28 2834.4,-1351.04 2834.58,-1358.04"/>
<polygon fill="white" stroke="transparent" points="2409.61,-1364.51 2409.61,-1439.51 2704.61,-1439.51 2704.61,-1364.51 2409.61,-1364.51"/>
<text text-anchor="start" x="2436.61" y="-1416.81" font-family="Arial" font-size="24.00" fill="#475569">Reads local last status</text>
<text text-anchor="start" x="2414.11" y="-1392.81" font-family="Arial" font-size="24.00" fill="#475569">and recent run ledger from</text>
<text text-anchor="start" x="2470.61" y="-1372.81" font-family="Arial" font-size="19.00" fill="#475569">[filesystem + sqlite3]</text>
</g>
</g>
</svg>
