<?xml version="1.0" encoding="UTF-8" standalone="no"?>
<!DOCTYPE svg PUBLIC "-//W3C//DTD SVG 1.1//EN"
 "http://www.w3.org/Graphics/SVG/1.1/DTD/svg11.dtd">
<!-- Generated by graphviz version 2.43.0 (0)
 -->
<!-- Title: %3 Pages: 1 -->
<svg width="2324pt" height="1404pt"
 viewBox="0.00 0.00 2324.34 1403.50" xmlns="http://www.w3.org/2000/svg" xmlns:xlink="http://www.w3.org/1999/xlink">
<g id="graph0" class="graph" transform="scale(1 1) rotate(0) translate(4 1399.5)">
<title>%3</title>
<polygon fill="white" stroke="transparent" points="-4,4 -4,-1399.5 2320.34,-1399.5 2320.34,4 -4,4"/>
<text text-anchor="start" x="770.67" y="-35.8" font-family="Arial" font-size="34.00">Dynamic View: WORKSTATION1 Workflow Backup</text>
<text text-anchor="start" x="610.17" y="-9.8" font-family="Arial" font-size="24.00">Targeted restore sequence from a ZFS snapshot; restores should stage first, then replace deliberately.</text>
<g id="clust1" class="cluster">
<title>cluster_2</title>
<polygon fill="none" stroke="#444444" points="1628,-806.5 1628,-1387.5 2308.34,-1387.5 2308.34,-806.5 1628,-806.5"/>
<text text-anchor="start" x="1777.17" y="-835.3" font-family="Arial" font-size="24.00" fill="#444444">WORKSTATION1 Workflow Backup</text>
<text text-anchor="start" x="1891.17" y="-815.3" font-family="Arial" font-size="19.00" fill="#444444">[Software System]</text>
</g>
<!-- 19 -->
<g id="19" class="node">
<title>19</title>
<polygon fill="#ecfeff" stroke="#0891b2" points="2283.5,-1134.5 2125.84,-1362.11 1810.5,-1362.11 1652.83,-1134.5 1810.5,-906.89 2125.84,-906.89 2283.5,-1134.5"/>
<text text-anchor="start" x="1853.67" y="-1225.8" font-family="Arial" font-size="34.00" fill="#111827">Backup Verifier</text>
<text text-anchor="start" x="1813.17" y="-1203.8" font-family="Arial" font-size="19.00" fill="#111827">[Container: Bash + systemctl + SSH]</text>
<text text-anchor="start" x="1844.17" y="-1166.8" font-family="Arial" font-size="24.00" fill="#111827">Operational verification</text>
<text text-anchor="start" x="1826.17" y="-1142.8" font-family="Arial" font-size="24.00" fill="#111827">script that checks the local</text>
<text text-anchor="start" x="1856.17" y="-1118.8" font-family="Arial" font-size="24.00" fill="#111827">timer, last status, run</text>
<text text-anchor="start" x="1826.17" y="-1094.8" font-family="Arial" font-size="24.00" fill="#111827">ledger, growth guard, NAS</text>
<text text-anchor="start" x="1804.17" y="-1070.8" font-family="Arial" font-size="24.00" fill="#111827">dataset, snapshots, manifests,</text>
<text text-anchor="start" x="1822.17" y="-1046.8" font-family="Arial" font-size="24.00" fill="#111827">snapshot tasks, and retired</text>
<text text-anchor="start" x="1915.17" y="-1022.8" font-family="Arial" font-size="24.00" fill="#111827">cron jobs.</text>
</g>
<!-- 1 -->
<g id="1" class="node">
<title>1</title>
<polygon fill="#dbeafe" stroke="#2563eb" points="451,-691 0,-691 0,-508 451,-508 451,-691"/>
<text text-anchor="start" x="166.5" y="-642.8" font-family="Arial" font-size="34.00" fill="#111827">Michael</text>
<text text-anchor="start" x="190" y="-620.8" font-family="Arial" font-size="19.00" fill="#111827">[Person]</text>
<text text-anchor="start" x="83.5" y="-583.8" font-family="Arial" font-size="24.00" fill="#111827">Sole operator who installs,</text>
<text text-anchor="start" x="112.5" y="-559.8" font-family="Arial" font-size="24.00" fill="#111827">verifies, and restores</text>
<text text-anchor="start" x="29" y="-535.8" font-family="Arial" font-size="24.00" fill="#111827">WORKSTATION1 workflow backups.</text>
</g>
<!-- 28 -->
<g id="28" class="node">
<title>28</title>
<polygon fill="#f3e8ff" stroke="#9333ea" points="1246,-732 806,-732 806,-467 1246,-467 1246,-732"/>
<text text-anchor="start" x="883.5" y="-683.8" font-family="Arial" font-size="34.00" fill="#111827">Operator Shell and</text>
<text text-anchor="start" x="922" y="-649.8" font-family="Arial" font-size="34.00" fill="#111827">Restore Tools</text>
<text text-anchor="start" x="949" y="-627.8" font-family="Arial" font-size="19.00" fill="#111827">[Software System]</text>
<text text-anchor="start" x="898.5" y="-590.8" font-family="Arial" font-size="24.00" fill="#111827">Local shell, rsync, SSH,</text>
<text text-anchor="start" x="850" y="-566.8" font-family="Arial" font-size="24.00" fill="#111827">Windows Previous Versions, and</text>
<text text-anchor="start" x="835" y="-542.8" font-family="Arial" font-size="24.00" fill="#111827">README/runbook commands used</text>
<text text-anchor="start" x="878.5" y="-518.8" font-family="Arial" font-size="24.00" fill="#111827">for verification and targeted</text>
<text text-anchor="start" x="978.5" y="-494.8" font-family="Arial" font-size="24.00" fill="#111827">restores.</text>
</g>
<!-- 1&#45;&gt;28 -->
<g id="30" class="edge">
<title>1&#45;&gt;28</title>
<path fill="none" stroke="#475569" stroke-dasharray="5,2" d="M451.05,-599.5C558.74,-599.5 687.56,-599.5 795.84,-599.5"/>
<polygon fill="#475569" stroke="#475569" points="795.92,-603 805.92,-599.5 795.92,-596 795.92,-603"/>
<polygon fill="white" stroke="transparent" points="487,-599.5 487,-659.5 770,-659.5 770,-599.5 487,-599.5"/>
<text text-anchor="start" x="491.5" y="-636.3" font-family="Arial" font-size="24.00" fill="#475569">1. Select snapshot before</text>
<text text-anchor="start" x="550" y="-610.3" font-family="Arial" font-size="24.00" fill="#475569">loss/corruption</text>
</g>
<!-- 24 -->
<g id="24" class="node">
<title>24</title>
<path fill="#fef3c7" stroke="#d97706" d="M2151.67,-748.72C2151.67,-767.01 2069.42,-781.88 1968.17,-781.88 1866.92,-781.88 1784.67,-767.01 1784.67,-748.72 1784.67,-748.72 1784.67,-450.28 1784.67,-450.28 1784.67,-431.99 1866.92,-417.12 1968.17,-417.12 2069.42,-417.12 2151.67,-431.99 2151.67,-450.28 2151.67,-450.28 2151.67,-748.72 2151.67,-748.72"/>
<path fill="none" stroke="#d97706" d="M2151.67,-748.72C2151.67,-730.42 2069.42,-715.56 1968.17,-715.56 1866.92,-715.56 1784.67,-730.42 1784.67,-748.72"/>
<text text-anchor="start" x="1837.17" y="-683.8" font-family="Arial" font-size="34.00" fill="#111827">TrueNAS Backup</text>
<text text-anchor="start" x="1909.17" y="-649.8" font-family="Arial" font-size="34.00" fill="#111827">Dataset</text>
<text text-anchor="start" x="1891.17" y="-627.8" font-family="Arial" font-size="19.00" fill="#111827">[Software System]</text>
<text text-anchor="start" x="1818.67" y="-590.8" font-family="Arial" font-size="24.00" fill="#111827">Encrypted TrueNAS dataset</text>
<text text-anchor="start" x="1813.67" y="-566.8" font-family="Arial" font-size="24.00" fill="#111827">v1/ws1/wf with current mirror</text>
<text text-anchor="start" x="1822.17" y="-542.8" font-family="Arial" font-size="24.00" fill="#111827">tree, manifests, SMB share</text>
<text text-anchor="start" x="1824.67" y="-518.8" font-family="Arial" font-size="24.00" fill="#111827">ws1&#45;wf, and ZFS snapshot</text>
<text text-anchor="start" x="1929.67" y="-494.8" font-family="Arial" font-size="24.00" fill="#111827">history.</text>
</g>
<!-- 25 -->
<g id="25" class="node">
<title>25</title>
<polygon fill="#f3e8ff" stroke="#9333ea" points="2175.67,-345 1760.67,-345 1760.67,-80 2175.67,-80 2175.67,-345"/>
<text text-anchor="start" x="1807.17" y="-296.8" font-family="Arial" font-size="34.00" fill="#111827">TrueNAS Middleware</text>
<text text-anchor="start" x="1795.17" y="-262.8" font-family="Arial" font-size="34.00" fill="#111827">and ZFS Control Plane</text>
<text text-anchor="start" x="1891.17" y="-240.8" font-family="Arial" font-size="19.00" fill="#111827">[Software System]</text>
<text text-anchor="start" x="1789.67" y="-203.8" font-family="Arial" font-size="24.00" fill="#111827">root@10.99.98.221 management</text>
<text text-anchor="start" x="1854.67" y="-179.8" font-family="Arial" font-size="24.00" fill="#111827">surface used for ZFS</text>
<text text-anchor="start" x="1823.17" y="-155.8" font-family="Arial" font-size="24.00" fill="#111827">properties, snapshot tasks,</text>
<text text-anchor="start" x="1808.67" y="-131.8" font-family="Arial" font-size="24.00" fill="#111827">SMB share configuration, and</text>
<text text-anchor="start" x="1906.67" y="-107.8" font-family="Arial" font-size="24.00" fill="#111827">verification.</text>
</g>
<!-- 28&#45;&gt;19 -->
<g id="32" class="edge">
<title>28&#45;&gt;19</title>
<path fill="none" stroke="#475569" stroke-dasharray="5,2" d="M1246.24,-724.26C1392.14,-807.28 1583.64,-916.25 1732.6,-1001.02"/>
<polygon fill="#475569" stroke="#475569" points="1731.02,-1004.15 1741.45,-1006.05 1734.49,-998.07 1731.02,-1004.15"/>
<polygon fill="white" stroke="transparent" points="1318,-930.5 1318,-1005.5 1581,-1005.5 1581,-930.5 1318,-930.5"/>
<text text-anchor="start" x="1322.5" y="-982.8" font-family="Arial" font-size="24.00" fill="#475569">4. Run verify&#45;backup.sh</text>
<text text-anchor="start" x="1345" y="-958.8" font-family="Arial" font-size="24.00" fill="#475569">after timer resumes</text>
<text text-anchor="start" x="1424.5" y="-938.8" font-family="Arial" font-size="19.00" fill="#475569">[shell]</text>
</g>
<!-- 28&#45;&gt;24 -->
<g id="34" class="edge">
<title>28&#45;&gt;24</title>
<path fill="none" stroke="#475569" stroke-dasharray="5,2" d="M1246.24,-599.5C1406.19,-599.5 1620.93,-599.5 1774.35,-599.5"/>
<polygon fill="#475569" stroke="#475569" points="1774.37,-603 1784.37,-599.5 1774.37,-596 1774.37,-603"/>
<polygon fill="white" stroke="transparent" points="1282,-599.5 1282,-698.5 1617,-698.5 1617,-599.5 1282,-599.5"/>
<text text-anchor="start" x="1359.5" y="-675.8" font-family="Arial" font-size="24.00" fill="#475569">3. Copy selected</text>
<text text-anchor="start" x="1323.5" y="-651.8" font-family="Arial" font-size="24.00" fill="#475569">.zfs/snapshot/.../current</text>
<text text-anchor="start" x="1315.5" y="-627.8" font-family="Arial" font-size="24.00" fill="#475569">path to restore candidate</text>
<text text-anchor="start" x="1286.5" y="-607.8" font-family="Arial" font-size="19.00" fill="#475569">[SSH rsync or SMB Previous Versions]</text>
</g>
<!-- 28&#45;&gt;25 -->
<g id="33" class="edge">
<title>28&#45;&gt;25</title>
<path fill="none" stroke="#475569" stroke-dasharray="5,2" d="M1246.24,-509.25C1398.24,-446.69 1599.73,-363.75 1751.05,-301.46"/>
<polygon fill="#475569" stroke="#475569" points="1752.57,-304.62 1760.48,-297.58 1749.91,-298.15 1752.57,-304.62"/>
<polygon fill="white" stroke="transparent" points="1320,-490.5 1320,-565.5 1579,-565.5 1579,-490.5 1320,-490.5"/>
<text text-anchor="start" x="1324.5" y="-542.8" font-family="Arial" font-size="24.00" fill="#475569">2. List snapshots under</text>
<text text-anchor="start" x="1397" y="-518.8" font-family="Arial" font-size="24.00" fill="#475569">v1/ws1/wf</text>
<text text-anchor="start" x="1374" y="-498.8" font-family="Arial" font-size="19.00" fill="#475569">[SSH + zfs/midclt]</text>
</g>
</g>
</svg>
