<?xml version="1.0" encoding="UTF-8" standalone="no"?>
<!DOCTYPE svg PUBLIC "-//W3C//DTD SVG 1.1//EN"
 "http://www.w3.org/Graphics/SVG/1.1/DTD/svg11.dtd">
<!-- Generated by graphviz version 2.43.0 (0)
 -->
<!-- Title: %3 Pages: 1 -->
<svg width="2324pt" height="1461pt"
 viewBox="0.00 0.00 2324.34 1460.50" xmlns="http://www.w3.org/2000/svg" xmlns:xlink="http://www.w3.org/1999/xlink">
<g id="graph0" class="graph" transform="scale(1 1) rotate(0) translate(4 1456.5)">
<title>%3</title>
<polygon fill="white" stroke="transparent" points="-4,4 -4,-1456.5 2320.34,-1456.5 2320.34,4 -4,4"/>
<text text-anchor="start" x="770.67" y="-35.8" font-family="Arial" font-size="34.00">Dynamic View: WORKSTATION1 Workflow Backup</text>
<text text-anchor="start" x="610.17" y="-9.8" font-family="Arial" font-size="24.00">Targeted restore sequence from a ZFS snapshot; restores should stage first, then replace deliberately.</text>
<g id="clust1" class="cluster">
<title>cluster_2</title>
<polygon fill="none" stroke="#444444" points="1628,-863.5 1628,-1444.5 2308.34,-1444.5 2308.34,-863.5 1628,-863.5"/>
<text text-anchor="start" x="1777.17" y="-892.3" font-family="Arial" font-size="24.00" fill="#444444">WORKSTATION1 Workflow Backup</text>
<text text-anchor="start" x="1891.17" y="-872.3" font-family="Arial" font-size="19.00" fill="#444444">[Software System]</text>
</g>
<!-- 23 -->
<g id="23" class="node">
<title>23</title>
<polygon fill="#ecfeff" stroke="#0891b2" points="2283.5,-1191.5 2125.84,-1419.11 1810.5,-1419.11 1652.83,-1191.5 1810.5,-963.89 2125.84,-963.89 2283.5,-1191.5"/>
<text text-anchor="start" x="1853.67" y="-1282.8" font-family="Arial" font-size="34.00" fill="#111827">Backup Verifier</text>
<text text-anchor="start" x="1813.17" y="-1260.8" font-family="Arial" font-size="19.00" fill="#111827">[Container: Bash + systemctl + SSH]</text>
<text text-anchor="start" x="1844.17" y="-1223.8" font-family="Arial" font-size="24.00" fill="#111827">Operational verification</text>
<text text-anchor="start" x="1826.17" y="-1199.8" font-family="Arial" font-size="24.00" fill="#111827">script that checks the local</text>
<text text-anchor="start" x="1856.17" y="-1175.8" font-family="Arial" font-size="24.00" fill="#111827">timer, last status, run</text>
<text text-anchor="start" x="1826.17" y="-1151.8" font-family="Arial" font-size="24.00" fill="#111827">ledger, growth guard, NAS</text>
<text text-anchor="start" x="1804.17" y="-1127.8" font-family="Arial" font-size="24.00" fill="#111827">dataset, snapshots, manifests,</text>
<text text-anchor="start" x="1817.17" y="-1103.8" font-family="Arial" font-size="24.00" fill="#111827">integrity summary, snapshot</text>
<text text-anchor="start" x="1819.17" y="-1079.8" font-family="Arial" font-size="24.00" fill="#111827">tasks, and retired cron jobs.</text>
</g>
<!-- 1 -->
<g id="1" class="node">
<title>1</title>
<polygon fill="#dbeafe" stroke="#2563eb" points="451,-731 0,-731 0,-548 451,-548 451,-731"/>
<text text-anchor="start" x="166.5" y="-682.8" font-family="Arial" font-size="34.00" fill="#111827">Michael</text>
<text text-anchor="start" x="190" y="-660.8" font-family="Arial" font-size="19.00" fill="#111827">[Person]</text>
<text text-anchor="start" x="83.5" y="-623.8" font-family="Arial" font-size="24.00" fill="#111827">Sole operator who installs,</text>
<text text-anchor="start" x="112.5" y="-599.8" font-family="Arial" font-size="24.00" fill="#111827">verifies, and restores</text>
<text text-anchor="start" x="29" y="-575.8" font-family="Arial" font-size="24.00" fill="#111827">WORKSTATION1 workflow backups.</text>
</g>
<!-- 32 -->
<g id="32" class="node">
<title>32</title>
<polygon fill="#f3e8ff" stroke="#9333ea" points="1246,-772 806,-772 806,-507 1246,-507 1246,-772"/>
<text text-anchor="start" x="883.5" y="-723.8" font-family="Arial" font-size="34.00" fill="#111827">Operator Shell and</text>
<text text-anchor="start" x="922" y="-689.8" font-family="Arial" font-size="34.00" fill="#111827">Restore Tools</text>
<text text-anchor="start" x="949" y="-667.8" font-family="Arial" font-size="19.00" fill="#111827">[Software System]</text>
<text text-anchor="start" x="898.5" y="-630.8" font-family="Arial" font-size="24.00" fill="#111827">Local shell, rsync, SSH,</text>
<text text-anchor="start" x="850" y="-606.8" font-family="Arial" font-size="24.00" fill="#111827">Windows Previous Versions, and</text>
<text text-anchor="start" x="835" y="-582.8" font-family="Arial" font-size="24.00" fill="#111827">README/runbook commands used</text>
<text text-anchor="start" x="878.5" y="-558.8" font-family="Arial" font-size="24.00" fill="#111827">for verification and targeted</text>
<text text-anchor="start" x="978.5" y="-534.8" font-family="Arial" font-size="24.00" fill="#111827">restores.</text>
</g>
<!-- 1&#45;&gt;32 -->
<g id="34" class="edge">
<title>1&#45;&gt;32</title>
<path fill="none" stroke="#475569" stroke-dasharray="5,2" d="M451.05,-639.5C558.74,-639.5 687.56,-639.5 795.84,-639.5"/>
<polygon fill="#475569" stroke="#475569" points="795.92,-643 805.92,-639.5 795.92,-636 795.92,-643"/>
<polygon fill="white" stroke="transparent" points="487,-639.5 487,-699.5 770,-699.5 770,-639.5 487,-639.5"/>
<text text-anchor="start" x="491.5" y="-676.3" font-family="Arial" font-size="24.00" fill="#475569">1. Select snapshot before</text>
<text text-anchor="start" x="550" y="-650.3" font-family="Arial" font-size="24.00" fill="#475569">loss/corruption</text>
</g>
<!-- 28 -->
<g id="28" class="node">
<title>28</title>
<path fill="#fef3c7" stroke="#d97706" d="M2165.17,-802.22C2165.17,-822.17 2076.87,-838.38 1968.17,-838.38 1859.47,-838.38 1771.17,-822.17 1771.17,-802.22 1771.17,-802.22 1771.17,-476.78 1771.17,-476.78 1771.17,-456.83 1859.47,-440.62 1968.17,-440.62 2076.87,-440.62 2165.17,-456.83 2165.17,-476.78 2165.17,-476.78 2165.17,-802.22 2165.17,-802.22"/>
<path fill="none" stroke="#d97706" d="M2165.17,-802.22C2165.17,-782.26 2076.87,-766.06 1968.17,-766.06 1859.47,-766.06 1771.17,-782.26 1771.17,-802.22"/>
<text text-anchor="start" x="1837.17" y="-735.8" font-family="Arial" font-size="34.00" fill="#111827">TrueNAS Backup</text>
<text text-anchor="start" x="1909.17" y="-701.8" font-family="Arial" font-size="34.00" fill="#111827">Dataset</text>
<text text-anchor="start" x="1891.17" y="-679.8" font-family="Arial" font-size="19.00" fill="#111827">[Software System]</text>
<text text-anchor="start" x="1800.17" y="-642.8" font-family="Arial" font-size="24.00" fill="#111827">Configured encrypted TrueNAS</text>
<text text-anchor="start" x="1826.67" y="-618.8" font-family="Arial" font-size="24.00" fill="#111827">dataset with current mirror</text>
<text text-anchor="start" x="1818.67" y="-594.8" font-family="Arial" font-size="24.00" fill="#111827">tree, manifests, SMB share,</text>
<text text-anchor="start" x="1819.67" y="-570.8" font-family="Arial" font-size="24.00" fill="#111827">restore checksum manifest,</text>
<text text-anchor="start" x="1817.67" y="-546.8" font-family="Arial" font-size="24.00" fill="#111827">refquota, and ZFS snapshot</text>
<text text-anchor="start" x="1929.67" y="-522.8" font-family="Arial" font-size="24.00" fill="#111827">history.</text>
</g>
<!-- 29 -->
<g id="29" class="node">
<title>29</title>
<polygon fill="#f3e8ff" stroke="#9333ea" points="2170.17,-369 1766.17,-369 1766.17,-80 2170.17,-80 2170.17,-369"/>
<text text-anchor="start" x="1807.17" y="-320.8" font-family="Arial" font-size="34.00" fill="#111827">TrueNAS Middleware</text>
<text text-anchor="start" x="1795.17" y="-286.8" font-family="Arial" font-size="34.00" fill="#111827">and ZFS Control Plane</text>
<text text-anchor="start" x="1891.17" y="-264.8" font-family="Arial" font-size="19.00" fill="#111827">[Software System]</text>
<text text-anchor="start" x="1820.67" y="-227.8" font-family="Arial" font-size="24.00" fill="#111827">Configured admin SSH and</text>
<text text-anchor="start" x="1815.67" y="-203.8" font-family="Arial" font-size="24.00" fill="#111827">middleware surface used for</text>
<text text-anchor="start" x="1812.67" y="-179.8" font-family="Arial" font-size="24.00" fill="#111827">ZFS properties, runtime&#45;user</text>
<text text-anchor="start" x="1818.17" y="-155.8" font-family="Arial" font-size="24.00" fill="#111827">setup, snapshot tasks, SMB</text>
<text text-anchor="start" x="1837.67" y="-131.8" font-family="Arial" font-size="24.00" fill="#111827">share configuration, and</text>
<text text-anchor="start" x="1906.67" y="-107.8" font-family="Arial" font-size="24.00" fill="#111827">verification.</text>
</g>
<!-- 32&#45;&gt;23 -->
<g id="36" class="edge">
<title>32&#45;&gt;23</title>
<path fill="none" stroke="#475569" stroke-dasharray="5,2" d="M1246.24,-768.22C1392.81,-854.28 1585.39,-967.34 1734.63,-1054.97"/>
<polygon fill="#475569" stroke="#475569" points="1733.1,-1058.13 1743.5,-1060.18 1736.64,-1052.09 1733.1,-1058.13"/>
<polygon fill="white" stroke="transparent" points="1318,-980.5 1318,-1055.5 1581,-1055.5 1581,-980.5 1318,-980.5"/>
<text text-anchor="start" x="1322.5" y="-1032.8" font-family="Arial" font-size="24.00" fill="#475569">5. Run verify&#45;backup.sh</text>
<text text-anchor="start" x="1345" y="-1008.8" font-family="Arial" font-size="24.00" fill="#475569">after timer resumes</text>
<text text-anchor="start" x="1424.5" y="-988.8" font-family="Arial" font-size="19.00" fill="#475569">[shell]</text>
</g>
<!-- 32&#45;&gt;28 -->
<g id="38" class="edge">
<title>32&#45;&gt;28</title>
<path fill="none" stroke="#475569" stroke-dasharray="5,2" d="M1246.06,-650.48C1258.22,-650.88 1270.26,-651.22 1282,-651.5 1430.85,-655 1468.13,-654.05 1617,-651.5 1663.56,-650.7 1713.59,-649.31 1760.85,-647.75"/>
<polygon fill="#475569" stroke="#475569" points="1761.01,-651.24 1770.88,-647.41 1760.77,-644.25 1761.01,-651.24"/>
<polygon fill="white" stroke="transparent" points="1282,-654.5 1282,-753.5 1617,-753.5 1617,-654.5 1282,-654.5"/>
<text text-anchor="start" x="1359.5" y="-730.8" font-family="Arial" font-size="24.00" fill="#475569">3. Copy selected</text>
<text text-anchor="start" x="1323.5" y="-706.8" font-family="Arial" font-size="24.00" fill="#475569">.zfs/snapshot/.../current</text>
<text text-anchor="start" x="1315.5" y="-682.8" font-family="Arial" font-size="24.00" fill="#475569">path to restore candidate</text>
<text text-anchor="start" x="1286.5" y="-662.8" font-family="Arial" font-size="19.00" fill="#475569">[SSH rsync or SMB Previous Versions]</text>
</g>
<!-- 32&#45;&gt;28 -->
<g id="38" class="edge">
<title>32&#45;&gt;28</title>
<path fill="none" stroke="#475569" stroke-dasharray="5,2" d="M1246.14,-543.08C1258.14,-539.75 1270.14,-536.85 1282,-534.5 1428.06,-505.61 1469.69,-512.89 1617,-534.5 1664.44,-541.46 1714.37,-553.46 1761.2,-566.91"/>
<polygon fill="#475569" stroke="#475569" points="1760.25,-570.28 1770.83,-569.71 1762.21,-563.56 1760.25,-570.28"/>
<polygon fill="white" stroke="transparent" points="1282,-534.5 1282,-633.5 1617,-633.5 1617,-534.5 1282,-534.5"/>
<text text-anchor="start" x="1355" y="-610.8" font-family="Arial" font-size="24.00" fill="#475569">4. Read snapshot</text>
<text text-anchor="start" x="1332" y="-586.8" font-family="Arial" font-size="24.00" fill="#475569">integrity&#45;manifest.json</text>
<text text-anchor="start" x="1311.5" y="-562.8" font-family="Arial" font-size="24.00" fill="#475569">for checksum comparison</text>
<text text-anchor="start" x="1286.5" y="-542.8" font-family="Arial" font-size="19.00" fill="#475569">[SSH rsync or SMB Previous Versions]</text>
</g>
<!-- 32&#45;&gt;29 -->
<g id="37" class="edge">
<title>32&#45;&gt;29</title>
<path fill="none" stroke="#475569" stroke-dasharray="5,2" d="M1161.41,-506.87C1198.26,-475.81 1239.76,-445.21 1282,-422.5 1430.84,-342.5 1615.71,-291.52 1755.9,-261.36"/>
<polygon fill="#475569" stroke="#475569" points="1756.86,-264.74 1765.91,-259.23 1755.4,-257.89 1756.86,-264.74"/>
<polygon fill="white" stroke="transparent" points="1303,-422.5 1303,-497.5 1596,-497.5 1596,-422.5 1303,-422.5"/>
<text text-anchor="start" x="1324.5" y="-474.8" font-family="Arial" font-size="24.00" fill="#475569">2. List snapshots under</text>
<text text-anchor="start" x="1307.5" y="-450.8" font-family="Arial" font-size="24.00" fill="#475569">configured backup dataset</text>
<text text-anchor="start" x="1345.5" y="-430.8" font-family="Arial" font-size="19.00" fill="#475569">[admin SSH + zfs/midclt]</text>
</g>
</g>
</svg>
