<?xml version="1.0" encoding="UTF-8" standalone="no"?>
<!DOCTYPE svg PUBLIC "-//W3C//DTD SVG 1.1//EN"
 "http://www.w3.org/Graphics/SVG/1.1/DTD/svg11.dtd">
<!-- Generated by graphviz version 2.43.0 (0)
 -->
<!-- Title: %3 Pages: 1 -->
<svg width="2320pt" height="2933pt"
 viewBox="0.00 0.00 2320.48 2933.49" xmlns="http://www.w3.org/2000/svg" xmlns:xlink="http://www.w3.org/1999/xlink">
<g id="graph0" class="graph" transform="scale(1 1) rotate(0) translate(4 2929.49)">
<title>%3</title>
<polygon fill="white" stroke="transparent" points="-4,4 -4,-2929.49 2316.48,-2929.49 2316.48,4 -4,4"/>
<text text-anchor="start" x="768.74" y="-35.8" font-family="Arial" font-size="34.00">Dynamic View: WORKSTATION1 Workflow Backup</text>
<text text-anchor="start" x="264.74" y="-9.8" font-family="Arial" font-size="24.00">Second half of a successful hourly run: WSL and Windows mirroring, post&#45;write guard, ledger completion, NAS manifest publication, and restore checksum generation.</text>
<g id="clust1" class="cluster">
<title>cluster_2</title>
<polygon fill="none" stroke="#444444" points="8,-778.49 8,-2917.49 1546.48,-2917.49 1546.48,-778.49 8,-778.49"/>
<text text-anchor="start" x="586.24" y="-807.29" font-family="Arial" font-size="24.00" fill="#444444">WORKSTATION1 Workflow Backup</text>
<text text-anchor="start" x="700.24" y="-787.29" font-family="Arial" font-size="19.00" fill="#444444">[Software System]</text>
</g>
<!-- 17 -->
<g id="17" class="node">
<title>17</title>
<polygon fill="#ecfeff" stroke="#0891b2" points="1476.41,-2148.49 1314.82,-2404.12 991.66,-2404.12 830.07,-2148.49 991.66,-1892.87 1314.82,-1892.87 1476.41,-2148.49"/>
<text text-anchor="start" x="984.24" y="-2256.79" font-family="Arial" font-size="34.00" fill="#111827">Windows Critical Sync</text>
<text text-anchor="start" x="1103.24" y="-2222.79" font-family="Arial" font-size="34.00" fill="#111827">Helper</text>
<text text-anchor="start" x="986.24" y="-2200.79" font-family="Arial" font-size="19.00" fill="#111827">[Container: PowerShell + robocopy.exe]</text>
<text text-anchor="start" x="1007.24" y="-2163.79" font-family="Arial" font-size="24.00" fill="#111827">PowerShell script launched</text>
<text text-anchor="start" x="1047.24" y="-2139.79" font-family="Arial" font-size="24.00" fill="#111827">from WSL that uses</text>
<text text-anchor="start" x="1032.24" y="-2115.79" font-family="Arial" font-size="24.00" fill="#111827">robocopy.exe to mirror</text>
<text text-anchor="start" x="1019.24" y="-2091.79" font-family="Arial" font-size="24.00" fill="#111827">selected Windows profile</text>
<text text-anchor="start" x="1009.24" y="-2067.79" font-family="Arial" font-size="24.00" fill="#111827">directories/files to the SMB</text>
<text text-anchor="start" x="1001.74" y="-2043.79" font-family="Arial" font-size="24.00" fill="#111827">share and writes a Windows</text>
<text text-anchor="start" x="1075.74" y="-2019.79" font-family="Arial" font-size="24.00" fill="#111827">sync manifest.</text>
</g>
<!-- 27 -->
<g id="27" class="node">
<title>27</title>
<path fill="#fef3c7" stroke="#d97706" d="M2312.48,-2324.71C2312.48,-2346.32 2219.25,-2363.87 2104.48,-2363.87 1989.71,-2363.87 1896.48,-2346.32 1896.48,-2324.71 1896.48,-2324.71 1896.48,-1972.28 1896.48,-1972.28 1896.48,-1950.67 1989.71,-1933.12 2104.48,-1933.12 2219.25,-1933.12 2312.48,-1950.67 2312.48,-1972.28 2312.48,-1972.28 2312.48,-2324.71 2312.48,-2324.71"/>
<path fill="none" stroke="#d97706" d="M2312.48,-2324.71C2312.48,-2303.1 2219.25,-2285.55 2104.48,-2285.55 1989.71,-2285.55 1896.48,-2303.1 1896.48,-2324.71"/>
<text text-anchor="start" x="1960.48" y="-2256.79" font-family="Arial" font-size="34.00" fill="#111827">Windows Workflow</text>
<text text-anchor="start" x="2041.98" y="-2222.79" font-family="Arial" font-size="34.00" fill="#111827">Sources</text>
<text text-anchor="start" x="2027.48" y="-2200.79" font-family="Arial" font-size="19.00" fill="#111827">[Software System]</text>
<text text-anchor="start" x="1940.98" y="-2163.79" font-family="Arial" font-size="24.00" fill="#111827">Selected Windows user&#45;profile</text>
<text text-anchor="start" x="1939.48" y="-2139.79" font-family="Arial" font-size="24.00" fill="#111827">artifacts: Desktop, Documents,</text>
<text text-anchor="start" x="1988.98" y="-2115.79" font-family="Arial" font-size="24.00" fill="#111827">Downloads, Windows</text>
<text text-anchor="start" x="1954.48" y="-2091.79" font-family="Arial" font-size="24.00" fill="#111827">.ssh/.wslconfig, Terminal/VS</text>
<text text-anchor="start" x="1925.48" y="-2067.79" font-family="Arial" font-size="24.00" fill="#111827">Code/PowerShell config, Chrome</text>
<text text-anchor="start" x="1947.98" y="-2043.79" font-family="Arial" font-size="24.00" fill="#111827">profile metadata, and Startup</text>
<text text-anchor="start" x="2064.48" y="-2019.79" font-family="Arial" font-size="24.00" fill="#111827">entries.</text>
</g>
<!-- 17&#45;&gt;27 -->
<g id="57" class="edge">
<title>17&#45;&gt;27</title>
<path fill="none" stroke="#475569" stroke-dasharray="5,2" d="M1476.6,-2148.49C1611.63,-2148.49 1765.06,-2148.49 1886.32,-2148.49"/>
<polygon fill="#475569" stroke="#475569" points="1886.47,-2151.99 1896.47,-2148.49 1886.47,-2144.99 1886.47,-2151.99"/>
<polygon fill="white" stroke="transparent" points="1561.98,-2148.49 1561.98,-2223.49 1855.98,-2223.49 1855.98,-2148.49 1561.98,-2148.49"/>
<text text-anchor="start" x="1565.98" y="-2200.79" font-family="Arial" font-size="24.00" fill="#475569">4. Read selected Windows</text>
<text text-anchor="start" x="1666.48" y="-2176.79" font-family="Arial" font-size="24.00" fill="#475569">artifacts</text>
<text text-anchor="start" x="1646.98" y="-2156.79" font-family="Arial" font-size="19.00" fill="#475569">[robocopy.exe]</text>
</g>
<!-- 28 -->
<g id="28" class="node">
<title>28</title>
<path fill="#fef3c7" stroke="#d97706" d="M2301.48,-1136.21C2301.48,-1156.16 2213.18,-1172.37 2104.48,-1172.37 1995.78,-1172.37 1907.48,-1156.16 1907.48,-1136.21 1907.48,-1136.21 1907.48,-810.78 1907.48,-810.78 1907.48,-790.83 1995.78,-774.62 2104.48,-774.62 2213.18,-774.62 2301.48,-790.83 2301.48,-810.78 2301.48,-810.78 2301.48,-1136.21 2301.48,-1136.21"/>
<path fill="none" stroke="#d97706" d="M2301.48,-1136.21C2301.48,-1116.26 2213.18,-1100.05 2104.48,-1100.05 1995.78,-1100.05 1907.48,-1116.26 1907.48,-1136.21"/>
<text text-anchor="start" x="1973.48" y="-1069.79" font-family="Arial" font-size="34.00" fill="#111827">TrueNAS Backup</text>
<text text-anchor="start" x="2045.48" y="-1035.79" font-family="Arial" font-size="34.00" fill="#111827">Dataset</text>
<text text-anchor="start" x="2027.48" y="-1013.79" font-family="Arial" font-size="19.00" fill="#111827">[Software System]</text>
<text text-anchor="start" x="1936.48" y="-976.79" font-family="Arial" font-size="24.00" fill="#111827">Configured encrypted TrueNAS</text>
<text text-anchor="start" x="1962.98" y="-952.79" font-family="Arial" font-size="24.00" fill="#111827">dataset with current mirror</text>
<text text-anchor="start" x="1954.98" y="-928.79" font-family="Arial" font-size="24.00" fill="#111827">tree, manifests, SMB share,</text>
<text text-anchor="start" x="1955.98" y="-904.79" font-family="Arial" font-size="24.00" fill="#111827">restore checksum manifest,</text>
<text text-anchor="start" x="1953.98" y="-880.79" font-family="Arial" font-size="24.00" fill="#111827">refquota, and ZFS snapshot</text>
<text text-anchor="start" x="2065.98" y="-856.79" font-family="Arial" font-size="24.00" fill="#111827">history.</text>
</g>
<!-- 17&#45;&gt;28 -->
<g id="59" class="edge">
<title>17&#45;&gt;28</title>
<path fill="none" stroke="#475569" stroke-dasharray="5,2" d="M1381.4,-1997.97C1438.2,-1955.46 1496.98,-1906.94 1546.48,-1856.49 1744.06,-1655.11 1907.3,-1372.18 2004.9,-1181.32"/>
<polygon fill="#475569" stroke="#475569" points="2008.08,-1182.8 2009.5,-1172.3 2001.84,-1179.62 2008.08,-1182.8"/>
<polygon fill="white" stroke="transparent" points="1565.98,-1835.49 1565.98,-1910.49 1851.98,-1910.49 1851.98,-1835.49 1565.98,-1835.49"/>
<text text-anchor="start" x="1569.98" y="-1887.79" font-family="Arial" font-size="24.00" fill="#475569">5. Mirror Windows current</text>
<text text-anchor="start" x="1614.98" y="-1863.79" font-family="Arial" font-size="24.00" fill="#475569">tree and manifest</text>
<text text-anchor="start" x="1656.48" y="-1843.79" font-family="Arial" font-size="19.00" fill="#475569">[SMB share]</text>
</g>
<!-- 18 -->
<g id="18" class="node">
<title>18</title>
<polygon fill="#ecfeff" stroke="#0891b2" points="1521.72,-2684.49 1337.48,-2892.91 969,-2892.91 784.76,-2684.49 969,-2476.08 1337.48,-2476.08 1521.72,-2684.49"/>
<text text-anchor="start" x="1006.74" y="-2763.79" font-family="Arial" font-size="34.00" fill="#111827">NAS Growth Guard</text>
<text text-anchor="start" x="956.74" y="-2741.79" font-family="Arial" font-size="19.00" fill="#111827">[Container: Bash + NAS sudo helper + zfs CLI]</text>
<text text-anchor="start" x="977.24" y="-2704.79" font-family="Arial" font-size="24.00" fill="#111827">Read&#45;only NAS&#45;side ZFS budget</text>
<text text-anchor="start" x="1047.74" y="-2680.79" font-family="Arial" font-size="24.00" fill="#111827">check that enforces</text>
<text text-anchor="start" x="996.74" y="-2656.79" font-family="Arial" font-size="24.00" fill="#111827">dataset&#45;used, snapshot&#45;held,</text>
<text text-anchor="start" x="1053.74" y="-2632.79" font-family="Arial" font-size="24.00" fill="#111827">availability&#45;dataset</text>
<text text-anchor="start" x="982.24" y="-2608.79" font-family="Arial" font-size="24.00" fill="#111827">free&#45;space, and snapshot&#45;count</text>
<text text-anchor="start" x="1021.74" y="-2584.79" font-family="Arial" font-size="24.00" fill="#111827">limits before/after writes.</text>
</g>
<!-- 29 -->
<g id="29" class="node">
<title>29</title>
<polygon fill="#f3e8ff" stroke="#9333ea" points="2306.48,-2828.99 1902.48,-2828.99 1902.48,-2539.99 2306.48,-2539.99 2306.48,-2828.99"/>
<text text-anchor="start" x="1943.48" y="-2780.79" font-family="Arial" font-size="34.00" fill="#111827">TrueNAS Middleware</text>
<text text-anchor="start" x="1931.48" y="-2746.79" font-family="Arial" font-size="34.00" fill="#111827">and ZFS Control Plane</text>
<text text-anchor="start" x="2027.48" y="-2724.79" font-family="Arial" font-size="19.00" fill="#111827">[Software System]</text>
<text text-anchor="start" x="1956.98" y="-2687.79" font-family="Arial" font-size="24.00" fill="#111827">Configured admin SSH and</text>
<text text-anchor="start" x="1951.98" y="-2663.79" font-family="Arial" font-size="24.00" fill="#111827">middleware surface used for</text>
<text text-anchor="start" x="1948.98" y="-2639.79" font-family="Arial" font-size="24.00" fill="#111827">ZFS properties, runtime&#45;user</text>
<text text-anchor="start" x="1954.48" y="-2615.79" font-family="Arial" font-size="24.00" fill="#111827">setup, snapshot tasks, SMB</text>
<text text-anchor="start" x="1973.98" y="-2591.79" font-family="Arial" font-size="24.00" fill="#111827">share configuration, and</text>
<text text-anchor="start" x="2042.98" y="-2567.79" font-family="Arial" font-size="24.00" fill="#111827">verification.</text>
</g>
<!-- 18&#45;&gt;29 -->
<g id="43" class="edge">
<title>18&#45;&gt;29</title>
<path fill="none" stroke="#475569" stroke-dasharray="5,2" d="M1521.58,-2684.49C1647.14,-2684.49 1783.27,-2684.49 1892.27,-2684.49"/>
<polygon fill="#475569" stroke="#475569" points="1892.4,-2687.99 1902.4,-2684.49 1892.4,-2680.99 1892.4,-2687.99"/>
<polygon fill="white" stroke="transparent" points="1557.48,-2684.49 1557.48,-2735.49 1860.48,-2735.49 1860.48,-2684.49 1557.48,-2684.49"/>
<text text-anchor="start" x="1561.98" y="-2712.79" font-family="Arial" font-size="24.00" fill="#475569">7. Read ZFS budget values</text>
<text text-anchor="start" x="1611.48" y="-2692.79" font-family="Arial" font-size="19.00" fill="#475569">[NAS&#45;side helper + zfs]</text>
</g>
<!-- 19 -->
<g id="19" class="node">
<title>19</title>
<polygon fill="#ecfeff" stroke="#0891b2" points="1494.33,-1584.49 1323.79,-1820.43 982.69,-1820.43 812.15,-1584.49 982.69,-1348.56 1323.79,-1348.56 1494.33,-1584.49"/>
<text text-anchor="start" x="1052.24" y="-1680.79" font-family="Arial" font-size="34.00" fill="#111827">NAS Integrity</text>
<text text-anchor="start" x="1031.24" y="-1646.79" font-family="Arial" font-size="34.00" fill="#111827">Manifest Builder</text>
<text text-anchor="start" x="1022.74" y="-1624.79" font-family="Arial" font-size="19.00" fill="#111827">[Container: Python + SHA&#45;256]</text>
<text text-anchor="start" x="999.24" y="-1587.79" font-family="Arial" font-size="24.00" fill="#111827">NAS&#45;side helper that hashes</text>
<text text-anchor="start" x="1010.24" y="-1563.79" font-family="Arial" font-size="24.00" fill="#111827">restore&#45;critical current&#45;tree</text>
<text text-anchor="start" x="1052.24" y="-1539.79" font-family="Arial" font-size="24.00" fill="#111827">artifacts and writes</text>
<text text-anchor="start" x="973.24" y="-1515.79" font-family="Arial" font-size="24.00" fill="#111827">_manifests/integrity&#45;manifest.json</text>
<text text-anchor="start" x="986.74" y="-1491.79" font-family="Arial" font-size="24.00" fill="#111827">for snapshot&#45;preserved restore</text>
<text text-anchor="start" x="1091.74" y="-1467.79" font-family="Arial" font-size="24.00" fill="#111827">verification.</text>
</g>
<!-- 19&#45;&gt;28 -->
<g id="62" class="edge">
<title>19&#45;&gt;28</title>
<path fill="none" stroke="#475569" stroke-dasharray="5,2" d="M1386.45,-1435.03C1543.21,-1334.13 1748.19,-1202.18 1898.82,-1105.23"/>
<polygon fill="#475569" stroke="#475569" points="1900.79,-1108.12 1907.31,-1099.77 1897,-1102.24 1900.79,-1108.12"/>
<polygon fill="white" stroke="transparent" points="1586.98,-1324.49 1586.98,-1399.49 1830.98,-1399.49 1830.98,-1324.49 1586.98,-1324.49"/>
<text text-anchor="start" x="1660.48" y="-1376.79" font-family="Arial" font-size="24.00" fill="#475569">11. Write</text>
<text text-anchor="start" x="1590.98" y="-1352.79" font-family="Arial" font-size="24.00" fill="#475569">integrity&#45;manifest.json</text>
<text text-anchor="start" x="1611.48" y="-1332.79" font-family="Arial" font-size="19.00" fill="#475569">[SHA&#45;256 + filesystem]</text>
</g>
<!-- 25 -->
<g id="25" class="node">
<title>25</title>
<path fill="#fef3c7" stroke="#d97706" d="M1412.74,-1240.21C1412.74,-1260.16 1296.43,-1276.37 1153.24,-1276.37 1010.05,-1276.37 893.74,-1260.16 893.74,-1240.21 893.74,-1240.21 893.74,-914.78 893.74,-914.78 893.74,-894.83 1010.05,-878.62 1153.24,-878.62 1296.43,-878.62 1412.74,-894.83 1412.74,-914.78 1412.74,-914.78 1412.74,-1240.21 1412.74,-1240.21"/>
<path fill="none" stroke="#d97706" d="M1412.74,-1240.21C1412.74,-1220.26 1296.43,-1204.05 1153.24,-1204.05 1010.05,-1204.05 893.74,-1220.26 893.74,-1240.21"/>
<text text-anchor="start" x="986.24" y="-1173.79" font-family="Arial" font-size="34.00" fill="#111827">Run Ledger and Local</text>
<text text-anchor="start" x="1113.24" y="-1139.79" font-family="Arial" font-size="34.00" fill="#111827">State</text>
<text text-anchor="start" x="926.24" y="-1117.79" font-family="Arial" font-size="19.00" fill="#111827">[Container: SQLite + JSON + logs on WSL filesystem]</text>
<text text-anchor="start" x="1014.74" y="-1080.79" font-family="Arial" font-size="24.00" fill="#111827">Local status, pruned logs,</text>
<text text-anchor="start" x="1004.74" y="-1056.79" font-family="Arial" font-size="24.00" fill="#111827">SQLite run ledger, exported</text>
<text text-anchor="start" x="1016.74" y="-1032.79" font-family="Arial" font-size="24.00" fill="#111827">run&#45;history JSON, SQLite</text>
<text text-anchor="start" x="989.24" y="-1008.79" font-family="Arial" font-size="24.00" fill="#111827">snapshot cache, and Windows</text>
<text text-anchor="start" x="1037.24" y="-984.79" font-family="Arial" font-size="24.00" fill="#111827">manifest cache under</text>
<text text-anchor="start" x="922.74" y="-960.79" font-family="Arial" font-size="24.00" fill="#111827">~/.local/state/workstation&#45;workflow&#45;backup.</text>
</g>
<!-- 4 -->
<g id="4" class="node">
<title>4</title>
<polygon fill="#e0f2fe" stroke="#0284c7" points="413,-1240.99 33,-1240.99 33,-913.99 413,-913.99 413,-1240.99"/>
<text text-anchor="start" x="66.5" y="-1192.79" font-family="Arial" font-size="34.00" fill="#111827">Backup Orchestrator</text>
<text text-anchor="start" x="149.5" y="-1170.79" font-family="Arial" font-size="19.00" fill="#111827">[Container: Bash]</text>
<text text-anchor="start" x="78.5" y="-1133.79" font-family="Arial" font-size="24.00" fill="#111827">scripts/workflow&#45;backup.sh</text>
<text text-anchor="start" x="69.5" y="-1109.79" font-family="Arial" font-size="24.00" fill="#111827">coordinates one backup run:</text>
<text text-anchor="start" x="68" y="-1085.79" font-family="Arial" font-size="24.00" fill="#111827">locking, log pruning, pre/post</text>
<text text-anchor="start" x="83" y="-1061.79" font-family="Arial" font-size="24.00" fill="#111827">guard checks, WSL rsync,</text>
<text text-anchor="start" x="72" y="-1037.79" font-family="Arial" font-size="24.00" fill="#111827">SQLite snapshots, Windows</text>
<text text-anchor="start" x="103" y="-1013.79" font-family="Arial" font-size="24.00" fill="#111827">sync, strict final ledger</text>
<text text-anchor="start" x="99.5" y="-989.79" font-family="Arial" font-size="24.00" fill="#111827">updates, NAS manifest</text>
<text text-anchor="start" x="138" y="-965.79" font-family="Arial" font-size="24.00" fill="#111827">publication, and</text>
<text text-anchor="start" x="62" y="-941.79" font-family="Arial" font-size="24.00" fill="#111827">restore&#45;checksum generation.</text>
</g>
<!-- 4&#45;&gt;17 -->
<g id="56" class="edge">
<title>4&#45;&gt;17</title>
<path fill="none" stroke="#475569" stroke-dasharray="5,2" d="M314.44,-1241.08C353.54,-1308.38 401.24,-1386.18 449,-1453.49 583.95,-1643.68 618.2,-1693.52 785,-1856.49 828.05,-1898.55 876.84,-1940.66 924.47,-1979.28"/>
<polygon fill="#475569" stroke="#475569" points="922.44,-1982.13 932.41,-1985.7 926.83,-1976.69 922.44,-1982.13"/>
<polygon fill="white" stroke="transparent" points="472,-1818.49 472,-1893.49 726,-1893.49 726,-1818.49 472,-1818.49"/>
<text text-anchor="start" x="481.5" y="-1870.79" font-family="Arial" font-size="24.00" fill="#475569">3. Launch PowerShell</text>
<text text-anchor="start" x="511.5" y="-1846.79" font-family="Arial" font-size="24.00" fill="#475569">robocopy helper</text>
<text text-anchor="start" x="476" y="-1826.79" font-family="Arial" font-size="19.00" fill="#475569">[PowerShell via WSL interop]</text>
</g>
<!-- 4&#45;&gt;18 -->
<g id="42" class="edge">
<title>4&#45;&gt;18</title>
<path fill="none" stroke="#475569" stroke-dasharray="5,2" d="M252.9,-1241.12C286.72,-1412.95 350.89,-1688.62 449,-1911.49 561.22,-2166.41 590.09,-2241.53 785,-2440.49 819.4,-2475.61 859.65,-2508.46 900.65,-2537.98"/>
<polygon fill="#475569" stroke="#475569" points="898.69,-2540.87 908.86,-2543.83 902.75,-2535.18 898.69,-2540.87"/>
<polygon fill="white" stroke="transparent" points="468.5,-2394.49 468.5,-2445.49 729.5,-2445.49 729.5,-2394.49 468.5,-2394.49"/>
<text text-anchor="start" x="473" y="-2422.79" font-family="Arial" font-size="24.00" fill="#475569">6. Run post&#45;write guard</text>
<text text-anchor="start" x="545" y="-2402.79" font-family="Arial" font-size="19.00" fill="#475569">[subprocess]</text>
</g>
<!-- 4&#45;&gt;19 -->
<g id="61" class="edge">
<title>4&#45;&gt;19</title>
<path fill="none" stroke="#475569" stroke-dasharray="5,2" d="M413.24,-1180.86C553.33,-1257.37 745.65,-1362.42 898.98,-1446.17"/>
<polygon fill="#475569" stroke="#475569" points="897.64,-1449.42 908.1,-1451.14 901,-1443.28 897.64,-1449.42"/>
<polygon fill="white" stroke="transparent" points="449,-1360.49 449,-1435.49 749,-1435.49 749,-1360.49 449,-1360.49"/>
<text text-anchor="start" x="453" y="-1412.79" font-family="Arial" font-size="24.00" fill="#475569">10. Build restore checksum</text>
<text text-anchor="start" x="553" y="-1388.79" font-family="Arial" font-size="24.00" fill="#475569">manifest</text>
<text text-anchor="start" x="532.5" y="-1368.79" font-family="Arial" font-size="19.00" fill="#475569">[restricted SSH]</text>
</g>
<!-- 4&#45;&gt;25 -->
<g id="41" class="edge">
<title>4&#45;&gt;25</title>
<path fill="none" stroke="#475569" stroke-dasharray="5,2" d="M413.24,-1077.49C548.51,-1077.49 732.47,-1077.49 883.01,-1077.49"/>
<polygon fill="#475569" stroke="#475569" points="883.33,-1080.99 893.33,-1077.49 883.33,-1073.99 883.33,-1080.99"/>
<polygon fill="white" stroke="transparent" points="450,-1077.49 450,-1152.49 748,-1152.49 748,-1077.49 450,-1077.49"/>
<text text-anchor="start" x="454" y="-1129.79" font-family="Arial" font-size="24.00" fill="#475569">8. Record completed event</text>
<text text-anchor="start" x="502.5" y="-1105.79" font-family="Arial" font-size="24.00" fill="#475569">and export history</text>
<text text-anchor="start" x="512" y="-1085.79" font-family="Arial" font-size="19.00" fill="#475569">[filesystem + sqlite3]</text>
</g>
<!-- 26 -->
<g id="26" class="node">
<title>26</title>
<path fill="#fef3c7" stroke="#d97706" d="M1360.74,-558.28C1360.74,-574.19 1267.74,-587.12 1153.24,-587.12 1038.74,-587.12 945.74,-574.19 945.74,-558.28 945.74,-558.28 945.74,-298.71 945.74,-298.71 945.74,-282.8 1038.74,-269.87 1153.24,-269.87 1267.74,-269.87 1360.74,-282.8 1360.74,-298.71 1360.74,-298.71 1360.74,-558.28 1360.74,-558.28"/>
<path fill="none" stroke="#d97706" d="M1360.74,-558.28C1360.74,-542.36 1267.74,-529.44 1153.24,-529.44 1038.74,-529.44 945.74,-542.36 945.74,-558.28"/>
<text text-anchor="start" x="974.74" y="-495.79" font-family="Arial" font-size="34.00" fill="#111827">WSL Workflow Sources</text>
<text text-anchor="start" x="1076.24" y="-473.79" font-family="Arial" font-size="19.00" fill="#111827">[Software System]</text>
<text text-anchor="start" x="999.74" y="-436.79" font-family="Arial" font-size="24.00" fill="#111827">Workflow&#45;critical WSL paths:</text>
<text text-anchor="start" x="1008.24" y="-412.79" font-family="Arial" font-size="24.00" fill="#111827">~/repos, ~/.hermes, ~/.ssh,</text>
<text text-anchor="start" x="1041.74" y="-388.79" font-family="Arial" font-size="24.00" fill="#111827">systemd user config,</text>
<text text-anchor="start" x="996.74" y="-364.79" font-family="Arial" font-size="24.00" fill="#111827">lifelog/browser&#45;memory data,</text>
<text text-anchor="start" x="998.24" y="-340.79" font-family="Arial" font-size="24.00" fill="#111827">and optional brain&#45;code tree.</text>
</g>
<!-- 4&#45;&gt;26 -->
<g id="49" class="edge">
<title>4&#45;&gt;26</title>
<path fill="none" stroke="#475569" stroke-dasharray="5,2" d="M268.47,-913.99C302.8,-817.11 359.84,-699.24 449,-625.49 586.06,-512.14 784.06,-463.86 935.07,-443.38"/>
<polygon fill="#475569" stroke="#475569" points="935.95,-446.79 945.4,-442.01 935.03,-439.85 935.95,-446.79"/>
<polygon fill="white" stroke="transparent" points="453.5,-625.49 453.5,-676.49 744.5,-676.49 744.5,-625.49 453.5,-625.49"/>
<text text-anchor="start" x="458" y="-653.79" font-family="Arial" font-size="24.00" fill="#475569">1. Read WSL source trees</text>
<text text-anchor="start" x="548" y="-633.79" font-family="Arial" font-size="19.00" fill="#475569">[sudo rsync]</text>
</g>
<!-- 4&#45;&gt;28 -->
<g id="55" class="edge">
<title>4&#45;&gt;28</title>
<path fill="none" stroke="#475569" stroke-dasharray="5,2" d="M259.09,-913.93C292.67,-783.44 352.69,-600.48 449,-463.49 560.96,-304.24 602.01,-248.93 785,-182.49 1103.12,-67 1246.08,-26.62 1546.48,-182.49 1780.8,-304.08 1937.36,-574.54 2023.31,-765.23"/>
<polygon fill="#475569" stroke="#475569" points="2020.19,-766.84 2027.47,-774.54 2026.58,-763.98 2020.19,-766.84"/>
<polygon fill="white" stroke="transparent" points="1009.24,-182.49 1009.24,-233.49 1297.24,-233.49 1297.24,-182.49 1009.24,-182.49"/>
<text text-anchor="start" x="1013.24" y="-210.79" font-family="Arial" font-size="24.00" fill="#475569">2. Mirror WSL current tree</text>
<text text-anchor="start" x="1061.24" y="-190.79" font-family="Arial" font-size="19.00" fill="#475569">[restricted SSH rsync]</text>
</g>
<!-- 4&#45;&gt;28 -->
<g id="55" class="edge">
<title>4&#45;&gt;28</title>
<path fill="none" stroke="#475569" stroke-dasharray="5,2" d="M413.29,-941.3C517.51,-874.72 652.33,-801.71 785,-767.49 1112.71,-682.97 1213.34,-707.86 1546.48,-767.49 1666.67,-789.01 1794.86,-834.7 1897.92,-877.6"/>
<polygon fill="#475569" stroke="#475569" points="1896.61,-880.84 1907.19,-881.47 1899.31,-874.38 1896.61,-880.84"/>
<polygon fill="white" stroke="transparent" points="1034.24,-767.49 1034.24,-842.49 1272.24,-842.49 1272.24,-767.49 1034.24,-767.49"/>
<text text-anchor="start" x="1038.24" y="-819.79" font-family="Arial" font-size="24.00" fill="#475569">9. Publish _manifests</text>
<text text-anchor="start" x="1095.74" y="-795.79" font-family="Arial" font-size="24.00" fill="#475569">status files</text>
<text text-anchor="start" x="1061.24" y="-775.79" font-family="Arial" font-size="19.00" fill="#475569">[restricted SSH rsync]</text>
</g>
</g>
</svg>
