<?xml version="1.0" encoding="UTF-8" standalone="no"?>
<!DOCTYPE svg PUBLIC "-//W3C//DTD SVG 1.1//EN"
 "http://www.w3.org/Graphics/SVG/1.1/DTD/svg11.dtd">
<!-- Generated by graphviz version 2.43.0 (0)
 -->
<!-- Title: %3 Pages: 1 -->
<svg width="6897pt" height="2397pt"
 viewBox="0.00 0.00 6897.00 2396.50" xmlns="http://www.w3.org/2000/svg" xmlns:xlink="http://www.w3.org/1999/xlink">
<g id="graph0" class="graph" transform="scale(1 1) rotate(0) translate(4 2392.5)">
<title>%3</title>
<polygon fill="white" stroke="transparent" points="-4,4 -4,-2392.5 6893,-2392.5 6893,4 -4,4"/>
<text text-anchor="start" x="2734.5" y="-35.8" font-family="Arial" font-size="34.00">Deployment View: WORKSTATION1 Workflow Backup &#45; WORKSTATION1 local plus TrueNAS</text>
<text text-anchor="start" x="2866.5" y="-9.8" font-family="Arial" font-size="24.00">Deployment topology for the local WORKSTATION1 WSL/Windows backup automation and TrueNAS target.</text>
<g id="clust1" class="cluster">
<title>cluster_114</title>
<polygon fill="none" stroke="#444444" points="8,-1988.5 8,-2306.5 1416,-2306.5 1416,-1988.5 8,-1988.5"/>
<text text-anchor="start" x="588.5" y="-2017.3" font-family="Arial" font-size="24.00" fill="#444444">TrueNAS 10.99.98.221</text>
<text text-anchor="start" x="493" y="-1997.3" font-family="Arial" font-size="19.00" fill="#444444">[Deployment Node: TrueNAS SCALE + ZFS + SMB]</text>
</g>
<g id="clust2" class="cluster">
<title>cluster_118</title>
<polygon fill="none" stroke="#444444" points="1437,-2005.5 1437,-2289.5 1883,-2289.5 1883,-2005.5 1437,-2005.5"/>
<text text-anchor="start" x="1610" y="-2034.3" font-family="Arial" font-size="24.00" fill="#444444">Telegram</text>
<text text-anchor="start" x="1532.5" y="-2014.3" font-family="Arial" font-size="19.00" fill="#444444">[Deployment Node: SaaS API]</text>
</g>
<g id="clust3" class="cluster">
<title>cluster_85</title>
<polygon fill="none" stroke="#444444" points="1891,-88 1891,-2380.5 6881,-2380.5 6881,-88 1891,-88"/>
<text text-anchor="start" x="4291.5" y="-116.8" font-family="Arial" font-size="24.00" fill="#444444">WORKSTATION1</text>
<text text-anchor="start" x="4224" y="-96.8" font-family="Arial" font-size="19.00" fill="#444444">[Deployment Node: Windows + WSL2]</text>
</g>
<g id="clust4" class="cluster">
<title>cluster_109</title>
<polygon fill="none" stroke="#444444" points="5666,-856.38 5666,-1468.5 6856,-1468.5 6856,-856.38 5666,-856.38"/>
<text text-anchor="start" x="6148.5" y="-885.17" font-family="Arial" font-size="24.00" fill="#444444">Windows user profile</text>
<text text-anchor="start" x="6048.5" y="-865.17" font-family="Arial" font-size="19.00" fill="#444444">[Deployment Node: Windows profile + PowerShell]</text>
</g>
<g id="clust5" class="cluster">
<title>cluster_86</title>
<polygon fill="none" stroke="#444444" points="1916,-164 1916,-2355.5 5641,-2355.5 5641,-164 1916,-164"/>
<text text-anchor="start" x="3668.5" y="-192.8" font-family="Arial" font-size="24.00" fill="#444444">WSL2 Ubuntu&#45;22.04</text>
<text text-anchor="start" x="3588" y="-172.8" font-family="Arial" font-size="19.00" fill="#444444">[Deployment Node: Ubuntu + systemd &#45;&#45;user]</text>
</g>
<g id="clust6" class="cluster">
<title>cluster_103</title>
<polygon fill="none" stroke="#444444" points="4590,-240 4590,-738.38 5160,-738.38 5160,-240 4590,-240"/>
<text text-anchor="start" x="4774" y="-268.8" font-family="Arial" font-size="24.00" fill="#444444">Local backup state</text>
<text text-anchor="start" x="4723" y="-248.8" font-family="Arial" font-size="19.00" fill="#444444">[Deployment Node: WSL filesystem]</text>
</g>
<g id="clust7" class="cluster">
<title>cluster_87</title>
<polygon fill="none" stroke="#444444" points="4527,-923.33 4527,-2330.5 5326,-2330.5 5326,-923.33 4527,-923.33"/>
<text text-anchor="start" x="4846" y="-952.13" font-family="Arial" font-size="24.00" fill="#444444">systemd &#45;&#45;user</text>
<text text-anchor="start" x="4804.5" y="-932.13" font-family="Arial" font-size="19.00" fill="#444444">[Deployment Node: systemd]</text>
</g>
<g id="clust8" class="cluster">
<title>cluster_94</title>
<polygon fill="none" stroke="#444444" points="2300,-250.08 2300,-1440.74 4502,-1440.74 4502,-250.08 2300,-250.08"/>
<text text-anchor="start" x="3333.5" y="-278.88" font-family="Arial" font-size="24.00" fill="#444444">Repo scripts</text>
<text text-anchor="start" x="3178.5" y="-258.88" font-family="Arial" font-size="19.00" fill="#444444">[Deployment Node: Bash/Python/PowerShell source]</text>
</g>
<!-- 115 -->
<g id="115" class="node">
<title>115</title>
<polygon fill="#f8fafc" stroke="#64748b" points="1390.5,-2281.5 983.5,-2281.5 983.5,-2064.5 1390.5,-2064.5 1390.5,-2281.5"/>
<text text-anchor="start" x="1012.5" y="-2233.3" font-family="Arial" font-size="34.00" fill="#111827">Encrypted ZFS dataset</text>
<text text-anchor="start" x="1111.5" y="-2199.3" font-family="Arial" font-size="34.00" fill="#111827">v1/ws1/wf</text>
<text text-anchor="start" x="1044" y="-2177.3" font-family="Arial" font-size="19.00" fill="#111827">[Infrastructure Node: ZFS dataset]</text>
<text text-anchor="start" x="1077.5" y="-2140.3" font-family="Arial" font-size="24.00" fill="#111827">Backup current tree,</text>
<text text-anchor="start" x="1055.5" y="-2116.3" font-family="Arial" font-size="24.00" fill="#111827">manifests, and snapshot</text>
<text text-anchor="start" x="1030" y="-2092.3" font-family="Arial" font-size="24.00" fill="#111827">history under /mnt/v1/ws1/wf.</text>
</g>
<!-- 116 -->
<g id="116" class="node">
<title>116</title>
<polygon fill="#f8fafc" stroke="#64748b" points="911,-2264.5 525,-2264.5 525,-2081.5 911,-2081.5 911,-2264.5"/>
<text text-anchor="start" x="575.5" y="-2216.3" font-family="Arial" font-size="34.00" fill="#111827">SMB share ws1&#45;wf</text>
<text text-anchor="start" x="573.5" y="-2194.3" font-family="Arial" font-size="19.00" fill="#111827">[Infrastructure Node: Samba SMB]</text>
<text text-anchor="start" x="570" y="-2157.3" font-family="Arial" font-size="24.00" fill="#111827">Windows helper destination</text>
<text text-anchor="start" x="554" y="-2133.3" font-family="Arial" font-size="24.00" fill="#111827">with shadow&#45;copy support and</text>
<text text-anchor="start" x="579.5" y="-2109.3" font-family="Arial" font-size="24.00" fill="#111827">mangled names disabled.</text>
</g>
<!-- 117 -->
<g id="117" class="node">
<title>117</title>
<polygon fill="#f8fafc" stroke="#64748b" points="453,-2281.5 33,-2281.5 33,-2064.5 453,-2064.5 453,-2281.5"/>
<text text-anchor="start" x="109.5" y="-2233.3" font-family="Arial" font-size="34.00" fill="#111827">TrueNAS periodic</text>
<text text-anchor="start" x="128.5" y="-2199.3" font-family="Arial" font-size="34.00" fill="#111827">snapshot tasks</text>
<text text-anchor="start" x="62" y="-2177.3" font-family="Arial" font-size="19.00" fill="#111827">[Infrastructure Node: TrueNAS middleware]</text>
<text text-anchor="start" x="83.5" y="-2140.3" font-family="Arial" font-size="24.00" fill="#111827">wf&#45;h/wf&#45;d/wf&#45;w/wf&#45;m snapshot</text>
<text text-anchor="start" x="119.5" y="-2116.3" font-family="Arial" font-size="24.00" fill="#111827">tasks with 2d/2w/8w/1y</text>
<text text-anchor="start" x="195" y="-2092.3" font-family="Arial" font-size="24.00" fill="#111827">lifetimes.</text>
</g>
<!-- 119 -->
<g id="119" class="node">
<title>119</title>
<polygon fill="#f8fafc" stroke="#64748b" points="1857.5,-2264.5 1462.5,-2264.5 1462.5,-2081.5 1857.5,-2081.5 1857.5,-2264.5"/>
<text text-anchor="start" x="1528.5" y="-2216.3" font-family="Arial" font-size="34.00" fill="#111827">Telegram Bot API</text>
<text text-anchor="start" x="1538" y="-2194.3" font-family="Arial" font-size="19.00" fill="#111827">[Infrastructure Node: HTTPS]</text>
<text text-anchor="start" x="1491.5" y="-2157.3" font-family="Arial" font-size="24.00" fill="#111827">HTTPS sendMessage endpoint</text>
<text text-anchor="start" x="1543" y="-2133.3" font-family="Arial" font-size="24.00" fill="#111827">reached by the failure</text>
<text text-anchor="start" x="1620.5" y="-2109.3" font-family="Arial" font-size="24.00" fill="#111827">notifier.</text>
</g>
<!-- 110 -->
<g id="110" class="node">
<title>110</title>
<polygon fill="#ecfeff" stroke="#0891b2" points="6831.17,-1187.94 6669.58,-1443.57 6346.42,-1443.57 6184.83,-1187.94 6346.42,-932.31 6669.58,-932.31 6831.17,-1187.94"/>
<text text-anchor="start" x="6339" y="-1296.24" font-family="Arial" font-size="34.00" fill="#111827">Windows Critical Sync</text>
<text text-anchor="start" x="6458" y="-1262.24" font-family="Arial" font-size="34.00" fill="#111827">Helper</text>
<text text-anchor="start" x="6341" y="-1240.24" font-family="Arial" font-size="19.00" fill="#111827">[Container: PowerShell + robocopy.exe]</text>
<text text-anchor="start" x="6362" y="-1203.24" font-family="Arial" font-size="24.00" fill="#111827">PowerShell script launched</text>
<text text-anchor="start" x="6402" y="-1179.24" font-family="Arial" font-size="24.00" fill="#111827">from WSL that uses</text>
<text text-anchor="start" x="6387" y="-1155.24" font-family="Arial" font-size="24.00" fill="#111827">robocopy.exe to mirror</text>
<text text-anchor="start" x="6374" y="-1131.24" font-family="Arial" font-size="24.00" fill="#111827">selected Windows profile</text>
<text text-anchor="start" x="6364" y="-1107.24" font-family="Arial" font-size="24.00" fill="#111827">directories/files to the SMB</text>
<text text-anchor="start" x="6356.5" y="-1083.24" font-family="Arial" font-size="24.00" fill="#111827">share and writes a Windows</text>
<text text-anchor="start" x="6430.5" y="-1059.24" font-family="Arial" font-size="24.00" fill="#111827">sync manifest.</text>
</g>
<!-- 104 -->
<g id="104" class="node">
<title>104</title>
<path fill="#fef3c7" stroke="#d97706" d="M5134.5,-677.4C5134.5,-697.36 5018.19,-713.56 4875,-713.56 4731.81,-713.56 4615.5,-697.36 4615.5,-677.4 4615.5,-677.4 4615.5,-351.97 4615.5,-351.97 4615.5,-332.02 4731.81,-315.81 4875,-315.81 5018.19,-315.81 5134.5,-332.02 5134.5,-351.97 5134.5,-351.97 5134.5,-677.4 5134.5,-677.4"/>
<path fill="none" stroke="#d97706" d="M5134.5,-677.4C5134.5,-657.45 5018.19,-641.24 4875,-641.24 4731.81,-641.24 4615.5,-657.45 4615.5,-677.4"/>
<text text-anchor="start" x="4708" y="-610.99" font-family="Arial" font-size="34.00" fill="#111827">Run Ledger and Local</text>
<text text-anchor="start" x="4835" y="-576.99" font-family="Arial" font-size="34.00" fill="#111827">State</text>
<text text-anchor="start" x="4648" y="-554.99" font-family="Arial" font-size="19.00" fill="#111827">[Container: SQLite + JSON + logs on WSL filesystem]</text>
<text text-anchor="start" x="4717" y="-517.99" font-family="Arial" font-size="24.00" fill="#111827">Local status, logs, SQLite run</text>
<text text-anchor="start" x="4727" y="-493.99" font-family="Arial" font-size="24.00" fill="#111827">ledger, exported run&#45;history</text>
<text text-anchor="start" x="4708" y="-469.99" font-family="Arial" font-size="24.00" fill="#111827">JSON, SQLite snapshot cache,</text>
<text text-anchor="start" x="4717.5" y="-445.99" font-family="Arial" font-size="24.00" fill="#111827">and Windows manifest cache</text>
<text text-anchor="start" x="4843.5" y="-421.99" font-family="Arial" font-size="24.00" fill="#111827">under</text>
<text text-anchor="start" x="4644.5" y="-397.99" font-family="Arial" font-size="24.00" fill="#111827">~/.local/state/workstation&#45;workflow&#45;backup.</text>
</g>
<!-- 110&#45;&gt;104 -->
<g id="112" class="edge">
<title>110&#45;&gt;104</title>
<path fill="none" stroke="#475569" stroke-dasharray="5,2" d="M6316.48,-979.35C6265.72,-933.56 6208.39,-889.03 6149,-856.38 5828.86,-680.34 5412.82,-591.39 5144.83,-549.36"/>
<polygon fill="#475569" stroke="#475569" points="5144.98,-545.84 5134.56,-547.76 5143.91,-552.75 5144.98,-545.84"/>
<polygon fill="white" stroke="transparent" points="6133,-768.88 6133,-828.88 6424,-828.88 6424,-768.88 6133,-768.88"/>
<text text-anchor="start" x="6137.5" y="-805.67" font-family="Arial" font-size="24.00" fill="#475569">Leaves manifest cache for</text>
<text text-anchor="start" x="6182.5" y="-779.67" font-family="Arial" font-size="24.00" fill="#475569">ledger summaries</text>
</g>
<!-- 113 -->
<g id="113" class="node">
<title>113</title>
<polygon fill="#f8fafc" stroke="#64748b" points="6113,-1320.44 5691,-1320.44 5691,-1055.44 6113,-1055.44 6113,-1320.44"/>
<text text-anchor="start" x="5762" y="-1272.24" font-family="Arial" font-size="34.00" fill="#111827">Selected Windows</text>
<text text-anchor="start" x="5786" y="-1238.24" font-family="Arial" font-size="34.00" fill="#111827">source artifacts</text>
<text text-anchor="start" x="5786" y="-1216.24" font-family="Arial" font-size="19.00" fill="#111827">[Infrastructure Node: NTFS]</text>
<text text-anchor="start" x="5720" y="-1179.24" font-family="Arial" font-size="24.00" fill="#111827">Desktop, Documents, Downloads,</text>
<text text-anchor="start" x="5764.5" y="-1155.24" font-family="Arial" font-size="24.00" fill="#111827">.ssh, .wslconfig, Windows</text>
<text text-anchor="start" x="5730.5" y="-1131.24" font-family="Arial" font-size="24.00" fill="#111827">Terminal, VS Code, PowerShell,</text>
<text text-anchor="start" x="5741" y="-1107.24" font-family="Arial" font-size="24.00" fill="#111827">Chrome profile metadata, and</text>
<text text-anchor="start" x="5819.5" y="-1083.24" font-family="Arial" font-size="24.00" fill="#111827">Startup entries.</text>
</g>
<!-- 88 -->
<g id="88" class="node">
<title>88</title>
<polygon fill="#e0e7ff" stroke="#4f46e5" points="4924.5,-2305.5 4559.5,-2305.5 4559.5,-2040.5 4924.5,-2040.5 4924.5,-2305.5"/>
<text text-anchor="start" x="4590" y="-2257.3" font-family="Arial" font-size="34.00" fill="#111827">systemd User Timer</text>
<text text-anchor="start" x="4652" y="-2223.3" font-family="Arial" font-size="34.00" fill="#111827">and Service</text>
<text text-anchor="start" x="4605" y="-2201.3" font-family="Arial" font-size="19.00" fill="#111827">[Container: systemd &#45;&#45;user units]</text>
<text text-anchor="start" x="4595" y="-2164.3" font-family="Arial" font-size="24.00" fill="#111827">Hourly user&#45;level scheduler</text>
<text text-anchor="start" x="4588.5" y="-2140.3" font-family="Arial" font-size="24.00" fill="#111827">and oneshot service that run</text>
<text text-anchor="start" x="4588.5" y="-2116.3" font-family="Arial" font-size="24.00" fill="#111827">the backup at minute 45 and</text>
<text text-anchor="start" x="4638" y="-2092.3" font-family="Arial" font-size="24.00" fill="#111827">route failures to the</text>
<text text-anchor="start" x="4702.5" y="-2068.3" font-family="Arial" font-size="24.00" fill="#111827">notifier.</text>
</g>
<!-- 89 -->
<g id="89" class="node">
<title>89</title>
<polygon fill="#e0f2fe" stroke="#0284c7" points="4932,-1869.5 4552,-1869.5 4552,-1590.5 4932,-1590.5 4932,-1869.5"/>
<text text-anchor="start" x="4585.5" y="-1821.3" font-family="Arial" font-size="34.00" fill="#111827">Backup Orchestrator</text>
<text text-anchor="start" x="4668.5" y="-1799.3" font-family="Arial" font-size="19.00" fill="#111827">[Container: Bash]</text>
<text text-anchor="start" x="4597.5" y="-1762.3" font-family="Arial" font-size="24.00" fill="#111827">scripts/workflow&#45;backup.sh</text>
<text text-anchor="start" x="4588.5" y="-1738.3" font-family="Arial" font-size="24.00" fill="#111827">coordinates one backup run:</text>
<text text-anchor="start" x="4608" y="-1714.3" font-family="Arial" font-size="24.00" fill="#111827">locking, logging, pre/post</text>
<text text-anchor="start" x="4602" y="-1690.3" font-family="Arial" font-size="24.00" fill="#111827">guard checks, WSL rsync,</text>
<text text-anchor="start" x="4591" y="-1666.3" font-family="Arial" font-size="24.00" fill="#111827">SQLite snapshots, Windows</text>
<text text-anchor="start" x="4581" y="-1642.3" font-family="Arial" font-size="24.00" fill="#111827">sync, run&#45;ledger updates, and</text>
<text text-anchor="start" x="4603.5" y="-1618.3" font-family="Arial" font-size="24.00" fill="#111827">NAS manifest publication.</text>
</g>
<!-- 88&#45;&gt;89 -->
<g id="90" class="edge">
<title>88&#45;&gt;89</title>
<path fill="none" stroke="#475569" stroke-dasharray="5,2" d="M4742,-2040.28C4742,-1989.84 4742,-1931.96 4742,-1880.01"/>
<polygon fill="#475569" stroke="#475569" points="4745.5,-1879.7 4742,-1869.7 4738.5,-1879.7 4745.5,-1879.7"/>
<polygon fill="white" stroke="transparent" points="4742,-1905.5 4742,-1980.5 5001,-1980.5 5001,-1905.5 4742,-1905.5"/>
<text text-anchor="start" x="4746.5" y="-1957.8" font-family="Arial" font-size="24.00" fill="#475569">Starts hourly at :45 and</text>
<text text-anchor="start" x="4775.5" y="-1933.8" font-family="Arial" font-size="24.00" fill="#475569">tracks service exit</text>
<text text-anchor="start" x="4804" y="-1913.8" font-family="Arial" font-size="19.00" fill="#475569">[systemd &#45;&#45;user]</text>
</g>
<!-- 91 -->
<g id="91" class="node">
<title>91</title>
<polygon fill="#ecfeff" stroke="#0891b2" points="5198.17,-1187.94 5036.58,-1376.66 4713.42,-1376.66 4551.83,-1187.94 4713.42,-999.22 5036.58,-999.22 5198.17,-1187.94"/>
<text text-anchor="start" x="4764" y="-1255.24" font-family="Arial" font-size="34.00" fill="#111827">Failure Notifier</text>
<text text-anchor="start" x="4738" y="-1233.24" font-family="Arial" font-size="19.00" fill="#111827">[Container: Bash + Python urllib]</text>
<text text-anchor="start" x="4730" y="-1196.24" font-family="Arial" font-size="24.00" fill="#111827">Best&#45;effort Telegram failure</text>
<text text-anchor="start" x="4748.5" y="-1172.24" font-family="Arial" font-size="24.00" fill="#111827">alert unit that reads last</text>
<text text-anchor="start" x="4714.5" y="-1148.24" font-family="Arial" font-size="24.00" fill="#111827">status/log tail and Hermes bot</text>
<text text-anchor="start" x="4706" y="-1124.24" font-family="Arial" font-size="24.00" fill="#111827">environment variables; success</text>
<text text-anchor="start" x="4790.5" y="-1100.24" font-family="Arial" font-size="24.00" fill="#111827">runs stay silent.</text>
</g>
<!-- 88&#45;&gt;91 -->
<g id="92" class="edge">
<title>88&#45;&gt;91</title>
<path fill="none" stroke="#475569" stroke-dasharray="5,2" d="M4924.74,-2078.56C4961.37,-2051.7 4995.71,-2019.03 5019,-1980.5 5134.8,-1788.92 5136.45,-1693.58 5071,-1479.5 5061.2,-1447.46 5046.55,-1415.76 5029.59,-1385.73"/>
<polygon fill="#475569" stroke="#475569" points="5032.52,-1383.81 5024.5,-1376.89 5026.46,-1387.31 5032.52,-1383.81"/>
<polygon fill="white" stroke="transparent" points="5114,-1692.5 5114,-1767.5 5339,-1767.5 5339,-1692.5 5114,-1692.5"/>
<text text-anchor="start" x="5118.5" y="-1744.8" font-family="Arial" font-size="24.00" fill="#475569">Triggers on nonzero</text>
<text text-anchor="start" x="5155.5" y="-1720.8" font-family="Arial" font-size="24.00" fill="#475569">service result</text>
<text text-anchor="start" x="5180" y="-1700.8" font-family="Arial" font-size="19.00" fill="#475569">[OnFailure]</text>
</g>
<!-- 89&#45;&gt;110 -->
<g id="111" class="edge">
<title>89&#45;&gt;110</title>
<path fill="none" stroke="#475569" stroke-dasharray="5,2" d="M4932.04,-1611.35C4949.86,-1603.33 4968,-1596.19 4986,-1590.5 5145.66,-1540.06 5194.44,-1571.58 5361,-1554.5 5711.46,-1518.56 5822.51,-1600.87 6149,-1468.5 6200.45,-1447.64 6250.71,-1417.17 6296.55,-1383.93"/>
<polygon fill="#475569" stroke="#475569" points="6298.76,-1386.64 6304.76,-1377.91 6294.63,-1381 6298.76,-1386.64"/>
<polygon fill="white" stroke="transparent" points="6110,-1479.5 6110,-1554.5 6384,-1554.5 6384,-1479.5 6110,-1479.5"/>
<text text-anchor="start" x="6114" y="-1531.8" font-family="Arial" font-size="24.00" fill="#475569">Launches Windows sync</text>
<text text-anchor="start" x="6205.5" y="-1507.8" font-family="Arial" font-size="24.00" fill="#475569">through</text>
<text text-anchor="start" x="6124" y="-1487.8" font-family="Arial" font-size="19.00" fill="#475569">[PowerShell via WSL interop]</text>
</g>
<!-- 89&#45;&gt;104 -->
<g id="105" class="edge">
<title>89&#45;&gt;104</title>
<path fill="none" stroke="#475569" stroke-dasharray="5,2" d="M4932.19,-1617.88C4950.22,-1608.31 4968.35,-1599.04 4986,-1590.5 5096.59,-1537.04 5171.11,-1574.02 5234,-1468.5 5373.29,-1234.81 5303.7,-1119.35 5234,-856.38 5218.36,-797.37 5183.75,-744.87 5141.91,-699.82"/>
<polygon fill="#475569" stroke="#475569" points="5144.27,-697.22 5134.86,-692.37 5139.19,-702.03 5144.27,-697.22"/>
<polygon fill="white" stroke="transparent" points="5314,-1138.44 5314,-1237.44 5588,-1237.44 5588,-1138.44 5314,-1138.44"/>
<text text-anchor="start" x="5387.5" y="-1214.74" font-family="Arial" font-size="24.00" fill="#475569">Writes logs,</text>
<text text-anchor="start" x="5318" y="-1190.74" font-family="Arial" font-size="24.00" fill="#475569">last&#45;run.json, run events,</text>
<text text-anchor="start" x="5328" y="-1166.74" font-family="Arial" font-size="24.00" fill="#475569">and exported history in</text>
<text text-anchor="start" x="5364" y="-1146.74" font-family="Arial" font-size="19.00" fill="#475569">[filesystem + sqlite3]</text>
</g>
<!-- 89&#45;&gt;91 -->
<g id="93" class="edge">
<title>89&#45;&gt;91</title>
<path fill="none" stroke="#475569" stroke-dasharray="5,2" d="M4753.87,-1590.47C4758.44,-1554.1 4764.64,-1515.09 4773,-1479.5 4780.17,-1448.96 4789.41,-1417.15 4799.4,-1386.27"/>
<polygon fill="#475569" stroke="#475569" points="4802.74,-1387.31 4802.52,-1376.71 4796.09,-1385.13 4802.74,-1387.31"/>
<polygon fill="white" stroke="transparent" points="4773,-1487 4773,-1547 5057,-1547 5057,-1487 4773,-1487"/>
<text text-anchor="start" x="4777" y="-1523.8" font-family="Arial" font-size="24.00" fill="#475569">Exits nonzero so systemd</text>
<text text-anchor="start" x="4823.5" y="-1497.8" font-family="Arial" font-size="24.00" fill="#475569">can alert through</text>
</g>
<!-- 95 -->
<g id="95" class="node">
<title>95</title>
<polygon fill="#ecfeff" stroke="#0891b2" points="4477.13,-1187.94 4317.07,-1396.35 3996.93,-1396.35 3836.87,-1187.94 3996.93,-979.52 4317.07,-979.52 4477.13,-1187.94"/>
<text text-anchor="start" x="4008.5" y="-1267.24" font-family="Arial" font-size="34.00" fill="#111827">SQLite Snapshotter</text>
<text text-anchor="start" x="4035" y="-1245.24" font-family="Arial" font-size="19.00" fill="#111827">[Container: Python 3, sqlite3]</text>
<text text-anchor="start" x="3994.5" y="-1208.24" font-family="Arial" font-size="24.00" fill="#111827">Creates application&#45;consistent</text>
<text text-anchor="start" x="4021" y="-1184.24" font-family="Arial" font-size="24.00" fill="#111827">copies of Hermes, lifelog,</text>
<text text-anchor="start" x="3999" y="-1160.24" font-family="Arial" font-size="24.00" fill="#111827">browser&#45;memory, and related</text>
<text text-anchor="start" x="3990" y="-1136.24" font-family="Arial" font-size="24.00" fill="#111827">SQLite databases using sqlite3</text>
<text text-anchor="start" x="4000" y="-1112.24" font-family="Arial" font-size="24.00" fill="#111827">backup API; can quick_check</text>
<text text-anchor="start" x="4118.5" y="-1088.24" font-family="Arial" font-size="24.00" fill="#111827">copies.</text>
</g>
<!-- 89&#45;&gt;95 -->
<g id="96" class="edge">
<title>89&#45;&gt;95</title>
<path fill="none" stroke="#475569" stroke-dasharray="5,2" d="M4551.63,-1627.61C4516.96,-1605.55 4482.24,-1580.85 4452,-1554.5 4401.41,-1510.42 4352.87,-1456.92 4310.28,-1404.6"/>
<polygon fill="#475569" stroke="#475569" points="4312.78,-1402.12 4303.77,-1396.55 4307.34,-1406.52 4312.78,-1402.12"/>
<polygon fill="white" stroke="transparent" points="4452,-1479.5 4452,-1554.5 4741,-1554.5 4741,-1479.5 4452,-1479.5"/>
<text text-anchor="start" x="4456.5" y="-1531.8" font-family="Arial" font-size="24.00" fill="#475569">Creates consistent SQLite</text>
<text text-anchor="start" x="4494.5" y="-1507.8" font-family="Arial" font-size="24.00" fill="#475569">backup copies with</text>
<text text-anchor="start" x="4542.5" y="-1487.8" font-family="Arial" font-size="19.00" fill="#475569">[subprocess]</text>
</g>
<!-- 97 -->
<g id="97" class="node">
<title>97</title>
<polygon fill="#ecfeff" stroke="#0891b2" points="3255.82,-514.69 3079.91,-703.41 2728.09,-703.41 2552.18,-514.69 2728.09,-325.97 3079.91,-325.97 3255.82,-514.69"/>
<text text-anchor="start" x="2757.5" y="-581.99" font-family="Arial" font-size="34.00" fill="#111827">NAS Growth Guard</text>
<text text-anchor="start" x="2717.5" y="-559.99" font-family="Arial" font-size="19.00" fill="#111827">[Container: Bash + remote Python + zfs CLI]</text>
<text text-anchor="start" x="2747" y="-522.99" font-family="Arial" font-size="24.00" fill="#111827">Read&#45;only ZFS budget check</text>
<text text-anchor="start" x="2756.5" y="-498.99" font-family="Arial" font-size="24.00" fill="#111827">that enforces dataset&#45;used,</text>
<text text-anchor="start" x="2736.5" y="-474.99" font-family="Arial" font-size="24.00" fill="#111827">snapshot&#45;held, free&#45;space, and</text>
<text text-anchor="start" x="2790" y="-450.99" font-family="Arial" font-size="24.00" fill="#111827">snapshot&#45;count limits</text>
<text text-anchor="start" x="2803" y="-426.99" font-family="Arial" font-size="24.00" fill="#111827">before/after writes.</text>
</g>
<!-- 89&#45;&gt;97 -->
<g id="98" class="edge">
<title>89&#45;&gt;97</title>
<path fill="none" stroke="#475569" stroke-dasharray="5,2" d="M4551.88,-1597.04C4545.94,-1594.66 4539.97,-1592.47 4534,-1590.5 4271.44,-1504 2239.62,-1668.71 2049,-1468.5 1861.4,-1271.47 1896.33,-1081.55 2049,-856.38 2167.05,-682.26 2389.79,-597.13 2578.33,-555.5"/>
<polygon fill="#475569" stroke="#475569" points="2579.11,-558.92 2588.14,-553.37 2577.62,-552.08 2579.11,-558.92"/>
<polygon fill="white" stroke="transparent" points="2049,-1150.44 2049,-1225.44 2289,-1225.44 2289,-1150.44 2049,-1150.44"/>
<text text-anchor="start" x="2053" y="-1202.74" font-family="Arial" font-size="24.00" fill="#475569">Runs pre/post budget</text>
<text text-anchor="start" x="2086.5" y="-1178.74" font-family="Arial" font-size="24.00" fill="#475569">checks through</text>
<text text-anchor="start" x="2114.5" y="-1158.74" font-family="Arial" font-size="19.00" fill="#475569">[subprocess]</text>
</g>
<!-- 91&#45;&gt;104 -->
<g id="106" class="edge">
<title>91&#45;&gt;104</title>
<path fill="none" stroke="#475569" stroke-dasharray="5,2" d="M4875,-999.07C4875,-913.36 4875,-811.59 4875,-723.59"/>
<polygon fill="#475569" stroke="#475569" points="4878.5,-723.47 4875,-713.47 4871.5,-723.47 4878.5,-723.47"/>
<polygon fill="white" stroke="transparent" points="4875,-761.38 4875,-836.38 5155,-836.38 5155,-761.38 4875,-761.38"/>
<text text-anchor="start" x="4879" y="-813.67" font-family="Arial" font-size="24.00" fill="#475569">Reads last status and log</text>
<text text-anchor="start" x="4971.5" y="-789.67" font-family="Arial" font-size="24.00" fill="#475569">tail from</text>
<text text-anchor="start" x="4966.5" y="-769.67" font-family="Arial" font-size="19.00" fill="#475569">[filesystem]</text>
</g>
<!-- 100 -->
<g id="100" class="node">
<title>100</title>
<polygon fill="#ecfeff" stroke="#0891b2" points="3765.34,-1187.94 3607.67,-1415.54 3292.33,-1415.54 3134.66,-1187.94 3292.33,-960.33 3607.67,-960.33 3765.34,-1187.94"/>
<text text-anchor="start" x="3335.5" y="-1279.24" font-family="Arial" font-size="34.00" fill="#111827">Backup Verifier</text>
<text text-anchor="start" x="3295" y="-1257.24" font-family="Arial" font-size="19.00" fill="#111827">[Container: Bash + systemctl + SSH]</text>
<text text-anchor="start" x="3326" y="-1220.24" font-family="Arial" font-size="24.00" fill="#111827">Operational verification</text>
<text text-anchor="start" x="3308" y="-1196.24" font-family="Arial" font-size="24.00" fill="#111827">script that checks the local</text>
<text text-anchor="start" x="3338" y="-1172.24" font-family="Arial" font-size="24.00" fill="#111827">timer, last status, run</text>
<text text-anchor="start" x="3308" y="-1148.24" font-family="Arial" font-size="24.00" fill="#111827">ledger, growth guard, NAS</text>
<text text-anchor="start" x="3286" y="-1124.24" font-family="Arial" font-size="24.00" fill="#111827">dataset, snapshots, manifests,</text>
<text text-anchor="start" x="3304" y="-1100.24" font-family="Arial" font-size="24.00" fill="#111827">snapshot tasks, and retired</text>
<text text-anchor="start" x="3397" y="-1076.24" font-family="Arial" font-size="24.00" fill="#111827">cron jobs.</text>
</g>
<!-- 100&#45;&gt;104 -->
<g id="108" class="edge">
<title>100&#45;&gt;104</title>
<path fill="none" stroke="#475569" stroke-dasharray="5,2" d="M3627.34,-987.74C3679.2,-938.96 3738.79,-890.91 3801,-856.38 3963.77,-766 4021.82,-776.58 4206,-749.38 4275.07,-739.17 4453.25,-758.85 4520,-738.38 4550.1,-729.14 4580.17,-716.67 4609.35,-702.31"/>
<polygon fill="#475569" stroke="#475569" points="4611,-705.4 4618.38,-697.8 4607.87,-699.14 4611,-705.4"/>
<polygon fill="white" stroke="transparent" points="4206,-761.38 4206,-836.38 4501,-836.38 4501,-761.38 4206,-761.38"/>
<text text-anchor="start" x="4233" y="-813.67" font-family="Arial" font-size="24.00" fill="#475569">Reads local last status</text>
<text text-anchor="start" x="4210.5" y="-789.67" font-family="Arial" font-size="24.00" fill="#475569">and recent run ledger from</text>
<text text-anchor="start" x="4267" y="-769.67" font-family="Arial" font-size="19.00" fill="#475569">[filesystem + sqlite3]</text>
</g>
<!-- 100&#45;&gt;88 -->
<g id="101" class="edge">
<title>100&#45;&gt;88</title>
<path fill="none" stroke="#475569" stroke-dasharray="5,2" d="M3643.97,-1363.6C3805.31,-1505.78 4043.39,-1708.55 4264,-1869.5 4355.56,-1936.3 4461.7,-2004.34 4550.68,-2058.94"/>
<polygon fill="#475569" stroke="#475569" points="4548.88,-2061.94 4559.24,-2064.18 4552.54,-2055.97 4548.88,-2061.94"/>
<polygon fill="white" stroke="transparent" points="4264,-1692.5 4264,-1767.5 4516,-1767.5 4516,-1692.5 4264,-1692.5"/>
<text text-anchor="start" x="4268" y="-1744.8" font-family="Arial" font-size="24.00" fill="#475569">Checks enabled/active</text>
<text text-anchor="start" x="4288.5" y="-1720.8" font-family="Arial" font-size="24.00" fill="#475569">timer state through</text>
<text text-anchor="start" x="4317.5" y="-1700.8" font-family="Arial" font-size="19.00" fill="#475569">[systemctl &#45;&#45;user]</text>
</g>
<!-- 100&#45;&gt;97 -->
<g id="102" class="edge">
<title>100&#45;&gt;97</title>
<path fill="none" stroke="#475569" stroke-dasharray="5,2" d="M3279.86,-977.77C3210.66,-892.7 3131.14,-794.93 3063.11,-711.3"/>
<polygon fill="#475569" stroke="#475569" points="3065.8,-709.06 3056.77,-703.51 3060.37,-713.47 3065.8,-709.06"/>
<polygon fill="white" stroke="transparent" points="3169,-761.38 3169,-836.38 3411,-836.38 3411,-761.38 3169,-761.38"/>
<text text-anchor="start" x="3173" y="-813.67" font-family="Arial" font-size="24.00" fill="#475569">Runs read&#45;only guard</text>
<text text-anchor="start" x="3187.5" y="-789.67" font-family="Arial" font-size="24.00" fill="#475569">verification through</text>
<text text-anchor="start" x="3235.5" y="-769.67" font-family="Arial" font-size="19.00" fill="#475569">[subprocess]</text>
</g>
<!-- 95&#45;&gt;104 -->
<g id="107" class="edge">
<title>95&#45;&gt;104</title>
<path fill="none" stroke="#475569" stroke-dasharray="5,2" d="M4342.73,-1012.23C4396.34,-961.88 4454.96,-906.9 4509,-856.38 4559.01,-809.61 4612.95,-759.33 4663.64,-712.13"/>
<polygon fill="#475569" stroke="#475569" points="4666.17,-714.56 4671.1,-705.19 4661.4,-709.44 4666.17,-714.56"/>
<polygon fill="white" stroke="transparent" points="4620,-749.38 4620,-848.38 4845,-848.38 4845,-749.38 4620,-749.38"/>
<text text-anchor="start" x="4630.5" y="-825.67" font-family="Arial" font-size="24.00" fill="#475569">Writes local SQLite</text>
<text text-anchor="start" x="4624.5" y="-801.67" font-family="Arial" font-size="24.00" fill="#475569">snapshot cache and</text>
<text text-anchor="start" x="4652.5" y="-777.67" font-family="Arial" font-size="24.00" fill="#475569">manifest under</text>
<text text-anchor="start" x="4684.5" y="-757.67" font-family="Arial" font-size="19.00" fill="#475569">[filesystem]</text>
</g>
<!-- 99 -->
<g id="99" class="node">
<title>99</title>
<polygon fill="#ecfeff" stroke="#0891b2" points="3063.11,-1187.94 2878.56,-1376.66 2509.44,-1376.66 2324.89,-1187.94 2509.44,-999.22 2878.56,-999.22 3063.11,-1187.94"/>
<text text-anchor="start" x="2569" y="-1255.24" font-family="Arial" font-size="34.00" fill="#111827">NAS Provisioner</text>
<text text-anchor="start" x="2497" y="-1233.24" font-family="Arial" font-size="19.00" fill="#111827">[Container: Bash + remote Python + midclt/zfs]</text>
<text text-anchor="start" x="2533" y="-1196.24" font-family="Arial" font-size="24.00" fill="#111827">Idempotent provisioning script</text>
<text text-anchor="start" x="2531.5" y="-1172.24" font-family="Arial" font-size="24.00" fill="#111827">for the TrueNAS dataset, SMB</text>
<text text-anchor="start" x="2561.5" y="-1148.24" font-family="Arial" font-size="24.00" fill="#111827">share, periodic snapshot</text>
<text text-anchor="start" x="2562.5" y="-1124.24" font-family="Arial" font-size="24.00" fill="#111827">tasks, and retired legacy</text>
<text text-anchor="start" x="2588.5" y="-1100.24" font-family="Arial" font-size="24.00" fill="#111827">snapshot cron jobs.</text>
</g>
</g>
</svg>
