<?xml version="1.0" encoding="UTF-8" standalone="no"?>
<!DOCTYPE svg PUBLIC "-//W3C//DTD SVG 1.1//EN"
 "http://www.w3.org/Graphics/SVG/1.1/DTD/svg11.dtd">
<!-- Generated by graphviz version 2.43.0 (0)
 -->
<!-- Title: %3 Pages: 1 -->
<svg width="2953pt" height="2903pt"
 viewBox="0.00 0.00 2953.32 2902.50" xmlns="http://www.w3.org/2000/svg" xmlns:xlink="http://www.w3.org/1999/xlink">
<g id="graph0" class="graph" transform="scale(1 1) rotate(0) translate(4 2898.5)">
<title>%3</title>
<polygon fill="white" stroke="transparent" points="-4,4 -4,-2898.5 2949.32,-2898.5 2949.32,4 -4,4"/>
<text text-anchor="start" x="892.66" y="-35.8" font-family="Arial" font-size="34.00">Component View: WORKSTATION1 Workflow Backup &#45; Backup Orchestrator</text>
<text text-anchor="start" x="836.66" y="-9.8" font-family="Arial" font-size="24.00">C3: workflow&#45;backup.sh data&#45;movement path for SQLite snapshots, WSL rsync, and Windows robocopy helper launch.</text>
<g id="clust1" class="cluster">
<title>cluster_2</title>
<polygon fill="none" stroke="#444444" points="8,-1004.69 8,-2551.69 2937.32,-2551.69 2937.32,-1004.69 8,-1004.69"/>
<text text-anchor="start" x="1281.66" y="-1033.49" font-family="Arial" font-size="24.00" fill="#444444">WORKSTATION1 Workflow Backup</text>
<text text-anchor="start" x="1395.66" y="-1013.49" font-family="Arial" font-size="19.00" fill="#444444">[Software System]</text>
</g>
<g id="clust2" class="cluster">
<title>cluster_4</title>
<polygon fill="none" stroke="#444444" points="298.83,-1601.69 298.83,-2526.69 769.83,-2526.69 769.83,-1601.69 298.83,-1601.69"/>
<text text-anchor="start" x="422.83" y="-1630.49" font-family="Arial" font-size="24.00" fill="#444444">Backup Orchestrator</text>
<text text-anchor="start" x="460.83" y="-1610.49" font-family="Arial" font-size="19.00" fill="#444444">[Container: Bash]</text>
</g>
<!-- 26 -->
<g id="26" class="node">
<title>26</title>
<path fill="#fef3c7" stroke="#d97706" d="M2860.32,-2865.47C2860.32,-2881.39 2767.32,-2894.31 2652.82,-2894.31 2538.33,-2894.31 2445.32,-2881.39 2445.32,-2865.47 2445.32,-2865.47 2445.32,-2605.9 2445.32,-2605.9 2445.32,-2589.99 2538.33,-2577.06 2652.82,-2577.06 2767.32,-2577.06 2860.32,-2589.99 2860.32,-2605.9 2860.32,-2605.9 2860.32,-2865.47 2860.32,-2865.47"/>
<path fill="none" stroke="#d97706" d="M2860.32,-2865.47C2860.32,-2849.56 2767.32,-2836.63 2652.82,-2836.63 2538.33,-2836.63 2445.32,-2849.56 2445.32,-2865.47"/>
<text text-anchor="start" x="2474.32" y="-2802.99" font-family="Arial" font-size="34.00" fill="#111827">WSL Workflow Sources</text>
<text text-anchor="start" x="2575.82" y="-2780.99" font-family="Arial" font-size="19.00" fill="#111827">[Software System]</text>
<text text-anchor="start" x="2499.32" y="-2743.99" font-family="Arial" font-size="24.00" fill="#111827">Workflow&#45;critical WSL paths:</text>
<text text-anchor="start" x="2507.82" y="-2719.99" font-family="Arial" font-size="24.00" fill="#111827">~/repos, ~/.hermes, ~/.ssh,</text>
<text text-anchor="start" x="2541.32" y="-2695.99" font-family="Arial" font-size="24.00" fill="#111827">systemd user config,</text>
<text text-anchor="start" x="2496.32" y="-2671.99" font-family="Arial" font-size="24.00" fill="#111827">lifelog/browser&#45;memory data,</text>
<text text-anchor="start" x="2497.82" y="-2647.99" font-family="Arial" font-size="24.00" fill="#111827">and optional brain&#45;code tree.</text>
</g>
<!-- 27 -->
<g id="27" class="node">
<title>27</title>
<path fill="#fef3c7" stroke="#d97706" d="M2860.82,-940.9C2860.82,-962.51 2767.59,-980.06 2652.82,-980.06 2538.05,-980.06 2444.82,-962.51 2444.82,-940.9 2444.82,-940.9 2444.82,-588.47 2444.82,-588.47 2444.82,-566.86 2538.05,-549.31 2652.82,-549.31 2767.59,-549.31 2860.82,-566.86 2860.82,-588.47 2860.82,-588.47 2860.82,-940.9 2860.82,-940.9"/>
<path fill="none" stroke="#d97706" d="M2860.82,-940.9C2860.82,-919.3 2767.59,-901.74 2652.82,-901.74 2538.05,-901.74 2444.82,-919.3 2444.82,-940.9"/>
<text text-anchor="start" x="2508.82" y="-872.99" font-family="Arial" font-size="34.00" fill="#111827">Windows Workflow</text>
<text text-anchor="start" x="2590.32" y="-838.99" font-family="Arial" font-size="34.00" fill="#111827">Sources</text>
<text text-anchor="start" x="2575.82" y="-816.99" font-family="Arial" font-size="19.00" fill="#111827">[Software System]</text>
<text text-anchor="start" x="2489.32" y="-779.99" font-family="Arial" font-size="24.00" fill="#111827">Selected Windows user&#45;profile</text>
<text text-anchor="start" x="2487.82" y="-755.99" font-family="Arial" font-size="24.00" fill="#111827">artifacts: Desktop, Documents,</text>
<text text-anchor="start" x="2537.32" y="-731.99" font-family="Arial" font-size="24.00" fill="#111827">Downloads, Windows</text>
<text text-anchor="start" x="2502.82" y="-707.99" font-family="Arial" font-size="24.00" fill="#111827">.ssh/.wslconfig, Terminal/VS</text>
<text text-anchor="start" x="2473.82" y="-683.99" font-family="Arial" font-size="24.00" fill="#111827">Code/PowerShell config, Chrome</text>
<text text-anchor="start" x="2496.32" y="-659.99" font-family="Arial" font-size="24.00" fill="#111827">profile metadata, and Startup</text>
<text text-anchor="start" x="2612.82" y="-635.99" font-family="Arial" font-size="24.00" fill="#111827">entries.</text>
</g>
<!-- 28 -->
<g id="28" class="node">
<title>28</title>
<path fill="#fef3c7" stroke="#d97706" d="M2849.82,-441.4C2849.82,-461.36 2761.52,-477.56 2652.82,-477.56 2544.12,-477.56 2455.82,-461.36 2455.82,-441.4 2455.82,-441.4 2455.82,-115.97 2455.82,-115.97 2455.82,-96.02 2544.12,-79.81 2652.82,-79.81 2761.52,-79.81 2849.82,-96.02 2849.82,-115.97 2849.82,-115.97 2849.82,-441.4 2849.82,-441.4"/>
<path fill="none" stroke="#d97706" d="M2849.82,-441.4C2849.82,-421.45 2761.52,-405.24 2652.82,-405.24 2544.12,-405.24 2455.82,-421.45 2455.82,-441.4"/>
<text text-anchor="start" x="2521.82" y="-374.99" font-family="Arial" font-size="34.00" fill="#111827">TrueNAS Backup</text>
<text text-anchor="start" x="2593.82" y="-340.99" font-family="Arial" font-size="34.00" fill="#111827">Dataset</text>
<text text-anchor="start" x="2575.82" y="-318.99" font-family="Arial" font-size="19.00" fill="#111827">[Software System]</text>
<text text-anchor="start" x="2484.82" y="-281.99" font-family="Arial" font-size="24.00" fill="#111827">Configured encrypted TrueNAS</text>
<text text-anchor="start" x="2511.32" y="-257.99" font-family="Arial" font-size="24.00" fill="#111827">dataset with current mirror</text>
<text text-anchor="start" x="2503.32" y="-233.99" font-family="Arial" font-size="24.00" fill="#111827">tree, manifests, SMB share,</text>
<text text-anchor="start" x="2504.32" y="-209.99" font-family="Arial" font-size="24.00" fill="#111827">restore checksum manifest,</text>
<text text-anchor="start" x="2502.32" y="-185.99" font-family="Arial" font-size="24.00" fill="#111827">refquota, and ZFS snapshot</text>
<text text-anchor="start" x="2614.32" y="-161.99" font-family="Arial" font-size="24.00" fill="#111827">history.</text>
</g>
<!-- 10 -->
<g id="10" class="node">
<title>10</title>
<polygon fill="#f0fdf4" stroke="#22c55e" points="744.83,-2222.19 323.83,-2222.19 323.83,-2015.19 744.83,-2015.19 744.83,-2222.19"/>
<text text-anchor="start" x="352.83" y="-2173.99" font-family="Arial" font-size="34.00" fill="#111827">SQLite Snapshot Phase</text>
<text text-anchor="start" x="359.83" y="-2151.99" font-family="Arial" font-size="19.00" fill="#111827">[Component: Python subprocess + rsync]</text>
<text text-anchor="start" x="381.33" y="-2114.99" font-family="Arial" font-size="24.00" fill="#111827">Runs the SQLite backup API</text>
<text text-anchor="start" x="385.33" y="-2090.99" font-family="Arial" font-size="24.00" fill="#111827">snapshotter and mirrors the</text>
<text text-anchor="start" x="369.33" y="-2066.99" font-family="Arial" font-size="24.00" fill="#111827">consistent DB snapshot tree to</text>
<text text-anchor="start" x="506.33" y="-2042.99" font-family="Arial" font-size="24.00" fill="#111827">NAS.</text>
</g>
<!-- 10&#45;&gt;28 -->
<g id="86" class="edge">
<title>10&#45;&gt;28</title>
<path fill="none" stroke="#475569" stroke-dasharray="5,2" d="M744.96,-2115.66C849.17,-2102.27 967.18,-2066.76 1035.66,-1979.69 1110.57,-1884.44 1000.8,-987.99 1071.66,-889.69 1153.97,-775.5 1233.24,-818.12 1368.66,-779.69 1650.68,-699.65 1741.28,-753.8 2015.32,-649.69 2167.85,-591.74 2326.41,-499.43 2447.12,-421.38"/>
<polygon fill="#475569" stroke="#475569" points="2449.26,-424.17 2455.74,-415.79 2445.45,-418.29 2449.26,-424.17"/>
<polygon fill="white" stroke="transparent" points="1552.99,-779.69 1552.99,-854.69 1830.99,-854.69 1830.99,-779.69 1552.99,-779.69"/>
<text text-anchor="start" x="1556.99" y="-831.99" font-family="Arial" font-size="24.00" fill="#475569">Mirrors DB snapshot tree</text>
<text text-anchor="start" x="1681.49" y="-807.99" font-family="Arial" font-size="24.00" fill="#475569">to</text>
<text text-anchor="start" x="1663.49" y="-787.99" font-family="Arial" font-size="19.00" fill="#475569">[rsync]</text>
</g>
<!-- 16 -->
<g id="16" class="node">
<title>16</title>
<polygon fill="#ecfeff" stroke="#0891b2" points="2012.12,-2118.69 1852.06,-2327.1 1531.92,-2327.1 1371.86,-2118.69 1531.92,-1910.27 1852.06,-1910.27 2012.12,-2118.69"/>
<text text-anchor="start" x="1543.49" y="-2197.99" font-family="Arial" font-size="34.00" fill="#111827">SQLite Snapshotter</text>
<text text-anchor="start" x="1569.99" y="-2175.99" font-family="Arial" font-size="19.00" fill="#111827">[Container: Python 3, sqlite3]</text>
<text text-anchor="start" x="1529.49" y="-2138.99" font-family="Arial" font-size="24.00" fill="#111827">Creates application&#45;consistent</text>
<text text-anchor="start" x="1555.99" y="-2114.99" font-family="Arial" font-size="24.00" fill="#111827">copies of Hermes, lifelog,</text>
<text text-anchor="start" x="1533.99" y="-2090.99" font-family="Arial" font-size="24.00" fill="#111827">browser&#45;memory, and related</text>
<text text-anchor="start" x="1524.99" y="-2066.99" font-family="Arial" font-size="24.00" fill="#111827">SQLite databases using sqlite3</text>
<text text-anchor="start" x="1534.99" y="-2042.99" font-family="Arial" font-size="24.00" fill="#111827">backup API; can quick_check</text>
<text text-anchor="start" x="1653.49" y="-2018.99" font-family="Arial" font-size="24.00" fill="#111827">copies.</text>
</g>
<!-- 10&#45;&gt;16 -->
<g id="85" class="edge">
<title>10&#45;&gt;16</title>
<path fill="none" stroke="#475569" stroke-dasharray="5,2" d="M744.95,-2118.69C916.89,-2118.69 1163.4,-2118.69 1361.68,-2118.69"/>
<polygon fill="#475569" stroke="#475569" points="1361.68,-2122.19 1371.68,-2118.69 1361.68,-2115.19 1361.68,-2122.19"/>
<polygon fill="white" stroke="transparent" points="1077.66,-2118.69 1077.66,-2178.69 1326.66,-2178.69 1326.66,-2118.69 1077.66,-2118.69"/>
<text text-anchor="start" x="1082.16" y="-2155.49" font-family="Arial" font-size="24.00" fill="#475569">Creates consistent DB</text>
<text text-anchor="start" x="1084.16" y="-2129.49" font-family="Arial" font-size="24.00" fill="#475569">snapshot tree through</text>
</g>
<!-- 11 -->
<g id="11" class="node">
<title>11</title>
<polygon fill="#f0fdf4" stroke="#22c55e" points="733.83,-2501.19 334.83,-2501.19 334.83,-2294.19 733.83,-2294.19 733.83,-2501.19"/>
<text text-anchor="start" x="392.33" y="-2452.99" font-family="Arial" font-size="34.00" fill="#111827">WSL Rsync Phase</text>
<text text-anchor="start" x="408.83" y="-2430.99" font-family="Arial" font-size="19.00" fill="#111827">[Component: rsync over SSH]</text>
<text text-anchor="start" x="406.83" y="-2393.99" font-family="Arial" font-size="24.00" fill="#111827">Mirrors configured WSL</text>
<text text-anchor="start" x="402.83" y="-2369.99" font-family="Arial" font-size="24.00" fill="#111827">directories to current/wsl</text>
<text text-anchor="start" x="363.83" y="-2345.99" font-family="Arial" font-size="24.00" fill="#111827">using sudo rsync over SSH with</text>
<text text-anchor="start" x="428.83" y="-2321.99" font-family="Arial" font-size="24.00" fill="#111827">payload exclusions.</text>
</g>
<!-- 11&#45;&gt;26 -->
<g id="87" class="edge">
<title>11&#45;&gt;26</title>
<path fill="none" stroke="#475569" stroke-dasharray="5,2" d="M733.91,-2468.13C834.04,-2501.14 958.05,-2538.28 1071.66,-2561.69 1552.59,-2660.79 2128.27,-2706.18 2434.71,-2724.66"/>
<polygon fill="#475569" stroke="#475569" points="2434.85,-2728.17 2445.04,-2725.28 2435.27,-2721.19 2434.85,-2728.17"/>
<polygon fill="white" stroke="transparent" points="1530.99,-2690.69 1530.99,-2765.69 1852.99,-2765.69 1852.99,-2690.69 1530.99,-2690.69"/>
<text text-anchor="start" x="1534.99" y="-2742.99" font-family="Arial" font-size="24.00" fill="#475569">Reads configured WSL paths</text>
<text text-anchor="start" x="1667.49" y="-2718.99" font-family="Arial" font-size="24.00" fill="#475569">from</text>
<text text-anchor="start" x="1643.49" y="-2698.99" font-family="Arial" font-size="19.00" fill="#475569">[filesystem]</text>
</g>
<!-- 11&#45;&gt;28 -->
<g id="88" class="edge">
<title>11&#45;&gt;28</title>
<path fill="none" stroke="#475569" stroke-dasharray="5,2" d="M734.04,-2396.13C840.92,-2383.9 964.95,-2349.03 1035.66,-2258.69 1122.8,-2147.34 979.01,-1093.49 1071.66,-986.69 1210.14,-827.04 1818.58,-945.87 2015.32,-868.69 2192.32,-799.25 2243.9,-764.28 2357.32,-611.69 2385,-574.45 2367.41,-552.18 2393.32,-513.69 2409.38,-489.84 2428.34,-466.77 2448.6,-445.01"/>
<polygon fill="#475569" stroke="#475569" points="2451.2,-447.35 2455.51,-437.68 2446.11,-442.55 2451.2,-447.35"/>
<polygon fill="white" stroke="transparent" points="1576.99,-900.69 1576.99,-951.69 1806.99,-951.69 1806.99,-900.69 1576.99,-900.69"/>
<text text-anchor="start" x="1580.99" y="-928.99" font-family="Arial" font-size="24.00" fill="#475569">Mirrors WSL trees to</text>
<text text-anchor="start" x="1620.49" y="-908.99" font-family="Arial" font-size="19.00" fill="#475569">[rsync over SSH]</text>
</g>
<!-- 12 -->
<g id="12" class="node">
<title>12</title>
<polygon fill="#f0fdf4" stroke="#22c55e" points="731.83,-1943.19 336.83,-1943.19 336.83,-1702.19 731.83,-1702.19 731.83,-1943.19"/>
<text text-anchor="start" x="412.33" y="-1894.99" font-family="Arial" font-size="34.00" fill="#111827">Windows Phase</text>
<text text-anchor="start" x="463.33" y="-1860.99" font-family="Arial" font-size="34.00" fill="#111827">Launcher</text>
<text text-anchor="start" x="390.33" y="-1838.99" font-family="Arial" font-size="19.00" fill="#111827">[Component: Bash + WSL interop]</text>
<text text-anchor="start" x="374.83" y="-1801.99" font-family="Arial" font-size="24.00" fill="#111827">Copies the PowerShell helper</text>
<text text-anchor="start" x="365.83" y="-1777.99" font-family="Arial" font-size="24.00" fill="#111827">to Windows temp and launches</text>
<text text-anchor="start" x="380.83" y="-1753.99" font-family="Arial" font-size="24.00" fill="#111827">it through direct WSL interop</text>
<text text-anchor="start" x="453.33" y="-1729.99" font-family="Arial" font-size="24.00" fill="#111827">or /init fallback.</text>
</g>
<!-- 12&#45;&gt;28 -->
<g id="90" class="edge">
<title>12&#45;&gt;28</title>
<path fill="none" stroke="#475569" stroke-dasharray="5,2" d="M732.01,-1827.36C838.91,-1818.53 963.64,-1787.48 1035.66,-1698.69 1107.65,-1609.92 1002.66,-761.8 1071.66,-670.69 1113.69,-615.18 2027.44,-412.83 2445.88,-322.61"/>
<polygon fill="#475569" stroke="#475569" points="2446.63,-326.03 2455.67,-320.5 2445.16,-319.19 2446.63,-326.03"/>
<polygon fill="white" stroke="transparent" points="1536.99,-571.69 1536.99,-631.69 1846.99,-631.69 1846.99,-571.69 1536.99,-571.69"/>
<text text-anchor="start" x="1540.99" y="-608.49" font-family="Arial" font-size="24.00" fill="#475569">Uses SMB root for Windows</text>
<text text-anchor="start" x="1595.99" y="-582.49" font-family="Arial" font-size="24.00" fill="#475569">helper destination</text>
</g>
<!-- 17 -->
<g id="17" class="node">
<title>17</title>
<polygon fill="#ecfeff" stroke="#0891b2" points="2015.16,-1472.69 1853.57,-1728.31 1530.41,-1728.31 1368.83,-1472.69 1530.41,-1217.06 1853.57,-1217.06 2015.16,-1472.69"/>
<text text-anchor="start" x="1522.99" y="-1580.99" font-family="Arial" font-size="34.00" fill="#111827">Windows Critical Sync</text>
<text text-anchor="start" x="1641.99" y="-1546.99" font-family="Arial" font-size="34.00" fill="#111827">Helper</text>
<text text-anchor="start" x="1524.99" y="-1524.99" font-family="Arial" font-size="19.00" fill="#111827">[Container: PowerShell + robocopy.exe]</text>
<text text-anchor="start" x="1545.99" y="-1487.99" font-family="Arial" font-size="24.00" fill="#111827">PowerShell script launched</text>
<text text-anchor="start" x="1585.99" y="-1463.99" font-family="Arial" font-size="24.00" fill="#111827">from WSL that uses</text>
<text text-anchor="start" x="1570.99" y="-1439.99" font-family="Arial" font-size="24.00" fill="#111827">robocopy.exe to mirror</text>
<text text-anchor="start" x="1557.99" y="-1415.99" font-family="Arial" font-size="24.00" fill="#111827">selected Windows profile</text>
<text text-anchor="start" x="1547.99" y="-1391.99" font-family="Arial" font-size="24.00" fill="#111827">directories/files to the SMB</text>
<text text-anchor="start" x="1540.49" y="-1367.99" font-family="Arial" font-size="24.00" fill="#111827">share and writes a Windows</text>
<text text-anchor="start" x="1614.49" y="-1343.99" font-family="Arial" font-size="24.00" fill="#111827">sync manifest.</text>
</g>
<!-- 12&#45;&gt;17 -->
<g id="89" class="edge">
<title>12&#45;&gt;17</title>
<path fill="none" stroke="#475569" stroke-dasharray="5,2" d="M731.85,-1778.26C824.53,-1756.22 936.32,-1728.06 1035.66,-1698.69 1163.05,-1661.02 1302.43,-1613.81 1419.77,-1572.3"/>
<polygon fill="#475569" stroke="#475569" points="1420.99,-1575.58 1429.25,-1568.94 1418.66,-1568.98 1420.99,-1575.58"/>
<polygon fill="white" stroke="transparent" points="1071.66,-1681.69 1071.66,-1732.69 1332.66,-1732.69 1332.66,-1681.69 1071.66,-1681.69"/>
<text text-anchor="start" x="1076.16" y="-1709.99" font-family="Arial" font-size="24.00" fill="#475569">Launches and monitors</text>
<text text-anchor="start" x="1149.16" y="-1689.99" font-family="Arial" font-size="19.00" fill="#475569">[PowerShell]</text>
</g>
<!-- 16&#45;&gt;26 -->
<g id="46" class="edge">
<title>16&#45;&gt;26</title>
<path fill="none" stroke="#475569" stroke-dasharray="5,2" d="M1947.47,-2203.24C2085.04,-2260.32 2248.53,-2348.21 2357.32,-2472.69 2387.59,-2507.31 2364.49,-2533.86 2393.32,-2569.69 2406.25,-2585.76 2421.18,-2600.76 2437.2,-2614.65"/>
<polygon fill="#475569" stroke="#475569" points="2435.25,-2617.59 2445.14,-2621.38 2439.77,-2612.24 2435.25,-2617.59"/>
<polygon fill="white" stroke="transparent" points="2103.82,-2472.69 2103.82,-2547.69 2304.82,-2547.69 2304.82,-2472.69 2103.82,-2472.69"/>
<text text-anchor="start" x="2108.32" y="-2524.99" font-family="Arial" font-size="24.00" fill="#475569">Reads live SQLite</text>
<text text-anchor="start" x="2120.82" y="-2500.99" font-family="Arial" font-size="24.00" fill="#475569">databases from</text>
<text text-anchor="start" x="2120.32" y="-2480.99" font-family="Arial" font-size="19.00" fill="#475569">[sqlite3 backup API]</text>
</g>
<!-- 25 -->
<g id="25" class="node">
<title>25</title>
<path fill="#fef3c7" stroke="#d97706" d="M2912.32,-1929.4C2912.32,-1949.36 2796.01,-1965.56 2652.82,-1965.56 2509.64,-1965.56 2393.32,-1949.36 2393.32,-1929.4 2393.32,-1929.4 2393.32,-1603.97 2393.32,-1603.97 2393.32,-1584.02 2509.64,-1567.81 2652.82,-1567.81 2796.01,-1567.81 2912.32,-1584.02 2912.32,-1603.97 2912.32,-1603.97 2912.32,-1929.4 2912.32,-1929.4"/>
<path fill="none" stroke="#d97706" d="M2912.32,-1929.4C2912.32,-1909.45 2796.01,-1893.24 2652.82,-1893.24 2509.64,-1893.24 2393.32,-1909.45 2393.32,-1929.4"/>
<text text-anchor="start" x="2485.82" y="-1862.99" font-family="Arial" font-size="34.00" fill="#111827">Run Ledger and Local</text>
<text text-anchor="start" x="2612.82" y="-1828.99" font-family="Arial" font-size="34.00" fill="#111827">State</text>
<text text-anchor="start" x="2425.82" y="-1806.99" font-family="Arial" font-size="19.00" fill="#111827">[Container: SQLite + JSON + logs on WSL filesystem]</text>
<text text-anchor="start" x="2514.32" y="-1769.99" font-family="Arial" font-size="24.00" fill="#111827">Local status, pruned logs,</text>
<text text-anchor="start" x="2504.32" y="-1745.99" font-family="Arial" font-size="24.00" fill="#111827">SQLite run ledger, exported</text>
<text text-anchor="start" x="2516.32" y="-1721.99" font-family="Arial" font-size="24.00" fill="#111827">run&#45;history JSON, SQLite</text>
<text text-anchor="start" x="2488.82" y="-1697.99" font-family="Arial" font-size="24.00" fill="#111827">snapshot cache, and Windows</text>
<text text-anchor="start" x="2536.82" y="-1673.99" font-family="Arial" font-size="24.00" fill="#111827">manifest cache under</text>
<text text-anchor="start" x="2422.32" y="-1649.99" font-family="Arial" font-size="24.00" fill="#111827">~/.local/state/workstation&#45;workflow&#45;backup.</text>
</g>
<!-- 16&#45;&gt;25 -->
<g id="48" class="edge">
<title>16&#45;&gt;25</title>
<path fill="none" stroke="#475569" stroke-dasharray="5,2" d="M1942.1,-2027.24C2077.57,-1977.5 2245.21,-1915.96 2383.55,-1865.17"/>
<polygon fill="#475569" stroke="#475569" points="2384.86,-1868.42 2393.04,-1861.69 2382.45,-1861.85 2384.86,-1868.42"/>
<polygon fill="white" stroke="transparent" points="2091.82,-1983.69 2091.82,-2082.69 2316.82,-2082.69 2316.82,-1983.69 2091.82,-1983.69"/>
<text text-anchor="start" x="2102.32" y="-2059.99" font-family="Arial" font-size="24.00" fill="#475569">Writes local SQLite</text>
<text text-anchor="start" x="2096.32" y="-2035.99" font-family="Arial" font-size="24.00" fill="#475569">snapshot cache and</text>
<text text-anchor="start" x="2124.32" y="-2011.99" font-family="Arial" font-size="24.00" fill="#475569">manifest under</text>
<text text-anchor="start" x="2156.32" y="-1991.99" font-family="Arial" font-size="19.00" fill="#475569">[filesystem]</text>
</g>
<!-- 17&#45;&gt;27 -->
<g id="57" class="edge">
<title>17&#45;&gt;27</title>
<path fill="none" stroke="#475569" stroke-dasharray="5,2" d="M1965.89,-1394.38C2102.3,-1341.91 2258.86,-1259.13 2357.32,-1134.69 2399.33,-1081.6 2357.94,-1044.4 2393.32,-986.69 2405.9,-966.17 2421.01,-946.56 2437.53,-928.1"/>
<polygon fill="#475569" stroke="#475569" points="2440.53,-930 2444.69,-920.26 2435.37,-925.28 2440.53,-930"/>
<polygon fill="white" stroke="transparent" points="2061.82,-1357.69 2061.82,-1432.69 2346.82,-1432.69 2346.82,-1357.69 2061.82,-1357.69"/>
<text text-anchor="start" x="2066.32" y="-1409.99" font-family="Arial" font-size="24.00" fill="#475569">Mirrors selected Windows</text>
<text text-anchor="start" x="2134.32" y="-1385.99" font-family="Arial" font-size="24.00" fill="#475569">artifacts from</text>
<text text-anchor="start" x="2142.82" y="-1365.99" font-family="Arial" font-size="19.00" fill="#475569">[robocopy.exe]</text>
</g>
<!-- 17&#45;&gt;28 -->
<g id="59" class="edge">
<title>17&#45;&gt;28</title>
<path fill="none" stroke="#475569" stroke-dasharray="5,2" d="M1855.18,-1219.41C1909.82,-1152.2 1976.24,-1086.07 2051.32,-1041.69 2170.56,-971.21 2265.12,-1086.04 2357.32,-982.69 2426.91,-904.69 2347.41,-607.59 2393.32,-513.69 2407.51,-484.68 2426.97,-457.57 2448.91,-432.83"/>
<polygon fill="#475569" stroke="#475569" points="2451.68,-434.99 2455.8,-425.23 2446.49,-430.29 2451.68,-434.99"/>
<polygon fill="white" stroke="transparent" points="2051.32,-1041.69 2051.32,-1116.69 2357.32,-1116.69 2357.32,-1041.69 2051.32,-1041.69"/>
<text text-anchor="start" x="2055.32" y="-1093.99" font-family="Arial" font-size="24.00" fill="#475569">Writes current/windows and</text>
<text text-anchor="start" x="2086.82" y="-1069.99" font-family="Arial" font-size="24.00" fill="#475569">Windows manifests to</text>
<text text-anchor="start" x="2151.82" y="-1049.99" font-family="Arial" font-size="19.00" fill="#475569">[SMB share]</text>
</g>
<!-- 17&#45;&gt;25 -->
<g id="60" class="edge">
<title>17&#45;&gt;25</title>
<path fill="none" stroke="#475569" stroke-dasharray="5,2" d="M1962.95,-1555.46C2094.39,-1595.77 2251.98,-1644.09 2383.24,-1684.33"/>
<polygon fill="#475569" stroke="#475569" points="2382.45,-1687.75 2393.04,-1687.34 2384.5,-1681.06 2382.45,-1687.75"/>
<polygon fill="white" stroke="transparent" points="2058.82,-1670.69 2058.82,-1730.69 2349.82,-1730.69 2349.82,-1670.69 2058.82,-1670.69"/>
<text text-anchor="start" x="2063.32" y="-1707.49" font-family="Arial" font-size="24.00" fill="#475569">Leaves manifest cache for</text>
<text text-anchor="start" x="2108.32" y="-1681.49" font-family="Arial" font-size="24.00" fill="#475569">ledger summaries</text>
</g>
<!-- 20 -->
<g id="20" class="node">
<title>20</title>
<polygon fill="#ecfeff" stroke="#0891b2" points="1035.49,-1340.69 784.91,-1576.62 283.75,-1576.62 33.17,-1340.69 283.75,-1104.75 784.91,-1104.75 1035.49,-1340.69"/>
<text text-anchor="start" x="417.33" y="-1436.99" font-family="Arial" font-size="34.00" fill="#111827">Restricted NAS</text>
<text text-anchor="start" x="353.83" y="-1402.99" font-family="Arial" font-size="34.00" fill="#111827">Runtime SSH Boundary</text>
<text text-anchor="start" x="256.33" y="-1380.99" font-family="Arial" font-size="19.00" fill="#111827">[Container: OpenSSH forced command + sudoers + ZFS refquota]</text>
<text text-anchor="start" x="407.83" y="-1343.99" font-family="Arial" font-size="24.00" fill="#111827">Dedicated runtime NAS</text>
<text text-anchor="start" x="396.83" y="-1319.99" font-family="Arial" font-size="24.00" fill="#111827">user/key, pinned host&#45;key</text>
<text text-anchor="start" x="378.33" y="-1295.99" font-family="Arial" font-size="24.00" fill="#111827">verification, forced&#45;command</text>
<text text-anchor="start" x="397.33" y="-1271.99" font-family="Arial" font-size="24.00" fill="#111827">dispatcher, sudo allowlist,</text>
<text text-anchor="start" x="422.83" y="-1247.99" font-family="Arial" font-size="24.00" fill="#111827">and refquota&#45;backed</text>
<text text-anchor="start" x="385.33" y="-1223.99" font-family="Arial" font-size="24.00" fill="#111827">current&#45;tree write boundary.</text>
</g>
<!-- 20&#45;&gt;28 -->
<g id="51" class="edge">
<title>20&#45;&gt;28</title>
<path fill="none" stroke="#475569" stroke-dasharray="5,2" d="M632.64,-1104.58C722.32,-911.57 871.77,-642.75 1071.66,-466.69 1456.13,-128.04 2112.82,-181.38 2445.56,-236.5"/>
<polygon fill="#475569" stroke="#475569" points="2445.35,-240.01 2455.79,-238.21 2446.51,-233.11 2445.35,-240.01"/>
<polygon fill="white" stroke="transparent" points="1539.99,-290.69 1539.99,-389.69 1843.99,-389.69 1843.99,-290.69 1539.99,-290.69"/>
<text text-anchor="start" x="1543.99" y="-366.99" font-family="Arial" font-size="24.00" fill="#475569">Allows receiver&#45;mode rsync</text>
<text text-anchor="start" x="1578.49" y="-342.99" font-family="Arial" font-size="24.00" fill="#475569">and mkdir only under</text>
<text text-anchor="start" x="1629.49" y="-318.99" font-family="Arial" font-size="24.00" fill="#475569">current tree</text>
<text text-anchor="start" x="1581.99" y="-298.99" font-family="Arial" font-size="19.00" fill="#475569">[forced command + rsync]</text>
</g>
</g>
</svg>
