<?xml version="1.0" encoding="UTF-8" standalone="no"?>
<!DOCTYPE svg PUBLIC "-//W3C//DTD SVG 1.1//EN"
 "http://www.w3.org/Graphics/SVG/1.1/DTD/svg11.dtd">
<!-- Generated by graphviz version 2.43.0 (0)
 -->
<!-- Title: %3 Pages: 1 -->
<svg width="4133pt" height="2719pt"
 viewBox="0.00 0.00 4132.73 2718.87" xmlns="http://www.w3.org/2000/svg" xmlns:xlink="http://www.w3.org/1999/xlink">
<g id="graph0" class="graph" transform="scale(1 1) rotate(0) translate(4 2714.87)">
<title>%3</title>
<polygon fill="white" stroke="transparent" points="-4,4 -4,-2714.87 4128.73,-2714.87 4128.73,4 -4,4"/>
<text text-anchor="start" x="1482.36" y="-35.8" font-family="Arial" font-size="34.00">Component View: WORKSTATION1 Workflow Backup &#45; Backup Orchestrator</text>
<text text-anchor="start" x="1370.36" y="-9.8" font-family="Arial" font-size="24.00">C3: workflow&#45;backup.sh control path for argument handling, locking, status, ledger, guard checks, publication, and error handling.</text>
<g id="clust1" class="cluster">
<title>cluster_2</title>
<polygon fill="none" stroke="#444444" points="8,-864.87 8,-2702.87 4116.73,-2702.87 4116.73,-864.87 8,-864.87"/>
<text text-anchor="start" x="1871.36" y="-893.67" font-family="Arial" font-size="24.00" fill="#444444">WORKSTATION1 Workflow Backup</text>
<text text-anchor="start" x="1985.36" y="-873.67" font-family="Arial" font-size="19.00" fill="#444444">[Software System]</text>
</g>
<g id="clust2" class="cluster">
<title>cluster_4</title>
<polygon fill="none" stroke="#444444" points="319.83,-1680.87 319.83,-2677.87 3109.99,-2677.87 3109.99,-1680.87 319.83,-1680.87"/>
<text text-anchor="start" x="1603.41" y="-1709.67" font-family="Arial" font-size="24.00" fill="#444444">Backup Orchestrator</text>
<text text-anchor="start" x="1641.41" y="-1689.67" font-family="Arial" font-size="19.00" fill="#444444">[Container: Bash]</text>
</g>
<!-- 28 -->
<g id="28" class="node">
<title>28</title>
<path fill="#fef3c7" stroke="#d97706" d="M4029.23,-443.59C4029.23,-463.54 3940.93,-479.75 3832.23,-479.75 3723.53,-479.75 3635.23,-463.54 3635.23,-443.59 3635.23,-443.59 3635.23,-118.15 3635.23,-118.15 3635.23,-98.2 3723.53,-81.99 3832.23,-81.99 3940.93,-81.99 4029.23,-98.2 4029.23,-118.15 4029.23,-118.15 4029.23,-443.59 4029.23,-443.59"/>
<path fill="none" stroke="#d97706" d="M4029.23,-443.59C4029.23,-423.63 3940.93,-407.43 3832.23,-407.43 3723.53,-407.43 3635.23,-423.63 3635.23,-443.59"/>
<text text-anchor="start" x="3701.23" y="-377.17" font-family="Arial" font-size="34.00" fill="#111827">TrueNAS Backup</text>
<text text-anchor="start" x="3773.23" y="-343.17" font-family="Arial" font-size="34.00" fill="#111827">Dataset</text>
<text text-anchor="start" x="3755.23" y="-321.17" font-family="Arial" font-size="19.00" fill="#111827">[Software System]</text>
<text text-anchor="start" x="3664.23" y="-284.17" font-family="Arial" font-size="24.00" fill="#111827">Configured encrypted TrueNAS</text>
<text text-anchor="start" x="3690.73" y="-260.17" font-family="Arial" font-size="24.00" fill="#111827">dataset with current mirror</text>
<text text-anchor="start" x="3682.73" y="-236.17" font-family="Arial" font-size="24.00" fill="#111827">tree, manifests, SMB share,</text>
<text text-anchor="start" x="3683.73" y="-212.17" font-family="Arial" font-size="24.00" fill="#111827">restore checksum manifest,</text>
<text text-anchor="start" x="3681.73" y="-188.17" font-family="Arial" font-size="24.00" fill="#111827">refquota, and ZFS snapshot</text>
<text text-anchor="start" x="3793.73" y="-164.17" font-family="Arial" font-size="24.00" fill="#111827">history.</text>
</g>
<!-- 29 -->
<g id="29" class="node">
<title>29</title>
<polygon fill="#f3e8ff" stroke="#9333ea" points="4034.23,-840.37 3630.23,-840.37 3630.23,-551.37 4034.23,-551.37 4034.23,-840.37"/>
<text text-anchor="start" x="3671.23" y="-792.17" font-family="Arial" font-size="34.00" fill="#111827">TrueNAS Middleware</text>
<text text-anchor="start" x="3659.23" y="-758.17" font-family="Arial" font-size="34.00" fill="#111827">and ZFS Control Plane</text>
<text text-anchor="start" x="3755.23" y="-736.17" font-family="Arial" font-size="19.00" fill="#111827">[Software System]</text>
<text text-anchor="start" x="3684.73" y="-699.17" font-family="Arial" font-size="24.00" fill="#111827">Configured admin SSH and</text>
<text text-anchor="start" x="3679.73" y="-675.17" font-family="Arial" font-size="24.00" fill="#111827">middleware surface used for</text>
<text text-anchor="start" x="3676.73" y="-651.17" font-family="Arial" font-size="24.00" fill="#111827">ZFS properties, runtime&#45;user</text>
<text text-anchor="start" x="3682.23" y="-627.17" font-family="Arial" font-size="24.00" fill="#111827">setup, snapshot tasks, SMB</text>
<text text-anchor="start" x="3701.73" y="-603.17" font-family="Arial" font-size="24.00" fill="#111827">share configuration, and</text>
<text text-anchor="start" x="3770.73" y="-579.17" font-family="Arial" font-size="24.00" fill="#111827">verification.</text>
</g>
<!-- 13 -->
<g id="13" class="node">
<title>13</title>
<polygon fill="#f0fdf4" stroke="#22c55e" points="3084.99,-2036.37 2611.99,-2036.37 2611.99,-1781.37 3084.99,-1781.37 3084.99,-2036.37"/>
<text text-anchor="start" x="2684.49" y="-1988.17" font-family="Arial" font-size="34.00" fill="#111827">NAS Status Publisher</text>
<text text-anchor="start" x="2640.99" y="-1966.17" font-family="Arial" font-size="19.00" fill="#111827">[Component: Python + rsync over restricted SSH]</text>
<text text-anchor="start" x="2715.49" y="-1929.17" font-family="Arial" font-size="24.00" fill="#111827">Exports the run ledger to</text>
<text text-anchor="start" x="2693.99" y="-1905.17" font-family="Arial" font-size="24.00" fill="#111827">JSON/SQLite snapshots and</text>
<text text-anchor="start" x="2708.49" y="-1881.17" font-family="Arial" font-size="24.00" fill="#111827">rsyncs last&#45;run/run&#45;history</text>
<text text-anchor="start" x="2690.49" y="-1857.17" font-family="Arial" font-size="24.00" fill="#111827">manifests to NAS through the</text>
<text text-anchor="start" x="2726.49" y="-1833.17" font-family="Arial" font-size="24.00" fill="#111827">restricted runtime SSH</text>
<text text-anchor="start" x="2794.99" y="-1809.17" font-family="Arial" font-size="24.00" fill="#111827">boundary.</text>
</g>
<!-- 13&#45;&gt;28 -->
<g id="92" class="edge">
<title>13&#45;&gt;28</title>
<path fill="none" stroke="#475569" stroke-dasharray="5,2" d="M3085.3,-1869.01C3135.86,-1849.57 3183.88,-1820.71 3216.73,-1777.87 3277.5,-1698.61 3188.79,-1406.6 3252.73,-1329.87 3336.38,-1229.49 3454.67,-1355.55 3536.73,-1253.87 3588.36,-1189.89 3537.57,-589.18 3572.73,-514.87 3586.63,-485.49 3606.07,-458.14 3628.12,-433.26"/>
<polygon fill="#475569" stroke="#475569" points="3630.92,-435.38 3635.04,-425.62 3625.73,-430.68 3630.92,-435.38"/>
<polygon fill="white" stroke="transparent" points="3259.23,-1329.87 3259.23,-1452.87 3530.23,-1452.87 3530.23,-1329.87 3259.23,-1329.87"/>
<text text-anchor="start" x="3342.73" y="-1430.17" font-family="Arial" font-size="24.00" fill="#475569">Publishes</text>
<text text-anchor="start" x="3263.73" y="-1406.17" font-family="Arial" font-size="24.00" fill="#475569">_manifests/last&#45;run.json,</text>
<text text-anchor="start" x="3306.23" y="-1382.17" font-family="Arial" font-size="24.00" fill="#475569">runs.sqlite3, and</text>
<text text-anchor="start" x="3299.23" y="-1358.17" font-family="Arial" font-size="24.00" fill="#475569">run&#45;history.json to</text>
<text text-anchor="start" x="3303.23" y="-1338.17" font-family="Arial" font-size="19.00" fill="#475569">[restricted SSH rsync]</text>
</g>
<!-- 25 -->
<g id="25" class="node">
<title>25</title>
<path fill="#fef3c7" stroke="#d97706" d="M4091.73,-2403.59C4091.73,-2423.54 3975.42,-2439.75 3832.23,-2439.75 3689.04,-2439.75 3572.73,-2423.54 3572.73,-2403.59 3572.73,-2403.59 3572.73,-2078.15 3572.73,-2078.15 3572.73,-2058.2 3689.04,-2041.99 3832.23,-2041.99 3975.42,-2041.99 4091.73,-2058.2 4091.73,-2078.15 4091.73,-2078.15 4091.73,-2403.59 4091.73,-2403.59"/>
<path fill="none" stroke="#d97706" d="M4091.73,-2403.59C4091.73,-2383.63 3975.42,-2367.43 3832.23,-2367.43 3689.04,-2367.43 3572.73,-2383.63 3572.73,-2403.59"/>
<text text-anchor="start" x="3665.23" y="-2337.17" font-family="Arial" font-size="34.00" fill="#111827">Run Ledger and Local</text>
<text text-anchor="start" x="3792.23" y="-2303.17" font-family="Arial" font-size="34.00" fill="#111827">State</text>
<text text-anchor="start" x="3605.23" y="-2281.17" font-family="Arial" font-size="19.00" fill="#111827">[Container: SQLite + JSON + logs on WSL filesystem]</text>
<text text-anchor="start" x="3693.73" y="-2244.17" font-family="Arial" font-size="24.00" fill="#111827">Local status, pruned logs,</text>
<text text-anchor="start" x="3683.73" y="-2220.17" font-family="Arial" font-size="24.00" fill="#111827">SQLite run ledger, exported</text>
<text text-anchor="start" x="3695.73" y="-2196.17" font-family="Arial" font-size="24.00" fill="#111827">run&#45;history JSON, SQLite</text>
<text text-anchor="start" x="3668.23" y="-2172.17" font-family="Arial" font-size="24.00" fill="#111827">snapshot cache, and Windows</text>
<text text-anchor="start" x="3716.23" y="-2148.17" font-family="Arial" font-size="24.00" fill="#111827">manifest cache under</text>
<text text-anchor="start" x="3601.73" y="-2124.17" font-family="Arial" font-size="24.00" fill="#111827">~/.local/state/workstation&#45;workflow&#45;backup.</text>
</g>
<!-- 13&#45;&gt;25 -->
<g id="91" class="edge">
<title>13&#45;&gt;25</title>
<path fill="none" stroke="#475569" stroke-dasharray="5,2" d="M3085.26,-1988.6C3229.04,-2037.23 3413.26,-2099.52 3562.65,-2150.04"/>
<polygon fill="#475569" stroke="#475569" points="3561.84,-2153.46 3572.44,-2153.35 3564.09,-2146.83 3561.84,-2153.46"/>
<polygon fill="white" stroke="transparent" points="3252.73,-2132.87 3252.73,-2207.87 3536.73,-2207.87 3536.73,-2132.87 3252.73,-2132.87"/>
<text text-anchor="start" x="3256.73" y="-2185.17" font-family="Arial" font-size="24.00" fill="#475569">Snapshots ledger DB and</text>
<text text-anchor="start" x="3266.73" y="-2161.17" font-family="Arial" font-size="24.00" fill="#475569">exports run history from</text>
<text text-anchor="start" x="3361.23" y="-2141.17" font-family="Arial" font-size="19.00" fill="#475569">[sqlite3]</text>
</g>
<!-- 14 -->
<g id="14" class="node">
<title>14</title>
<polygon fill="#f0fdf4" stroke="#22c55e" points="723.83,-2046.37 344.83,-2046.37 344.83,-1781.37 723.83,-1781.37 723.83,-2046.37"/>
<text text-anchor="start" x="403.83" y="-1998.17" font-family="Arial" font-size="34.00" fill="#111827">Integrity Manifest</text>
<text text-anchor="start" x="485.83" y="-1964.17" font-family="Arial" font-size="34.00" fill="#111827">Phase</text>
<text text-anchor="start" x="380.83" y="-1942.17" font-family="Arial" font-size="19.00" fill="#111827">[Component: Bash + restricted SSH]</text>
<text text-anchor="start" x="373.83" y="-1905.17" font-family="Arial" font-size="24.00" fill="#111827">Runs the NAS&#45;side checksum</text>
<text text-anchor="start" x="377.33" y="-1881.17" font-family="Arial" font-size="24.00" fill="#111827">helper after successful status</text>
<text text-anchor="start" x="433.83" y="-1857.17" font-family="Arial" font-size="24.00" fill="#111827">publication to write</text>
<text text-anchor="start" x="405.83" y="-1833.17" font-family="Arial" font-size="24.00" fill="#111827">restore&#45;critical SHA&#45;256</text>
<text text-anchor="start" x="482.33" y="-1809.17" font-family="Arial" font-size="24.00" fill="#111827">evidence.</text>
</g>
<!-- 14&#45;&gt;28 -->
<g id="94" class="edge">
<title>14&#45;&gt;28</title>
<path fill="none" stroke="#475569" stroke-dasharray="5,2" d="M723.88,-1914.29C832.71,-1903.66 962.18,-1870.24 1035.66,-1777.87 1100.11,-1696.86 1004.68,-925.81 1071.66,-846.87 1403.26,-456.02 3041.87,-325.76 3624.87,-291.39"/>
<polygon fill="#475569" stroke="#475569" points="3625.29,-294.87 3635.07,-290.79 3624.88,-287.88 3625.29,-294.87"/>
<polygon fill="white" stroke="transparent" points="2167.75,-451.87 2167.75,-550.87 2411.75,-550.87 2411.75,-451.87 2167.75,-451.87"/>
<text text-anchor="start" x="2237.25" y="-528.17" font-family="Arial" font-size="24.00" fill="#475569">Publishes</text>
<text text-anchor="start" x="2171.75" y="-504.17" font-family="Arial" font-size="24.00" fill="#475569">integrity&#45;manifest.json</text>
<text text-anchor="start" x="2248.25" y="-480.17" font-family="Arial" font-size="24.00" fill="#475569">through</text>
<text text-anchor="start" x="2215.25" y="-460.17" font-family="Arial" font-size="19.00" fill="#475569">[NAS&#45;side helper]</text>
</g>
<!-- 19 -->
<g id="19" class="node">
<title>19</title>
<polygon fill="#ecfeff" stroke="#0891b2" points="2099.04,-1200.87 1928.5,-1436.8 1587.41,-1436.8 1416.86,-1200.87 1587.41,-964.93 1928.5,-964.93 2099.04,-1200.87"/>
<text text-anchor="start" x="1656.95" y="-1297.17" font-family="Arial" font-size="34.00" fill="#111827">NAS Integrity</text>
<text text-anchor="start" x="1635.95" y="-1263.17" font-family="Arial" font-size="34.00" fill="#111827">Manifest Builder</text>
<text text-anchor="start" x="1627.45" y="-1241.17" font-family="Arial" font-size="19.00" fill="#111827">[Container: Python + SHA&#45;256]</text>
<text text-anchor="start" x="1603.95" y="-1204.17" font-family="Arial" font-size="24.00" fill="#111827">NAS&#45;side helper that hashes</text>
<text text-anchor="start" x="1614.95" y="-1180.17" font-family="Arial" font-size="24.00" fill="#111827">restore&#45;critical current&#45;tree</text>
<text text-anchor="start" x="1656.95" y="-1156.17" font-family="Arial" font-size="24.00" fill="#111827">artifacts and writes</text>
<text text-anchor="start" x="1577.95" y="-1132.17" font-family="Arial" font-size="24.00" fill="#111827">_manifests/integrity&#45;manifest.json</text>
<text text-anchor="start" x="1591.45" y="-1108.17" font-family="Arial" font-size="24.00" fill="#111827">for snapshot&#45;preserved restore</text>
<text text-anchor="start" x="1696.45" y="-1084.17" font-family="Arial" font-size="24.00" fill="#111827">verification.</text>
</g>
<!-- 14&#45;&gt;19 -->
<g id="93" class="edge">
<title>14&#45;&gt;19</title>
<path fill="none" stroke="#475569" stroke-dasharray="5,2" d="M724.09,-1881.65C820.74,-1860.49 938.25,-1827.36 1035.66,-1777.87 1091.27,-1749.62 1345.73,-1542.56 1536.78,-1384.49"/>
<polygon fill="#475569" stroke="#475569" points="1539.22,-1387.01 1544.69,-1377.94 1534.75,-1381.62 1539.22,-1387.01"/>
<polygon fill="white" stroke="transparent" points="1071.66,-1749.87 1071.66,-1809.87 1380.66,-1809.87 1380.66,-1749.87 1071.66,-1749.87"/>
<text text-anchor="start" x="1076.16" y="-1786.67" font-family="Arial" font-size="24.00" fill="#475569">Requests restore checksum</text>
<text text-anchor="start" x="1152.66" y="-1760.67" font-family="Arial" font-size="24.00" fill="#475569">manifest from</text>
</g>
<!-- 15 -->
<g id="15" class="node">
<title>15</title>
<polygon fill="#f0fdf4" stroke="#22c55e" points="1957.45,-2291.37 1558.45,-2291.37 1558.45,-2084.37 1957.45,-2084.37 1957.45,-2291.37"/>
<text text-anchor="start" x="1681.45" y="-2243.17" font-family="Arial" font-size="34.00" fill="#111827">Error Trap</text>
<text text-anchor="start" x="1635.45" y="-2221.17" font-family="Arial" font-size="19.00" fill="#111827">[Component: Bash ERR trap]</text>
<text text-anchor="start" x="1587.45" y="-2184.17" font-family="Arial" font-size="24.00" fill="#111827">Converts command failures into</text>
<text text-anchor="start" x="1616.45" y="-2160.17" font-family="Arial" font-size="24.00" fill="#111827">failed status, ledger event,</text>
<text text-anchor="start" x="1608.45" y="-2136.17" font-family="Arial" font-size="24.00" fill="#111827">best&#45;effort NAS status sync,</text>
<text text-anchor="start" x="1622.95" y="-2112.17" font-family="Arial" font-size="24.00" fill="#111827">and nonzero service exit.</text>
</g>
<!-- 15&#45;&gt;13 -->
<g id="97" class="edge">
<title>15&#45;&gt;13</title>
<path fill="none" stroke="#475569" stroke-dasharray="5,2" d="M1957.78,-2130.41C2014.96,-2114.28 2077.47,-2097.02 2135.25,-2081.87 2290.01,-2041.29 2464.56,-1998.84 2602.13,-1966.15"/>
<polygon fill="#475569" stroke="#475569" points="2603.05,-1969.53 2611.97,-1963.81 2601.43,-1962.71 2603.05,-1969.53"/>
<polygon fill="white" stroke="transparent" points="2159.25,-2081.87 2159.25,-2141.87 2420.25,-2141.87 2420.25,-2081.87 2159.25,-2081.87"/>
<text text-anchor="start" x="2163.75" y="-2118.67" font-family="Arial" font-size="24.00" fill="#475569">Best&#45;effort syncs failure</text>
<text text-anchor="start" x="2213.25" y="-2092.67" font-family="Arial" font-size="24.00" fill="#475569">status through</text>
</g>
<!-- 7 -->
<g id="7" class="node">
<title>7</title>
<polygon fill="#f0fdf4" stroke="#22c55e" points="3056.49,-2373.37 2640.49,-2373.37 2640.49,-2108.37 3056.49,-2108.37 3056.49,-2373.37"/>
<text text-anchor="start" x="2695.99" y="-2325.17" font-family="Arial" font-size="34.00" fill="#111827">Log and Last&#45;Status</text>
<text text-anchor="start" x="2802.99" y="-2291.17" font-family="Arial" font-size="34.00" fill="#111827">Writer</text>
<text text-anchor="start" x="2669.49" y="-2269.17" font-family="Arial" font-size="19.00" fill="#111827">[Component: Bash + Python JSON helper]</text>
<text text-anchor="start" x="2712.99" y="-2232.17" font-family="Arial" font-size="24.00" fill="#111827">Prunes old local logs and</text>
<text text-anchor="start" x="2722.99" y="-2208.17" font-family="Arial" font-size="24.00" fill="#111827">writes per&#45;run logs plus</text>
<text text-anchor="start" x="2727.99" y="-2184.17" font-family="Arial" font-size="24.00" fill="#111827">last&#45;run.json with host,</text>
<text text-anchor="start" x="2716.49" y="-2160.17" font-family="Arial" font-size="24.00" fill="#111827">status, duration, dry&#45;run,</text>
<text text-anchor="start" x="2745.99" y="-2136.17" font-family="Arial" font-size="24.00" fill="#111827">error, and log path.</text>
</g>
<!-- 15&#45;&gt;7 -->
<g id="95" class="edge">
<title>15&#45;&gt;7</title>
<path fill="none" stroke="#475569" stroke-dasharray="5,2" d="M1957.57,-2174.71C2014.89,-2171.47 2077.53,-2168.48 2135.25,-2166.87 2272.53,-2163.04 2307.48,-2154.42 2444.25,-2166.87 2505.02,-2172.4 2570.3,-2182.52 2630.27,-2193.55"/>
<polygon fill="#475569" stroke="#475569" points="2629.76,-2197.01 2640.23,-2195.39 2631.04,-2190.13 2629.76,-2197.01"/>
<polygon fill="white" stroke="transparent" points="2184.75,-2166.87 2184.75,-2226.87 2394.75,-2226.87 2394.75,-2166.87 2184.75,-2166.87"/>
<text text-anchor="start" x="2188.75" y="-2203.67" font-family="Arial" font-size="24.00" fill="#475569">Marks failed status</text>
<text text-anchor="start" x="2248.25" y="-2177.67" font-family="Arial" font-size="24.00" fill="#475569">through</text>
</g>
<!-- 8 -->
<g id="8" class="node">
<title>8</title>
<polygon fill="#f0fdf4" stroke="#22c55e" points="3053.99,-2652.37 2642.99,-2652.37 2642.99,-2445.37 3053.99,-2445.37 3053.99,-2652.37"/>
<text text-anchor="start" x="2696.49" y="-2604.17" font-family="Arial" font-size="34.00" fill="#111827">Run Ledger Adapter</text>
<text text-anchor="start" x="2686.99" y="-2582.17" font-family="Arial" font-size="19.00" fill="#111827">[Component: record&#45;run&#45;ledger.py CLI]</text>
<text text-anchor="start" x="2800.49" y="-2545.17" font-family="Arial" font-size="24.00" fill="#111827">Appends</text>
<text text-anchor="start" x="2674.49" y="-2521.17" font-family="Arial" font-size="24.00" fill="#111827">started/completed/failed/skipped</text>
<text text-anchor="start" x="2671.99" y="-2497.17" font-family="Arial" font-size="24.00" fill="#111827">events with SQLite and Windows</text>
<text text-anchor="start" x="2736.49" y="-2473.17" font-family="Arial" font-size="24.00" fill="#111827">manifest summaries.</text>
</g>
<!-- 15&#45;&gt;8 -->
<g id="96" class="edge">
<title>15&#45;&gt;8</title>
<path fill="none" stroke="#475569" stroke-dasharray="5,2" d="M1957.63,-2215.21C2153.29,-2242.92 2425.61,-2283.9 2444.25,-2299.87 2483.32,-2333.33 2444.71,-2372.68 2480.25,-2409.87 2521.43,-2452.97 2577.32,-2482.84 2633.07,-2503.5"/>
<polygon fill="#475569" stroke="#475569" points="2632.15,-2506.89 2642.75,-2506.99 2634.53,-2500.3 2632.15,-2506.89"/>
<polygon fill="white" stroke="transparent" points="2175.25,-2299.87 2175.25,-2359.87 2404.25,-2359.87 2404.25,-2299.87 2175.25,-2299.87"/>
<text text-anchor="start" x="2179.75" y="-2336.67" font-family="Arial" font-size="24.00" fill="#475569">Records failed event</text>
<text text-anchor="start" x="2248.75" y="-2310.67" font-family="Arial" font-size="24.00" fill="#475569">through</text>
</g>
<!-- 5 -->
<g id="5" class="node">
<title>5</title>
<polygon fill="#f0fdf4" stroke="#22c55e" points="719.83,-2611.37 348.83,-2611.37 348.83,-2404.37 719.83,-2404.37 719.83,-2611.37"/>
<text text-anchor="start" x="405.83" y="-2563.17" font-family="Arial" font-size="34.00" fill="#111827">Argument Parser</text>
<text text-anchor="start" x="400.83" y="-2541.17" font-family="Arial" font-size="19.00" fill="#111827">[Component: Bash case parser]</text>
<text text-anchor="start" x="377.83" y="-2504.17" font-family="Arial" font-size="24.00" fill="#111827">Handles &#45;&#45;dry&#45;run, &#45;&#45;verbose,</text>
<text text-anchor="start" x="392.83" y="-2480.17" font-family="Arial" font-size="24.00" fill="#111827">&#45;&#45;skip&#45;windows, &#45;&#45;skip&#45;wsl,</text>
<text text-anchor="start" x="406.33" y="-2456.17" font-family="Arial" font-size="24.00" fill="#111827">and &#45;&#45;quick&#45;check&#45;sqlite</text>
<text text-anchor="start" x="505.33" y="-2432.17" font-family="Arial" font-size="24.00" fill="#111827">flags.</text>
</g>
<!-- 6 -->
<g id="6" class="node">
<title>6</title>
<polygon fill="#f0fdf4" stroke="#22c55e" points="1952.45,-2623.37 1563.45,-2623.37 1563.45,-2392.37 1952.45,-2392.37 1952.45,-2623.37"/>
<text text-anchor="start" x="1592.45" y="-2575.17" font-family="Arial" font-size="34.00" fill="#111827">Lock and Run Identity</text>
<text text-anchor="start" x="1645.95" y="-2553.17" font-family="Arial" font-size="19.00" fill="#111827">[Component: Bash + flock]</text>
<text text-anchor="start" x="1617.95" y="-2516.17" font-family="Arial" font-size="24.00" fill="#111827">Creates the local state/log</text>
<text text-anchor="start" x="1610.95" y="-2492.17" font-family="Arial" font-size="24.00" fill="#111827">directories, acquires a flock</text>
<text text-anchor="start" x="1611.45" y="-2468.17" font-family="Arial" font-size="24.00" fill="#111827">lock, generates run_id, and</text>
<text text-anchor="start" x="1642.45" y="-2444.17" font-family="Arial" font-size="24.00" fill="#111827">skips concurrent runs</text>
<text text-anchor="start" x="1718.45" y="-2420.17" font-family="Arial" font-size="24.00" fill="#111827">silently.</text>
</g>
<!-- 5&#45;&gt;6 -->
<g id="78" class="edge">
<title>5&#45;&gt;6</title>
<path fill="none" stroke="#475569" stroke-dasharray="5,2" d="M719.87,-2507.87C943.91,-2507.87 1320.54,-2507.87 1553,-2507.87"/>
<polygon fill="#475569" stroke="#475569" points="1553.27,-2511.37 1563.27,-2507.87 1553.27,-2504.37 1553.27,-2511.37"/>
<polygon fill="white" stroke="transparent" points="1079.16,-2507.87 1079.16,-2567.87 1373.16,-2567.87 1373.16,-2507.87 1079.16,-2507.87"/>
<text text-anchor="start" x="1083.16" y="-2544.67" font-family="Arial" font-size="24.00" fill="#475569">Passes selected run mode</text>
<text text-anchor="start" x="1215.66" y="-2518.67" font-family="Arial" font-size="24.00" fill="#475569">to</text>
</g>
<!-- 6&#45;&gt;7 -->
<g id="79" class="edge">
<title>6&#45;&gt;7</title>
<path fill="none" stroke="#475569" stroke-dasharray="5,2" d="M1952.82,-2474.22C2121.79,-2444.32 2353.57,-2401.75 2444.25,-2377.87 2505.5,-2361.74 2570.91,-2341.06 2630.84,-2320.69"/>
<polygon fill="#475569" stroke="#475569" points="2632.08,-2323.97 2640.41,-2317.42 2629.82,-2317.34 2632.08,-2323.97"/>
<polygon fill="white" stroke="transparent" points="2157.25,-2439.87 2157.25,-2499.87 2422.25,-2499.87 2422.25,-2439.87 2157.25,-2439.87"/>
<text text-anchor="start" x="2161.75" y="-2476.67" font-family="Arial" font-size="24.00" fill="#475569">Initializes log and status</text>
<text text-anchor="start" x="2242.75" y="-2450.67" font-family="Arial" font-size="24.00" fill="#475569">paths for</text>
</g>
<!-- 6&#45;&gt;8 -->
<g id="80" class="edge">
<title>6&#45;&gt;8</title>
<path fill="none" stroke="#475569" stroke-dasharray="5,2" d="M1952.62,-2515.16C2143.48,-2522.35 2434.47,-2533.31 2632.41,-2540.77"/>
<polygon fill="#475569" stroke="#475569" points="2632.53,-2544.28 2642.65,-2541.15 2632.79,-2537.28 2632.53,-2544.28"/>
<polygon fill="white" stroke="transparent" points="2135.25,-2532.87 2135.25,-2592.87 2444.25,-2592.87 2444.25,-2532.87 2135.25,-2532.87"/>
<text text-anchor="start" x="2139.75" y="-2569.67" font-family="Arial" font-size="24.00" fill="#475569">Records skipped_lock when</text>
<text text-anchor="start" x="2180.75" y="-2543.67" font-family="Arial" font-size="24.00" fill="#475569">another run is active</text>
</g>
<!-- 7&#45;&gt;25 -->
<g id="82" class="edge">
<title>7&#45;&gt;25</title>
<path fill="none" stroke="#475569" stroke-dasharray="5,2" d="M3056.49,-2240.87C3203.61,-2240.87 3402.55,-2240.87 3562,-2240.87"/>
<polygon fill="#475569" stroke="#475569" points="3562.44,-2244.37 3572.44,-2240.87 3562.44,-2237.37 3562.44,-2244.37"/>
<polygon fill="white" stroke="transparent" points="3263.23,-2240.87 3263.23,-2315.87 3526.23,-2315.87 3526.23,-2240.87 3263.23,-2240.87"/>
<text text-anchor="start" x="3267.73" y="-2293.17" font-family="Arial" font-size="24.00" fill="#475569">Writes last&#45;run.json and</text>
<text text-anchor="start" x="3359.23" y="-2269.17" font-family="Arial" font-size="24.00" fill="#475569">logs to</text>
<text text-anchor="start" x="3346.73" y="-2249.17" font-family="Arial" font-size="19.00" fill="#475569">[filesystem]</text>
</g>
<!-- 8&#45;&gt;25 -->
<g id="81" class="edge">
<title>8&#45;&gt;25</title>
<path fill="none" stroke="#475569" stroke-dasharray="5,2" d="M3054.02,-2485.04C3190.71,-2442.34 3374.53,-2384.85 3536.73,-2333.87 3545.37,-2331.15 3554.15,-2328.39 3563.02,-2325.6"/>
<polygon fill="#475569" stroke="#475569" points="3564.18,-2328.9 3572.67,-2322.56 3562.08,-2322.23 3564.18,-2328.9"/>
<polygon fill="white" stroke="transparent" points="3282.73,-2421.87 3282.73,-2472.87 3506.73,-2472.87 3506.73,-2421.87 3282.73,-2421.87"/>
<text text-anchor="start" x="3286.73" y="-2450.17" font-family="Arial" font-size="24.00" fill="#475569">Writes run events to</text>
<text text-anchor="start" x="3361.23" y="-2430.17" font-family="Arial" font-size="19.00" fill="#475569">[sqlite3]</text>
</g>
<!-- 9 -->
<g id="9" class="node">
<title>9</title>
<polygon fill="#f0fdf4" stroke="#22c55e" points="1953.95,-2012.37 1561.95,-2012.37 1561.95,-1781.37 1953.95,-1781.37 1953.95,-2012.37"/>
<text text-anchor="start" x="1590.95" y="-1964.17" font-family="Arial" font-size="34.00" fill="#111827">Growth Guard Runner</text>
<text text-anchor="start" x="1625.45" y="-1942.17" font-family="Arial" font-size="19.00" fill="#111827">[Component: Bash subprocess]</text>
<text text-anchor="start" x="1715.95" y="-1905.17" font-family="Arial" font-size="24.00" fill="#111827">Invokes</text>
<text text-anchor="start" x="1610.45" y="-1881.17" font-family="Arial" font-size="24.00" fill="#111827">check&#45;nas&#45;growth&#45;guard.sh</text>
<text text-anchor="start" x="1613.45" y="-1857.17" font-family="Arial" font-size="24.00" fill="#111827">before and after writes and</text>
<text text-anchor="start" x="1640.45" y="-1833.17" font-family="Arial" font-size="24.00" fill="#111827">fails closed on budget</text>
<text text-anchor="start" x="1703.95" y="-1809.17" font-family="Arial" font-size="24.00" fill="#111827">violations.</text>
</g>
<!-- 9&#45;&gt;7 -->
<g id="84" class="edge">
<title>9&#45;&gt;7</title>
<path fill="none" stroke="#475569" stroke-dasharray="5,2" d="M1954.12,-1849.07C2104.68,-1824.48 2309.35,-1819.41 2444.25,-1929.87 2494.96,-1971.39 2438.32,-2022.5 2480.25,-2072.87 2519.55,-2120.09 2574.97,-2154.66 2630.87,-2179.72"/>
<polygon fill="#475569" stroke="#475569" points="2629.65,-2183 2640.21,-2183.82 2632.46,-2176.59 2629.65,-2183"/>
<polygon fill="white" stroke="transparent" points="2179.75,-1929.87 2179.75,-1989.87 2399.75,-1989.87 2399.75,-1929.87 2179.75,-1929.87"/>
<text text-anchor="start" x="2183.75" y="-1966.67" font-family="Arial" font-size="24.00" fill="#475569">Stores guard failure</text>
<text text-anchor="start" x="2195.75" y="-1940.67" font-family="Arial" font-size="24.00" fill="#475569">message through</text>
</g>
<!-- 18 -->
<g id="18" class="node">
<title>18</title>
<polygon fill="#ecfeff" stroke="#0891b2" points="3216.97,-1447.87 3032.73,-1656.28 2664.25,-1656.28 2480.01,-1447.87 2664.25,-1239.46 3032.73,-1239.46 3216.97,-1447.87"/>
<text text-anchor="start" x="2701.99" y="-1527.17" font-family="Arial" font-size="34.00" fill="#111827">NAS Growth Guard</text>
<text text-anchor="start" x="2651.99" y="-1505.17" font-family="Arial" font-size="19.00" fill="#111827">[Container: Bash + NAS sudo helper + zfs CLI]</text>
<text text-anchor="start" x="2672.49" y="-1468.17" font-family="Arial" font-size="24.00" fill="#111827">Read&#45;only NAS&#45;side ZFS budget</text>
<text text-anchor="start" x="2742.99" y="-1444.17" font-family="Arial" font-size="24.00" fill="#111827">check that enforces</text>
<text text-anchor="start" x="2691.99" y="-1420.17" font-family="Arial" font-size="24.00" fill="#111827">dataset&#45;used, snapshot&#45;held,</text>
<text text-anchor="start" x="2748.99" y="-1396.17" font-family="Arial" font-size="24.00" fill="#111827">availability&#45;dataset</text>
<text text-anchor="start" x="2677.49" y="-1372.17" font-family="Arial" font-size="24.00" fill="#111827">free&#45;space, and snapshot&#45;count</text>
<text text-anchor="start" x="2716.99" y="-1348.17" font-family="Arial" font-size="24.00" fill="#111827">limits before/after writes.</text>
</g>
<!-- 9&#45;&gt;18 -->
<g id="83" class="edge">
<title>9&#45;&gt;18</title>
<path fill="none" stroke="#475569" stroke-dasharray="5,2" d="M1954.38,-1836.5C2002.55,-1819.46 2053.44,-1799.58 2099.25,-1777.87 2116.19,-1769.84 2118.6,-1764.5 2135.25,-1755.87 2273.8,-1684.03 2432.8,-1614.14 2565.38,-1559.14"/>
<polygon fill="#475569" stroke="#475569" points="2566.98,-1562.27 2574.88,-1555.21 2564.3,-1555.8 2566.98,-1562.27"/>
<polygon fill="white" stroke="transparent" points="2162.25,-1755.87 2162.25,-1815.87 2417.25,-1815.87 2417.25,-1755.87 2162.25,-1755.87"/>
<text text-anchor="start" x="2166.75" y="-1792.67" font-family="Arial" font-size="24.00" fill="#475569">Executes guard stages</text>
<text text-anchor="start" x="2248.75" y="-1766.67" font-family="Arial" font-size="24.00" fill="#475569">through</text>
</g>
<!-- 18&#45;&gt;29 -->
<g id="43" class="edge">
<title>18&#45;&gt;29</title>
<path fill="none" stroke="#475569" stroke-dasharray="5,2" d="M3053.51,-1262.87C3194.58,-1138.88 3389.2,-975.42 3572.73,-846.87 3588.32,-835.95 3604.73,-825.07 3621.43,-814.43"/>
<polygon fill="#475569" stroke="#475569" points="3623.6,-817.2 3630.18,-808.89 3619.85,-811.28 3623.6,-817.2"/>
<polygon fill="white" stroke="transparent" points="3269.23,-1081.87 3269.23,-1204.87 3520.23,-1204.87 3520.23,-1081.87 3269.23,-1081.87"/>
<text text-anchor="start" x="3300.73" y="-1182.17" font-family="Arial" font-size="24.00" fill="#475569">Reads ZFS used,</text>
<text text-anchor="start" x="3336.73" y="-1158.17" font-family="Arial" font-size="24.00" fill="#475569">availability,</text>
<text text-anchor="start" x="3273.73" y="-1134.17" font-family="Arial" font-size="24.00" fill="#475569">usedbysnapshots, and</text>
<text text-anchor="start" x="3285.23" y="-1110.17" font-family="Arial" font-size="24.00" fill="#475569">snapshot count from</text>
<text text-anchor="start" x="3297.23" y="-1090.17" font-family="Arial" font-size="19.00" fill="#475569">[NAS&#45;side helper + zfs]</text>
</g>
<!-- 19&#45;&gt;28 -->
<g id="62" class="edge">
<title>19&#45;&gt;28</title>
<path fill="none" stroke="#475569" stroke-dasharray="5,2" d="M2040.68,-1120.12C2401.22,-1010.51 3038.69,-795.34 3536.73,-511.87 3566.93,-494.68 3597.36,-474.6 3626.61,-453.57"/>
<polygon fill="#475569" stroke="#475569" points="3628.78,-456.32 3634.83,-447.62 3624.67,-450.65 3628.78,-456.32"/>
<polygon fill="white" stroke="transparent" points="2708.99,-970.87 2708.99,-1093.87 2987.99,-1093.87 2987.99,-970.87 2708.99,-970.87"/>
<text text-anchor="start" x="2713.49" y="-1071.17" font-family="Arial" font-size="24.00" fill="#475569">Hashes NAS current&#45;tree</text>
<text text-anchor="start" x="2744.99" y="-1047.17" font-family="Arial" font-size="24.00" fill="#475569">critical artifacts and</text>
<text text-anchor="start" x="2816.99" y="-1023.17" font-family="Arial" font-size="24.00" fill="#475569">writes</text>
<text text-anchor="start" x="2717.49" y="-999.17" font-family="Arial" font-size="24.00" fill="#475569">integrity&#45;manifest.json to</text>
<text text-anchor="start" x="2751.49" y="-979.17" font-family="Arial" font-size="19.00" fill="#475569">[SHA&#45;256 + filesystem]</text>
</g>
<!-- 20 -->
<g id="20" class="node">
<title>20</title>
<polygon fill="#ecfeff" stroke="#0891b2" points="1035.49,-1200.87 784.91,-1436.8 283.75,-1436.8 33.17,-1200.87 283.75,-964.93 784.91,-964.93 1035.49,-1200.87"/>
<text text-anchor="start" x="417.33" y="-1297.17" font-family="Arial" font-size="34.00" fill="#111827">Restricted NAS</text>
<text text-anchor="start" x="353.83" y="-1263.17" font-family="Arial" font-size="34.00" fill="#111827">Runtime SSH Boundary</text>
<text text-anchor="start" x="256.33" y="-1241.17" font-family="Arial" font-size="19.00" fill="#111827">[Container: OpenSSH forced command + sudoers + ZFS refquota]</text>
<text text-anchor="start" x="407.83" y="-1204.17" font-family="Arial" font-size="24.00" fill="#111827">Dedicated runtime NAS</text>
<text text-anchor="start" x="396.83" y="-1180.17" font-family="Arial" font-size="24.00" fill="#111827">user/key, pinned host&#45;key</text>
<text text-anchor="start" x="378.33" y="-1156.17" font-family="Arial" font-size="24.00" fill="#111827">verification, forced&#45;command</text>
<text text-anchor="start" x="397.33" y="-1132.17" font-family="Arial" font-size="24.00" fill="#111827">dispatcher, sudo allowlist,</text>
<text text-anchor="start" x="422.83" y="-1108.17" font-family="Arial" font-size="24.00" fill="#111827">and refquota&#45;backed</text>
<text text-anchor="start" x="385.33" y="-1084.17" font-family="Arial" font-size="24.00" fill="#111827">current&#45;tree write boundary.</text>
</g>
<!-- 20&#45;&gt;28 -->
<g id="51" class="edge">
<title>20&#45;&gt;28</title>
<path fill="none" stroke="#475569" stroke-dasharray="5,2" d="M628.12,-964.93C714.07,-779.66 860.65,-531.96 1071.66,-401.87 1896.43,106.62 3138.27,-112.17 3625.08,-226.97"/>
<polygon fill="#475569" stroke="#475569" points="3624.48,-230.43 3635.02,-229.33 3626.1,-223.62 3624.48,-230.43"/>
<polygon fill="white" stroke="transparent" points="2137.75,-89.87 2137.75,-188.87 2441.75,-188.87 2441.75,-89.87 2137.75,-89.87"/>
<text text-anchor="start" x="2141.75" y="-166.17" font-family="Arial" font-size="24.00" fill="#475569">Allows receiver&#45;mode rsync</text>
<text text-anchor="start" x="2176.25" y="-142.17" font-family="Arial" font-size="24.00" fill="#475569">and mkdir only under</text>
<text text-anchor="start" x="2227.25" y="-118.17" font-family="Arial" font-size="24.00" fill="#475569">current tree</text>
<text text-anchor="start" x="2179.75" y="-98.17" font-family="Arial" font-size="19.00" fill="#475569">[forced command + rsync]</text>
</g>
<!-- 20&#45;&gt;18 -->
<g id="53" class="edge">
<title>20&#45;&gt;18</title>
<path fill="none" stroke="#475569" stroke-dasharray="5,2" d="M890.92,-1337.21C1049.31,-1390.97 1239.71,-1446.19 1416.66,-1472.87 1716.64,-1518.11 1795.92,-1477.94 2099.25,-1472.87 2224.07,-1470.79 2360.56,-1466.75 2482.39,-1462.51"/>
<polygon fill="#475569" stroke="#475569" points="2482.76,-1466 2492.63,-1462.15 2482.51,-1459.01 2482.76,-1466"/>
<polygon fill="white" stroke="transparent" points="1620.95,-1493.87 1620.95,-1568.87 1894.95,-1568.87 1894.95,-1493.87 1620.95,-1493.87"/>
<text text-anchor="start" x="1624.95" y="-1546.17" font-family="Arial" font-size="24.00" fill="#475569">Allows sudo execution of</text>
<text text-anchor="start" x="1663.95" y="-1522.17" font-family="Arial" font-size="24.00" fill="#475569">guard helper only</text>
<text text-anchor="start" x="1650.45" y="-1502.17" font-family="Arial" font-size="19.00" fill="#475569">[forced command + sudo]</text>
</g>
<!-- 20&#45;&gt;19 -->
<g id="54" class="edge">
<title>20&#45;&gt;19</title>
<path fill="none" stroke="#475569" stroke-dasharray="5,2" d="M1035.74,-1200.87C1160.27,-1200.87 1291.13,-1200.87 1406.68,-1200.87"/>
<polygon fill="#475569" stroke="#475569" points="1406.75,-1204.37 1416.75,-1200.87 1406.75,-1197.37 1406.75,-1204.37"/>
<polygon fill="white" stroke="transparent" points="1089.16,-1200.87 1089.16,-1275.87 1363.16,-1275.87 1363.16,-1200.87 1089.16,-1200.87"/>
<text text-anchor="start" x="1093.16" y="-1253.17" font-family="Arial" font-size="24.00" fill="#475569">Allows sudo execution of</text>
<text text-anchor="start" x="1120.66" y="-1229.17" font-family="Arial" font-size="24.00" fill="#475569">integrity helper only</text>
<text text-anchor="start" x="1118.66" y="-1209.17" font-family="Arial" font-size="19.00" fill="#475569">[forced command + sudo]</text>
</g>
</g>
</svg>
