<?xml version="1.0" encoding="UTF-8" standalone="no"?>
<!DOCTYPE svg PUBLIC "-//W3C//DTD SVG 1.1//EN"
 "http://www.w3.org/Graphics/SVG/1.1/DTD/svg11.dtd">
<!-- Generated by graphviz version 2.43.0 (0)
 -->
<!-- Title: %3 Pages: 1 -->
<svg width="3413pt" height="2592pt"
 viewBox="0.00 0.00 3412.66 2591.50" xmlns="http://www.w3.org/2000/svg" xmlns:xlink="http://www.w3.org/1999/xlink">
<g id="graph0" class="graph" transform="scale(1 1) rotate(0) translate(4 2587.5)">
<title>%3</title>
<polygon fill="white" stroke="transparent" points="-4,4 -4,-2587.5 3408.66,-2587.5 3408.66,4 -4,4"/>
<text text-anchor="start" x="1314.83" y="-35.8" font-family="Arial" font-size="34.00">Dynamic View: WORKSTATION1 Workflow Backup</text>
<text text-anchor="start" x="1059.83" y="-9.8" font-family="Arial" font-size="24.00">First half of a successful hourly run: service start, local status, pre&#45;write guard, and consistent SQLite snapshot creation.</text>
<g id="clust1" class="cluster">
<title>cluster_2</title>
<polygon fill="none" stroke="#444444" points="8,-783.5 8,-2575.5 3396.66,-2575.5 3396.66,-783.5 8,-783.5"/>
<text text-anchor="start" x="1511.33" y="-812.3" font-family="Arial" font-size="24.00" fill="#444444">WORKSTATION1 Workflow Backup</text>
<text text-anchor="start" x="1625.33" y="-792.3" font-family="Arial" font-size="19.00" fill="#444444">[Software System]</text>
</g>
<!-- 16 -->
<g id="16" class="node">
<title>16</title>
<polygon fill="#ecfeff" stroke="#0891b2" points="2296.46,-1579.5 2136.4,-1787.91 1816.26,-1787.91 1656.2,-1579.5 1816.26,-1371.09 2136.4,-1371.09 2296.46,-1579.5"/>
<text text-anchor="start" x="1827.83" y="-1658.8" font-family="Arial" font-size="34.00" fill="#111827">SQLite Snapshotter</text>
<text text-anchor="start" x="1854.33" y="-1636.8" font-family="Arial" font-size="19.00" fill="#111827">[Container: Python 3, sqlite3]</text>
<text text-anchor="start" x="1813.83" y="-1599.8" font-family="Arial" font-size="24.00" fill="#111827">Creates application&#45;consistent</text>
<text text-anchor="start" x="1840.33" y="-1575.8" font-family="Arial" font-size="24.00" fill="#111827">copies of Hermes, lifelog,</text>
<text text-anchor="start" x="1818.33" y="-1551.8" font-family="Arial" font-size="24.00" fill="#111827">browser&#45;memory, and related</text>
<text text-anchor="start" x="1809.33" y="-1527.8" font-family="Arial" font-size="24.00" fill="#111827">SQLite databases using sqlite3</text>
<text text-anchor="start" x="1819.33" y="-1503.8" font-family="Arial" font-size="24.00" fill="#111827">backup API; can quick_check</text>
<text text-anchor="start" x="1937.83" y="-1479.8" font-family="Arial" font-size="24.00" fill="#111827">copies.</text>
</g>
<!-- 25 -->
<g id="25" class="node">
<title>25</title>
<path fill="#fef3c7" stroke="#d97706" d="M3371.66,-2128.22C3371.66,-2148.17 3255.35,-2164.38 3112.16,-2164.38 2968.97,-2164.38 2852.66,-2148.17 2852.66,-2128.22 2852.66,-2128.22 2852.66,-1802.78 2852.66,-1802.78 2852.66,-1782.83 2968.97,-1766.62 3112.16,-1766.62 3255.35,-1766.62 3371.66,-1782.83 3371.66,-1802.78 3371.66,-1802.78 3371.66,-2128.22 3371.66,-2128.22"/>
<path fill="none" stroke="#d97706" d="M3371.66,-2128.22C3371.66,-2108.26 3255.35,-2092.06 3112.16,-2092.06 2968.97,-2092.06 2852.66,-2108.26 2852.66,-2128.22"/>
<text text-anchor="start" x="2945.16" y="-2061.8" font-family="Arial" font-size="34.00" fill="#111827">Run Ledger and Local</text>
<text text-anchor="start" x="3072.16" y="-2027.8" font-family="Arial" font-size="34.00" fill="#111827">State</text>
<text text-anchor="start" x="2885.16" y="-2005.8" font-family="Arial" font-size="19.00" fill="#111827">[Container: SQLite + JSON + logs on WSL filesystem]</text>
<text text-anchor="start" x="2973.66" y="-1968.8" font-family="Arial" font-size="24.00" fill="#111827">Local status, pruned logs,</text>
<text text-anchor="start" x="2963.66" y="-1944.8" font-family="Arial" font-size="24.00" fill="#111827">SQLite run ledger, exported</text>
<text text-anchor="start" x="2975.66" y="-1920.8" font-family="Arial" font-size="24.00" fill="#111827">run&#45;history JSON, SQLite</text>
<text text-anchor="start" x="2948.16" y="-1896.8" font-family="Arial" font-size="24.00" fill="#111827">snapshot cache, and Windows</text>
<text text-anchor="start" x="2996.16" y="-1872.8" font-family="Arial" font-size="24.00" fill="#111827">manifest cache under</text>
<text text-anchor="start" x="2881.66" y="-1848.8" font-family="Arial" font-size="24.00" fill="#111827">~/.local/state/workstation&#45;workflow&#45;backup.</text>
</g>
<!-- 16&#45;&gt;25 -->
<g id="48" class="edge">
<title>16&#45;&gt;25</title>
<path fill="none" stroke="#475569" stroke-dasharray="5,2" d="M2230.37,-1665.65C2412.4,-1727.62 2657.47,-1811.05 2842.89,-1874.17"/>
<polygon fill="#475569" stroke="#475569" points="2841.91,-1877.54 2852.51,-1877.44 2844.17,-1870.91 2841.91,-1877.54"/>
<polygon fill="white" stroke="transparent" points="2566.66,-1861.5 2566.66,-1936.5 2763.66,-1936.5 2763.66,-1861.5 2566.66,-1861.5"/>
<text text-anchor="start" x="2571.16" y="-1913.8" font-family="Arial" font-size="24.00" fill="#475569">7. Write snapshot</text>
<text text-anchor="start" x="2584.16" y="-1889.8" font-family="Arial" font-size="24.00" fill="#475569">manifest/cache</text>
<text text-anchor="start" x="2617.16" y="-1869.8" font-family="Arial" font-size="19.00" fill="#475569">[filesystem]</text>
</g>
<!-- 26 -->
<g id="26" class="node">
<title>26</title>
<path fill="#fef3c7" stroke="#d97706" d="M3319.66,-729.28C3319.66,-745.2 3226.65,-758.13 3112.16,-758.13 2997.66,-758.13 2904.66,-745.2 2904.66,-729.28 2904.66,-729.28 2904.66,-469.72 2904.66,-469.72 2904.66,-453.8 2997.66,-440.87 3112.16,-440.87 3226.65,-440.87 3319.66,-453.8 3319.66,-469.72 3319.66,-469.72 3319.66,-729.28 3319.66,-729.28"/>
<path fill="none" stroke="#d97706" d="M3319.66,-729.28C3319.66,-713.37 3226.65,-700.44 3112.16,-700.44 2997.66,-700.44 2904.66,-713.37 2904.66,-729.28"/>
<text text-anchor="start" x="2933.66" y="-666.8" font-family="Arial" font-size="34.00" fill="#111827">WSL Workflow Sources</text>
<text text-anchor="start" x="3035.16" y="-644.8" font-family="Arial" font-size="19.00" fill="#111827">[Software System]</text>
<text text-anchor="start" x="2958.66" y="-607.8" font-family="Arial" font-size="24.00" fill="#111827">Workflow&#45;critical WSL paths:</text>
<text text-anchor="start" x="2967.16" y="-583.8" font-family="Arial" font-size="24.00" fill="#111827">~/repos, ~/.hermes, ~/.ssh,</text>
<text text-anchor="start" x="3000.66" y="-559.8" font-family="Arial" font-size="24.00" fill="#111827">systemd user config,</text>
<text text-anchor="start" x="2955.66" y="-535.8" font-family="Arial" font-size="24.00" fill="#111827">lifelog/browser&#45;memory data,</text>
<text text-anchor="start" x="2957.16" y="-511.8" font-family="Arial" font-size="24.00" fill="#111827">and optional brain&#45;code tree.</text>
</g>
<!-- 16&#45;&gt;26 -->
<g id="46" class="edge">
<title>16&#45;&gt;26</title>
<path fill="none" stroke="#475569" stroke-dasharray="5,2" d="M2227.42,-1489.2C2312.87,-1450.51 2405.09,-1399.32 2477.66,-1335.5 2705.37,-1135.25 2637.05,-978.74 2852.66,-765.5 2866.22,-752.09 2881.04,-739.18 2896.5,-726.9"/>
<polygon fill="#475569" stroke="#475569" points="2898.91,-729.46 2904.64,-720.54 2894.6,-723.94 2898.91,-729.46"/>
<polygon fill="white" stroke="transparent" points="2557.16,-1299.5 2557.16,-1374.5 2773.16,-1374.5 2773.16,-1299.5 2557.16,-1299.5"/>
<text text-anchor="start" x="2561.16" y="-1351.8" font-family="Arial" font-size="24.00" fill="#475569">6. Read live SQLite</text>
<text text-anchor="start" x="2609.16" y="-1327.8" font-family="Arial" font-size="24.00" fill="#475569">databases</text>
<text text-anchor="start" x="2580.66" y="-1307.8" font-family="Arial" font-size="19.00" fill="#475569">[sqlite3 backup API]</text>
</g>
<!-- 18 -->
<g id="18" class="node">
<title>18</title>
<polygon fill="#ecfeff" stroke="#0891b2" points="2344.81,-1091.5 2160.57,-1299.91 1792.09,-1299.91 1607.85,-1091.5 1792.09,-883.09 2160.57,-883.09 2344.81,-1091.5"/>
<text text-anchor="start" x="1829.83" y="-1170.8" font-family="Arial" font-size="34.00" fill="#111827">NAS Growth Guard</text>
<text text-anchor="start" x="1779.83" y="-1148.8" font-family="Arial" font-size="19.00" fill="#111827">[Container: Bash + NAS sudo helper + zfs CLI]</text>
<text text-anchor="start" x="1800.33" y="-1111.8" font-family="Arial" font-size="24.00" fill="#111827">Read&#45;only NAS&#45;side ZFS budget</text>
<text text-anchor="start" x="1870.83" y="-1087.8" font-family="Arial" font-size="24.00" fill="#111827">check that enforces</text>
<text text-anchor="start" x="1819.83" y="-1063.8" font-family="Arial" font-size="24.00" fill="#111827">dataset&#45;used, snapshot&#45;held,</text>
<text text-anchor="start" x="1876.83" y="-1039.8" font-family="Arial" font-size="24.00" fill="#111827">availability&#45;dataset</text>
<text text-anchor="start" x="1805.33" y="-1015.8" font-family="Arial" font-size="24.00" fill="#111827">free&#45;space, and snapshot&#45;count</text>
<text text-anchor="start" x="1844.83" y="-991.8" font-family="Arial" font-size="24.00" fill="#111827">limits before/after writes.</text>
</g>
<!-- 29 -->
<g id="29" class="node">
<title>29</title>
<polygon fill="#f3e8ff" stroke="#9333ea" points="3314.16,-369 2910.16,-369 2910.16,-80 3314.16,-80 3314.16,-369"/>
<text text-anchor="start" x="2951.16" y="-320.8" font-family="Arial" font-size="34.00" fill="#111827">TrueNAS Middleware</text>
<text text-anchor="start" x="2939.16" y="-286.8" font-family="Arial" font-size="34.00" fill="#111827">and ZFS Control Plane</text>
<text text-anchor="start" x="3035.16" y="-264.8" font-family="Arial" font-size="19.00" fill="#111827">[Software System]</text>
<text text-anchor="start" x="2964.66" y="-227.8" font-family="Arial" font-size="24.00" fill="#111827">Configured admin SSH and</text>
<text text-anchor="start" x="2959.66" y="-203.8" font-family="Arial" font-size="24.00" fill="#111827">middleware surface used for</text>
<text text-anchor="start" x="2956.66" y="-179.8" font-family="Arial" font-size="24.00" fill="#111827">ZFS properties, runtime&#45;user</text>
<text text-anchor="start" x="2962.16" y="-155.8" font-family="Arial" font-size="24.00" fill="#111827">setup, snapshot tasks, SMB</text>
<text text-anchor="start" x="2981.66" y="-131.8" font-family="Arial" font-size="24.00" fill="#111827">share configuration, and</text>
<text text-anchor="start" x="3050.66" y="-107.8" font-family="Arial" font-size="24.00" fill="#111827">verification.</text>
</g>
<!-- 18&#45;&gt;29 -->
<g id="43" class="edge">
<title>18&#45;&gt;29</title>
<path fill="none" stroke="#475569" stroke-dasharray="5,2" d="M2252.7,-986.93C2338.3,-940.84 2424.16,-877.79 2477.66,-794.5 2558.82,-668.13 2422.51,-577.87 2513.66,-458.5 2605.42,-338.32 2767.84,-279.8 2900.2,-251.34"/>
<polygon fill="#475569" stroke="#475569" points="2901.01,-254.74 2910.07,-249.26 2899.57,-247.89 2901.01,-254.74"/>
<polygon fill="white" stroke="transparent" points="2513.66,-458.5 2513.66,-509.5 2816.66,-509.5 2816.66,-458.5 2513.66,-458.5"/>
<text text-anchor="start" x="2518.16" y="-486.8" font-family="Arial" font-size="24.00" fill="#475569">4. Read ZFS budget values</text>
<text text-anchor="start" x="2567.66" y="-466.8" font-family="Arial" font-size="19.00" fill="#475569">[NAS&#45;side helper + zfs]</text>
</g>
<!-- 20 -->
<g id="20" class="node">
<title>20</title>
<polygon fill="#ecfeff" stroke="#0891b2" points="2477.49,-2095.5 2226.91,-2331.44 1725.75,-2331.44 1475.17,-2095.5 1725.75,-1859.56 2226.91,-1859.56 2477.49,-2095.5"/>
<text text-anchor="start" x="1859.33" y="-2191.8" font-family="Arial" font-size="34.00" fill="#111827">Restricted NAS</text>
<text text-anchor="start" x="1795.83" y="-2157.8" font-family="Arial" font-size="34.00" fill="#111827">Runtime SSH Boundary</text>
<text text-anchor="start" x="1698.33" y="-2135.8" font-family="Arial" font-size="19.00" fill="#111827">[Container: OpenSSH forced command + sudoers + ZFS refquota]</text>
<text text-anchor="start" x="1849.83" y="-2098.8" font-family="Arial" font-size="24.00" fill="#111827">Dedicated runtime NAS</text>
<text text-anchor="start" x="1838.83" y="-2074.8" font-family="Arial" font-size="24.00" fill="#111827">user/key, pinned host&#45;key</text>
<text text-anchor="start" x="1820.33" y="-2050.8" font-family="Arial" font-size="24.00" fill="#111827">verification, forced&#45;command</text>
<text text-anchor="start" x="1839.33" y="-2026.8" font-family="Arial" font-size="24.00" fill="#111827">dispatcher, sudo allowlist,</text>
<text text-anchor="start" x="1864.83" y="-2002.8" font-family="Arial" font-size="24.00" fill="#111827">and refquota&#45;backed</text>
<text text-anchor="start" x="1827.33" y="-1978.8" font-family="Arial" font-size="24.00" fill="#111827">current&#45;tree write boundary.</text>
</g>
<!-- 3 -->
<g id="3" class="node">
<title>3</title>
<polygon fill="#e0e7ff" stroke="#4f46e5" points="398,-1712 33,-1712 33,-1447 398,-1447 398,-1712"/>
<text text-anchor="start" x="63.5" y="-1663.8" font-family="Arial" font-size="34.00" fill="#111827">systemd User Timer</text>
<text text-anchor="start" x="125.5" y="-1629.8" font-family="Arial" font-size="34.00" fill="#111827">and Service</text>
<text text-anchor="start" x="78.5" y="-1607.8" font-family="Arial" font-size="19.00" fill="#111827">[Container: systemd &#45;&#45;user units]</text>
<text text-anchor="start" x="68.5" y="-1570.8" font-family="Arial" font-size="24.00" fill="#111827">Hourly user&#45;level scheduler</text>
<text text-anchor="start" x="62" y="-1546.8" font-family="Arial" font-size="24.00" fill="#111827">and oneshot service that run</text>
<text text-anchor="start" x="62" y="-1522.8" font-family="Arial" font-size="24.00" fill="#111827">the backup at minute 45 and</text>
<text text-anchor="start" x="111.5" y="-1498.8" font-family="Arial" font-size="24.00" fill="#111827">route failures to the</text>
<text text-anchor="start" x="176" y="-1474.8" font-family="Arial" font-size="24.00" fill="#111827">notifier.</text>
</g>
<!-- 4 -->
<g id="4" class="node">
<title>4</title>
<polygon fill="#e0f2fe" stroke="#0284c7" points="1114,-1743 734,-1743 734,-1416 1114,-1416 1114,-1743"/>
<text text-anchor="start" x="767.5" y="-1694.8" font-family="Arial" font-size="34.00" fill="#111827">Backup Orchestrator</text>
<text text-anchor="start" x="850.5" y="-1672.8" font-family="Arial" font-size="19.00" fill="#111827">[Container: Bash]</text>
<text text-anchor="start" x="779.5" y="-1635.8" font-family="Arial" font-size="24.00" fill="#111827">scripts/workflow&#45;backup.sh</text>
<text text-anchor="start" x="770.5" y="-1611.8" font-family="Arial" font-size="24.00" fill="#111827">coordinates one backup run:</text>
<text text-anchor="start" x="769" y="-1587.8" font-family="Arial" font-size="24.00" fill="#111827">locking, log pruning, pre/post</text>
<text text-anchor="start" x="784" y="-1563.8" font-family="Arial" font-size="24.00" fill="#111827">guard checks, WSL rsync,</text>
<text text-anchor="start" x="773" y="-1539.8" font-family="Arial" font-size="24.00" fill="#111827">SQLite snapshots, Windows</text>
<text text-anchor="start" x="804" y="-1515.8" font-family="Arial" font-size="24.00" fill="#111827">sync, strict final ledger</text>
<text text-anchor="start" x="800.5" y="-1491.8" font-family="Arial" font-size="24.00" fill="#111827">updates, NAS manifest</text>
<text text-anchor="start" x="839" y="-1467.8" font-family="Arial" font-size="24.00" fill="#111827">publication, and</text>
<text text-anchor="start" x="763" y="-1443.8" font-family="Arial" font-size="24.00" fill="#111827">restore&#45;checksum generation.</text>
</g>
<!-- 3&#45;&gt;4 -->
<g id="39" class="edge">
<title>3&#45;&gt;4</title>
<path fill="none" stroke="#475569" stroke-dasharray="5,2" d="M398.44,-1579.5C498.05,-1579.5 621.64,-1579.5 723.83,-1579.5"/>
<polygon fill="#475569" stroke="#475569" points="723.97,-1583 733.97,-1579.5 723.97,-1576 723.97,-1583"/>
<polygon fill="white" stroke="transparent" points="434,-1579.5 434,-1654.5 698,-1654.5 698,-1579.5 434,-1579.5"/>
<text text-anchor="start" x="438" y="-1631.8" font-family="Arial" font-size="24.00" fill="#475569">1. Start oneshot backup</text>
<text text-anchor="start" x="527.5" y="-1607.8" font-family="Arial" font-size="24.00" fill="#475569">service</text>
<text text-anchor="start" x="498" y="-1587.8" font-family="Arial" font-size="19.00" fill="#475569">[systemd &#45;&#45;user]</text>
</g>
<!-- 4&#45;&gt;16 -->
<g id="45" class="edge">
<title>4&#45;&gt;16</title>
<path fill="none" stroke="#475569" stroke-dasharray="5,2" d="M1114.29,-1579.5C1262.07,-1579.5 1470.97,-1579.5 1646,-1579.5"/>
<polygon fill="#475569" stroke="#475569" points="1646.16,-1583 1656.16,-1579.5 1646.16,-1576 1646.16,-1583"/>
<polygon fill="white" stroke="transparent" points="1164,-1579.5 1164,-1654.5 1425,-1654.5 1425,-1579.5 1164,-1579.5"/>
<text text-anchor="start" x="1168.5" y="-1631.8" font-family="Arial" font-size="24.00" fill="#475569">5. Snapshot live SQLite</text>
<text text-anchor="start" x="1272" y="-1607.8" font-family="Arial" font-size="24.00" fill="#475569">DBs</text>
<text text-anchor="start" x="1240.5" y="-1587.8" font-family="Arial" font-size="19.00" fill="#475569">[subprocess]</text>
</g>
<!-- 4&#45;&gt;18 -->
<g id="42" class="edge">
<title>4&#45;&gt;18</title>
<path fill="none" stroke="#475569" stroke-dasharray="5,2" d="M1114.29,-1491.55C1279.14,-1414.96 1520.05,-1303.03 1705.15,-1217.03"/>
<polygon fill="#475569" stroke="#475569" points="1706.89,-1220.08 1714.48,-1212.69 1703.94,-1213.73 1706.89,-1220.08"/>
<polygon fill="white" stroke="transparent" points="1169.5,-1473.5 1169.5,-1524.5 1419.5,-1524.5 1419.5,-1473.5 1169.5,-1473.5"/>
<text text-anchor="start" x="1173.5" y="-1501.8" font-family="Arial" font-size="24.00" fill="#475569">3. Run pre&#45;write guard</text>
<text text-anchor="start" x="1240" y="-1481.8" font-family="Arial" font-size="19.00" fill="#475569">[subprocess]</text>
</g>
<!-- 4&#45;&gt;20 -->
<g id="50" class="edge">
<title>4&#45;&gt;20</title>
<path fill="none" stroke="#475569" stroke-dasharray="5,2" d="M1114.29,-1672.5C1259.68,-1743.92 1464.23,-1844.41 1637.48,-1929.52"/>
<polygon fill="#475569" stroke="#475569" points="1635.97,-1932.68 1646.49,-1933.95 1639.05,-1926.4 1635.97,-1932.68"/>
<polygon fill="white" stroke="transparent" points="1150,-1821.5 1150,-1896.5 1439,-1896.5 1439,-1821.5 1150,-1821.5"/>
<text text-anchor="start" x="1154.5" y="-1873.8" font-family="Arial" font-size="24.00" fill="#475569">8. Open restricted runtime</text>
<text text-anchor="start" x="1226" y="-1849.8" font-family="Arial" font-size="24.00" fill="#475569">SSH session</text>
<text text-anchor="start" x="1270" y="-1829.8" font-family="Arial" font-size="19.00" fill="#475569">[SSH]</text>
</g>
<!-- 4&#45;&gt;25 -->
<g id="41" class="edge">
<title>4&#45;&gt;25</title>
<path fill="none" stroke="#475569" stroke-dasharray="5,2" d="M984.25,-1743.11C1063.17,-1933.44 1222.87,-2238.08 1475,-2367.5 1871.45,-2571 2049.72,-2491.82 2477.66,-2367.5 2621.65,-2325.67 2764.23,-2240.18 2877.56,-2158.75"/>
<polygon fill="#475569" stroke="#475569" points="2879.62,-2161.58 2885.67,-2152.89 2875.52,-2155.91 2879.62,-2161.58"/>
<polygon fill="white" stroke="transparent" points="1845.83,-2491.5 1845.83,-2566.5 2106.83,-2566.5 2106.83,-2491.5 1845.83,-2491.5"/>
<text text-anchor="start" x="1850.33" y="-2543.8" font-family="Arial" font-size="24.00" fill="#475569">2. Record started event</text>
<text text-anchor="start" x="1906.33" y="-2519.8" font-family="Arial" font-size="24.00" fill="#475569">and open log</text>
<text text-anchor="start" x="1889.83" y="-2499.8" font-family="Arial" font-size="19.00" fill="#475569">[filesystem + sqlite3]</text>
</g>
<!-- 28 -->
<g id="28" class="node">
<title>28</title>
<path fill="#fef3c7" stroke="#d97706" d="M2173.33,-722.22C2173.33,-742.17 2085.03,-758.38 1976.33,-758.38 1867.63,-758.38 1779.33,-742.17 1779.33,-722.22 1779.33,-722.22 1779.33,-396.78 1779.33,-396.78 1779.33,-376.83 1867.63,-360.62 1976.33,-360.62 2085.03,-360.62 2173.33,-376.83 2173.33,-396.78 2173.33,-396.78 2173.33,-722.22 2173.33,-722.22"/>
<path fill="none" stroke="#d97706" d="M2173.33,-722.22C2173.33,-702.26 2085.03,-686.06 1976.33,-686.06 1867.63,-686.06 1779.33,-702.26 1779.33,-722.22"/>
<text text-anchor="start" x="1845.33" y="-655.8" font-family="Arial" font-size="34.00" fill="#111827">TrueNAS Backup</text>
<text text-anchor="start" x="1917.33" y="-621.8" font-family="Arial" font-size="34.00" fill="#111827">Dataset</text>
<text text-anchor="start" x="1899.33" y="-599.8" font-family="Arial" font-size="19.00" fill="#111827">[Software System]</text>
<text text-anchor="start" x="1808.33" y="-562.8" font-family="Arial" font-size="24.00" fill="#111827">Configured encrypted TrueNAS</text>
<text text-anchor="start" x="1834.83" y="-538.8" font-family="Arial" font-size="24.00" fill="#111827">dataset with current mirror</text>
<text text-anchor="start" x="1826.83" y="-514.8" font-family="Arial" font-size="24.00" fill="#111827">tree, manifests, SMB share,</text>
<text text-anchor="start" x="1827.83" y="-490.8" font-family="Arial" font-size="24.00" fill="#111827">restore checksum manifest,</text>
<text text-anchor="start" x="1825.83" y="-466.8" font-family="Arial" font-size="24.00" fill="#111827">refquota, and ZFS snapshot</text>
<text text-anchor="start" x="1937.83" y="-442.8" font-family="Arial" font-size="24.00" fill="#111827">history.</text>
</g>
<!-- 4&#45;&gt;28 -->
<g id="55" class="edge">
<title>4&#45;&gt;28</title>
<path fill="none" stroke="#475569" stroke-dasharray="5,2" d="M999.14,-1415.95C1088.65,-1234.8 1255,-944.71 1475,-765.5 1560.55,-695.81 1672.93,-646.7 1769.51,-613.96"/>
<polygon fill="#475569" stroke="#475569" points="1770.73,-617.24 1779.1,-610.75 1768.51,-610.61 1770.73,-617.24"/>
<polygon fill="white" stroke="transparent" points="1152,-1127.5 1152,-1202.5 1437,-1202.5 1437,-1127.5 1152,-1127.5"/>
<text text-anchor="start" x="1156.5" y="-1179.8" font-family="Arial" font-size="24.00" fill="#475569">9. Mirror SQLite snapshot</text>
<text text-anchor="start" x="1273.5" y="-1155.8" font-family="Arial" font-size="24.00" fill="#475569">tree</text>
<text text-anchor="start" x="1203" y="-1135.8" font-family="Arial" font-size="19.00" fill="#475569">[restricted SSH rsync]</text>
</g>
</g>
</svg>
