<?xml version="1.0" encoding="UTF-8" standalone="no"?>
<!DOCTYPE svg PUBLIC "-//W3C//DTD SVG 1.1//EN"
 "http://www.w3.org/Graphics/SVG/1.1/DTD/svg11.dtd">
<!-- Generated by graphviz version 2.43.0 (0)
 -->
<!-- Title: %3 Pages: 1 -->
<svg width="2981pt" height="1301pt"
 viewBox="0.00 0.00 2980.67 1300.50" xmlns="http://www.w3.org/2000/svg" xmlns:xlink="http://www.w3.org/1999/xlink">
<g id="graph0" class="graph" transform="scale(1 1) rotate(0) translate(4 1296.5)">
<title>%3</title>
<polygon fill="white" stroke="transparent" points="-4,4 -4,-1296.5 2976.67,-1296.5 2976.67,4 -4,4"/>
<text text-anchor="start" x="1098.83" y="-35.8" font-family="Arial" font-size="34.00">Dynamic View: WORKSTATION1 Workflow Backup</text>
<text text-anchor="start" x="1075.33" y="-9.8" font-family="Arial" font-size="24.00">Failure&#45;only alert path; successful timer runs produce no Telegram message.</text>
<g id="clust1" class="cluster">
<title>cluster_2</title>
<polygon fill="none" stroke="#444444" points="8,-700.5 8,-1277.5 2964.67,-1277.5 2964.67,-700.5 8,-700.5"/>
<text text-anchor="start" x="1295.33" y="-729.3" font-family="Arial" font-size="24.00" fill="#444444">WORKSTATION1 Workflow Backup</text>
<text text-anchor="start" x="1409.33" y="-709.3" font-family="Arial" font-size="19.00" fill="#444444">[Software System]</text>
</g>
<!-- 20 -->
<g id="20" class="node">
<title>20</title>
<polygon fill="#ecfeff" stroke="#0891b2" points="2069.5,-989.5 1907.92,-1178.22 1584.75,-1178.22 1423.17,-989.5 1584.75,-800.78 1907.92,-800.78 2069.5,-989.5"/>
<text text-anchor="start" x="1635.33" y="-1056.8" font-family="Arial" font-size="34.00" fill="#111827">Failure Notifier</text>
<text text-anchor="start" x="1609.33" y="-1034.8" font-family="Arial" font-size="19.00" fill="#111827">[Container: Bash + Python urllib]</text>
<text text-anchor="start" x="1601.33" y="-997.8" font-family="Arial" font-size="24.00" fill="#111827">Best&#45;effort Telegram failure</text>
<text text-anchor="start" x="1619.83" y="-973.8" font-family="Arial" font-size="24.00" fill="#111827">alert unit that reads last</text>
<text text-anchor="start" x="1585.83" y="-949.8" font-family="Arial" font-size="24.00" fill="#111827">status/log tail and Hermes bot</text>
<text text-anchor="start" x="1577.33" y="-925.8" font-family="Arial" font-size="24.00" fill="#111827">environment variables; success</text>
<text text-anchor="start" x="1661.83" y="-901.8" font-family="Arial" font-size="24.00" fill="#111827">runs stay silent.</text>
</g>
<!-- 21 -->
<g id="21" class="node">
<title>21</title>
<path fill="#fef3c7" stroke="#d97706" d="M2939.67,-1189.22C2939.67,-1209.17 2823.35,-1225.38 2680.17,-1225.38 2536.98,-1225.38 2420.67,-1209.17 2420.67,-1189.22 2420.67,-1189.22 2420.67,-863.78 2420.67,-863.78 2420.67,-843.83 2536.98,-827.62 2680.17,-827.62 2823.35,-827.62 2939.67,-843.83 2939.67,-863.78 2939.67,-863.78 2939.67,-1189.22 2939.67,-1189.22"/>
<path fill="none" stroke="#d97706" d="M2939.67,-1189.22C2939.67,-1169.26 2823.35,-1153.06 2680.17,-1153.06 2536.98,-1153.06 2420.67,-1169.26 2420.67,-1189.22"/>
<text text-anchor="start" x="2513.17" y="-1122.8" font-family="Arial" font-size="34.00" fill="#111827">Run Ledger and Local</text>
<text text-anchor="start" x="2640.17" y="-1088.8" font-family="Arial" font-size="34.00" fill="#111827">State</text>
<text text-anchor="start" x="2453.17" y="-1066.8" font-family="Arial" font-size="19.00" fill="#111827">[Container: SQLite + JSON + logs on WSL filesystem]</text>
<text text-anchor="start" x="2522.17" y="-1029.8" font-family="Arial" font-size="24.00" fill="#111827">Local status, logs, SQLite run</text>
<text text-anchor="start" x="2532.17" y="-1005.8" font-family="Arial" font-size="24.00" fill="#111827">ledger, exported run&#45;history</text>
<text text-anchor="start" x="2513.17" y="-981.8" font-family="Arial" font-size="24.00" fill="#111827">JSON, SQLite snapshot cache,</text>
<text text-anchor="start" x="2522.67" y="-957.8" font-family="Arial" font-size="24.00" fill="#111827">and Windows manifest cache</text>
<text text-anchor="start" x="2648.67" y="-933.8" font-family="Arial" font-size="24.00" fill="#111827">under</text>
<text text-anchor="start" x="2449.67" y="-909.8" font-family="Arial" font-size="24.00" fill="#111827">~/.local/state/workstation&#45;workflow&#45;backup.</text>
</g>
<!-- 20&#45;&gt;21 -->
<g id="55" class="edge">
<title>20&#45;&gt;21</title>
<path fill="none" stroke="#475569" stroke-dasharray="5,2" d="M2058.91,-1001.87C2172.69,-1006.39 2300.3,-1011.46 2410.06,-1015.81"/>
<polygon fill="#475569" stroke="#475569" points="2410.16,-1019.32 2420.29,-1016.22 2410.43,-1012.33 2410.16,-1019.32"/>
<polygon fill="white" stroke="transparent" points="2105.67,-1014.5 2105.67,-1089.5 2384.67,-1089.5 2384.67,-1014.5 2105.67,-1014.5"/>
<text text-anchor="start" x="2110.17" y="-1066.8" font-family="Arial" font-size="24.00" fill="#475569">5. Read last&#45;run.json and</text>
<text text-anchor="start" x="2210.67" y="-1042.8" font-family="Arial" font-size="24.00" fill="#475569">log tail</text>
<text text-anchor="start" x="2197.17" y="-1022.8" font-family="Arial" font-size="19.00" fill="#475569">[filesystem]</text>
</g>
<!-- 26 -->
<g id="26" class="node">
<title>26</title>
<path fill="#fef3c7" stroke="#d97706" d="M2860.67,-642.72C2860.67,-661.01 2779.76,-675.88 2680.17,-675.88 2580.57,-675.88 2499.67,-661.01 2499.67,-642.72 2499.67,-642.72 2499.67,-344.28 2499.67,-344.28 2499.67,-325.99 2580.57,-311.12 2680.17,-311.12 2779.76,-311.12 2860.67,-325.99 2860.67,-344.28 2860.67,-344.28 2860.67,-642.72 2860.67,-642.72"/>
<path fill="none" stroke="#d97706" d="M2860.67,-642.72C2860.67,-624.42 2779.76,-609.56 2680.17,-609.56 2580.57,-609.56 2499.67,-624.42 2499.67,-642.72"/>
<text text-anchor="start" x="2589.67" y="-577.8" font-family="Arial" font-size="34.00" fill="#111827">Hermes Bot</text>
<text text-anchor="start" x="2552.17" y="-543.8" font-family="Arial" font-size="34.00" fill="#111827">Environment File</text>
<text text-anchor="start" x="2603.17" y="-521.8" font-family="Arial" font-size="19.00" fill="#111827">[Software System]</text>
<text text-anchor="start" x="2528.67" y="-484.8" font-family="Arial" font-size="24.00" fill="#111827">Local ~/.hermes/.env values</text>
<text text-anchor="start" x="2548.17" y="-460.8" font-family="Arial" font-size="24.00" fill="#111827">that supply Telegram bot</text>
<text text-anchor="start" x="2545.17" y="-436.8" font-family="Arial" font-size="24.00" fill="#111827">token/chat settings to the</text>
<text text-anchor="start" x="2533.67" y="-412.8" font-family="Arial" font-size="24.00" fill="#111827">failure notifier; contents are</text>
<text text-anchor="start" x="2559.67" y="-388.8" font-family="Arial" font-size="24.00" fill="#111827">not stored in this repo.</text>
</g>
<!-- 20&#45;&gt;26 -->
<g id="56" class="edge">
<title>20&#45;&gt;26</title>
<path fill="none" stroke="#475569" stroke-dasharray="5,2" d="M1968.75,-871.64C2127.74,-787.02 2339.71,-674.18 2490.63,-593.85"/>
<polygon fill="#475569" stroke="#475569" points="2492.39,-596.88 2499.58,-589.09 2489.11,-590.7 2492.39,-596.88"/>
<polygon fill="white" stroke="transparent" points="2120.67,-785.5 2120.67,-860.5 2369.67,-860.5 2369.67,-785.5 2120.67,-785.5"/>
<text text-anchor="start" x="2125.17" y="-837.8" font-family="Arial" font-size="24.00" fill="#475569">6. Load bot token/chat</text>
<text text-anchor="start" x="2203.67" y="-813.8" font-family="Arial" font-size="24.00" fill="#475569">settings</text>
<text text-anchor="start" x="2197.17" y="-793.8" font-family="Arial" font-size="19.00" fill="#475569">[filesystem]</text>
</g>
<!-- 27 -->
<g id="27" class="node">
<title>27</title>
<polygon fill="#f3e8ff" stroke="#9333ea" points="2855.17,-239 2505.17,-239 2505.17,-80 2855.17,-80 2855.17,-239"/>
<text text-anchor="start" x="2548.67" y="-190.8" font-family="Arial" font-size="34.00" fill="#111827">Telegram Bot API</text>
<text text-anchor="start" x="2603.17" y="-168.8" font-family="Arial" font-size="19.00" fill="#111827">[Software System]</text>
<text text-anchor="start" x="2541.17" y="-131.8" font-family="Arial" font-size="24.00" fill="#111827">External API used only for</text>
<text text-anchor="start" x="2534.17" y="-107.8" font-family="Arial" font-size="24.00" fill="#111827">backup failure notifications.</text>
</g>
<!-- 20&#45;&gt;27 -->
<g id="58" class="edge">
<title>20&#45;&gt;27</title>
<path fill="none" stroke="#475569" stroke-dasharray="5,2" d="M1884.05,-800.77C2008.19,-641.33 2204.5,-416.97 2420.67,-275.5 2444.04,-260.2 2469.78,-245.98 2495.66,-233.11"/>
<polygon fill="#475569" stroke="#475569" points="2497.39,-236.16 2504.82,-228.61 2494.3,-229.88 2497.39,-236.16"/>
<polygon fill="white" stroke="transparent" points="2109.67,-535.5 2109.67,-610.5 2380.67,-610.5 2380.67,-535.5 2109.67,-535.5"/>
<text text-anchor="start" x="2114.17" y="-587.8" font-family="Arial" font-size="24.00" fill="#475569">7. sendMessage backup</text>
<text text-anchor="start" x="2185.17" y="-563.8" font-family="Arial" font-size="24.00" fill="#475569">failure alert</text>
<text text-anchor="start" x="2209.17" y="-543.8" font-family="Arial" font-size="19.00" fill="#475569">[HTTPS]</text>
</g>
<!-- 3 -->
<g id="3" class="node">
<title>3</title>
<polygon fill="#e0e7ff" stroke="#4f46e5" points="1081,-1104 716,-1104 716,-839 1081,-839 1081,-1104"/>
<text text-anchor="start" x="746.5" y="-1055.8" font-family="Arial" font-size="34.00" fill="#111827">systemd User Timer</text>
<text text-anchor="start" x="808.5" y="-1021.8" font-family="Arial" font-size="34.00" fill="#111827">and Service</text>
<text text-anchor="start" x="761.5" y="-999.8" font-family="Arial" font-size="19.00" fill="#111827">[Container: systemd &#45;&#45;user units]</text>
<text text-anchor="start" x="751.5" y="-962.8" font-family="Arial" font-size="24.00" fill="#111827">Hourly user&#45;level scheduler</text>
<text text-anchor="start" x="745" y="-938.8" font-family="Arial" font-size="24.00" fill="#111827">and oneshot service that run</text>
<text text-anchor="start" x="745" y="-914.8" font-family="Arial" font-size="24.00" fill="#111827">the backup at minute 45 and</text>
<text text-anchor="start" x="794.5" y="-890.8" font-family="Arial" font-size="24.00" fill="#111827">route failures to the</text>
<text text-anchor="start" x="859" y="-866.8" font-family="Arial" font-size="24.00" fill="#111827">notifier.</text>
</g>
<!-- 3&#45;&gt;20 -->
<g id="36" class="edge">
<title>3&#45;&gt;20</title>
<path fill="none" stroke="#475569" stroke-dasharray="5,2" d="M1081.21,-975.37C1179.47,-977.46 1303.82,-980.1 1418.28,-982.54"/>
<polygon fill="#475569" stroke="#475569" points="1418.54,-986.05 1428.62,-982.76 1418.69,-979.05 1418.54,-986.05"/>
<polygon fill="white" stroke="transparent" points="1142.5,-981.5 1142.5,-1056.5 1362.5,-1056.5 1362.5,-981.5 1142.5,-981.5"/>
<text text-anchor="start" x="1146.5" y="-1033.8" font-family="Arial" font-size="24.00" fill="#475569">4. Invoke OnFailure</text>
<text text-anchor="start" x="1216" y="-1009.8" font-family="Arial" font-size="24.00" fill="#475569">notifier</text>
<text text-anchor="start" x="1205.5" y="-989.8" font-family="Arial" font-size="19.00" fill="#475569">[OnFailure]</text>
</g>
<!-- 4 -->
<g id="4" class="node">
<title>4</title>
<polygon fill="#e0f2fe" stroke="#0284c7" points="413,-1111 33,-1111 33,-832 413,-832 413,-1111"/>
<text text-anchor="start" x="66.5" y="-1062.8" font-family="Arial" font-size="34.00" fill="#111827">Backup Orchestrator</text>
<text text-anchor="start" x="149.5" y="-1040.8" font-family="Arial" font-size="19.00" fill="#111827">[Container: Bash]</text>
<text text-anchor="start" x="78.5" y="-1003.8" font-family="Arial" font-size="24.00" fill="#111827">scripts/workflow&#45;backup.sh</text>
<text text-anchor="start" x="69.5" y="-979.8" font-family="Arial" font-size="24.00" fill="#111827">coordinates one backup run:</text>
<text text-anchor="start" x="89" y="-955.8" font-family="Arial" font-size="24.00" fill="#111827">locking, logging, pre/post</text>
<text text-anchor="start" x="83" y="-931.8" font-family="Arial" font-size="24.00" fill="#111827">guard checks, WSL rsync,</text>
<text text-anchor="start" x="72" y="-907.8" font-family="Arial" font-size="24.00" fill="#111827">SQLite snapshots, Windows</text>
<text text-anchor="start" x="62" y="-883.8" font-family="Arial" font-size="24.00" fill="#111827">sync, run&#45;ledger updates, and</text>
<text text-anchor="start" x="84.5" y="-859.8" font-family="Arial" font-size="24.00" fill="#111827">NAS manifest publication.</text>
</g>
<!-- 4&#45;&gt;21 -->
<g id="37" class="edge">
<title>4&#45;&gt;21</title>
<path fill="none" stroke="#475569" stroke-dasharray="5,2" d="M413.19,-1047.9C503.22,-1081.32 613.23,-1117.97 715,-1140.5 1009.36,-1205.65 1771.55,-1259.43 2069.67,-1214.5 2183.81,-1197.3 2306.06,-1162.93 2410.89,-1128.23"/>
<polygon fill="#475569" stroke="#475569" points="2412.27,-1131.46 2420.66,-1124.98 2410.06,-1124.82 2412.27,-1131.46"/>
<polygon fill="white" stroke="transparent" points="1118,-1217.5 1118,-1292.5 1387,-1292.5 1387,-1217.5 1118,-1217.5"/>
<text text-anchor="start" x="1179" y="-1269.8" font-family="Arial" font-size="24.00" fill="#475569">1. Write failed</text>
<text text-anchor="start" x="1122.5" y="-1245.8" font-family="Arial" font-size="24.00" fill="#475569">last&#45;run/log/ledger event</text>
<text text-anchor="start" x="1166" y="-1225.8" font-family="Arial" font-size="19.00" fill="#475569">[filesystem + sqlite3]</text>
</g>
<!-- 4&#45;&gt;3 -->
<g id="35" class="edge">
<title>4&#45;&gt;3</title>
<path fill="none" stroke="#475569" stroke-dasharray="5,2" d="M413.4,-971.5C504.72,-971.5 614.04,-971.5 705.67,-971.5"/>
<polygon fill="#475569" stroke="#475569" points="705.9,-975 715.9,-971.5 705.9,-968 705.9,-975"/>
<polygon fill="white" stroke="transparent" points="479,-971.5 479,-1022.5 649,-1022.5 649,-971.5 479,-971.5"/>
<text text-anchor="start" x="483" y="-999.8" font-family="Arial" font-size="24.00" fill="#475569">3. Exit nonzero</text>
<text text-anchor="start" x="496" y="-979.8" font-family="Arial" font-size="19.00" fill="#475569">[systemd &#45;&#45;user]</text>
</g>
<!-- 24 -->
<g id="24" class="node">
<title>24</title>
<path fill="#fef3c7" stroke="#d97706" d="M1082,-642.72C1082,-661.01 999.75,-675.88 898.5,-675.88 797.25,-675.88 715,-661.01 715,-642.72 715,-642.72 715,-344.28 715,-344.28 715,-325.99 797.25,-311.12 898.5,-311.12 999.75,-311.12 1082,-325.99 1082,-344.28 1082,-344.28 1082,-642.72 1082,-642.72"/>
<path fill="none" stroke="#d97706" d="M1082,-642.72C1082,-624.42 999.75,-609.56 898.5,-609.56 797.25,-609.56 715,-624.42 715,-642.72"/>
<text text-anchor="start" x="767.5" y="-577.8" font-family="Arial" font-size="34.00" fill="#111827">TrueNAS Backup</text>
<text text-anchor="start" x="839.5" y="-543.8" font-family="Arial" font-size="34.00" fill="#111827">Dataset</text>
<text text-anchor="start" x="821.5" y="-521.8" font-family="Arial" font-size="19.00" fill="#111827">[Software System]</text>
<text text-anchor="start" x="749" y="-484.8" font-family="Arial" font-size="24.00" fill="#111827">Encrypted TrueNAS dataset</text>
<text text-anchor="start" x="744" y="-460.8" font-family="Arial" font-size="24.00" fill="#111827">v1/ws1/wf with current mirror</text>
<text text-anchor="start" x="752.5" y="-436.8" font-family="Arial" font-size="24.00" fill="#111827">tree, manifests, SMB share</text>
<text text-anchor="start" x="755" y="-412.8" font-family="Arial" font-size="24.00" fill="#111827">ws1&#45;wf, and ZFS snapshot</text>
<text text-anchor="start" x="860" y="-388.8" font-family="Arial" font-size="24.00" fill="#111827">history.</text>
</g>
<!-- 4&#45;&gt;24 -->
<g id="46" class="edge">
<title>4&#45;&gt;24</title>
<path fill="none" stroke="#475569" stroke-dasharray="5,2" d="M413.4,-837.08C504.99,-772.08 614.68,-694.22 706.48,-629.07"/>
<polygon fill="#475569" stroke="#475569" points="708.61,-631.85 714.74,-623.21 704.56,-626.14 708.61,-631.85"/>
<polygon fill="white" stroke="transparent" points="449,-802.5 449,-877.5 679,-877.5 679,-802.5 449,-802.5"/>
<text text-anchor="start" x="453" y="-854.8" font-family="Arial" font-size="24.00" fill="#475569">2. Best&#45;effort publish</text>
<text text-anchor="start" x="475.5" y="-830.8" font-family="Arial" font-size="24.00" fill="#475569">failure manifests</text>
<text text-anchor="start" x="467.5" y="-810.8" font-family="Arial" font-size="19.00" fill="#475569">[SSH rsync + SSH cat]</text>
</g>
</g>
</svg>
