<?xml version="1.0" encoding="UTF-8" standalone="no"?>
<!DOCTYPE svg PUBLIC "-//W3C//DTD SVG 1.1//EN"
 "http://www.w3.org/Graphics/SVG/1.1/DTD/svg11.dtd">
<!-- Generated by graphviz version 2.43.0 (0)
 -->
<!-- Title: %3 Pages: 1 -->
<svg width="3112pt" height="4591pt"
 viewBox="0.00 0.00 3111.82 4591.31" xmlns="http://www.w3.org/2000/svg" xmlns:xlink="http://www.w3.org/1999/xlink">
<g id="graph0" class="graph" transform="scale(1 1) rotate(0) translate(4 4587.31)">
<title>%3</title>
<polygon fill="white" stroke="transparent" points="-4,4 -4,-4587.31 3107.82,-4587.31 3107.82,4 -4,4"/>
<text text-anchor="start" x="1157.41" y="-35.8" font-family="Arial" font-size="34.00">Container View: WORKSTATION1 Workflow Backup</text>
<text text-anchor="start" x="900.41" y="-9.8" font-family="Arial" font-size="24.00">C2: hourly runtime path for guarded WSL/Windows sync, consistent SQLite snapshots, run history, and failure notification.</text>
<g id="clust1" class="cluster">
<title>cluster_2</title>
<polygon fill="none" stroke="#444444" points="8,-1744.5 8,-4010.5 3095.82,-4010.5 3095.82,-1744.5 8,-1744.5"/>
<text text-anchor="start" x="1360.91" y="-1773.3" font-family="Arial" font-size="24.00" fill="#444444">WORKSTATION1 Workflow Backup</text>
<text text-anchor="start" x="1474.91" y="-1753.3" font-family="Arial" font-size="19.00" fill="#444444">[Software System]</text>
</g>
<!-- 22 -->
<g id="22" class="node">
<title>22</title>
<path fill="#fef3c7" stroke="#d97706" d="M3018.82,-4554.28C3018.82,-4570.2 2925.82,-4583.13 2811.32,-4583.13 2696.82,-4583.13 2603.82,-4570.2 2603.82,-4554.28 2603.82,-4554.28 2603.82,-4294.72 2603.82,-4294.72 2603.82,-4278.8 2696.82,-4265.87 2811.32,-4265.87 2925.82,-4265.87 3018.82,-4278.8 3018.82,-4294.72 3018.82,-4294.72 3018.82,-4554.28 3018.82,-4554.28"/>
<path fill="none" stroke="#d97706" d="M3018.82,-4554.28C3018.82,-4538.37 2925.82,-4525.44 2811.32,-4525.44 2696.82,-4525.44 2603.82,-4538.37 2603.82,-4554.28"/>
<text text-anchor="start" x="2632.82" y="-4491.8" font-family="Arial" font-size="34.00" fill="#111827">WSL Workflow Sources</text>
<text text-anchor="start" x="2734.32" y="-4469.8" font-family="Arial" font-size="19.00" fill="#111827">[Software System]</text>
<text text-anchor="start" x="2657.82" y="-4432.8" font-family="Arial" font-size="24.00" fill="#111827">Workflow&#45;critical WSL paths:</text>
<text text-anchor="start" x="2666.32" y="-4408.8" font-family="Arial" font-size="24.00" fill="#111827">~/repos, ~/.hermes, ~/.ssh,</text>
<text text-anchor="start" x="2699.82" y="-4384.8" font-family="Arial" font-size="24.00" fill="#111827">systemd user config,</text>
<text text-anchor="start" x="2654.82" y="-4360.8" font-family="Arial" font-size="24.00" fill="#111827">lifelog/browser&#45;memory data,</text>
<text text-anchor="start" x="2656.32" y="-4336.8" font-family="Arial" font-size="24.00" fill="#111827">and optional brain&#45;code tree.</text>
</g>
<!-- 23 -->
<g id="23" class="node">
<title>23</title>
<path fill="#fef3c7" stroke="#d97706" d="M3019.32,-1244.72C3019.32,-1266.32 2926.09,-1283.88 2811.32,-1283.88 2696.55,-1283.88 2603.32,-1266.32 2603.32,-1244.72 2603.32,-1244.72 2603.32,-892.28 2603.32,-892.28 2603.32,-870.68 2696.55,-853.12 2811.32,-853.12 2926.09,-853.12 3019.32,-870.68 3019.32,-892.28 3019.32,-892.28 3019.32,-1244.72 3019.32,-1244.72"/>
<path fill="none" stroke="#d97706" d="M3019.32,-1244.72C3019.32,-1223.11 2926.09,-1205.56 2811.32,-1205.56 2696.55,-1205.56 2603.32,-1223.11 2603.32,-1244.72"/>
<text text-anchor="start" x="2667.32" y="-1176.8" font-family="Arial" font-size="34.00" fill="#111827">Windows Workflow</text>
<text text-anchor="start" x="2748.82" y="-1142.8" font-family="Arial" font-size="34.00" fill="#111827">Sources</text>
<text text-anchor="start" x="2734.32" y="-1120.8" font-family="Arial" font-size="19.00" fill="#111827">[Software System]</text>
<text text-anchor="start" x="2647.82" y="-1083.8" font-family="Arial" font-size="24.00" fill="#111827">Selected Windows user&#45;profile</text>
<text text-anchor="start" x="2646.32" y="-1059.8" font-family="Arial" font-size="24.00" fill="#111827">artifacts: Desktop, Documents,</text>
<text text-anchor="start" x="2695.82" y="-1035.8" font-family="Arial" font-size="24.00" fill="#111827">Downloads, Windows</text>
<text text-anchor="start" x="2661.32" y="-1011.8" font-family="Arial" font-size="24.00" fill="#111827">.ssh/.wslconfig, Terminal/VS</text>
<text text-anchor="start" x="2632.32" y="-987.8" font-family="Arial" font-size="24.00" fill="#111827">Code/PowerShell config, Chrome</text>
<text text-anchor="start" x="2654.82" y="-963.8" font-family="Arial" font-size="24.00" fill="#111827">profile metadata, and Startup</text>
<text text-anchor="start" x="2771.32" y="-939.8" font-family="Arial" font-size="24.00" fill="#111827">entries.</text>
</g>
<!-- 24 -->
<g id="24" class="node">
<title>24</title>
<path fill="#fef3c7" stroke="#d97706" d="M2994.82,-748.72C2994.82,-767.01 2912.57,-781.88 2811.32,-781.88 2710.07,-781.88 2627.82,-767.01 2627.82,-748.72 2627.82,-748.72 2627.82,-450.28 2627.82,-450.28 2627.82,-431.99 2710.07,-417.12 2811.32,-417.12 2912.57,-417.12 2994.82,-431.99 2994.82,-450.28 2994.82,-450.28 2994.82,-748.72 2994.82,-748.72"/>
<path fill="none" stroke="#d97706" d="M2994.82,-748.72C2994.82,-730.42 2912.57,-715.56 2811.32,-715.56 2710.07,-715.56 2627.82,-730.42 2627.82,-748.72"/>
<text text-anchor="start" x="2680.32" y="-683.8" font-family="Arial" font-size="34.00" fill="#111827">TrueNAS Backup</text>
<text text-anchor="start" x="2752.32" y="-649.8" font-family="Arial" font-size="34.00" fill="#111827">Dataset</text>
<text text-anchor="start" x="2734.32" y="-627.8" font-family="Arial" font-size="19.00" fill="#111827">[Software System]</text>
<text text-anchor="start" x="2661.82" y="-590.8" font-family="Arial" font-size="24.00" fill="#111827">Encrypted TrueNAS dataset</text>
<text text-anchor="start" x="2656.82" y="-566.8" font-family="Arial" font-size="24.00" fill="#111827">v1/ws1/wf with current mirror</text>
<text text-anchor="start" x="2665.32" y="-542.8" font-family="Arial" font-size="24.00" fill="#111827">tree, manifests, SMB share</text>
<text text-anchor="start" x="2667.82" y="-518.8" font-family="Arial" font-size="24.00" fill="#111827">ws1&#45;wf, and ZFS snapshot</text>
<text text-anchor="start" x="2772.82" y="-494.8" font-family="Arial" font-size="24.00" fill="#111827">history.</text>
</g>
<!-- 25 -->
<g id="25" class="node">
<title>25</title>
<polygon fill="#f3e8ff" stroke="#9333ea" points="3018.82,-345 2603.82,-345 2603.82,-80 3018.82,-80 3018.82,-345"/>
<text text-anchor="start" x="2650.32" y="-296.8" font-family="Arial" font-size="34.00" fill="#111827">TrueNAS Middleware</text>
<text text-anchor="start" x="2638.32" y="-262.8" font-family="Arial" font-size="34.00" fill="#111827">and ZFS Control Plane</text>
<text text-anchor="start" x="2734.32" y="-240.8" font-family="Arial" font-size="19.00" fill="#111827">[Software System]</text>
<text text-anchor="start" x="2632.82" y="-203.8" font-family="Arial" font-size="24.00" fill="#111827">root@10.99.98.221 management</text>
<text text-anchor="start" x="2697.82" y="-179.8" font-family="Arial" font-size="24.00" fill="#111827">surface used for ZFS</text>
<text text-anchor="start" x="2666.32" y="-155.8" font-family="Arial" font-size="24.00" fill="#111827">properties, snapshot tasks,</text>
<text text-anchor="start" x="2651.82" y="-131.8" font-family="Arial" font-size="24.00" fill="#111827">SMB share configuration, and</text>
<text text-anchor="start" x="2749.82" y="-107.8" font-family="Arial" font-size="24.00" fill="#111827">verification.</text>
</g>
<!-- 26 -->
<g id="26" class="node">
<title>26</title>
<path fill="#fef3c7" stroke="#d97706" d="M2991.82,-1686.72C2991.82,-1705.01 2910.92,-1719.88 2811.32,-1719.88 2711.72,-1719.88 2630.82,-1705.01 2630.82,-1686.72 2630.82,-1686.72 2630.82,-1388.28 2630.82,-1388.28 2630.82,-1369.99 2711.72,-1355.12 2811.32,-1355.12 2910.92,-1355.12 2991.82,-1369.99 2991.82,-1388.28 2991.82,-1388.28 2991.82,-1686.72 2991.82,-1686.72"/>
<path fill="none" stroke="#d97706" d="M2991.82,-1686.72C2991.82,-1668.42 2910.92,-1653.56 2811.32,-1653.56 2711.72,-1653.56 2630.82,-1668.42 2630.82,-1686.72"/>
<text text-anchor="start" x="2720.82" y="-1621.8" font-family="Arial" font-size="34.00" fill="#111827">Hermes Bot</text>
<text text-anchor="start" x="2683.32" y="-1587.8" font-family="Arial" font-size="34.00" fill="#111827">Environment File</text>
<text text-anchor="start" x="2734.32" y="-1565.8" font-family="Arial" font-size="19.00" fill="#111827">[Software System]</text>
<text text-anchor="start" x="2659.82" y="-1528.8" font-family="Arial" font-size="24.00" fill="#111827">Local ~/.hermes/.env values</text>
<text text-anchor="start" x="2679.32" y="-1504.8" font-family="Arial" font-size="24.00" fill="#111827">that supply Telegram bot</text>
<text text-anchor="start" x="2676.32" y="-1480.8" font-family="Arial" font-size="24.00" fill="#111827">token/chat settings to the</text>
<text text-anchor="start" x="2664.82" y="-1456.8" font-family="Arial" font-size="24.00" fill="#111827">failure notifier; contents are</text>
<text text-anchor="start" x="2690.82" y="-1432.8" font-family="Arial" font-size="24.00" fill="#111827">not stored in this repo.</text>
</g>
<!-- 27 -->
<g id="27" class="node">
<title>27</title>
<polygon fill="#f3e8ff" stroke="#9333ea" points="2986.32,-4194 2636.32,-4194 2636.32,-4035 2986.32,-4035 2986.32,-4194"/>
<text text-anchor="start" x="2679.82" y="-4145.8" font-family="Arial" font-size="34.00" fill="#111827">Telegram Bot API</text>
<text text-anchor="start" x="2734.32" y="-4123.8" font-family="Arial" font-size="19.00" fill="#111827">[Software System]</text>
<text text-anchor="start" x="2672.32" y="-4086.8" font-family="Arial" font-size="24.00" fill="#111827">External API used only for</text>
<text text-anchor="start" x="2665.32" y="-4062.8" font-family="Arial" font-size="24.00" fill="#111827">backup failure notifications.</text>
</g>
<!-- 15 -->
<g id="15" class="node">
<title>15</title>
<polygon fill="#ecfeff" stroke="#0891b2" points="2142.04,-3777.5 1981.98,-3985.91 1661.84,-3985.91 1501.78,-3777.5 1661.84,-3569.09 1981.98,-3569.09 2142.04,-3777.5"/>
<text text-anchor="start" x="1673.41" y="-3856.8" font-family="Arial" font-size="34.00" fill="#111827">SQLite Snapshotter</text>
<text text-anchor="start" x="1699.91" y="-3834.8" font-family="Arial" font-size="19.00" fill="#111827">[Container: Python 3, sqlite3]</text>
<text text-anchor="start" x="1659.41" y="-3797.8" font-family="Arial" font-size="24.00" fill="#111827">Creates application&#45;consistent</text>
<text text-anchor="start" x="1685.91" y="-3773.8" font-family="Arial" font-size="24.00" fill="#111827">copies of Hermes, lifelog,</text>
<text text-anchor="start" x="1663.91" y="-3749.8" font-family="Arial" font-size="24.00" fill="#111827">browser&#45;memory, and related</text>
<text text-anchor="start" x="1654.91" y="-3725.8" font-family="Arial" font-size="24.00" fill="#111827">SQLite databases using sqlite3</text>
<text text-anchor="start" x="1664.91" y="-3701.8" font-family="Arial" font-size="24.00" fill="#111827">backup API; can quick_check</text>
<text text-anchor="start" x="1783.41" y="-3677.8" font-family="Arial" font-size="24.00" fill="#111827">copies.</text>
</g>
<!-- 15&#45;&gt;22 -->
<g id="42" class="edge">
<title>15&#45;&gt;22</title>
<path fill="none" stroke="#475569" stroke-dasharray="5,2" d="M1967.65,-3985.94C2033.06,-4066.02 2116.62,-4151.54 2209.82,-4207.5 2329.96,-4279.64 2383.94,-4236.11 2515.82,-4283.5 2541.71,-4292.8 2568.36,-4303.65 2594.57,-4315.11"/>
<polygon fill="#475569" stroke="#475569" points="2593.25,-4318.36 2603.81,-4319.19 2596.08,-4311.95 2593.25,-4318.36"/>
<polygon fill="white" stroke="transparent" points="2262.32,-4283.5 2262.32,-4358.5 2463.32,-4358.5 2463.32,-4283.5 2262.32,-4283.5"/>
<text text-anchor="start" x="2266.82" y="-4335.8" font-family="Arial" font-size="24.00" fill="#475569">Reads live SQLite</text>
<text text-anchor="start" x="2279.32" y="-4311.8" font-family="Arial" font-size="24.00" fill="#475569">databases from</text>
<text text-anchor="start" x="2278.82" y="-4291.8" font-family="Arial" font-size="19.00" fill="#475569">[sqlite3 backup API]</text>
</g>
<!-- 21 -->
<g id="21" class="node">
<title>21</title>
<path fill="#fef3c7" stroke="#d97706" d="M3070.82,-3477.22C3070.82,-3497.17 2954.51,-3513.38 2811.32,-3513.38 2668.13,-3513.38 2551.82,-3497.17 2551.82,-3477.22 2551.82,-3477.22 2551.82,-3151.78 2551.82,-3151.78 2551.82,-3131.83 2668.13,-3115.62 2811.32,-3115.62 2954.51,-3115.62 3070.82,-3131.83 3070.82,-3151.78 3070.82,-3151.78 3070.82,-3477.22 3070.82,-3477.22"/>
<path fill="none" stroke="#d97706" d="M3070.82,-3477.22C3070.82,-3457.26 2954.51,-3441.06 2811.32,-3441.06 2668.13,-3441.06 2551.82,-3457.26 2551.82,-3477.22"/>
<text text-anchor="start" x="2644.32" y="-3410.8" font-family="Arial" font-size="34.00" fill="#111827">Run Ledger and Local</text>
<text text-anchor="start" x="2771.32" y="-3376.8" font-family="Arial" font-size="34.00" fill="#111827">State</text>
<text text-anchor="start" x="2584.32" y="-3354.8" font-family="Arial" font-size="19.00" fill="#111827">[Container: SQLite + JSON + logs on WSL filesystem]</text>
<text text-anchor="start" x="2653.32" y="-3317.8" font-family="Arial" font-size="24.00" fill="#111827">Local status, logs, SQLite run</text>
<text text-anchor="start" x="2663.32" y="-3293.8" font-family="Arial" font-size="24.00" fill="#111827">ledger, exported run&#45;history</text>
<text text-anchor="start" x="2644.32" y="-3269.8" font-family="Arial" font-size="24.00" fill="#111827">JSON, SQLite snapshot cache,</text>
<text text-anchor="start" x="2653.82" y="-3245.8" font-family="Arial" font-size="24.00" fill="#111827">and Windows manifest cache</text>
<text text-anchor="start" x="2779.82" y="-3221.8" font-family="Arial" font-size="24.00" fill="#111827">under</text>
<text text-anchor="start" x="2580.82" y="-3197.8" font-family="Arial" font-size="24.00" fill="#111827">~/.local/state/workstation&#45;workflow&#45;backup.</text>
</g>
<!-- 15&#45;&gt;21 -->
<g id="44" class="edge">
<title>15&#45;&gt;21</title>
<path fill="none" stroke="#475569" stroke-dasharray="5,2" d="M2057.85,-3667.34C2203.39,-3599.09 2390.75,-3511.24 2542.1,-3440.27"/>
<polygon fill="#475569" stroke="#475569" points="2543.99,-3443.25 2551.56,-3435.83 2541.02,-3436.91 2543.99,-3443.25"/>
<polygon fill="white" stroke="transparent" points="2250.32,-3586.5 2250.32,-3685.5 2475.32,-3685.5 2475.32,-3586.5 2250.32,-3586.5"/>
<text text-anchor="start" x="2260.82" y="-3662.8" font-family="Arial" font-size="24.00" fill="#475569">Writes local SQLite</text>
<text text-anchor="start" x="2254.82" y="-3638.8" font-family="Arial" font-size="24.00" fill="#475569">snapshot cache and</text>
<text text-anchor="start" x="2282.82" y="-3614.8" font-family="Arial" font-size="24.00" fill="#475569">manifest under</text>
<text text-anchor="start" x="2314.82" y="-3594.8" font-family="Arial" font-size="19.00" fill="#475569">[filesystem]</text>
</g>
<!-- 16 -->
<g id="16" class="node">
<title>16</title>
<polygon fill="#ecfeff" stroke="#0891b2" points="2145.08,-2549.5 1983.49,-2805.13 1660.33,-2805.13 1498.74,-2549.5 1660.33,-2293.87 1983.49,-2293.87 2145.08,-2549.5"/>
<text text-anchor="start" x="1652.91" y="-2657.8" font-family="Arial" font-size="34.00" fill="#111827">Windows Critical Sync</text>
<text text-anchor="start" x="1771.91" y="-2623.8" font-family="Arial" font-size="34.00" fill="#111827">Helper</text>
<text text-anchor="start" x="1654.91" y="-2601.8" font-family="Arial" font-size="19.00" fill="#111827">[Container: PowerShell + robocopy.exe]</text>
<text text-anchor="start" x="1675.91" y="-2564.8" font-family="Arial" font-size="24.00" fill="#111827">PowerShell script launched</text>
<text text-anchor="start" x="1715.91" y="-2540.8" font-family="Arial" font-size="24.00" fill="#111827">from WSL that uses</text>
<text text-anchor="start" x="1700.91" y="-2516.8" font-family="Arial" font-size="24.00" fill="#111827">robocopy.exe to mirror</text>
<text text-anchor="start" x="1687.91" y="-2492.8" font-family="Arial" font-size="24.00" fill="#111827">selected Windows profile</text>
<text text-anchor="start" x="1677.91" y="-2468.8" font-family="Arial" font-size="24.00" fill="#111827">directories/files to the SMB</text>
<text text-anchor="start" x="1670.41" y="-2444.8" font-family="Arial" font-size="24.00" fill="#111827">share and writes a Windows</text>
<text text-anchor="start" x="1744.41" y="-2420.8" font-family="Arial" font-size="24.00" fill="#111827">sync manifest.</text>
</g>
<!-- 16&#45;&gt;23 -->
<g id="49" class="edge">
<title>16&#45;&gt;23</title>
<path fill="none" stroke="#475569" stroke-dasharray="5,2" d="M2053.97,-2405.29C2101.78,-2364.01 2146,-2314.72 2173.82,-2258.5 2217.52,-2170.2 2156.54,-1455.38 2209.82,-1372.5 2295.45,-1239.32 2458.66,-1161.96 2593.34,-1118.63"/>
<polygon fill="#475569" stroke="#475569" points="2594.51,-1121.93 2602.98,-1115.57 2592.39,-1115.26 2594.51,-1121.93"/>
<polygon fill="white" stroke="transparent" points="2220.32,-1372.5 2220.32,-1447.5 2505.32,-1447.5 2505.32,-1372.5 2220.32,-1372.5"/>
<text text-anchor="start" x="2224.82" y="-1424.8" font-family="Arial" font-size="24.00" fill="#475569">Mirrors selected Windows</text>
<text text-anchor="start" x="2292.82" y="-1400.8" font-family="Arial" font-size="24.00" fill="#475569">artifacts from</text>
<text text-anchor="start" x="2301.32" y="-1380.8" font-family="Arial" font-size="19.00" fill="#475569">[robocopy.exe]</text>
</g>
<!-- 16&#45;&gt;24 -->
<g id="51" class="edge">
<title>16&#45;&gt;24</title>
<path fill="none" stroke="#475569" stroke-dasharray="5,2" d="M2054.4,-2405.5C2102.19,-2364.22 2146.3,-2314.86 2173.82,-2258.5 2232.4,-2138.53 2147.65,-1175.64 2209.82,-1057.5 2288.31,-908.35 2381.81,-935.72 2515.82,-833.5 2549.59,-807.74 2585.21,-779.97 2619.55,-752.87"/>
<polygon fill="#475569" stroke="#475569" points="2622.11,-755.31 2627.79,-746.36 2617.77,-749.81 2622.11,-755.31"/>
<polygon fill="white" stroke="transparent" points="2209.82,-1057.5 2209.82,-1132.5 2515.82,-1132.5 2515.82,-1057.5 2209.82,-1057.5"/>
<text text-anchor="start" x="2213.82" y="-1109.8" font-family="Arial" font-size="24.00" fill="#475569">Writes current/windows and</text>
<text text-anchor="start" x="2245.32" y="-1085.8" font-family="Arial" font-size="24.00" fill="#475569">Windows manifests to</text>
<text text-anchor="start" x="2244.32" y="-1065.8" font-family="Arial" font-size="19.00" fill="#475569">[SMB \10.99.98.221\ws1&#45;wf]</text>
</g>
<!-- 16&#45;&gt;21 -->
<g id="52" class="edge">
<title>16&#45;&gt;21</title>
<path fill="none" stroke="#475569" stroke-dasharray="5,2" d="M2039.3,-2717.15C2193.78,-2836.83 2401.88,-2998.06 2562.95,-3122.85"/>
<polygon fill="#475569" stroke="#475569" points="2561.02,-3125.78 2571.07,-3129.14 2565.31,-3120.25 2561.02,-3125.78"/>
<polygon fill="white" stroke="transparent" points="2217.32,-3066.5 2217.32,-3126.5 2508.32,-3126.5 2508.32,-3066.5 2217.32,-3066.5"/>
<text text-anchor="start" x="2221.82" y="-3103.3" font-family="Arial" font-size="24.00" fill="#475569">Leaves manifest cache for</text>
<text text-anchor="start" x="2266.82" y="-3077.3" font-family="Arial" font-size="24.00" fill="#475569">ledger summaries</text>
</g>
<!-- 17 -->
<g id="17" class="node">
<title>17</title>
<polygon fill="#ecfeff" stroke="#0891b2" points="2173.73,-2033.5 1997.82,-2222.22 1646,-2222.22 1470.09,-2033.5 1646,-1844.78 1997.82,-1844.78 2173.73,-2033.5"/>
<text text-anchor="start" x="1675.41" y="-2100.8" font-family="Arial" font-size="34.00" fill="#111827">NAS Growth Guard</text>
<text text-anchor="start" x="1635.41" y="-2078.8" font-family="Arial" font-size="19.00" fill="#111827">[Container: Bash + remote Python + zfs CLI]</text>
<text text-anchor="start" x="1664.91" y="-2041.8" font-family="Arial" font-size="24.00" fill="#111827">Read&#45;only ZFS budget check</text>
<text text-anchor="start" x="1674.41" y="-2017.8" font-family="Arial" font-size="24.00" fill="#111827">that enforces dataset&#45;used,</text>
<text text-anchor="start" x="1654.41" y="-1993.8" font-family="Arial" font-size="24.00" fill="#111827">snapshot&#45;held, free&#45;space, and</text>
<text text-anchor="start" x="1707.91" y="-1969.8" font-family="Arial" font-size="24.00" fill="#111827">snapshot&#45;count limits</text>
<text text-anchor="start" x="1720.91" y="-1945.8" font-family="Arial" font-size="24.00" fill="#111827">before/after writes.</text>
</g>
<!-- 17&#45;&gt;25 -->
<g id="39" class="edge">
<title>17&#45;&gt;25</title>
<path fill="none" stroke="#475569" stroke-dasharray="5,2" d="M1848.17,-1844.66C1890.28,-1578.34 1992.62,-1084.35 2209.82,-720.5 2303.57,-563.46 2463.59,-431.69 2594.88,-341.74"/>
<polygon fill="#475569" stroke="#475569" points="2597.19,-344.4 2603.48,-335.87 2593.25,-338.61 2597.19,-344.4"/>
<polygon fill="white" stroke="transparent" points="2209.82,-720.5 2209.82,-819.5 2515.82,-819.5 2515.82,-720.5 2209.82,-720.5"/>
<text text-anchor="start" x="2213.82" y="-796.8" font-family="Arial" font-size="24.00" fill="#475569">Reads ZFS used, available,</text>
<text text-anchor="start" x="2241.32" y="-772.8" font-family="Arial" font-size="24.00" fill="#475569">usedbysnapshots, and</text>
<text text-anchor="start" x="2252.82" y="-748.8" font-family="Arial" font-size="24.00" fill="#475569">snapshot count from</text>
<text text-anchor="start" x="2314.32" y="-728.8" font-family="Arial" font-size="19.00" fill="#475569">[SSH + zfs]</text>
</g>
<!-- 20 -->
<g id="20" class="node">
<title>20</title>
<polygon fill="#ecfeff" stroke="#0891b2" points="2145.08,-3065.5 1983.49,-3254.22 1660.33,-3254.22 1498.74,-3065.5 1660.33,-2876.78 1983.49,-2876.78 2145.08,-3065.5"/>
<text text-anchor="start" x="1710.91" y="-3132.8" font-family="Arial" font-size="34.00" fill="#111827">Failure Notifier</text>
<text text-anchor="start" x="1684.91" y="-3110.8" font-family="Arial" font-size="19.00" fill="#111827">[Container: Bash + Python urllib]</text>
<text text-anchor="start" x="1676.91" y="-3073.8" font-family="Arial" font-size="24.00" fill="#111827">Best&#45;effort Telegram failure</text>
<text text-anchor="start" x="1695.41" y="-3049.8" font-family="Arial" font-size="24.00" fill="#111827">alert unit that reads last</text>
<text text-anchor="start" x="1661.41" y="-3025.8" font-family="Arial" font-size="24.00" fill="#111827">status/log tail and Hermes bot</text>
<text text-anchor="start" x="1652.91" y="-3001.8" font-family="Arial" font-size="24.00" fill="#111827">environment variables; success</text>
<text text-anchor="start" x="1737.41" y="-2977.8" font-family="Arial" font-size="24.00" fill="#111827">runs stay silent.</text>
</g>
<!-- 20&#45;&gt;26 -->
<g id="56" class="edge">
<title>20&#45;&gt;26</title>
<path fill="none" stroke="#475569" stroke-dasharray="5,2" d="M2049.15,-2953.13C2095.24,-2922.04 2139.94,-2884.73 2173.82,-2841.5 2254.52,-2738.54 2474.42,-1831.96 2551.82,-1726.5 2571.66,-1699.48 2596.49,-1674.7 2622.86,-1652.6"/>
<polygon fill="#475569" stroke="#475569" points="2625.22,-1655.2 2630.72,-1646.14 2620.77,-1649.79 2625.22,-1655.2"/>
<polygon fill="white" stroke="transparent" points="2236.82,-2754.5 2236.82,-2829.5 2488.82,-2829.5 2488.82,-2754.5 2236.82,-2754.5"/>
<text text-anchor="start" x="2254.32" y="-2806.8" font-family="Arial" font-size="24.00" fill="#475569">Reads Telegram bot</text>
<text text-anchor="start" x="2240.82" y="-2782.8" font-family="Arial" font-size="24.00" fill="#475569">token/chat values from</text>
<text text-anchor="start" x="2314.32" y="-2762.8" font-family="Arial" font-size="19.00" fill="#475569">[filesystem]</text>
</g>
<!-- 20&#45;&gt;27 -->
<g id="58" class="edge">
<title>20&#45;&gt;27</title>
<path fill="none" stroke="#475569" stroke-dasharray="5,2" d="M2048.72,-3178.55C2097.63,-3213.55 2143.67,-3256.81 2173.82,-3308.5 2262.63,-3460.78 2133,-3544.83 2209.82,-3703.5 2301.19,-3892.23 2372.03,-3920.6 2551.82,-4028.5 2574.94,-4042.37 2600.57,-4054.33 2626.46,-4064.54"/>
<polygon fill="#475569" stroke="#475569" points="2625.42,-4067.89 2636.01,-4068.22 2627.94,-4061.36 2625.42,-4067.89"/>
<polygon fill="white" stroke="transparent" points="2261.82,-4003.5 2261.82,-4078.5 2463.82,-4078.5 2463.82,-4003.5 2261.82,-4003.5"/>
<text text-anchor="start" x="2265.82" y="-4055.8" font-family="Arial" font-size="24.00" fill="#475569">Sends failure&#45;only</text>
<text text-anchor="start" x="2291.32" y="-4031.8" font-family="Arial" font-size="24.00" fill="#475569">notification to</text>
<text text-anchor="start" x="2326.32" y="-4011.8" font-family="Arial" font-size="19.00" fill="#475569">[HTTPS]</text>
</g>
<!-- 20&#45;&gt;21 -->
<g id="55" class="edge">
<title>20&#45;&gt;21</title>
<path fill="none" stroke="#475569" stroke-dasharray="5,2" d="M2088.17,-3132.39C2228.6,-3167.81 2400.68,-3211.2 2541.63,-3246.74"/>
<polygon fill="#475569" stroke="#475569" points="2541.17,-3250.24 2551.72,-3249.29 2542.88,-3243.45 2541.17,-3250.24"/>
<polygon fill="white" stroke="transparent" points="2222.82,-3233.5 2222.82,-3308.5 2502.82,-3308.5 2502.82,-3233.5 2222.82,-3233.5"/>
<text text-anchor="start" x="2226.82" y="-3285.8" font-family="Arial" font-size="24.00" fill="#475569">Reads last status and log</text>
<text text-anchor="start" x="2319.32" y="-3261.8" font-family="Arial" font-size="24.00" fill="#475569">tail from</text>
<text text-anchor="start" x="2314.32" y="-3241.8" font-family="Arial" font-size="19.00" fill="#475569">[filesystem]</text>
</g>
<!-- 3 -->
<g id="3" class="node">
<title>3</title>
<polygon fill="#e0e7ff" stroke="#4f46e5" points="398,-2907 33,-2907 33,-2642 398,-2642 398,-2907"/>
<text text-anchor="start" x="63.5" y="-2858.8" font-family="Arial" font-size="34.00" fill="#111827">systemd User Timer</text>
<text text-anchor="start" x="125.5" y="-2824.8" font-family="Arial" font-size="34.00" fill="#111827">and Service</text>
<text text-anchor="start" x="78.5" y="-2802.8" font-family="Arial" font-size="19.00" fill="#111827">[Container: systemd &#45;&#45;user units]</text>
<text text-anchor="start" x="68.5" y="-2765.8" font-family="Arial" font-size="24.00" fill="#111827">Hourly user&#45;level scheduler</text>
<text text-anchor="start" x="62" y="-2741.8" font-family="Arial" font-size="24.00" fill="#111827">and oneshot service that run</text>
<text text-anchor="start" x="62" y="-2717.8" font-family="Arial" font-size="24.00" fill="#111827">the backup at minute 45 and</text>
<text text-anchor="start" x="111.5" y="-2693.8" font-family="Arial" font-size="24.00" fill="#111827">route failures to the</text>
<text text-anchor="start" x="176" y="-2669.8" font-family="Arial" font-size="24.00" fill="#111827">notifier.</text>
</g>
<!-- 3&#45;&gt;20 -->
<g id="36" class="edge">
<title>3&#45;&gt;20</title>
<path fill="none" stroke="#475569" stroke-dasharray="5,2" d="M398.08,-2692.68C657.56,-2589.55 1135.94,-2452.43 1434,-2688.5 1488.76,-2731.87 1429.59,-2784.52 1470,-2841.5 1499.95,-2883.73 1540.62,-2919.87 1583.65,-2950.01"/>
<polygon fill="#475569" stroke="#475569" points="1581.78,-2952.97 1592,-2955.77 1585.75,-2947.21 1581.78,-2952.97"/>
<polygon fill="white" stroke="transparent" points="806.5,-2588.5 806.5,-2663.5 1031.5,-2663.5 1031.5,-2588.5 806.5,-2588.5"/>
<text text-anchor="start" x="811" y="-2640.8" font-family="Arial" font-size="24.00" fill="#475569">Triggers on nonzero</text>
<text text-anchor="start" x="848" y="-2616.8" font-family="Arial" font-size="24.00" fill="#475569">service result</text>
<text text-anchor="start" x="872.5" y="-2596.8" font-family="Arial" font-size="19.00" fill="#475569">[OnFailure]</text>
</g>
<!-- 4 -->
<g id="4" class="node">
<title>4</title>
<polygon fill="#e0f2fe" stroke="#0284c7" points="1109,-3110 729,-3110 729,-2831 1109,-2831 1109,-3110"/>
<text text-anchor="start" x="762.5" y="-3061.8" font-family="Arial" font-size="34.00" fill="#111827">Backup Orchestrator</text>
<text text-anchor="start" x="845.5" y="-3039.8" font-family="Arial" font-size="19.00" fill="#111827">[Container: Bash]</text>
<text text-anchor="start" x="774.5" y="-3002.8" font-family="Arial" font-size="24.00" fill="#111827">scripts/workflow&#45;backup.sh</text>
<text text-anchor="start" x="765.5" y="-2978.8" font-family="Arial" font-size="24.00" fill="#111827">coordinates one backup run:</text>
<text text-anchor="start" x="785" y="-2954.8" font-family="Arial" font-size="24.00" fill="#111827">locking, logging, pre/post</text>
<text text-anchor="start" x="779" y="-2930.8" font-family="Arial" font-size="24.00" fill="#111827">guard checks, WSL rsync,</text>
<text text-anchor="start" x="768" y="-2906.8" font-family="Arial" font-size="24.00" fill="#111827">SQLite snapshots, Windows</text>
<text text-anchor="start" x="758" y="-2882.8" font-family="Arial" font-size="24.00" fill="#111827">sync, run&#45;ledger updates, and</text>
<text text-anchor="start" x="780.5" y="-2858.8" font-family="Arial" font-size="24.00" fill="#111827">NAS manifest publication.</text>
</g>
<!-- 3&#45;&gt;4 -->
<g id="35" class="edge">
<title>3&#45;&gt;4</title>
<path fill="none" stroke="#475569" stroke-dasharray="5,2" d="M398.07,-2825.23C496.48,-2852.73 618.27,-2886.75 719.23,-2914.96"/>
<polygon fill="#475569" stroke="#475569" points="718.36,-2918.35 728.93,-2917.67 720.24,-2911.61 718.36,-2918.35"/>
<polygon fill="white" stroke="transparent" points="434,-2906.5 434,-2981.5 693,-2981.5 693,-2906.5 434,-2906.5"/>
<text text-anchor="start" x="438.5" y="-2958.8" font-family="Arial" font-size="24.00" fill="#475569">Starts hourly at :45 and</text>
<text text-anchor="start" x="467.5" y="-2934.8" font-family="Arial" font-size="24.00" fill="#475569">tracks service exit</text>
<text text-anchor="start" x="496" y="-2914.8" font-family="Arial" font-size="19.00" fill="#475569">[systemd &#45;&#45;user]</text>
</g>
<!-- 4&#45;&gt;22 -->
<g id="45" class="edge">
<title>4&#45;&gt;22</title>
<path fill="none" stroke="#475569" stroke-dasharray="5,2" d="M940.01,-3110C967.29,-3266.55 1026.93,-3523.54 1145,-3714.5 1249.5,-3883.5 1306,-3909.31 1470,-4021.5 1770.38,-4226.98 1858.56,-4277.29 2209.82,-4372.5 2334.21,-4406.22 2477.9,-4419.53 2593.53,-4424.26"/>
<polygon fill="#475569" stroke="#475569" points="2593.44,-4427.76 2603.57,-4424.65 2593.71,-4420.77 2593.44,-4427.76"/>
<polygon fill="white" stroke="transparent" points="1690.41,-4359.5 1690.41,-4434.5 1953.41,-4434.5 1953.41,-4359.5 1690.41,-4359.5"/>
<text text-anchor="start" x="1694.91" y="-4411.8" font-family="Arial" font-size="24.00" fill="#475569">Mirrors configured WSL</text>
<text text-anchor="start" x="1727.41" y="-4387.8" font-family="Arial" font-size="24.00" fill="#475569">source trees from</text>
<text text-anchor="start" x="1770.91" y="-4367.8" font-family="Arial" font-size="19.00" fill="#475569">[sudo rsync]</text>
</g>
<!-- 4&#45;&gt;24 -->
<g id="46" class="edge">
<title>4&#45;&gt;24</title>
<path fill="none" stroke="#475569" stroke-dasharray="5,2" d="M1031,-2830.78C1061.37,-2785.57 1090.88,-2733.59 1109,-2681.5 1167.21,-2514.17 1092.23,-2453.63 1145,-2284.5 1403.96,-1454.54 1454.72,-1074.46 2209.82,-643.5 2332.69,-573.38 2493.47,-565.1 2617.74,-572.87"/>
<polygon fill="#475569" stroke="#475569" points="2617.55,-576.37 2627.76,-573.54 2618.01,-569.38 2617.55,-576.37"/>
<polygon fill="white" stroke="transparent" points="1681.91,-1348.5 1681.91,-1447.5 1961.91,-1447.5 1961.91,-1348.5 1681.91,-1348.5"/>
<text text-anchor="start" x="1722.41" y="-1424.8" font-family="Arial" font-size="24.00" fill="#475569">Writes current/wsl,</text>
<text text-anchor="start" x="1685.91" y="-1400.8" font-family="Arial" font-size="24.00" fill="#475569">wsl&#45;sqlite&#45;snapshots, and</text>
<text text-anchor="start" x="1749.41" y="-1376.8" font-family="Arial" font-size="24.00" fill="#475569">_manifests to</text>
<text text-anchor="start" x="1725.41" y="-1356.8" font-family="Arial" font-size="19.00" fill="#475569">[SSH rsync + SSH cat]</text>
</g>
<!-- 4&#45;&gt;25 -->
<g id="53" class="edge">
<title>4&#45;&gt;25</title>
<path fill="none" stroke="#475569" stroke-dasharray="5,2" d="M1033.5,-2830.7C1063.76,-2785.69 1092.59,-2733.84 1109,-2681.5 1193,-2413.58 1090.78,-1694 1145,-1418.5 1224.15,-1016.36 1164.75,-829 1470,-555.5 1785.47,-272.85 2302.32,-216.85 2593.41,-209.36"/>
<polygon fill="#475569" stroke="#475569" points="2593.76,-212.86 2603.67,-209.12 2593.59,-205.86 2593.76,-212.86"/>
<polygon fill="white" stroke="transparent" points="1684.91,-555.5 1684.91,-654.5 1958.91,-654.5 1958.91,-555.5 1684.91,-555.5"/>
<text text-anchor="start" x="1688.91" y="-631.8" font-family="Arial" font-size="24.00" fill="#475569">Creates remote manifest</text>
<text text-anchor="start" x="1692.91" y="-607.8" font-family="Arial" font-size="24.00" fill="#475569">directories and relies on</text>
<text text-anchor="start" x="1728.41" y="-583.8" font-family="Arial" font-size="24.00" fill="#475569">NAS SSH access</text>
<text text-anchor="start" x="1796.91" y="-563.8" font-family="Arial" font-size="19.00" fill="#475569">[SSH]</text>
</g>
<!-- 4&#45;&gt;15 -->
<g id="41" class="edge">
<title>4&#45;&gt;15</title>
<path fill="none" stroke="#475569" stroke-dasharray="5,2" d="M964.75,-3110.11C1001.09,-3205.87 1060.29,-3330.82 1145,-3417.5 1260.7,-3535.9 1423.75,-3624.29 1560.72,-3683.85"/>
<polygon fill="#475569" stroke="#475569" points="1559.55,-3687.16 1570.12,-3687.91 1562.32,-3680.73 1559.55,-3687.16"/>
<polygon fill="white" stroke="transparent" points="1145,-3621.5 1145,-3696.5 1434,-3696.5 1434,-3621.5 1145,-3621.5"/>
<text text-anchor="start" x="1149.5" y="-3673.8" font-family="Arial" font-size="24.00" fill="#475569">Creates consistent SQLite</text>
<text text-anchor="start" x="1187.5" y="-3649.8" font-family="Arial" font-size="24.00" fill="#475569">backup copies with</text>
<text text-anchor="start" x="1235.5" y="-3629.8" font-family="Arial" font-size="19.00" fill="#475569">[subprocess]</text>
</g>
<!-- 4&#45;&gt;16 -->
<g id="48" class="edge">
<title>4&#45;&gt;16</title>
<path fill="none" stroke="#475569" stroke-dasharray="5,2" d="M1109.08,-2912.28C1121.21,-2908.88 1133.26,-2905.59 1145,-2902.5 1272.32,-2868.99 1314.36,-2892.45 1434,-2837.5 1492.72,-2810.53 1551.19,-2773.65 1604.23,-2735.29"/>
<polygon fill="#475569" stroke="#475569" points="1606.33,-2738.09 1612.36,-2729.37 1602.21,-2732.43 1606.33,-2738.09"/>
<polygon fill="white" stroke="transparent" points="1152.5,-2902.5 1152.5,-2977.5 1426.5,-2977.5 1426.5,-2902.5 1152.5,-2902.5"/>
<text text-anchor="start" x="1156.5" y="-2954.8" font-family="Arial" font-size="24.00" fill="#475569">Launches Windows sync</text>
<text text-anchor="start" x="1248" y="-2930.8" font-family="Arial" font-size="24.00" fill="#475569">through</text>
<text text-anchor="start" x="1166.5" y="-2910.8" font-family="Arial" font-size="19.00" fill="#475569">[PowerShell via WSL interop]</text>
</g>
<!-- 4&#45;&gt;17 -->
<g id="38" class="edge">
<title>4&#45;&gt;17</title>
<path fill="none" stroke="#475569" stroke-dasharray="5,2" d="M1061.36,-2830.76C1077.87,-2812.9 1094.11,-2794.54 1109,-2776.5 1287.86,-2559.8 1267.42,-2452.21 1470,-2257.5 1503.45,-2225.35 1542.18,-2195.25 1581.45,-2168.17"/>
<polygon fill="#475569" stroke="#475569" points="1583.55,-2170.98 1589.83,-2162.44 1579.6,-2165.2 1583.55,-2170.98"/>
<polygon fill="white" stroke="transparent" points="1169.5,-2725.5 1169.5,-2800.5 1409.5,-2800.5 1409.5,-2725.5 1169.5,-2725.5"/>
<text text-anchor="start" x="1173.5" y="-2777.8" font-family="Arial" font-size="24.00" fill="#475569">Runs pre/post budget</text>
<text text-anchor="start" x="1207" y="-2753.8" font-family="Arial" font-size="24.00" fill="#475569">checks through</text>
<text text-anchor="start" x="1235" y="-2733.8" font-family="Arial" font-size="19.00" fill="#475569">[subprocess]</text>
</g>
<!-- 4&#45;&gt;20 -->
<g id="54" class="edge">
<title>4&#45;&gt;20</title>
<path fill="none" stroke="#475569" stroke-dasharray="5,2" d="M1109.13,-2990.44C1226.69,-3002.84 1380.54,-3019.06 1515.11,-3033.25"/>
<polygon fill="#475569" stroke="#475569" points="1514.87,-3036.75 1525.18,-3034.32 1515.6,-3029.79 1514.87,-3036.75"/>
<polygon fill="white" stroke="transparent" points="1147.5,-3023.5 1147.5,-3083.5 1431.5,-3083.5 1431.5,-3023.5 1147.5,-3023.5"/>
<text text-anchor="start" x="1151.5" y="-3060.3" font-family="Arial" font-size="24.00" fill="#475569">Exits nonzero so systemd</text>
<text text-anchor="start" x="1198" y="-3034.3" font-family="Arial" font-size="24.00" fill="#475569">can alert through</text>
</g>
<!-- 4&#45;&gt;21 -->
<g id="37" class="edge">
<title>4&#45;&gt;21</title>
<path fill="none" stroke="#475569" stroke-dasharray="5,2" d="M1107.78,-3110.1C1209.53,-3177.64 1340.63,-3252.22 1470,-3290.5 1829.05,-3396.74 2266.18,-3378.92 2541.44,-3351.02"/>
<polygon fill="#475569" stroke="#475569" points="2541.98,-3354.48 2551.57,-3349.98 2541.26,-3347.52 2541.98,-3354.48"/>
<polygon fill="white" stroke="transparent" points="1684.91,-3371.5 1684.91,-3470.5 1958.91,-3470.5 1958.91,-3371.5 1684.91,-3371.5"/>
<text text-anchor="start" x="1758.41" y="-3447.8" font-family="Arial" font-size="24.00" fill="#475569">Writes logs,</text>
<text text-anchor="start" x="1688.91" y="-3423.8" font-family="Arial" font-size="24.00" fill="#475569">last&#45;run.json, run events,</text>
<text text-anchor="start" x="1698.91" y="-3399.8" font-family="Arial" font-size="24.00" fill="#475569">and exported history in</text>
<text text-anchor="start" x="1734.91" y="-3379.8" font-family="Arial" font-size="19.00" fill="#475569">[filesystem + sqlite3]</text>
</g>
</g>
</svg>
